<?xml version="1.0" encoding="UTF-8" standalone="no"?><!DOCTYPE svg PUBLIC "-//W3C//DTD SVG 1.1//EN" "http://www.w3.org/Graphics/SVG/1.1/DTD/svg11.dtd"><!-- Generated by graphviz version 2.49.3 (20211023.0002) --><!-- Title: pt Pages: 1 --><svg width="1667pt" height="692pt" viewBox="0.00 0.00 1666.87 692.00" xmlns="http://www.w3.org/2000/svg" xmlns:xlink="http://www.w3.org/1999/xlink"><g id="graph0" class="graph" transform="scale(1 1) rotate(0) translate(4 688)"><title>pt</title><polygon fill="white" stroke="transparent" points="-4,4 -4,-688 1662.87,-688 1662.87,4 -4,4"/><!-- 2594746200896 --><g id="node1" class="node"><title>2594746200896</title><ellipse fill="none" stroke="black" cx="599.76" cy="-666" rx="27" ry="18"/><text text-anchor="middle" x="599.76" y="-662.5" font-family="Times New Roman,serif" font-size="15.00">seq</text></g><!-- 2594746198976 --><g id="node2" class="node"><title>2594746198976</title><ellipse fill="none" stroke="black" cx="563.76" cy="-594" rx="27" ry="18"/><text text-anchor="middle" x="563.76" y="-590.5" font-family="Times New Roman,serif" font-size="15.00">xor</text></g><!-- 2594746200896&#45;&#45;2594746198976 --><g id="edge55" class="edge"><title>2594746200896&#45;&#45;2594746198976</title><path fill="none" stroke="black" d="M591.41,-648.76C585.59,-637.46 577.87,-622.44 572.06,-611.15"/></g><!-- 2594746200272 --><g id="node57" class="node"><title>2594746200272</title><ellipse fill="none" stroke="black" cx="635.76" cy="-594" rx="27" ry="18"/><text text-anchor="middle" x="635.76" y="-590.5" font-family="Times New Roman,serif" font-size="15.00">xor</text></g><!-- 2594746200896&#45;&#45;2594746200272 --><g id="edge58" class="edge"><title>2594746200896&#45;&#45;2594746200272</title><path fill="none" stroke="black" d="M608.11,-648.76C613.92,-637.46 621.65,-622.44 627.45,-611.15"/></g><!-- 2594746200560 --><g id="node3" class="node"><title>2594746200560</title><ellipse fill="black" stroke="black" cx="521.76" cy="-522" rx="2.7" ry="2.7"/></g><!-- 2594746198976&#45;&#45;2594746200560 --><g id="edge1" class="edge"><title>2594746198976&#45;&#45;2594746200560</title><path fill="none" stroke="black" d="M554.23,-577.12C543.58,-559.37 527.25,-532.16 522.87,-524.86"/></g><!-- 2594746198448 --><g id="node4" class="node"><title>2594746198448</title><ellipse fill="none" stroke="black" cx="569.76" cy="-522" rx="27" ry="18"/><text text-anchor="middle" x="569.76" y="-518.5" font-family="Times New Roman,serif" font-size="15.00">seq</text></g><!-- 2594746198976&#45;&#45;2594746198448 --><g id="edge54" class="edge"><title>2594746198976&#45;&#45;2594746198448</title><path fill="none" stroke="black" d="M565.24,-575.7C566.17,-564.85 567.37,-550.92 568.29,-540.1"/></g><!-- 2594746198400 --><g id="node5" class="node"><title>2594746198400</title><ellipse fill="none" stroke="black" cx="445.76" cy="-450" rx="27" ry="18"/><text text-anchor="middle" x="445.76" y="-446.5" font-family="Times New Roman,serif" font-size="15.00">seq</text></g><!-- 2594746198448&#45;&#45;2594746198400 --><g id="edge39" class="edge"><title>2594746198448&#45;&#45;2594746198400</title><path fill="none" stroke="black" d="M549.84,-509.75C526.7,-496.69 488.75,-475.27 465.63,-462.22"/></g><!-- 2594746200128 --><g id="node43" class="node"><title>2594746200128</title><ellipse fill="none" stroke="black" cx="760.76" cy="-450" rx="27" ry="18"/><text text-anchor="middle" x="760.76" y="-446.5" font-family="Times New Roman,serif" font-size="15.00">and</text></g><!-- 2594746198448&#45;&#45;2594746200128 --><g id="edge53" class="edge"><title>2594746198448&#45;&#45;2594746200128</title><path fill="none" stroke="black" d="M592.8,-512.56C629.51,-499.1 700.87,-472.95 737.64,-459.47"/></g><!-- 2594746204112 --><g id="node6" class="node"><title>2594746204112</title><ellipse fill="none" stroke="black" cx="301.76" cy="-378" rx="63.47" ry="18"/><text text-anchor="middle" x="301.76" y="-374.5" font-family="Times New Roman,serif" font-size="15.00">Distribuição</text></g><!-- 2594746198400&#45;&#45;2594746204112 --><g id="edge2" class="edge"><title>2594746198400&#45;&#45;2594746204112</title><path fill="none" stroke="black" d="M424.51,-438.67C400.18,-426.84 360.12,-407.37 332.41,-393.9"/></g><!-- 2594746200800 --><g id="node7" class="node"><title>2594746200800</title><ellipse fill="none" stroke="black" cx="409.76" cy="-378" rx="27" ry="18"/><text text-anchor="middle" x="409.76" y="-374.5" font-family="Times New Roman,serif" font-size="15.00">xor</text></g><!-- 2594746198400&#45;&#45;2594746200800 --><g id="edge10" class="edge"><title>2594746198400&#45;&#45;2594746200800</title><path fill="none" stroke="black" d="M437.41,-432.76C431.59,-421.46 423.87,-406.44 418.06,-395.15"/></g><!-- 2594746200464 --><g id="node15" class="node"><title>2594746200464</title><ellipse fill="none" stroke="black" cx="481.76" cy="-378" rx="27" ry="18"/><text text-anchor="middle" x="481.76" y="-374.5" font-family="Times New Roman,serif" font-size="15.00">xor</text></g><!-- 2594746198400&#45;&#45;2594746200464 --><g id="edge38" class="edge"><title>2594746198400&#45;&#45;2594746200464</title><path fill="none" stroke="black" d="M454.11,-432.76C459.92,-421.46 467.65,-406.44 473.45,-395.15"/></g><!-- 2594746203536 --><g id="node8" class="node"><title>2594746203536</title><ellipse fill="black" stroke="black" cx="361.76" cy="-306" rx="2.7" ry="2.7"/></g><!-- 2594746200800&#45;&#45;2594746203536 --><g id="edge3" class="edge"><title>2594746200800&#45;&#45;2594746203536</title><path fill="none" stroke="black" d="M398.87,-361.12C386.7,-343.37 368.04,-316.16 363.03,-308.86"/></g><!-- 2594746203440 --><g id="node9" class="node"><title>2594746203440</title><ellipse fill="none" stroke="black" cx="409.76" cy="-306" rx="27" ry="18"/><text text-anchor="middle" x="409.76" y="-302.5" font-family="Times New Roman,serif" font-size="15.00">xor</text></g><!-- 2594746200800&#45;&#45;2594746203440 --><g id="edge9" class="edge"><title>2594746200800&#45;&#45;2594746203440</title><path fill="none" stroke="black" d="M409.76,-359.7C409.76,-348.85 409.76,-334.92 409.76,-324.1"/></g><!-- 2594746611072 --><g id="node10" class="node"><title>2594746611072</title><ellipse fill="none" stroke="black" cx="100.76" cy="-234" rx="100.52" ry="18"/><text text-anchor="middle" x="100.76" y="-230.5" font-family="Times New Roman,serif" font-size="15.00">Antecipação de tutela</text></g><!-- 2594746203440&#45;&#45;2594746611072 --><g id="edge4" class="edge"><title>2594746203440&#45;&#45;2594746611072</title><path fill="none" stroke="black" d="M384.47,-299.27C335.9,-288.27 228.35,-263.9 160.51,-248.54"/></g><!-- 2594746607808 --><g id="node11" class="node"><title>2594746607808</title><ellipse fill="none" stroke="black" cx="290.76" cy="-234" rx="70.76" ry="18"/><text text-anchor="middle" x="290.76" y="-230.5" font-family="Times New Roman,serif" font-size="15.00">Incompetência</text></g><!-- 2594746203440&#45;&#45;2594746607808 --><g id="edge5" class="edge"><title>2594746203440&#45;&#45;2594746607808</title><path fill="none" stroke="black" d="M390.11,-293.44C370.3,-281.79 339.6,-263.73 317.57,-250.77"/></g><!-- 2594746613280 --><g id="node12" class="node"><title>2594746613280</title><ellipse fill="none" stroke="black" cx="425.76" cy="-234" rx="46.61" ry="18"/><text text-anchor="middle" x="425.76" y="-230.5" font-family="Times New Roman,serif" font-size="15.00">xor loop</text></g><!-- 2594746203440&#45;&#45;2594746613280 --><g id="edge8" class="edge"><title>2594746203440&#45;&#45;2594746613280</title><path fill="none" stroke="black" d="M413.63,-288.05C416.11,-277.21 419.32,-263.18 421.81,-252.28"/></g><!-- 2594746606416 --><g id="node13" class="node"><title>2594746606416</title><ellipse fill="none" stroke="black" cx="366.76" cy="-162" rx="43.56" ry="18"/><text text-anchor="middle" x="366.76" y="-158.5" font-family="Times New Roman,serif" font-size="15.00">Liminar</text></g><!-- 2594746613280&#45;&#45;2594746606416 --><g id="edge6" class="edge"><title>2594746613280&#45;&#45;2594746606416</title><path fill="none" stroke="black" d="M412.07,-216.76C402.54,-205.46 389.88,-190.44 380.37,-179.15"/></g><!-- 2594746606992 --><g id="node14" class="node"><title>2594746606992</title><ellipse fill="black" stroke="black" cx="430.76" cy="-162" rx="2.7" ry="2.7"/></g><!-- 2594746613280&#45;&#45;2594746606992 --><g id="edge7" class="edge"><title>2594746613280&#45;&#45;2594746606992</title><path fill="none" stroke="black" d="M426.99,-215.7C428.27,-197.88 430.13,-171.77 430.63,-164.78"/></g><!-- 2594746607616 --><g id="node16" class="node"><title>2594746607616</title><ellipse fill="black" stroke="black" cx="469.76" cy="-306" rx="2.7" ry="2.7"/></g><!-- 2594746200464&#45;&#45;2594746607616 --><g id="edge11" class="edge"><title>2594746200464&#45;&#45;2594746607616</title><path fill="none" stroke="black" d="M478.85,-360.05C475.8,-342.25 471.28,-315.87 470.07,-308.8"/></g><!-- 2594746606368 --><g id="node17" class="node"><title>2594746606368</title><ellipse fill="none" stroke="black" cx="517.76" cy="-306" rx="27" ry="18"/><text text-anchor="middle" x="517.76" y="-302.5" font-family="Times New Roman,serif" font-size="15.00">seq</text></g><!-- 2594746200464&#45;&#45;2594746606368 --><g id="edge37" class="edge"><title>2594746200464&#45;&#45;2594746606368</title><path fill="none" stroke="black" d="M490.11,-360.76C495.92,-349.46 503.65,-334.44 509.45,-323.15"/></g><!-- 2594746607472 --><g id="node18" class="node"><title>2594746607472</title><ellipse fill="none" stroke="black" cx="517.76" cy="-234" rx="27" ry="18"/><text text-anchor="middle" x="517.76" y="-230.5" font-family="Times New Roman,serif" font-size="15.00">xor</text></g><!-- 2594746606368&#45;&#45;2594746607472 --><g id="edge27" class="edge"><title>2594746606368&#45;&#45;2594746607472</title><path fill="none" stroke="black" d="M517.76,-287.7C517.76,-276.85 517.76,-262.92 517.76,-252.1"/></g><!-- 2594746607136 --><g id="node34" class="node"><title>2594746607136</title><ellipse fill="none" stroke="black" cx="849.76" cy="-234" rx="27" ry="18"/><text text-anchor="middle" x="849.76" y="-230.5" font-family="Times New Roman,serif" font-size="15.00">xor</text></g><!-- 2594746606368&#45;&#45;2594746607136 --><g id="edge36" class="edge"><title>2594746606368&#45;&#45;2594746607136</title><path fill="none" stroke="black" d="M543.26,-299.62C605.06,-286.59 762.28,-253.44 824.17,-240.39"/></g><!-- 2594746607184 --><g id="node19" class="node"><title>2594746607184</title><ellipse fill="black" stroke="black" cx="463.76" cy="-162" rx="2.7" ry="2.7"/></g><!-- 2594746607472&#45;&#45;2594746607184 --><g id="edge12" class="edge"><title>2594746607472&#45;&#45;2594746607184</title><path fill="none" stroke="black" d="M505.77,-217.46C491.85,-199.42 470.13,-171.25 464.91,-164.49"/></g><!-- 2594746605456 --><g id="node20" class="node"><title>2594746605456</title><ellipse fill="none" stroke="black" cx="511.76" cy="-162" rx="27" ry="18"/><text text-anchor="middle" x="511.76" y="-158.5" font-family="Times New Roman,serif" font-size="15.00">and</text></g><!-- 2594746607472&#45;&#45;2594746605456 --><g id="edge19" class="edge"><title>2594746607472&#45;&#45;2594746605456</title><path fill="none" stroke="black" d="M516.27,-215.7C515.34,-204.85 514.15,-190.92 513.22,-180.1"/></g><!-- 2594746606944 --><g id="node27" class="node"><title>2594746606944</title><ellipse fill="none" stroke="black" cx="603.76" cy="-162" rx="27" ry="18"/><text text-anchor="middle" x="603.76" y="-158.5" font-family="Times New Roman,serif" font-size="15.00">and</text></g><!-- 2594746607472&#45;&#45;2594746606944 --><g id="edge26" class="edge"><title>2594746607472&#45;&#45;2594746606944</title><path fill="none" stroke="black" d="M534.34,-219.5C549.57,-207.11 572.01,-188.84 587.23,-176.46"/></g><!-- 2594746605408 --><g id="node21" class="node"><title>2594746605408</title><ellipse fill="none" stroke="black" cx="338.76" cy="-90" rx="46.61" ry="18"/><text text-anchor="middle" x="338.76" y="-86.5" font-family="Times New Roman,serif" font-size="15.00">xor loop</text></g><!-- 2594746605456&#45;&#45;2594746605408 --><g id="edge15" class="edge"><title>2594746605456&#45;&#45;2594746605408</title><path fill="none" stroke="black" d="M489.14,-151.85C458.64,-139.51 404.2,-117.48 369.86,-103.59"/></g><!-- 2594746606560 --><g id="node24" class="node"><title>2594746606560</title><ellipse fill="none" stroke="black" cx="492.76" cy="-90" rx="46.61" ry="18"/><text text-anchor="middle" x="492.76" y="-86.5" font-family="Times New Roman,serif" font-size="15.00">xor loop</text></g><!-- 2594746605456&#45;&#45;2594746606560 --><g id="edge18" class="edge"><title>2594746605456&#45;&#45;2594746606560</title><path fill="none" stroke="black" d="M507.16,-144.05C504.22,-133.21 500.41,-119.18 497.45,-108.28"/></g><!-- 2594746604496 --><g id="node22" class="node"><title>2594746604496</title><ellipse fill="none" stroke="black" cx="269.76" cy="-18" rx="47.89" ry="18"/><text text-anchor="middle" x="269.76" y="-14.5" font-family="Times New Roman,serif" font-size="15.00">Remessa</text></g><!-- 2594746605408&#45;&#45;2594746604496 --><g id="edge13" class="edge"><title>2594746605408&#45;&#45;2594746604496</title><path fill="none" stroke="black" d="M322.75,-72.76C311.61,-61.46 296.8,-46.44 285.67,-35.15"/></g><!-- 2594746338320 --><g id="node23" class="node"><title>2594746338320</title><ellipse fill="black" stroke="black" cx="338.76" cy="-18" rx="2.7" ry="2.7"/></g><!-- 2594746605408&#45;&#45;2594746338320 --><g id="edge14" class="edge"><title>2594746605408&#45;&#45;2594746338320</title><path fill="none" stroke="black" d="M338.76,-71.7C338.76,-53.88 338.76,-27.77 338.76,-20.78"/></g><!-- 2594746605360 --><g id="node25" class="node"><title>2594746605360</title><ellipse fill="none" stroke="black" cx="416.76" cy="-18" rx="57.85" ry="18"/><text text-anchor="middle" x="416.76" y="-14.5" font-family="Times New Roman,serif" font-size="15.00">Documento</text></g><!-- 2594746606560&#45;&#45;2594746605360 --><g id="edge16" class="edge"><title>2594746606560&#45;&#45;2594746605360</title><path fill="none" stroke="black" d="M475.51,-73.12C463.25,-61.82 446.83,-46.7 434.46,-35.31"/></g><!-- 2594746606320 --><g id="node26" class="node"><title>2594746606320</title><ellipse fill="black" stroke="black" cx="494.76" cy="-18" rx="2.7" ry="2.7"/></g><!-- 2594746606560&#45;&#45;2594746606320 --><g id="edge17" class="edge"><title>2594746606560&#45;&#45;2594746606320</title><path fill="none" stroke="black" d="M493.25,-71.7C493.76,-53.88 494.51,-27.77 494.71,-20.78"/></g><!-- 2594746606704 --><g id="node28" class="node"><title>2594746606704</title><ellipse fill="none" stroke="black" cx="603.76" cy="-90" rx="46.61" ry="18"/><text text-anchor="middle" x="603.76" y="-86.5" font-family="Times New Roman,serif" font-size="15.00">xor loop</text></g><!-- 2594746606944&#45;&#45;2594746606704 --><g id="edge22" class="edge"><title>2594746606944&#45;&#45;2594746606704</title><path fill="none" stroke="black" d="M603.76,-143.7C603.76,-132.85 603.76,-118.92 603.76,-108.1"/></g><!-- 2594746605648 --><g id="node31" class="node"><title>2594746605648</title><ellipse fill="none" stroke="black" cx="714.76" cy="-90" rx="46.61" ry="18"/><text text-anchor="middle" x="714.76" y="-86.5" font-family="Times New Roman,serif" font-size="15.00">xor loop</text></g><!-- 2594746606944&#45;&#45;2594746605648 --><g id="edge25" class="edge"><title>2594746606944&#45;&#45;2594746605648</title><path fill="none" stroke="black" d="M622.84,-148.97C641.81,-137.01 670.94,-118.64 691.3,-105.79"/></g><!-- 2594746605024 --><g id="node29" class="node"><title>2594746605024</title><ellipse fill="none" stroke="black" cx="568.76" cy="-18" rx="53.51" ry="18"/><text text-anchor="middle" x="568.76" y="-14.5" font-family="Times New Roman,serif" font-size="15.00">Audiência</text></g><!-- 2594746606704&#45;&#45;2594746605024 --><g id="edge20" class="edge"><title>2594746606704&#45;&#45;2594746605024</title><path fill="none" stroke="black" d="M595.29,-72.05C589.78,-61.05 582.64,-46.76 577.15,-35.79"/></g><!-- 2594746607712 --><g id="node30" class="node"><title>2594746607712</title><ellipse fill="black" stroke="black" cx="642.76" cy="-18" rx="2.7" ry="2.7"/></g><!-- 2594746606704&#45;&#45;2594746607712 --><g id="edge21" class="edge"><title>2594746606704&#45;&#45;2594746607712</title><path fill="none" stroke="black" d="M613.2,-72.05C623.12,-54.25 637.82,-27.87 641.76,-20.8"/></g><!-- 2594746605312 --><g id="node32" class="node"><title>2594746605312</title><ellipse fill="none" stroke="black" cx="713.76" cy="-18" rx="50.06" ry="18"/><text text-anchor="middle" x="713.76" y="-14.5" font-family="Times New Roman,serif" font-size="15.00">Mandado</text></g><!-- 2594746605648&#45;&#45;2594746605312 --><g id="edge23" class="edge"><title>2594746605648&#45;&#45;2594746605312</title><path fill="none" stroke="black" d="M714.51,-71.7C714.36,-60.85 714.16,-46.92 714,-36.1"/></g><!-- 2594746606032 --><g id="node33" class="node"><title>2594746606032</title><ellipse fill="black" stroke="black" cx="784.76" cy="-18" rx="2.7" ry="2.7"/></g><!-- 2594746605648&#45;&#45;2594746606032 --><g id="edge24" class="edge"><title>2594746605648&#45;&#45;2594746606032</title><path fill="none" stroke="black" d="M730.99,-72.76C749.09,-54.67 776.68,-27.08 783.3,-20.46"/></g><!-- 2594746605264 --><g id="node35" class="node"><title>2594746605264</title><ellipse fill="black" stroke="black" cx="849.76" cy="-162" rx="2.7" ry="2.7"/></g><!-- 2594746607136&#45;&#45;2594746605264 --><g id="edge28" class="edge"><title>2594746607136&#45;&#45;2594746605264</title><path fill="none" stroke="black" d="M849.76,-215.7C849.76,-197.88 849.76,-171.77 849.76,-164.78"/></g><!-- 2594746604016 --><g id="node36" class="node"><title>2594746604016</title><ellipse fill="none" stroke="black" cx="920.76" cy="-162" rx="27" ry="18"/><text text-anchor="middle" x="920.76" y="-158.5" font-family="Times New Roman,serif" font-size="15.00">seq</text></g><!-- 2594746607136&#45;&#45;2594746604016 --><g id="edge35" class="edge"><title>2594746607136&#45;&#45;2594746604016</title><path fill="none" stroke="black" d="M864.47,-218.5C876.65,-206.48 893.89,-189.49 906.07,-177.49"/></g><!-- 2594746338080 --><g id="node37" class="node"><title>2594746338080</title><ellipse fill="none" stroke="black" cx="920.76" cy="-90" rx="46.61" ry="18"/><text text-anchor="middle" x="920.76" y="-86.5" font-family="Times New Roman,serif" font-size="15.00">xor loop</text></g><!-- 2594746604016&#45;&#45;2594746338080 --><g id="edge31" class="edge"><title>2594746604016&#45;&#45;2594746338080</title><path fill="none" stroke="black" d="M920.76,-143.7C920.76,-132.85 920.76,-118.92 920.76,-108.1"/></g><!-- 2594746338176 --><g id="node40" class="node"><title>2594746338176</title><ellipse fill="none" stroke="black" cx="1181.76" cy="-90" rx="27" ry="18"/><text text-anchor="middle" x="1181.76" y="-86.5" font-family="Times New Roman,serif" font-size="15.00">xor</text></g><!-- 2594746604016&#45;&#45;2594746338176 --><g id="edge34" class="edge"><title>2594746604016&#45;&#45;2594746338176</title><path fill="none" stroke="black" d="M945.31,-154.41C995.06,-141.07 1107.23,-110.99 1157.08,-97.62"/></g><!-- 2594746337888 --><g id="node38" class="node"><title>2594746337888</title><ellipse fill="none" stroke="black" cx="877.76" cy="-18" rx="72.04" ry="18"/><text text-anchor="middle" x="877.76" y="-14.5" font-family="Times New Roman,serif" font-size="15.00">Redistribuição</text></g><!-- 2594746338080&#45;&#45;2594746337888 --><g id="edge29" class="edge"><title>2594746338080&#45;&#45;2594746337888</title><path fill="none" stroke="black" d="M910.57,-72.41C903.81,-61.41 894.97,-47.03 888.17,-35.96"/></g><!-- 2594746337312 --><g id="node39" class="node"><title>2594746337312</title><ellipse fill="black" stroke="black" cx="970.76" cy="-18" rx="2.7" ry="2.7"/></g><!-- 2594746338080&#45;&#45;2594746337312 --><g id="edge30" class="edge"><title>2594746338080&#45;&#45;2594746337312</title><path fill="none" stroke="black" d="M932.61,-72.41C945.31,-54.62 964.36,-27.96 969.46,-20.82"/></g><!-- 2594746337504 --><g id="node41" class="node"><title>2594746337504</title><ellipse fill="none" stroke="black" cx="1181.76" cy="-18" rx="190.3" ry="18"/><text text-anchor="middle" x="1181.76" y="-14.5" font-family="Times New Roman,serif" font-size="15.00">Perempção, litispendência ou coisa julgada</text></g><!-- 2594746338176&#45;&#45;2594746337504 --><g id="edge32" class="edge"><title>2594746338176&#45;&#45;2594746337504</title><path fill="none" stroke="black" d="M1181.76,-71.7C1181.76,-60.85 1181.76,-46.92 1181.76,-36.1"/></g><!-- 2594746337264 --><g id="node42" class="node"><title>2594746337264</title><ellipse fill="none" stroke="black" cx="1524.76" cy="-18" rx="134.22" ry="18"/><text text-anchor="middle" x="1524.76" y="-14.5" font-family="Times New Roman,serif" font-size="15.00">Cancelamento da distribuição</text></g><!-- 2594746338176&#45;&#45;2594746337264 --><g id="edge33" class="edge"><title>2594746338176&#45;&#45;2594746337264</title><path fill="none" stroke="black" d="M1207.26,-83.8C1258.96,-73.24 1377.71,-49.01 1454.43,-33.35"/></g><!-- 2594746607856 --><g id="node44" class="node"><title>2594746607856</title><ellipse fill="none" stroke="black" cx="693.76" cy="-378" rx="46.61" ry="18"/><text text-anchor="middle" x="693.76" y="-374.5" font-family="Times New Roman,serif" font-size="15.00">xor loop</text></g><!-- 2594746200128&#45;&#45;2594746607856 --><g id="edge42" class="edge"><title>2594746200128&#45;&#45;2594746607856</title><path fill="none" stroke="black" d="M746.88,-434.5C735.91,-423.04 720.62,-407.07 709.26,-395.2"/></g><!-- 2594746608048 --><g id="node47" class="node"><title>2594746608048</title><ellipse fill="none" stroke="black" cx="828.76" cy="-378" rx="46.61" ry="18"/><text text-anchor="middle" x="828.76" y="-374.5" font-family="Times New Roman,serif" font-size="15.00">xor loop</text></g><!-- 2594746200128&#45;&#45;2594746608048 --><g id="edge45" class="edge"><title>2594746200128&#45;&#45;2594746608048</title><path fill="none" stroke="black" d="M774.85,-434.5C785.97,-423.04 801.49,-407.07 813.02,-395.2"/></g><!-- 2594746337984 --><g id="node50" class="node"><title>2594746337984</title><ellipse fill="none" stroke="black" cx="1030.76" cy="-378" rx="27" ry="18"/><text text-anchor="middle" x="1030.76" y="-374.5" font-family="Times New Roman,serif" font-size="15.00">and</text></g><!-- 2594746200128&#45;&#45;2594746337984 --><g id="edge52" class="edge"><title>2594746200128&#45;&#45;2594746337984</title><path fill="none" stroke="black" d="M785.67,-442.54C837.11,-429.2 954.52,-398.77 1005.9,-385.44"/></g><!-- 2594746337408 --><g id="node45" class="node"><title>2594746337408</title><ellipse fill="none" stroke="black" cx="617.76" cy="-306" rx="54.79" ry="18"/><text text-anchor="middle" x="617.76" y="-302.5" font-family="Times New Roman,serif" font-size="15.00">Conclusão</text></g><!-- 2594746607856&#45;&#45;2594746337408 --><g id="edge40" class="edge"><title>2594746607856&#45;&#45;2594746337408</title><path fill="none" stroke="black" d="M676.51,-361.12C664.25,-349.82 647.83,-334.7 635.46,-323.31"/></g><!-- 2594746336640 --><g id="node46" class="node"><title>2594746336640</title><ellipse fill="black" stroke="black" cx="693.76" cy="-306" rx="2.7" ry="2.7"/></g><!-- 2594746607856&#45;&#45;2594746336640 --><g id="edge41" class="edge"><title>2594746607856&#45;&#45;2594746336640</title><path fill="none" stroke="black" d="M693.76,-359.7C693.76,-341.88 693.76,-315.77 693.76,-308.78"/></g><!-- 2594746607904 --><g id="node48" class="node"><title>2594746607904</title><ellipse fill="none" stroke="black" cx="828.76" cy="-306" rx="114.81" ry="18"/><text text-anchor="middle" x="828.76" y="-302.5" font-family="Times New Roman,serif" font-size="15.00">Expedição de documento</text></g><!-- 2594746608048&#45;&#45;2594746607904 --><g id="edge43" class="edge"><title>2594746608048&#45;&#45;2594746607904</title><path fill="none" stroke="black" d="M828.76,-359.7C828.76,-348.85 828.76,-334.92 828.76,-324.1"/></g><!-- 2594746337792 --><g id="node49" class="node"><title>2594746337792</title><ellipse fill="black" stroke="black" cx="963.76" cy="-306" rx="2.7" ry="2.7"/></g><!-- 2594746608048&#45;&#45;2594746337792 --><g id="edge44" class="edge"><title>2594746608048&#45;&#45;2594746337792</title><path fill="none" stroke="black" d="M855.43,-363.17C890.78,-344.84 950.05,-314.11 961.73,-308.05"/></g><!-- 2594746336592 --><g id="node51" class="node"><title>2594746336592</title><ellipse fill="none" stroke="black" cx="1030.76" cy="-306" rx="46.61" ry="18"/><text text-anchor="middle" x="1030.76" y="-302.5" font-family="Times New Roman,serif" font-size="15.00">xor loop</text></g><!-- 2594746337984&#45;&#45;2594746336592 --><g id="edge48" class="edge"><title>2594746337984&#45;&#45;2594746336592</title><path fill="none" stroke="black" d="M1030.76,-359.7C1030.76,-348.85 1030.76,-334.92 1030.76,-324.1"/></g><!-- 2594746336736 --><g id="node54" class="node"><title>2594746336736</title><ellipse fill="none" stroke="black" cx="1141.76" cy="-306" rx="46.61" ry="18"/><text text-anchor="middle" x="1141.76" y="-302.5" font-family="Times New Roman,serif" font-size="15.00">xor loop</text></g><!-- 2594746337984&#45;&#45;2594746336736 --><g id="edge51" class="edge"><title>2594746337984&#45;&#45;2594746336736</title><path fill="none" stroke="black" d="M1049.84,-364.97C1068.81,-353.01 1097.94,-334.64 1118.3,-321.79"/></g><!-- 2594746335344 --><g id="node52" class="node"><title>2594746335344</title><ellipse fill="none" stroke="black" cx="970.76" cy="-234" rx="42.28" ry="18"/><text text-anchor="middle" x="970.76" y="-230.5" font-family="Times New Roman,serif" font-size="15.00">Petição</text></g><!-- 2594746336592&#45;&#45;2594746335344 --><g id="edge46" class="edge"><title>2594746336592&#45;&#45;2594746335344</title><path fill="none" stroke="black" d="M1016.84,-288.76C1007.15,-277.46 994.28,-262.44 984.6,-251.15"/></g><!-- 2594746336112 --><g id="node53" class="node"><title>2594746336112</title><ellipse fill="black" stroke="black" cx="1033.76" cy="-234" rx="2.7" ry="2.7"/></g><!-- 2594746336592&#45;&#45;2594746336112 --><g id="edge47" class="edge"><title>2594746336592&#45;&#45;2594746336112</title><path fill="none" stroke="black" d="M1031.5,-287.7C1032.26,-269.88 1033.38,-243.77 1033.68,-236.78"/></g><!-- 2594746336304 --><g id="node55" class="node"><title>2594746336304</title><ellipse fill="none" stroke="black" cx="1139.76" cy="-234" rx="80.71" ry="18"/><text text-anchor="middle" x="1139.76" y="-230.5" font-family="Times New Roman,serif" font-size="15.00">Mero expediente</text></g><!-- 2594746336736&#45;&#45;2594746336304 --><g id="edge49" class="edge"><title>2594746336736&#45;&#45;2594746336304</title><path fill="none" stroke="black" d="M1141.26,-287.7C1140.95,-276.85 1140.56,-262.92 1140.25,-252.1"/></g><!-- 2594746336016 --><g id="node56" class="node"><title>2594746336016</title><ellipse fill="black" stroke="black" cx="1240.76" cy="-234" rx="2.7" ry="2.7"/></g><!-- 2594746336736&#45;&#45;2594746336016 --><g id="edge50" class="edge"><title>2594746336736&#45;&#45;2594746336016</title><path fill="none" stroke="black" d="M1163.24,-289.81C1189.17,-271.48 1230.4,-242.32 1239.11,-236.17"/></g><!-- 2594746201808 --><g id="node58" class="node"><title>2594746201808</title><ellipse fill="black" stroke="black" cx="629.76" cy="-522" rx="2.7" ry="2.7"/></g><!-- 2594746200272&#45;&#45;2594746201808 --><g id="edge56" class="edge"><title>2594746200272&#45;&#45;2594746201808</title><path fill="none" stroke="black" d="M634.27,-575.7C632.75,-557.88 630.51,-531.77 629.91,-524.78"/></g><!-- 2594746336832 --><g id="node59" class="node"><title>2594746336832</title><ellipse fill="none" stroke="black" cx="712.76" cy="-522" rx="61.69" ry="18"/><text text-anchor="middle" x="712.76" y="-518.5" font-family="Times New Roman,serif" font-size="15.00">Força maior</text></g><!-- 2594746200272&#45;&#45;2594746336832 --><g id="edge57" class="edge"><title>2594746200272&#45;&#45;2594746336832</title><path fill="none" stroke="black" d="M651.34,-578.83C663.91,-567.41 681.6,-551.33 694.77,-539.35"/></g></g></svg>