<?xml version="1.0" encoding="UTF-8" standalone="no"?><!DOCTYPE svg PUBLIC "-//W3C//DTD SVG 1.1//EN" "http://www.w3.org/Graphics/SVG/1.1/DTD/svg11.dtd"><!-- Generated by graphviz version 2.49.3 (20211023.0002) --><!-- Title: pt Pages: 1 --><svg width="918pt" height="764pt" viewBox="0.00 0.00 917.50 764.00" xmlns="http://www.w3.org/2000/svg" xmlns:xlink="http://www.w3.org/1999/xlink"><g id="graph0" class="graph" transform="scale(1 1) rotate(0) translate(4 760)"><title>pt</title><polygon fill="white" stroke="transparent" points="-4,4 -4,-760 913.5,-760 913.5,4 -4,4"/><!-- 2763664439280 --><g id="node1" class="node"><title>2763664439280</title><ellipse fill="none" stroke="black" cx="386.95" cy="-738" rx="27" ry="18"/><text text-anchor="middle" x="386.95" y="-734.5" font-family="Times New Roman,serif" font-size="15.00">xor</text></g><!-- 2763664438224 --><g id="node2" class="node"><title>2763664438224</title><ellipse fill="black" stroke="black" cx="362.95" cy="-666" rx="2.7" ry="2.7"/></g><!-- 2763664439280&#45;&#45;2763664438224 --><g id="edge1" class="edge"><title>2763664439280&#45;&#45;2763664438224</title><path fill="none" stroke="black" d="M381.14,-720.05C375.03,-702.25 365.99,-675.87 363.56,-668.8"/></g><!-- 2763664437408 --><g id="node3" class="node"><title>2763664437408</title><ellipse fill="none" stroke="black" cx="410.95" cy="-666" rx="27" ry="18"/><text text-anchor="middle" x="410.95" y="-662.5" font-family="Times New Roman,serif" font-size="15.00">seq</text></g><!-- 2763664439280&#45;&#45;2763664437408 --><g id="edge50" class="edge"><title>2763664439280&#45;&#45;2763664437408</title><path fill="none" stroke="black" d="M392.76,-720.05C396.53,-709.05 401.43,-694.76 405.19,-683.79"/></g><!-- 2763664558592 --><g id="node4" class="node"><title>2763664558592</title><ellipse fill="none" stroke="black" cx="335.95" cy="-594" rx="27" ry="18"/><text text-anchor="middle" x="335.95" y="-590.5" font-family="Times New Roman,serif" font-size="15.00">seq</text></g><!-- 2763664437408&#45;&#45;2763664558592 --><g id="edge35" class="edge"><title>2763664437408&#45;&#45;2763664558592</title><path fill="none" stroke="black" d="M395.77,-650.83C382.76,-638.69 364.11,-621.28 351.1,-609.14"/></g><!-- 2763664559648 --><g id="node38" class="node"><title>2763664559648</title><ellipse fill="none" stroke="black" cx="552.95" cy="-594" rx="27" ry="18"/><text text-anchor="middle" x="552.95" y="-590.5" font-family="Times New Roman,serif" font-size="15.00">and</text></g><!-- 2763664437408&#45;&#45;2763664559648 --><g id="edge49" class="edge"><title>2763664437408&#45;&#45;2763664559648</title><path fill="none" stroke="black" d="M432.21,-654.52C458.98,-641.32 504.7,-618.78 531.54,-605.55"/></g><!-- 2763664558928 --><g id="node5" class="node"><title>2763664558928</title><ellipse fill="none" stroke="black" cx="227.95" cy="-522" rx="63.47" ry="18"/><text text-anchor="middle" x="227.95" y="-518.5" font-family="Times New Roman,serif" font-size="15.00">Distribuição</text></g><!-- 2763664558592&#45;&#45;2763664558928 --><g id="edge2" class="edge"><title>2763664558592&#45;&#45;2763664558928</title><path fill="none" stroke="black" d="M317.13,-580.81C299.13,-569.13 271.87,-551.47 252.23,-538.74"/></g><!-- 2763664557824 --><g id="node6" class="node"><title>2763664557824</title><ellipse fill="none" stroke="black" cx="335.95" cy="-522" rx="27" ry="18"/><text text-anchor="middle" x="335.95" y="-518.5" font-family="Times New Roman,serif" font-size="15.00">xor</text></g><!-- 2763664558592&#45;&#45;2763664557824 --><g id="edge34" class="edge"><title>2763664558592&#45;&#45;2763664557824</title><path fill="none" stroke="black" d="M335.95,-575.7C335.95,-564.85 335.95,-550.92 335.95,-540.1"/></g><!-- 2763664563728 --><g id="node7" class="node"><title>2763664563728</title><ellipse fill="black" stroke="black" cx="287.95" cy="-450" rx="2.7" ry="2.7"/></g><!-- 2763664557824&#45;&#45;2763664563728 --><g id="edge3" class="edge"><title>2763664557824&#45;&#45;2763664563728</title><path fill="none" stroke="black" d="M325.05,-505.12C312.88,-487.37 294.23,-460.16 289.22,-452.86"/></g><!-- 2763664565648 --><g id="node8" class="node"><title>2763664565648</title><ellipse fill="none" stroke="black" cx="335.95" cy="-450" rx="27" ry="18"/><text text-anchor="middle" x="335.95" y="-446.5" font-family="Times New Roman,serif" font-size="15.00">seq</text></g><!-- 2763664557824&#45;&#45;2763664565648 --><g id="edge33" class="edge"><title>2763664557824&#45;&#45;2763664565648</title><path fill="none" stroke="black" d="M335.95,-503.7C335.95,-492.85 335.95,-478.92 335.95,-468.1"/></g><!-- 2763664558976 --><g id="node9" class="node"><title>2763664558976</title><ellipse fill="none" stroke="black" cx="284.95" cy="-378" rx="27" ry="18"/><text text-anchor="middle" x="284.95" y="-374.5" font-family="Times New Roman,serif" font-size="15.00">xor</text></g><!-- 2763664565648&#45;&#45;2763664558976 --><g id="edge29" class="edge"><title>2763664565648&#45;&#45;2763664558976</title><path fill="none" stroke="black" d="M324.63,-433.46C316.18,-421.86 304.68,-406.08 296.23,-394.49"/></g><!-- 2763664566704 --><g id="node35" class="node"><title>2763664566704</title><ellipse fill="none" stroke="black" cx="385.95" cy="-378" rx="27" ry="18"/><text text-anchor="middle" x="385.95" y="-374.5" font-family="Times New Roman,serif" font-size="15.00">xor</text></g><!-- 2763664565648&#45;&#45;2763664566704 --><g id="edge32" class="edge"><title>2763664565648&#45;&#45;2763664566704</title><path fill="none" stroke="black" d="M347.04,-433.46C355.33,-421.86 366.6,-406.08 374.88,-394.49"/></g><!-- 2763664560128 --><g id="node10" class="node"><title>2763664560128</title><ellipse fill="black" stroke="black" cx="207.95" cy="-306" rx="2.7" ry="2.7"/></g><!-- 2763664558976&#45;&#45;2763664560128 --><g id="edge4" class="edge"><title>2763664558976&#45;&#45;2763664560128</title><path fill="none" stroke="black" d="M269.36,-362.83C249.68,-344.94 217.42,-315.61 209.66,-308.56"/></g><!-- 2763664563104 --><g id="node11" class="node"><title>2763664563104</title><ellipse fill="none" stroke="black" cx="255.95" cy="-306" rx="27" ry="18"/><text text-anchor="middle" x="255.95" y="-302.5" font-family="Times New Roman,serif" font-size="15.00">and</text></g><!-- 2763664558976&#45;&#45;2763664563104 --><g id="edge11" class="edge"><title>2763664558976&#45;&#45;2763664563104</title><path fill="none" stroke="black" d="M278.07,-360.41C273.45,-349.25 267.38,-334.6 262.77,-323.47"/></g><!-- 2763664560368 --><g id="node18" class="node"><title>2763664560368</title><ellipse fill="none" stroke="black" cx="337.95" cy="-306" rx="27" ry="18"/><text text-anchor="middle" x="337.95" y="-302.5" font-family="Times New Roman,serif" font-size="15.00">seq</text></g><!-- 2763664558976&#45;&#45;2763664560368 --><g id="edge28" class="edge"><title>2763664558976&#45;&#45;2763664560368</title><path fill="none" stroke="black" d="M296.71,-361.46C305.49,-349.86 317.44,-334.08 326.22,-322.49"/></g><!-- 2763664568720 --><g id="node12" class="node"><title>2763664568720</title><ellipse fill="none" stroke="black" cx="116.95" cy="-234" rx="46.61" ry="18"/><text text-anchor="middle" x="116.95" y="-230.5" font-family="Times New Roman,serif" font-size="15.00">xor loop</text></g><!-- 2763664563104&#45;&#45;2763664568720 --><g id="edge7" class="edge"><title>2763664563104&#45;&#45;2763664568720</title><path fill="none" stroke="black" d="M235.14,-294.52C210.9,-282.32 170.79,-262.12 144.12,-248.68"/></g><!-- 2763664570112 --><g id="node15" class="node"><title>2763664570112</title><ellipse fill="none" stroke="black" cx="250.95" cy="-234" rx="46.61" ry="18"/><text text-anchor="middle" x="250.95" y="-230.5" font-family="Times New Roman,serif" font-size="15.00">xor loop</text></g><!-- 2763664563104&#45;&#45;2763664570112 --><g id="edge10" class="edge"><title>2763664563104&#45;&#45;2763664570112</title><path fill="none" stroke="black" d="M254.71,-287.7C253.94,-276.85 252.94,-262.92 252.17,-252.1"/></g><!-- 2763664569344 --><g id="node13" class="node"><title>2763664569344</title><ellipse fill="none" stroke="black" cx="47.95" cy="-162" rx="47.89" ry="18"/><text text-anchor="middle" x="47.95" y="-158.5" font-family="Times New Roman,serif" font-size="15.00">Remessa</text></g><!-- 2763664568720&#45;&#45;2763664569344 --><g id="edge5" class="edge"><title>2763664568720&#45;&#45;2763664569344</title><path fill="none" stroke="black" d="M100.94,-216.76C89.8,-205.46 74.99,-190.44 63.86,-179.15"/></g><!-- 2763664569728 --><g id="node14" class="node"><title>2763664569728</title><ellipse fill="black" stroke="black" cx="116.95" cy="-162" rx="2.7" ry="2.7"/></g><!-- 2763664568720&#45;&#45;2763664569728 --><g id="edge6" class="edge"><title>2763664568720&#45;&#45;2763664569728</title><path fill="none" stroke="black" d="M116.95,-215.7C116.95,-197.88 116.95,-171.77 116.95,-164.78"/></g><!-- 2763664568768 --><g id="node16" class="node"><title>2763664568768</title><ellipse fill="none" stroke="black" cx="194.95" cy="-162" rx="57.85" ry="18"/><text text-anchor="middle" x="194.95" y="-158.5" font-family="Times New Roman,serif" font-size="15.00">Documento</text></g><!-- 2763664570112&#45;&#45;2763664568768 --><g id="edge8" class="edge"><title>2763664570112&#45;&#45;2763664568768</title><path fill="none" stroke="black" d="M237.68,-216.41C228.88,-205.41 217.37,-191.03 208.51,-179.96"/></g><!-- 2763664568912 --><g id="node17" class="node"><title>2763664568912</title><ellipse fill="black" stroke="black" cx="272.95" cy="-162" rx="2.7" ry="2.7"/></g><!-- 2763664570112&#45;&#45;2763664568912 --><g id="edge9" class="edge"><title>2763664570112&#45;&#45;2763664568912</title><path fill="none" stroke="black" d="M256.27,-216.05C261.87,-198.25 270.16,-171.87 272.38,-164.8"/></g><!-- 2763664564016 --><g id="node19" class="node"><title>2763664564016</title><ellipse fill="none" stroke="black" cx="342.95" cy="-234" rx="27" ry="18"/><text text-anchor="middle" x="342.95" y="-230.5" font-family="Times New Roman,serif" font-size="15.00">seq</text></g><!-- 2763664560368&#45;&#45;2763664564016 --><g id="edge20" class="edge"><title>2763664560368&#45;&#45;2763664564016</title><path fill="none" stroke="black" d="M339.18,-287.7C339.96,-276.85 340.95,-262.92 341.73,-252.1"/></g><!-- 2763664564544 --><g id="node28" class="node"><title>2763664564544</title><ellipse fill="none" stroke="black" cx="578.95" cy="-234" rx="27" ry="18"/><text text-anchor="middle" x="578.95" y="-230.5" font-family="Times New Roman,serif" font-size="15.00">and</text></g><!-- 2763664560368&#45;&#45;2763664564544 --><g id="edge27" class="edge"><title>2763664560368&#45;&#45;2763664564544</title><path fill="none" stroke="black" d="M362.38,-297.9C408.57,-284.49 508.21,-255.55 554.45,-242.12"/></g><!-- 2763664567472 --><g id="node20" class="node"><title>2763664567472</title><ellipse fill="none" stroke="black" cx="320.95" cy="-162" rx="27" ry="18"/><text text-anchor="middle" x="320.95" y="-158.5" font-family="Times New Roman,serif" font-size="15.00">xor</text></g><!-- 2763664564016&#45;&#45;2763664567472 --><g id="edge16" class="edge"><title>2763664564016&#45;&#45;2763664567472</title><path fill="none" stroke="black" d="M337.62,-216.05C334.16,-205.05 329.67,-190.76 326.22,-179.79"/></g><!-- 2763664562960 --><g id="node25" class="node"><title>2763664562960</title><ellipse fill="none" stroke="black" cx="421.95" cy="-162" rx="46.61" ry="18"/><text text-anchor="middle" x="421.95" y="-158.5" font-family="Times New Roman,serif" font-size="15.00">xor loop</text></g><!-- 2763664564016&#45;&#45;2763664562960 --><g id="edge19" class="edge"><title>2763664564016&#45;&#45;2763664562960</title><path fill="none" stroke="black" d="M358.55,-219.17C371.69,-207.54 390.46,-190.9 404.17,-178.76"/></g><!-- 2763664565312 --><g id="node21" class="node"><title>2763664565312</title><ellipse fill="black" stroke="black" cx="244.95" cy="-90" rx="2.7" ry="2.7"/></g><!-- 2763664567472&#45;&#45;2763664565312 --><g id="edge12" class="edge"><title>2763664567472&#45;&#45;2763664565312</title><path fill="none" stroke="black" d="M305.57,-146.83C286.14,-128.94 254.3,-99.61 246.64,-92.56"/></g><!-- 2763664567568 --><g id="node22" class="node"><title>2763664567568</title><ellipse fill="none" stroke="black" cx="311.95" cy="-90" rx="46.61" ry="18"/><text text-anchor="middle" x="311.95" y="-86.5" font-family="Times New Roman,serif" font-size="15.00">xor loop</text></g><!-- 2763664567472&#45;&#45;2763664567568 --><g id="edge15" class="edge"><title>2763664567472&#45;&#45;2763664567568</title><path fill="none" stroke="black" d="M318.77,-144.05C317.37,-133.21 315.57,-119.18 314.17,-108.28"/></g><!-- 2763664567376 --><g id="node23" class="node"><title>2763664567376</title><ellipse fill="none" stroke="black" cx="265.95" cy="-18" rx="72.04" ry="18"/><text text-anchor="middle" x="265.95" y="-14.5" font-family="Times New Roman,serif" font-size="15.00">Redistribuição</text></g><!-- 2763664567568&#45;&#45;2763664567376 --><g id="edge13" class="edge"><title>2763664567568&#45;&#45;2763664567376</title><path fill="none" stroke="black" d="M301.05,-72.41C293.82,-61.41 284.36,-47.03 277.09,-35.96"/></g><!-- 2763664566320 --><g id="node24" class="node"><title>2763664566320</title><ellipse fill="black" stroke="black" cx="358.95" cy="-18" rx="2.7" ry="2.7"/></g><!-- 2763664567568&#45;&#45;2763664566320 --><g id="edge14" class="edge"><title>2763664567568&#45;&#45;2763664566320</title><path fill="none" stroke="black" d="M323.09,-72.41C335.03,-54.62 352.93,-27.96 357.73,-20.82"/></g><!-- 2763664564976 --><g id="node26" class="node"><title>2763664564976</title><ellipse fill="none" stroke="black" cx="421.95" cy="-90" rx="45.34" ry="18"/><text text-anchor="middle" x="421.95" y="-86.5" font-family="Times New Roman,serif" font-size="15.00">Decisão</text></g><!-- 2763664562960&#45;&#45;2763664564976 --><g id="edge17" class="edge"><title>2763664562960&#45;&#45;2763664564976</title><path fill="none" stroke="black" d="M421.95,-143.7C421.95,-132.85 421.95,-118.92 421.95,-108.1"/></g><!-- 2763664566560 --><g id="node27" class="node"><title>2763664566560</title><ellipse fill="black" stroke="black" cx="487.95" cy="-90" rx="2.7" ry="2.7"/></g><!-- 2763664562960&#45;&#45;2763664566560 --><g id="edge18" class="edge"><title>2763664562960&#45;&#45;2763664566560</title><path fill="none" stroke="black" d="M437.25,-144.76C454.31,-126.67 480.33,-99.08 486.57,-92.46"/></g><!-- 2763664569776 --><g id="node29" class="node"><title>2763664569776</title><ellipse fill="none" stroke="black" cx="578.95" cy="-162" rx="46.61" ry="18"/><text text-anchor="middle" x="578.95" y="-158.5" font-family="Times New Roman,serif" font-size="15.00">xor loop</text></g><!-- 2763664564544&#45;&#45;2763664569776 --><g id="edge23" class="edge"><title>2763664564544&#45;&#45;2763664569776</title><path fill="none" stroke="black" d="M578.95,-215.7C578.95,-204.85 578.95,-190.92 578.95,-180.1"/></g><!-- 2763664568144 --><g id="node32" class="node"><title>2763664568144</title><ellipse fill="none" stroke="black" cx="706.95" cy="-162" rx="46.61" ry="18"/><text text-anchor="middle" x="706.95" y="-158.5" font-family="Times New Roman,serif" font-size="15.00">xor loop</text></g><!-- 2763664564544&#45;&#45;2763664568144 --><g id="edge26" class="edge"><title>2763664564544&#45;&#45;2763664568144</title><path fill="none" stroke="black" d="M599.23,-221.91C621.36,-209.8 656.86,-190.39 681.01,-177.18"/></g><!-- 2763664569392 --><g id="node30" class="node"><title>2763664569392</title><ellipse fill="none" stroke="black" cx="561.95" cy="-90" rx="53.51" ry="18"/><text text-anchor="middle" x="561.95" y="-86.5" font-family="Times New Roman,serif" font-size="15.00">Audiência</text></g><!-- 2763664569776&#45;&#45;2763664569392 --><g id="edge21" class="edge"><title>2763664569776&#45;&#45;2763664569392</title><path fill="none" stroke="black" d="M574.83,-144.05C572.2,-133.21 568.79,-119.18 566.14,-108.28"/></g><!-- 2763664569584 --><g id="node31" class="node"><title>2763664569584</title><ellipse fill="black" stroke="black" cx="635.95" cy="-90" rx="2.7" ry="2.7"/></g><!-- 2763664569776&#45;&#45;2763664569584 --><g id="edge22" class="edge"><title>2763664569776&#45;&#45;2763664569584</title><path fill="none" stroke="black" d="M592.46,-144.41C607.2,-126.3 629.44,-98.99 634.77,-92.45"/></g><!-- 2763664569824 --><g id="node33" class="node"><title>2763664569824</title><ellipse fill="none" stroke="black" cx="706.95" cy="-90" rx="50.06" ry="18"/><text text-anchor="middle" x="706.95" y="-86.5" font-family="Times New Roman,serif" font-size="15.00">Mandado</text></g><!-- 2763664568144&#45;&#45;2763664569824 --><g id="edge24" class="edge"><title>2763664568144&#45;&#45;2763664569824</title><path fill="none" stroke="black" d="M706.95,-143.7C706.95,-132.85 706.95,-118.92 706.95,-108.1"/></g><!-- 2763664569680 --><g id="node34" class="node"><title>2763664569680</title><ellipse fill="black" stroke="black" cx="777.95" cy="-90" rx="2.7" ry="2.7"/></g><!-- 2763664568144&#45;&#45;2763664569680 --><g id="edge25" class="edge"><title>2763664568144&#45;&#45;2763664569680</title><path fill="none" stroke="black" d="M723.41,-144.76C741.77,-126.67 769.75,-99.08 776.46,-92.46"/></g><!-- 2763664568480 --><g id="node36" class="node"><title>2763664568480</title><ellipse fill="black" stroke="black" cx="385.95" cy="-306" rx="2.7" ry="2.7"/></g><!-- 2763664566704&#45;&#45;2763664568480 --><g id="edge30" class="edge"><title>2763664566704&#45;&#45;2763664568480</title><path fill="none" stroke="black" d="M385.95,-359.7C385.95,-341.88 385.95,-315.77 385.95,-308.78"/></g><!-- 2763664569248 --><g id="node37" class="node"><title>2763664569248</title><ellipse fill="none" stroke="black" cx="463.95" cy="-306" rx="57.85" ry="18"/><text text-anchor="middle" x="463.95" y="-302.5" font-family="Times New Roman,serif" font-size="15.00">Julgamento</text></g><!-- 2763664566704&#45;&#45;2763664569248 --><g id="edge31" class="edge"><title>2763664566704&#45;&#45;2763664569248</title><path fill="none" stroke="black" d="M401.36,-363.17C414.14,-351.7 432.35,-335.36 445.83,-323.26"/></g><!-- 2763664570352 --><g id="node39" class="node"><title>2763664570352</title><ellipse fill="none" stroke="black" cx="485.95" cy="-522" rx="46.61" ry="18"/><text text-anchor="middle" x="485.95" y="-518.5" font-family="Times New Roman,serif" font-size="15.00">xor loop</text></g><!-- 2763664559648&#45;&#45;2763664570352 --><g id="edge38" class="edge"><title>2763664559648&#45;&#45;2763664570352</title><path fill="none" stroke="black" d="M539.06,-578.5C528.1,-567.04 512.81,-551.07 501.45,-539.2"/></g><!-- 2763664565456 --><g id="node42" class="node"><title>2763664565456</title><ellipse fill="none" stroke="black" cx="620.95" cy="-522" rx="46.61" ry="18"/><text text-anchor="middle" x="620.95" y="-518.5" font-family="Times New Roman,serif" font-size="15.00">xor loop</text></g><!-- 2763664559648&#45;&#45;2763664565456 --><g id="edge41" class="edge"><title>2763664559648&#45;&#45;2763664565456</title><path fill="none" stroke="black" d="M567.04,-578.5C578.16,-567.04 593.68,-551.07 605.21,-539.2"/></g><!-- 2763664562864 --><g id="node45" class="node"><title>2763664562864</title><ellipse fill="none" stroke="black" cx="803.95" cy="-522" rx="46.61" ry="18"/><text text-anchor="middle" x="803.95" y="-518.5" font-family="Times New Roman,serif" font-size="15.00">xor loop</text></g><!-- 2763664559648&#45;&#45;2763664562864 --><g id="edge48" class="edge"><title>2763664559648&#45;&#45;2763664562864</title><path fill="none" stroke="black" d="M577.47,-586.16C621.76,-573.81 715.28,-547.73 767.23,-533.24"/></g><!-- 2763664570976 --><g id="node40" class="node"><title>2763664570976</title><ellipse fill="none" stroke="black" cx="422.95" cy="-450" rx="42.28" ry="18"/><text text-anchor="middle" x="422.95" y="-446.5" font-family="Times New Roman,serif" font-size="15.00">Petição</text></g><!-- 2763664570352&#45;&#45;2763664570976 --><g id="edge36" class="edge"><title>2763664570352&#45;&#45;2763664570976</title><path fill="none" stroke="black" d="M471.34,-504.76C461.16,-493.46 447.64,-478.44 437.48,-467.15"/></g><!-- 2763664571264 --><g id="node41" class="node"><title>2763664571264</title><ellipse fill="black" stroke="black" cx="485.95" cy="-450" rx="2.7" ry="2.7"/></g><!-- 2763664570352&#45;&#45;2763664571264 --><g id="edge37" class="edge"><title>2763664570352&#45;&#45;2763664571264</title><path fill="none" stroke="black" d="M485.95,-503.7C485.95,-485.88 485.95,-459.77 485.95,-452.78"/></g><!-- 2763664568096 --><g id="node43" class="node"><title>2763664568096</title><ellipse fill="none" stroke="black" cx="620.95" cy="-450" rx="114.81" ry="18"/><text text-anchor="middle" x="620.95" y="-446.5" font-family="Times New Roman,serif" font-size="15.00">Expedição de documento</text></g><!-- 2763664565456&#45;&#45;2763664568096 --><g id="edge39" class="edge"><title>2763664565456&#45;&#45;2763664568096</title><path fill="none" stroke="black" d="M620.95,-503.7C620.95,-492.85 620.95,-478.92 620.95,-468.1"/></g><!-- 2763664569920 --><g id="node44" class="node"><title>2763664569920</title><ellipse fill="black" stroke="black" cx="755.95" cy="-450" rx="2.7" ry="2.7"/></g><!-- 2763664565456&#45;&#45;2763664569920 --><g id="edge40" class="edge"><title>2763664565456&#45;&#45;2763664569920</title><path fill="none" stroke="black" d="M647.62,-507.17C682.97,-488.84 742.24,-458.11 753.92,-452.05"/></g><!-- 2763664570496 --><g id="node46" class="node"><title>2763664570496</title><ellipse fill="none" stroke="black" cx="803.95" cy="-450" rx="27" ry="18"/><text text-anchor="middle" x="803.95" y="-446.5" font-family="Times New Roman,serif" font-size="15.00">seq</text></g><!-- 2763664562864&#45;&#45;2763664570496 --><g id="edge46" class="edge"><title>2763664562864&#45;&#45;2763664570496</title><path fill="none" stroke="black" d="M803.95,-503.7C803.95,-492.85 803.95,-478.92 803.95,-468.1"/></g><!-- 2763664570592 --><g id="node51" class="node"><title>2763664570592</title><ellipse fill="black" stroke="black" cx="851.95" cy="-450" rx="2.7" ry="2.7"/></g><!-- 2763664562864&#45;&#45;2763664570592 --><g id="edge47" class="edge"><title>2763664562864&#45;&#45;2763664570592</title><path fill="none" stroke="black" d="M815.32,-504.41C827.52,-486.62 845.8,-459.96 850.7,-452.82"/></g><!-- 2763664570736 --><g id="node47" class="node"><title>2763664570736</title><ellipse fill="none" stroke="black" cx="743.95" cy="-378" rx="54.79" ry="18"/><text text-anchor="middle" x="743.95" y="-374.5" font-family="Times New Roman,serif" font-size="15.00">Conclusão</text></g><!-- 2763664570496&#45;&#45;2763664570736 --><g id="edge42" class="edge"><title>2763664570496&#45;&#45;2763664570736</title><path fill="none" stroke="black" d="M790.93,-433.81C781.28,-422.55 768.13,-407.22 758.2,-395.63"/></g><!-- 2763664570832 --><g id="node48" class="node"><title>2763664570832</title><ellipse fill="none" stroke="black" cx="862.95" cy="-378" rx="46.61" ry="18"/><text text-anchor="middle" x="862.95" y="-374.5" font-family="Times New Roman,serif" font-size="15.00">xor loop</text></g><!-- 2763664570496&#45;&#45;2763664570832 --><g id="edge45" class="edge"><title>2763664570496&#45;&#45;2763664570832</title><path fill="none" stroke="black" d="M816.75,-433.81C826.24,-422.55 839.17,-407.22 848.93,-395.63"/></g><!-- 2763664571072 --><g id="node49" class="node"><title>2763664571072</title><ellipse fill="none" stroke="black" cx="826.95" cy="-306" rx="52.23" ry="18"/><text text-anchor="middle" x="826.95" y="-302.5" font-family="Times New Roman,serif" font-size="15.00">Despacho</text></g><!-- 2763664570832&#45;&#45;2763664571072 --><g id="edge43" class="edge"><title>2763664570832&#45;&#45;2763664571072</title><path fill="none" stroke="black" d="M854.23,-360.05C848.57,-349.05 841.23,-334.76 835.58,-323.79"/></g><!-- 2763664571168 --><g id="node50" class="node"><title>2763664571168</title><ellipse fill="black" stroke="black" cx="899.95" cy="-306" rx="2.7" ry="2.7"/></g><!-- 2763664570832&#45;&#45;2763664571168 --><g id="edge44" class="edge"><title>2763664570832&#45;&#45;2763664571168</title><path fill="none" stroke="black" d="M871.9,-360.05C881.31,-342.25 895.26,-315.87 899,-308.8"/></g></g></svg>