<?xml version="1.0" encoding="UTF-8" standalone="no"?><!DOCTYPE svg PUBLIC "-//W3C//DTD SVG 1.1//EN" "http://www.w3.org/Graphics/SVG/1.1/DTD/svg11.dtd"><!-- Generated by graphviz version 2.49.3 (20211023.0002) --><!-- Title: imdf_net_1677269654.6377957 Pages: 1 --><svg width="2380pt" height="653pt" viewBox="0.00 0.00 2380.00 653.00" xmlns="http://www.w3.org/2000/svg" xmlns:xlink="http://www.w3.org/1999/xlink"><g id="graph0" class="graph" transform="scale(1 1) rotate(0) translate(4 649)"><title>imdf_net_1677269654.6377957</title><polygon fill="white" stroke="transparent" points="-4,4 -4,-649 2376,-649 2376,4 -4,4"/><!-- 2420262105728 --><g id="node1" class="node"><title>2420262105728</title><polygon fill="black" stroke="black" points="344,-584 290,-584 290,-548 344,-548 344,-584"/></g><!-- 2420262107984 --><g id="node60" class="node"><title>2420262107984</title><ellipse fill="white" stroke="black" cx="427" cy="-538" rx="27" ry="27"/></g><!-- 2420262105728&#45;&gt;2420262107984 --><g id="edge76" class="edge"><title>2420262105728&#45;&gt;2420262107984</title><path fill="none" stroke="black" d="M344.14,-559.22C358.04,-555.62 375.33,-551.14 390.43,-547.22"/><polygon fill="black" stroke="black" points="391.67,-550.52 400.47,-544.62 389.91,-543.74 391.67,-550.52"/></g><!-- 2420262105344 --><g id="node2" class="node"><title>2420262105344</title><polygon fill="black" stroke="black" points="1960,-414 1906,-414 1906,-378 1960,-378 1960,-414"/></g><!-- 2420262105440 --><g id="node61" class="node"><title>2420262105440</title><ellipse fill="white" stroke="black" cx="2023" cy="-383" rx="27" ry="27"/></g><!-- 2420262105344&#45;&gt;2420262105440 --><g id="edge25" class="edge"><title>2420262105344&#45;&gt;2420262105440</title><path fill="none" stroke="black" d="M1960.4,-392.1C1968.47,-390.91 1977.47,-389.58 1986.05,-388.31"/><polygon fill="black" stroke="black" points="1986.84,-391.73 1996.22,-386.81 1985.82,-384.81 1986.84,-391.73"/></g><!-- 2420262421120 --><g id="node3" class="node"><title>2420262421120</title><polygon fill="black" stroke="black" points="789,-361 735,-361 735,-325 789,-325 789,-361"/></g><!-- 2420262108752 --><g id="node55" class="node"><title>2420262108752</title><ellipse fill="white" stroke="black" cx="852" cy="-338" rx="27" ry="27"/></g><!-- 2420262421120&#45;&gt;2420262108752 --><g id="edge81" class="edge"><title>2420262421120&#45;&gt;2420262108752</title><path fill="none" stroke="black" d="M789.4,-341.5C797.39,-341.05 806.31,-340.54 814.82,-340.06"/><polygon fill="black" stroke="black" points="815.13,-343.54 824.92,-339.48 814.74,-336.55 815.13,-343.54"/></g><!-- 2420262389648 --><g id="node4" class="node"><title>2420262389648</title><polygon fill="black" stroke="black" points="1234.5,-254 1180.5,-254 1180.5,-218 1234.5,-218 1234.5,-254"/></g><!-- 2420262393008 --><g id="node46" class="node"><title>2420262393008</title><ellipse fill="white" stroke="black" cx="1383" cy="-182" rx="27" ry="27"/></g><!-- 2420262389648&#45;&gt;2420262393008 --><g id="edge83" class="edge"><title>2420262389648&#45;&gt;2420262393008</title><path fill="none" stroke="black" d="M1234.55,-231.03C1257.38,-226.35 1291.3,-218.64 1320,-209 1329.58,-205.78 1339.73,-201.67 1348.98,-197.64"/><polygon fill="black" stroke="black" points="1350.54,-200.78 1358.24,-193.5 1347.68,-194.39 1350.54,-200.78"/></g><!-- 2420262393104 --><g id="node5" class="node"><title>2420262393104</title><polygon fill="black" stroke="black" points="969,-278 915,-278 915,-242 969,-242 969,-278"/></g><!-- 2420262395600 --><g id="node47" class="node"><title>2420262395600</title><ellipse fill="white" stroke="black" cx="1032" cy="-236" rx="27" ry="27"/></g><!-- 2420262393104&#45;&gt;2420262395600 --><g id="edge86" class="edge"><title>2420262393104&#45;&gt;2420262395600</title><path fill="none" stroke="black" d="M969.4,-252.8C977.79,-250.51 987.2,-247.95 996.09,-245.52"/><polygon fill="black" stroke="black" points="997.1,-248.87 1005.82,-242.87 995.25,-242.12 997.1,-248.87"/></g><!-- 2420262108560 --><g id="node6" class="node"><title>2420262108560</title><polygon fill="black" stroke="black" points="1234.5,-416 1180.5,-416 1180.5,-380 1234.5,-380 1234.5,-416"/></g><!-- 2420262108656 --><g id="node56" class="node"><title>2420262108656</title><ellipse fill="white" stroke="black" cx="1383" cy="-422" rx="27" ry="27"/></g><!-- 2420262108560&#45;&gt;2420262108656 --><g id="edge24" class="edge"><title>2420262108560&#45;&gt;2420262108656</title><path fill="none" stroke="black" d="M1234.85,-401.65C1264.45,-405.74 1312.66,-412.41 1345.79,-416.99"/><polygon fill="black" stroke="black" points="1345.58,-420.5 1355.97,-418.4 1346.54,-413.56 1345.58,-420.5"/></g><!-- 2420262107408 --><g id="node7" class="node"><title>2420262107408</title><polygon fill="white" stroke="black" points="1578,-494 1446,-494 1446,-458 1578,-458 1578,-494"/><text text-anchor="middle" x="1512" y="-472.9" font-family="Times New Roman,serif" font-size="12.00">Expedição de documento</text></g><!-- 2420262107936 --><g id="node59" class="node"><title>2420262107936</title><ellipse fill="white" stroke="black" cx="1647.5" cy="-449" rx="27" ry="27"/></g><!-- 2420262107408&#45;&gt;2420262107936 --><g id="edge17" class="edge"><title>2420262107408&#45;&gt;2420262107936</title><path fill="none" stroke="black" d="M1578.19,-462.82C1589.39,-460.55 1600.64,-458.27 1610.7,-456.24"/><polygon fill="black" stroke="black" points="1611.58,-459.63 1620.69,-454.22 1610.2,-452.77 1611.58,-459.63"/></g><!-- 2420262104720 --><g id="node8" class="node"><title>2420262104720</title><polygon fill="white" stroke="black" points="2192,-185 2086,-185 2086,-149 2192,-149 2192,-185"/><text text-anchor="middle" x="2139" y="-163.9" font-family="Times New Roman,serif" font-size="12.00">Trânsito em julgado</text></g><!-- 2420262104960 --><g id="node62" class="node"><title>2420262104960</title><ellipse fill="white" stroke="black" cx="2255" cy="-383" rx="27" ry="27"/></g><!-- 2420262104720&#45;&gt;2420262104960 --><g id="edge2" class="edge"><title>2420262104720&#45;&gt;2420262104960</title><path fill="none" stroke="black" d="M2182.21,-185.05C2185.82,-187.69 2189.17,-190.67 2192,-194 2229.32,-237.91 2244.33,-304.87 2250.26,-346.18"/><polygon fill="black" stroke="black" points="2246.79,-346.65 2251.58,-356.1 2253.73,-345.73 2246.79,-346.65"/></g><!-- 2420262103568 --><g id="node9" class="node"><title>2420262103568</title><polygon fill="white" stroke="black" points="2169.5,-617 2108.5,-617 2108.5,-581 2169.5,-581 2169.5,-617"/><text text-anchor="middle" x="2139" y="-595.9" font-family="Times New Roman,serif" font-size="12.00">Mandado</text></g><!-- 2420262103568&#45;&gt;2420262104960 --><g id="edge1" class="edge"><title>2420262103568&#45;&gt;2420262104960</title><path fill="none" stroke="black" d="M2169.76,-588.46C2177.88,-584.38 2186.07,-578.98 2192,-572 2229.32,-528.09 2244.33,-461.13 2250.26,-419.82"/><polygon fill="black" stroke="black" points="2253.73,-420.27 2251.58,-409.9 2246.79,-419.35 2253.73,-420.27"/></g><!-- 2420262102416 --><g id="node10" class="node"><title>2420262102416</title><polygon fill="white" stroke="black" points="2173.5,-563 2104.5,-563 2104.5,-527 2173.5,-527 2173.5,-563"/><text text-anchor="middle" x="2139" y="-541.9" font-family="Times New Roman,serif" font-size="12.00">Documento</text></g><!-- 2420262102416&#45;&gt;2420262104960 --><g id="edge14" class="edge"><title>2420262102416&#45;&gt;2420262104960</title><path fill="none" stroke="black" d="M2173.6,-531.73C2180.27,-528.01 2186.81,-523.45 2192,-518 2218.66,-490.02 2235.35,-448.55 2244.61,-418.96"/><polygon fill="black" stroke="black" points="2248.07,-419.62 2247.58,-409.03 2241.36,-417.61 2248.07,-419.62"/></g><!-- 2420261970000 --><g id="node11" class="node"><title>2420261970000</title><polygon fill="white" stroke="black" points="592.5,-511 506.5,-511 506.5,-475 592.5,-475 592.5,-511"/><text text-anchor="middle" x="549.5" y="-489.9" font-family="Times New Roman,serif" font-size="12.00">Ato ordinatório</text></g><!-- 2420262108176 --><g id="node57" class="node"><title>2420262108176</title><ellipse fill="white" stroke="black" cx="672" cy="-448" rx="27" ry="27"/></g><!-- 2420261970000&#45;&gt;2420262108176 --><g id="edge16" class="edge"><title>2420261970000&#45;&gt;2420262108176</title><path fill="none" stroke="black" d="M592.65,-477.26C607.06,-471.88 623.01,-465.92 636.73,-460.8"/><polygon fill="black" stroke="black" points="638.13,-464.01 646.27,-457.24 635.68,-457.46 638.13,-464.01"/></g><!-- 2420262101024 --><g id="node12" class="node"><title>2420262101024</title><polygon fill="black" stroke="black" points="789,-155 735,-155 735,-119 789,-119 789,-155"/></g><!-- 2420262389408 --><g id="node51" class="node"><title>2420262389408</title><ellipse fill="white" stroke="black" cx="852" cy="-228" rx="27" ry="27"/></g><!-- 2420262101024&#45;&gt;2420262389408 --><g id="edge74" class="edge"><title>2420262101024&#45;&gt;2420262389408</title><path fill="none" stroke="black" d="M780.81,-155.42C793.64,-168.68 811.14,-186.78 825.46,-201.59"/><polygon fill="black" stroke="black" points="823.14,-204.23 832.61,-208.99 828.18,-199.36 823.14,-204.23"/></g><!-- 2420262106016 --><g id="node13" class="node"><title>2420262106016</title><polygon fill="white" stroke="black" points="1678.5,-540 1616.5,-540 1616.5,-504 1678.5,-504 1678.5,-540"/><text text-anchor="middle" x="1647.5" y="-518.9" font-family="Times New Roman,serif" font-size="12.00">Audiência</text></g><!-- 2420262108080 --><g id="node58" class="node"><title>2420262108080</title><ellipse fill="white" stroke="black" cx="1843" cy="-422" rx="27" ry="27"/></g><!-- 2420262106016&#45;&gt;2420262108080 --><g id="edge3" class="edge"><title>2420262106016&#45;&gt;2420262108080</title><path fill="none" stroke="black" d="M1678.54,-523.9C1706.65,-524.3 1748.86,-521.26 1780,-503 1799.25,-491.71 1814.57,-471.9 1825.17,-454.7"/><polygon fill="black" stroke="black" points="1828.23,-456.4 1830.28,-446 1822.2,-452.86 1828.23,-456.4"/></g><!-- 2420262102176 --><g id="node14" class="node"><title>2420262102176</title><polygon fill="black" stroke="black" points="2372,-322 2318,-322 2318,-286 2372,-286 2372,-322"/></g><!-- 2420262102176&#45;&gt;2420262105440 --><g id="edge77" class="edge"><title>2420262102176&#45;&gt;2420262105440</title><path fill="none" stroke="black" d="M2334.2,-285.94C2313.52,-250 2261.55,-170.37 2192,-140 2148.82,-121.15 2123.2,-111.1 2086,-140 2053.66,-165.12 2035.37,-284.54 2027.94,-346.1"/><polygon fill="black" stroke="black" points="2024.45,-345.84 2026.76,-356.18 2031.4,-346.65 2024.45,-345.84"/></g><!-- 2420262101792 --><g id="node15" class="node"><title>2420262101792</title><polygon fill="black" stroke="black" points="2372,-480 2318,-480 2318,-444 2372,-444 2372,-480"/></g><!-- 2420262101792&#45;&gt;2420262107984 --><g id="edge78" class="edge"><title>2420262101792&#45;&gt;2420262107984</title><path fill="none" stroke="black" d="M2334.91,-480.22C2310.38,-526.5 2238.01,-645 2140,-645 671,-645 671,-645 671,-645 587.59,-645 500.7,-591.55 456.91,-560.2"/><polygon fill="black" stroke="black" points="458.89,-557.31 448.74,-554.25 454.76,-562.97 458.89,-557.31"/></g><!-- 2420262101408 --><g id="node16" class="node"><title>2420262101408</title><polygon fill="black" stroke="black" points="576.5,-457 522.5,-457 522.5,-421 576.5,-421 576.5,-457"/></g><!-- 2420262101408&#45;&gt;2420262108176 --><g id="edge79" class="edge"><title>2420262101408&#45;&gt;2420262108176</title><path fill="none" stroke="black" d="M576.65,-440.95C593.62,-442.22 615.98,-443.89 634.67,-445.29"/><polygon fill="black" stroke="black" points="634.67,-448.8 644.9,-446.05 635.19,-441.82 634.67,-448.8"/></g><!-- 2420262401840 --><g id="node17" class="node"><title>2420262401840</title><polygon fill="black" stroke="black" points="1539,-99 1485,-99 1485,-63 1539,-63 1539,-99"/></g><!-- 2420262403568 --><g id="node65" class="node"><title>2420262403568</title><ellipse fill="white" stroke="black" cx="1647.5" cy="-81" rx="27" ry="27"/><ellipse fill="none" stroke="black" cx="1647.5" cy="-81" rx="31" ry="31"/><text text-anchor="start" x="1637.5" y="-72.9" font-family="Times New Roman,serif" font-size="32.00">■</text></g><!-- 2420262401840&#45;&gt;2420262403568 --><g id="edge87" class="edge"><title>2420262401840&#45;&gt;2420262403568</title><path fill="none" stroke="black" d="M1539.06,-81C1558.1,-81 1584.28,-81 1606.04,-81"/><polygon fill="black" stroke="black" points="1606.31,-84.5 1616.31,-81 1606.31,-77.5 1606.31,-84.5"/></g><!-- 2420262396848 --><g id="node18" class="node"><title>2420262396848</title><polygon fill="black" stroke="black" points="144,-107 90,-107 90,-71 144,-71 144,-107"/></g><!-- 2420262397088 --><g id="node44" class="node"><title>2420262397088</title><ellipse fill="white" stroke="black" cx="207" cy="-93" rx="27" ry="27"/></g><!-- 2420262396848&#45;&gt;2420262397088 --><g id="edge84" class="edge"><title>2420262396848&#45;&gt;2420262397088</title><path fill="none" stroke="black" d="M144.4,-90.2C152.39,-90.56 161.31,-90.97 169.82,-91.36"/><polygon fill="black" stroke="black" points="169.77,-94.86 179.92,-91.81 170.09,-87.86 169.77,-94.86"/></g><!-- 2420262393392 --><g id="node19" class="node"><title>2420262393392</title><polygon fill="white" stroke="black" points="364,-306 270,-306 270,-270 364,-270 364,-306"/><text text-anchor="middle" x="317" y="-284.9" font-family="Times New Roman,serif" font-size="12.00">Desapensamento</text></g><!-- 2420262392048 --><g id="node49" class="node"><title>2420262392048</title><ellipse fill="white" stroke="black" cx="427" cy="-292" rx="27" ry="27"/></g><!-- 2420262393392&#45;&gt;2420262392048 --><g id="edge12" class="edge"><title>2420262393392&#45;&gt;2420262392048</title><path fill="none" stroke="black" d="M364.11,-289.71C372.74,-290.03 381.64,-290.36 389.91,-290.66"/><polygon fill="black" stroke="black" points="389.86,-294.16 399.98,-291.04 390.12,-287.17 389.86,-294.16"/></g><!-- 2420262389168 --><g id="node20" class="node"><title>2420262389168</title><polygon fill="black" stroke="black" points="699,-255 645,-255 645,-219 699,-219 699,-255"/></g><!-- 2420262389168&#45;&gt;2420262389408 --><g id="edge72" class="edge"><title>2420262389168&#45;&gt;2420262389408</title><path fill="none" stroke="black" d="M699.26,-235.67C729.85,-234.13 780.55,-231.56 814.84,-229.83"/><polygon fill="black" stroke="black" points="815.11,-233.32 824.92,-229.32 814.75,-226.33 815.11,-233.32"/></g><!-- 2420262388784 --><g id="node21" class="node"><title>2420262388784</title><polygon fill="black" stroke="black" points="344,-204 290,-204 290,-168 344,-168 344,-204"/></g><!-- 2420262388880 --><g id="node52" class="node"><title>2420262388880</title><ellipse fill="white" stroke="black" cx="427" cy="-182" rx="27" ry="27"/></g><!-- 2420262388784&#45;&gt;2420262388880 --><g id="edge23" class="edge"><title>2420262388784&#45;&gt;2420262388880</title><path fill="none" stroke="black" d="M344.14,-185.03C357.71,-184.53 374.5,-183.91 389.34,-183.36"/><polygon fill="black" stroke="black" points="389.86,-186.84 399.72,-182.97 389.6,-179.85 389.86,-186.84"/></g><!-- 2420262103856 --><g id="node22" class="node"><title>2420262103856</title><polygon fill="white" stroke="black" points="2167.5,-509 2110.5,-509 2110.5,-473 2167.5,-473 2167.5,-509"/><text text-anchor="middle" x="2139" y="-487.9" font-family="Times New Roman,serif" font-size="12.00">Remessa</text></g><!-- 2420262103856&#45;&gt;2420262104960 --><g id="edge7" class="edge"><title>2420262103856&#45;&gt;2420262104960</title><path fill="none" stroke="black" d="M2167.58,-479.5C2175.91,-475.31 2184.75,-470.08 2192,-464 2208.71,-449.98 2223.7,-430.69 2234.75,-414.46"/><polygon fill="black" stroke="black" points="2237.87,-416.08 2240.47,-405.81 2232.03,-412.22 2237.87,-416.08"/></g><!-- 2420262102704 --><g id="node23" class="node"><title>2420262102704</title><polygon fill="white" stroke="black" points="2178.5,-455 2099.5,-455 2099.5,-419 2178.5,-419 2178.5,-455"/><text text-anchor="middle" x="2139" y="-433.9" font-family="Times New Roman,serif" font-size="12.00">Apensamento</text></g><!-- 2420262102704&#45;&gt;2420262104960 --><g id="edge8" class="edge"><title>2420262102704&#45;&gt;2420262104960</title><path fill="none" stroke="black" d="M2178.28,-418.87C2192.12,-412.31 2207.63,-404.97 2220.98,-398.64"/><polygon fill="black" stroke="black" points="2222.73,-401.68 2230.27,-394.24 2219.74,-395.36 2222.73,-401.68"/></g><!-- 2420262396992 --><g id="node24" class="node"><title>2420262396992</title><polygon fill="white" stroke="black" points="349.5,-75 284.5,-75 284.5,-39 349.5,-39 349.5,-75"/><text text-anchor="middle" x="317" y="-53.9" font-family="Times New Roman,serif" font-size="12.00">Conclusão</text></g><!-- 2420262398384 --><g id="node45" class="node"><title>2420262398384</title><ellipse fill="white" stroke="black" cx="27" cy="-38" rx="27" ry="27"/></g><!-- 2420262396992&#45;&gt;2420262398384 --><g id="edge9" class="edge"><title>2420262396992&#45;&gt;2420262398384</title><path fill="none" stroke="black" d="M284.15,-54.9C230.21,-51.34 121.23,-44.15 64.38,-40.4"/><polygon fill="black" stroke="black" points="64.27,-36.89 54.07,-39.72 63.81,-43.87 64.27,-36.89"/></g><!-- 2420262106304 --><g id="node25" class="node"><title>2420262106304</title><polygon fill="white" stroke="black" points="1681,-394 1614,-394 1614,-358 1681,-358 1681,-394"/><text text-anchor="middle" x="1647.5" y="-372.9" font-family="Times New Roman,serif" font-size="12.00">Julgamento</text></g><!-- 2420262106304&#45;&gt;2420262108080 --><g id="edge5" class="edge"><title>2420262106304&#45;&gt;2420262108080</title><path fill="none" stroke="black" d="M1681.16,-378.28C1708.08,-380.74 1747.05,-385.63 1780,-395 1789.81,-397.79 1800.09,-401.79 1809.41,-405.87"/><polygon fill="black" stroke="black" points="1808.15,-409.14 1818.7,-410.09 1811.04,-402.76 1808.15,-409.14"/></g><!-- 2420261885248 --><g id="node26" class="node"><title>2420261885248</title><polygon fill="white" stroke="black" points="609,-565 490,-565 490,-529 609,-529 609,-565"/><text text-anchor="middle" x="549.5" y="-543.9" font-family="Times New Roman,serif" font-size="12.00">Com efeito suspensivo</text></g><!-- 2420261885248&#45;&gt;2420262108176 --><g id="edge15" class="edge"><title>2420261885248&#45;&gt;2420262108176</title><path fill="none" stroke="black" d="M595.11,-528.89C599.98,-526.2 604.71,-523.23 609,-520 624.52,-508.29 638.9,-492.1 649.89,-478.04"/><polygon fill="black" stroke="black" points="652.69,-480.14 655.95,-470.06 647.11,-475.9 652.69,-480.14"/></g><!-- 2420262420928 --><g id="node27" class="node"><title>2420262420928</title><polygon fill="black" stroke="black" points="969,-361 915,-361 915,-325 969,-325 969,-361"/></g><!-- 2420262107648 --><g id="node54" class="node"><title>2420262107648</title><ellipse fill="white" stroke="black" cx="1032" cy="-393" rx="27" ry="27"/></g><!-- 2420262420928&#45;&gt;2420262107648 --><g id="edge82" class="edge"><title>2420262420928&#45;&gt;2420262107648</title><path fill="none" stroke="black" d="M969.4,-358C978.86,-363.38 989.62,-369.49 999.47,-375.08"/><polygon fill="black" stroke="black" points="997.77,-378.14 1008.19,-380.04 1001.23,-372.06 997.77,-378.14"/></g><!-- 2420262402512 --><g id="node28" class="node"><title>2420262402512</title><polygon fill="black" stroke="black" points="144,-255 90,-255 90,-219 144,-219 144,-255"/></g><!-- 2420262402512&#45;&gt;2420262397088 --><g id="edge88" class="edge"><title>2420262402512&#45;&gt;2420262397088</title><path fill="none" stroke="black" d="M127.75,-218.69C139.51,-196.93 160.18,-159.7 180,-129 181.26,-127.05 182.58,-125.07 183.93,-123.08"/><polygon fill="black" stroke="black" points="187.1,-124.65 189.95,-114.45 181.36,-120.64 187.1,-124.65"/></g><!-- 2420262392144 --><g id="node48" class="node"><title>2420262392144</title><ellipse fill="white" stroke="black" cx="207" cy="-309" rx="27" ry="27"/></g><!-- 2420262402512&#45;&gt;2420262392144 --><g id="edge89" class="edge"><title>2420262402512&#45;&gt;2420262392144</title><path fill="none" stroke="black" d="M140.21,-255.17C151.54,-264.44 165.46,-275.83 177.57,-285.74"/><polygon fill="black" stroke="black" points="175.65,-288.69 185.61,-292.32 180.09,-283.28 175.65,-288.69"/></g><!-- 2420262389600 --><g id="node50" class="node"><title>2420262389600</title><ellipse fill="white" stroke="black" cx="207" cy="-237" rx="27" ry="27"/></g><!-- 2420262402512&#45;&gt;2420262389600 --><g id="edge90" class="edge"><title>2420262402512&#45;&gt;2420262389600</title><path fill="none" stroke="black" d="M144.4,-237C152.39,-237 161.31,-237 169.82,-237"/><polygon fill="black" stroke="black" points="169.92,-240.5 179.92,-237 169.92,-233.5 169.92,-240.5"/></g><!-- 2420262402512&#45;&gt;2420262107648 --><g id="edge91" class="edge"><title>2420262402512&#45;&gt;2420262107648</title><path fill="none" stroke="black" d="M123.96,-255.32C132.63,-279.21 150.93,-320.79 180,-345 229.25,-386.02 251.9,-393 316,-393 316,-393 316,-393 853,-393 902.08,-393 958.77,-393 994.74,-393"/><polygon fill="black" stroke="black" points="994.76,-396.5 1004.76,-393 994.76,-389.5 994.76,-396.5"/></g><!-- 2420262402464 --><g id="node63" class="node"><title>2420262402464</title><ellipse fill="white" stroke="black" cx="207" cy="-165" rx="27" ry="27"/></g><!-- 2420262402512&#45;&gt;2420262402464 --><g id="edge92" class="edge"><title>2420262402512&#45;&gt;2420262402464</title><path fill="none" stroke="black" d="M140.21,-218.83C151.54,-209.56 165.46,-198.17 177.57,-188.26"/><polygon fill="black" stroke="black" points="180.09,-190.72 185.61,-181.68 175.65,-185.31 180.09,-190.72"/></g><!-- 2420262387920 --><g id="node29" class="node"><title>2420262387920</title><polygon fill="black" stroke="black" points="789,-209 735,-209 735,-173 789,-173 789,-209"/></g><!-- 2420262387920&#45;&gt;2420262388880 --><g id="edge73" class="edge"><title>2420262387920&#45;&gt;2420262388880</title><path fill="none" stroke="black" d="M734.99,-190.3C676.02,-188.7 532.03,-184.81 464.32,-182.98"/><polygon fill="black" stroke="black" points="464.22,-179.48 454.13,-182.71 464.03,-186.48 464.22,-179.48"/></g><!-- 2420262107600 --><g id="node30" class="node"><title>2420262107600</title><polygon fill="white" stroke="black" points="1543,-440 1481,-440 1481,-404 1543,-404 1543,-440"/><text text-anchor="middle" x="1512" y="-418.9" font-family="Times New Roman,serif" font-size="12.00">Despacho</text></g><!-- 2420262107600&#45;&gt;2420262107936 --><g id="edge13" class="edge"><title>2420262107600&#45;&gt;2420262107936</title><path fill="none" stroke="black" d="M1543.29,-428.13C1563.39,-432.19 1589.85,-437.54 1610.95,-441.81"/><polygon fill="black" stroke="black" points="1610.32,-445.25 1620.82,-443.81 1611.71,-438.39 1610.32,-445.25"/></g><!-- 2420262107216 --><g id="node31" class="node"><title>2420262107216</title><polygon fill="black" stroke="black" points="1775.5,-440 1721.5,-440 1721.5,-404 1775.5,-404 1775.5,-440"/></g><!-- 2420262107216&#45;&gt;2420262108080 --><g id="edge75" class="edge"><title>2420262107216&#45;&gt;2420262108080</title><path fill="none" stroke="black" d="M1775.76,-422C1785.11,-422 1795.82,-422 1805.86,-422"/><polygon fill="black" stroke="black" points="1806,-425.5 1816,-422 1806,-418.5 1806,-425.5"/></g><!-- 2420262106832 --><g id="node32" class="node"><title>2420262106832</title><polygon fill="white" stroke="black" points="1780,-494 1717,-494 1717,-458 1780,-458 1780,-494"/><text text-anchor="middle" x="1748.5" y="-472.9" font-family="Times New Roman,serif" font-size="12.00">Provisório</text></g><!-- 2420262106832&#45;&gt;2420262108080 --><g id="edge20" class="edge"><title>2420262106832&#45;&gt;2420262108080</title><path fill="none" stroke="black" d="M1780.04,-458.17C1789.88,-452.43 1800.78,-446.06 1810.67,-440.29"/><polygon fill="black" stroke="black" points="1812.53,-443.26 1819.4,-435.19 1809,-437.21 1812.53,-443.26"/></g><!-- 2420262104144 --><g id="node33" class="node"><title>2420262104144</title><polygon fill="white" stroke="black" points="2188,-401 2090,-401 2090,-365 2188,-365 2188,-401"/><text text-anchor="middle" x="2139" y="-379.9" font-family="Times New Roman,serif" font-size="12.00">Decurso de Prazo</text></g><!-- 2420262104144&#45;&gt;2420262104960 --><g id="edge6" class="edge"><title>2420262104144&#45;&gt;2420262104960</title><path fill="none" stroke="black" d="M2188.02,-383C2197.92,-383 2208.19,-383 2217.6,-383"/><polygon fill="black" stroke="black" points="2217.79,-386.5 2227.79,-383 2217.79,-379.5 2217.79,-386.5"/></g><!-- 2420262102992 --><g id="node34" class="node"><title>2420262102992</title><polygon fill="white" stroke="black" points="2186.5,-347 2091.5,-347 2091.5,-311 2186.5,-311 2186.5,-347"/><text text-anchor="middle" x="2139" y="-325.9" font-family="Times New Roman,serif" font-size="12.00">Desarquivamento</text></g><!-- 2420262102992&#45;&gt;2420262104960 --><g id="edge10" class="edge"><title>2420262102992&#45;&gt;2420262104960</title><path fill="none" stroke="black" d="M2178.28,-347.13C2192.12,-353.69 2207.63,-361.03 2220.98,-367.36"/><polygon fill="black" stroke="black" points="2219.74,-370.64 2230.27,-371.76 2222.73,-364.32 2219.74,-370.64"/></g><!-- 2420262391904 --><g id="node35" class="node"><title>2420262391904</title><polygon fill="black" stroke="black" points="344,-360 290,-360 290,-324 344,-324 344,-360"/></g><!-- 2420262391904&#45;&gt;2420262392048 --><g id="edge71" class="edge"><title>2420262391904&#45;&gt;2420262392048</title><path fill="none" stroke="black" d="M344.14,-329.9C358.83,-323.1 377.29,-314.55 392.97,-307.29"/><polygon fill="black" stroke="black" points="394.7,-310.35 402.31,-302.97 391.76,-303.99 394.7,-310.35"/></g><!-- 2420262106592 --><g id="node36" class="node"><title>2420262106592</title><polygon fill="white" stroke="black" points="1775.5,-348 1721.5,-348 1721.5,-312 1775.5,-312 1775.5,-348"/><text text-anchor="middle" x="1748.5" y="-326.9" font-family="Times New Roman,serif" font-size="12.00">Decisão</text></g><!-- 2420262106592&#45;&gt;2420262108080 --><g id="edge21" class="edge"><title>2420262106592&#45;&gt;2420262108080</title><path fill="none" stroke="black" d="M1767.78,-348.18C1781.53,-361.86 1800.57,-380.8 1815.93,-396.07"/><polygon fill="black" stroke="black" points="1813.57,-398.66 1823.13,-403.23 1818.51,-393.7 1813.57,-398.66"/></g><!-- 2420262421984 --><g id="node37" class="node"><title>2420262421984</title><polygon fill="black" stroke="black" points="969,-466 915,-466 915,-430 969,-430 969,-466"/></g><!-- 2420262421984&#45;&gt;2420262108656 --><g id="edge80" class="edge"><title>2420262421984&#45;&gt;2420262108656</title><path fill="none" stroke="black" d="M969.15,-446.45C1044.1,-442.01 1259.85,-429.23 1345.92,-424.14"/><polygon fill="black" stroke="black" points="1346.21,-427.63 1355.99,-423.54 1345.8,-420.64 1346.21,-427.63"/></g><!-- 2420262422752 --><g id="node38" class="node"><title>2420262422752</title><polygon fill="white" stroke="black" points="1320,-200 1095,-200 1095,-164 1320,-164 1320,-200"/><text text-anchor="middle" x="1207.5" y="-178.9" font-family="Times New Roman,serif" font-size="12.00">Cumprimento de Levantamento da Suspensão</text></g><!-- 2420262422752&#45;&gt;2420262393008 --><g id="edge18" class="edge"><title>2420262422752&#45;&gt;2420262393008</title><path fill="none" stroke="black" d="M1320.34,-182C1329.36,-182 1337.98,-182 1345.76,-182"/><polygon fill="black" stroke="black" points="1345.83,-185.5 1355.83,-182 1345.83,-178.5 1345.83,-185.5"/></g><!-- 2420262399728 --><g id="node39" class="node"><title>2420262399728</title><polygon fill="white" stroke="black" points="352.5,-143 281.5,-143 281.5,-107 352.5,-107 352.5,-143"/><text text-anchor="middle" x="317" y="-121.9" font-family="Times New Roman,serif" font-size="12.00">Distribuição</text></g><!-- 2420262400832 --><g id="node64" class="node"><title>2420262400832</title><ellipse fill="white" stroke="black" cx="852" cy="-81" rx="27" ry="27"/></g><!-- 2420262399728&#45;&gt;2420262400832 --><g id="edge11" class="edge"><title>2420262399728&#45;&gt;2420262400832</title><path fill="none" stroke="black" d="M352.75,-114.12C397.53,-101.09 478.02,-81 548.5,-81 548.5,-81 548.5,-81 673,-81 722.08,-81 778.77,-81 814.74,-81"/><polygon fill="black" stroke="black" points="814.76,-84.5 824.76,-81 814.76,-77.5 814.76,-84.5"/></g><!-- 2420262388208 --><g id="node40" class="node"><title>2420262388208</title><polygon fill="white" stroke="black" points="576.5,-159 522.5,-159 522.5,-123 576.5,-123 576.5,-159"/><text text-anchor="middle" x="549.5" y="-137.9" font-family="Times New Roman,serif" font-size="12.00">Petição</text></g><!-- 2420262388400 --><g id="node53" class="node"><title>2420262388400</title><ellipse fill="white" stroke="black" cx="672" cy="-136" rx="27" ry="27"/></g><!-- 2420262388208&#45;&gt;2420262388400 --><g id="edge22" class="edge"><title>2420262388208&#45;&gt;2420262388400</title><path fill="none" stroke="black" d="M576.65,-139.92C593.62,-139.21 615.98,-138.28 634.67,-137.51"/><polygon fill="black" stroke="black" points="635.06,-140.99 644.9,-137.08 634.77,-134 635.06,-140.99"/></g><!-- 2420262104432 --><g id="node41" class="node"><title>2420262104432</title><polygon fill="white" stroke="black" points="2179.5,-293 2098.5,-293 2098.5,-257 2179.5,-257 2179.5,-293"/><text text-anchor="middle" x="2139" y="-271.9" font-family="Times New Roman,serif" font-size="12.00">Redistribuição</text></g><!-- 2420262104432&#45;&gt;2420262104960 --><g id="edge4" class="edge"><title>2420262104432&#45;&gt;2420262104960</title><path fill="none" stroke="black" d="M2179.53,-293.13C2183.92,-295.83 2188.18,-298.8 2192,-302 2208.71,-316.02 2223.7,-335.31 2234.75,-351.54"/><polygon fill="black" stroke="black" points="2232.03,-353.78 2240.47,-360.19 2237.87,-349.92 2232.03,-353.78"/></g><!-- 2420262103280 --><g id="node42" class="node"><title>2420262103280</title><polygon fill="white" stroke="black" points="2168.5,-239 2109.5,-239 2109.5,-203 2168.5,-203 2168.5,-239"/><text text-anchor="middle" x="2139" y="-217.9" font-family="Times New Roman,serif" font-size="12.00">Definitivo</text></g><!-- 2420262103280&#45;&gt;2420262104960 --><g id="edge19" class="edge"><title>2420262103280&#45;&gt;2420262104960</title><path fill="none" stroke="black" d="M2168.73,-231.7C2177.01,-235.83 2185.54,-241.22 2192,-248 2218.66,-275.98 2235.35,-317.45 2244.61,-347.04"/><polygon fill="black" stroke="black" points="2241.36,-348.39 2247.58,-356.97 2248.07,-346.38 2241.36,-348.39"/></g><!-- 2420262403184 --><g id="node43" class="node"><title>2420262403184</title><ellipse fill="white" stroke="black" cx="27" cy="-237" rx="27" ry="27"/><text text-anchor="start" x="16" y="-228.3" font-family="Times New Roman,serif" font-size="34.00">●</text></g><!-- 2420262403184&#45;&gt;2420262402512 --><g id="edge85" class="edge"><title>2420262403184&#45;&gt;2420262402512</title><path fill="none" stroke="black" d="M54.4,-237C62.39,-237 71.31,-237 79.82,-237"/><polygon fill="black" stroke="black" points="79.92,-240.5 89.92,-237 79.92,-233.5 79.92,-240.5"/></g><!-- 2420262397088&#45;&gt;2420262396992 --><g id="edge26" class="edge"><title>2420262397088&#45;&gt;2420262396992</title><path fill="none" stroke="black" d="M232.78,-84.74C245.22,-80.59 260.64,-75.45 274.8,-70.73"/><polygon fill="black" stroke="black" points="275.98,-74.03 284.36,-67.55 273.76,-67.39 275.98,-74.03"/></g><!-- 2420262398384&#45;&gt;2420262401840 --><g id="edge28" class="edge"><title>2420262398384&#45;&gt;2420262401840</title><path fill="none" stroke="black" d="M52.7,-29.28C86.75,-18.06 150.23,0 206,0 206,0 206,0 1208.5,0 1308,0 1419.83,-41.4 1475.52,-65"/><polygon fill="black" stroke="black" points="1474.36,-68.31 1484.92,-69.05 1477.12,-61.88 1474.36,-68.31"/></g><!-- 2420262398384&#45;&gt;2420262396848 --><g id="edge27" class="edge"><title>2420262398384&#45;&gt;2420262396848</title><path fill="none" stroke="black" d="M50.66,-51.13C59.96,-56.52 70.93,-62.88 81.2,-68.83"/><polygon fill="black" stroke="black" points="79.58,-71.94 89.99,-73.92 83.09,-65.88 79.58,-71.94"/></g><!-- 2420262393008&#45;&gt;2420262401840 --><g id="edge29" class="edge"><title>2420262393008&#45;&gt;2420262401840</title><path fill="none" stroke="black" d="M1404.69,-165.55C1425.18,-149.25 1456.82,-124.09 1480.26,-105.45"/><polygon fill="black" stroke="black" points="1482.53,-108.12 1488.17,-99.15 1478.17,-102.64 1482.53,-108.12"/></g><!-- 2420262395600&#45;&gt;2420262389648 --><g id="edge31" class="edge"><title>2420262395600&#45;&gt;2420262389648</title><path fill="none" stroke="black" d="M1059.35,-236C1088.95,-236 1137.16,-236 1170.29,-236"/><polygon fill="black" stroke="black" points="1170.47,-239.5 1180.47,-236 1170.47,-232.5 1170.47,-239.5"/></g><!-- 2420262395600&#45;&gt;2420262422752 --><g id="edge30" class="edge"><title>2420262395600&#45;&gt;2420262422752</title><path fill="none" stroke="black" d="M1056.76,-224.5C1068.15,-219.29 1082.09,-213.34 1095,-209 1101.41,-206.85 1108.07,-204.79 1114.82,-202.84"/><polygon fill="black" stroke="black" points="1116.05,-206.13 1124.74,-200.07 1114.16,-199.39 1116.05,-206.13"/></g><!-- 2420262392144&#45;&gt;2420262393392 --><g id="edge32" class="edge"><title>2420262392144&#45;&gt;2420262393392</title><path fill="none" stroke="black" d="M233.59,-304.02C241.57,-302.47 250.69,-300.7 259.9,-298.91"/><polygon fill="black" stroke="black" points="260.72,-302.31 269.87,-296.97 259.38,-295.44 260.72,-302.31"/></g><!-- 2420262392144&#45;&gt;2420262391904 --><g id="edge33" class="edge"><title>2420262392144&#45;&gt;2420262391904</title><path fill="none" stroke="black" d="M233.05,-316.65C247.05,-320.93 264.75,-326.34 280.2,-331.06"/><polygon fill="black" stroke="black" points="279.37,-334.47 289.96,-334.04 281.42,-327.77 279.37,-334.47"/></g><!-- 2420262392048&#45;&gt;2420262393104 --><g id="edge34" class="edge"><title>2420262392048&#45;&gt;2420262393104</title><path fill="none" stroke="black" d="M454.24,-290.39C498.78,-287.8 592.06,-283 671,-283 671,-283 671,-283 763,-283 812.49,-283 869.08,-274.15 904.92,-267.43"/><polygon fill="black" stroke="black" points="905.74,-270.83 914.9,-265.51 904.42,-263.96 905.74,-270.83"/></g><!-- 2420262389600&#45;&gt;2420262389168 --><g id="edge36" class="edge"><title>2420262389600&#45;&gt;2420262389168</title><path fill="none" stroke="black" d="M234.22,-237C312.52,-237 544.75,-237 634.78,-237"/><polygon fill="black" stroke="black" points="634.78,-240.5 644.78,-237 634.78,-233.5 634.78,-240.5"/></g><!-- 2420262389600&#45;&gt;2420262388784 --><g id="edge35" class="edge"><title>2420262389600&#45;&gt;2420262388784</title><path fill="none" stroke="black" d="M231.7,-225.81C246.03,-219.04 264.56,-210.29 280.6,-202.72"/><polygon fill="black" stroke="black" points="282.16,-205.85 289.7,-198.42 279.17,-199.52 282.16,-205.85"/></g><!-- 2420262389408&#45;&gt;2420262393104 --><g id="edge37" class="edge"><title>2420262389408&#45;&gt;2420262393104</title><path fill="none" stroke="black" d="M877.51,-236.91C886.12,-240.04 895.97,-243.63 905.31,-247.02"/><polygon fill="black" stroke="black" points="904.18,-250.33 914.77,-250.46 906.57,-243.76 904.18,-250.33"/></g><!-- 2420262388880&#45;&gt;2420262388208 --><g id="edge38" class="edge"><title>2420262388880&#45;&gt;2420262388208</title><path fill="none" stroke="black" d="M452.68,-173.6C469.91,-167.74 493.21,-159.81 512.51,-153.25"/><polygon fill="black" stroke="black" points="513.85,-156.49 522.19,-149.95 511.59,-149.86 513.85,-156.49"/></g><!-- 2420262388400&#45;&gt;2420262101024 --><g id="edge40" class="edge"><title>2420262388400&#45;&gt;2420262101024</title><path fill="none" stroke="black" d="M699.4,-136.3C707.39,-136.39 716.31,-136.49 724.82,-136.59"/><polygon fill="black" stroke="black" points="724.88,-140.09 734.92,-136.7 724.96,-133.09 724.88,-140.09"/></g><!-- 2420262388400&#45;&gt;2420262387920 --><g id="edge39" class="edge"><title>2420262388400&#45;&gt;2420262387920</title><path fill="none" stroke="black" d="M695.21,-149.88C704.59,-155.75 715.75,-162.72 726.19,-169.24"/><polygon fill="black" stroke="black" points="724.4,-172.25 734.73,-174.58 728.11,-166.31 724.4,-172.25"/></g><!-- 2420262107648&#45;&gt;2420262108560 --><g id="edge41" class="edge"><title>2420262107648&#45;&gt;2420262108560</title><path fill="none" stroke="black" d="M1059.35,-393.76C1088.95,-394.61 1137.16,-396 1170.29,-396.96"/><polygon fill="black" stroke="black" points="1170.37,-400.46 1180.47,-397.25 1170.57,-393.46 1170.37,-400.46"/></g><!-- 2420262108752&#45;&gt;2420262393104 --><g id="edge43" class="edge"><title>2420262108752&#45;&gt;2420262393104</title><path fill="none" stroke="black" d="M872.97,-320.3C884.73,-309.88 899.79,-296.53 912.75,-285.04"/><polygon fill="black" stroke="black" points="915.34,-287.42 920.5,-278.17 910.69,-282.18 915.34,-287.42"/></g><!-- 2420262108752&#45;&gt;2420262420928 --><g id="edge42" class="edge"><title>2420262108752&#45;&gt;2420262420928</title><path fill="none" stroke="black" d="M879.4,-339.5C887.39,-339.95 896.31,-340.46 904.82,-340.94"/><polygon fill="black" stroke="black" points="904.74,-344.45 914.92,-341.52 905.13,-337.46 904.74,-344.45"/></g><!-- 2420262108656&#45;&gt;2420262107408 --><g id="edge47" class="edge"><title>2420262108656&#45;&gt;2420262107408</title><path fill="none" stroke="black" d="M1408.1,-432.61C1419.56,-437.63 1433.47,-443.67 1446,-449 1449.86,-450.64 1453.85,-452.33 1457.87,-454.02"/><polygon fill="black" stroke="black" points="1456.68,-457.31 1467.25,-457.95 1459.38,-450.86 1456.68,-457.31"/></g><!-- 2420262108656&#45;&gt;2420262106016 --><g id="edge44" class="edge"><title>2420262108656&#45;&gt;2420262106016</title><path fill="none" stroke="black" d="M1395.55,-446.3C1405.93,-465.21 1423.07,-490.3 1446,-503 1496.01,-530.71 1563.93,-530.77 1606.49,-527.2"/><polygon fill="black" stroke="black" points="1606.84,-530.68 1616.47,-526.26 1606.18,-523.71 1606.84,-530.68"/></g><!-- 2420262108656&#45;&gt;2420262106304 --><g id="edge45" class="edge"><title>2420262108656&#45;&gt;2420262106304</title><path fill="none" stroke="black" d="M1407.22,-409.8C1418.61,-404.37 1432.7,-398.43 1446,-395 1499.1,-381.29 1562.4,-377.25 1603.46,-376.17"/><polygon fill="black" stroke="black" points="1603.74,-379.67 1613.66,-375.96 1603.59,-372.67 1603.74,-379.67"/></g><!-- 2420262108656&#45;&gt;2420262107600 --><g id="edge46" class="edge"><title>2420262108656&#45;&gt;2420262107600</title><path fill="none" stroke="black" d="M1410.01,-422C1427.43,-422 1450.73,-422 1470.56,-422"/><polygon fill="black" stroke="black" points="1470.56,-425.5 1480.56,-422 1470.56,-418.5 1470.56,-425.5"/></g><!-- 2420262108656&#45;&gt;2420262106592 --><g id="edge48" class="edge"><title>2420262108656&#45;&gt;2420262106592</title><path fill="none" stroke="black" d="M1402.63,-402.94C1414.12,-392.37 1429.74,-379.98 1446,-373 1535.65,-334.53 1652.7,-329.18 1711.07,-329.19"/><polygon fill="black" stroke="black" points="1711.25,-332.69 1721.27,-329.24 1711.29,-325.69 1711.25,-332.69"/></g><!-- 2420262108176&#45;&gt;2420262421120 --><g id="edge50" class="edge"><title>2420262108176&#45;&gt;2420262421120</title><path fill="none" stroke="black" d="M689.97,-427.75C704,-411.01 724.02,-387.12 739.24,-368.97"/><polygon fill="black" stroke="black" points="742.11,-370.99 745.85,-361.08 736.74,-366.5 742.11,-370.99"/></g><!-- 2420262108176&#45;&gt;2420262421984 --><g id="edge49" class="edge"><title>2420262108176&#45;&gt;2420262421984</title><path fill="none" stroke="black" d="M699.18,-448C747.22,-448 849.51,-448 904.39,-448"/><polygon fill="black" stroke="black" points="904.71,-451.5 914.71,-448 904.71,-444.5 904.71,-451.5"/></g><!-- 2420262108080&#45;&gt;2420262105728 --><g id="edge52" class="edge"><title>2420262108080&#45;&gt;2420262105728</title><path fill="none" stroke="black" d="M1831.97,-446.95C1821.73,-469.88 1803.94,-503.59 1780,-526 1732.11,-570.82 1714.09,-593 1648.5,-593 548.5,-593 548.5,-593 548.5,-593 479.35,-593 399.31,-580.86 354.07,-572.86"/><polygon fill="black" stroke="black" points="354.62,-569.41 344.15,-571.08 353.38,-576.3 354.62,-569.41"/></g><!-- 2420262108080&#45;&gt;2420262105344 --><g id="edge51" class="edge"><title>2420262108080&#45;&gt;2420262105344</title><path fill="none" stroke="black" d="M1868.98,-414.62C1877.42,-412.13 1887,-409.29 1896.11,-406.6"/><polygon fill="black" stroke="black" points="1897.13,-409.95 1905.73,-403.76 1895.15,-403.24 1897.13,-409.95"/></g><!-- 2420262107936&#45;&gt;2420262107216 --><g id="edge54" class="edge"><title>2420262107936&#45;&gt;2420262107216</title><path fill="none" stroke="black" d="M1673.74,-442.12C1685.22,-438.99 1699.02,-435.22 1711.55,-431.8"/><polygon fill="black" stroke="black" points="1712.54,-435.16 1721.27,-429.15 1710.7,-428.41 1712.54,-435.16"/></g><!-- 2420262107936&#45;&gt;2420262106832 --><g id="edge53" class="edge"><title>2420262107936&#45;&gt;2420262106832</title><path fill="none" stroke="black" d="M1673.74,-455.88C1683.84,-458.64 1695.73,-461.88 1706.99,-464.95"/><polygon fill="black" stroke="black" points="1706.08,-468.33 1716.65,-467.59 1707.92,-461.58 1706.08,-468.33"/></g><!-- 2420262107984&#45;&gt;2420261970000 --><g id="edge56" class="edge"><title>2420262107984&#45;&gt;2420261970000</title><path fill="none" stroke="black" d="M452.68,-528.78C465.45,-524.02 481.54,-518 496.88,-512.28"/><polygon fill="black" stroke="black" points="498.15,-515.54 506.29,-508.76 495.7,-508.98 498.15,-515.54"/></g><!-- 2420262107984&#45;&gt;2420262101408 --><g id="edge57" class="edge"><title>2420262107984&#45;&gt;2420262101408</title><path fill="none" stroke="black" d="M443.05,-515.94C454.51,-500.42 471.43,-480 490,-466 497,-460.72 505.19,-456.15 513.19,-452.34"/><polygon fill="black" stroke="black" points="514.71,-455.49 522.41,-448.22 511.86,-449.1 514.71,-455.49"/></g><!-- 2420262107984&#45;&gt;2420261885248 --><g id="edge55" class="edge"><title>2420262107984&#45;&gt;2420261885248</title><path fill="none" stroke="black" d="M454.15,-539.95C461.79,-540.52 470.53,-541.18 479.53,-541.85"/><polygon fill="black" stroke="black" points="479.53,-545.36 489.76,-542.61 480.05,-538.38 479.53,-545.36"/></g><!-- 2420262105440&#45;&gt;2420262104720 --><g id="edge59" class="edge"><title>2420262105440&#45;&gt;2420262104720</title><path fill="none" stroke="black" d="M2026.42,-356.1C2031.29,-316.39 2045.52,-241.63 2086,-194 2086.62,-193.27 2087.26,-192.56 2087.93,-191.86"/><polygon fill="black" stroke="black" points="2090.53,-194.24 2095.79,-185.05 2085.94,-188.95 2090.53,-194.24"/></g><!-- 2420262105440&#45;&gt;2420262103568 --><g id="edge58" class="edge"><title>2420262105440&#45;&gt;2420262103568</title><path fill="none" stroke="black" d="M2026.42,-409.9C2031.29,-449.61 2045.52,-524.37 2086,-572 2089.71,-576.36 2094.29,-580.11 2099.2,-583.3"/><polygon fill="black" stroke="black" points="2097.82,-586.55 2108.24,-588.46 2101.29,-580.47 2097.82,-586.55"/></g><!-- 2420262105440&#45;&gt;2420262102416 --><g id="edge65" class="edge"><title>2420262105440&#45;&gt;2420262102416</title><path fill="none" stroke="black" d="M2030.42,-409.03C2038.85,-438.58 2056.2,-486.72 2086,-518 2088.92,-521.07 2092.27,-523.85 2095.82,-526.36"/><polygon fill="black" stroke="black" points="2094.06,-529.39 2104.4,-531.73 2097.78,-523.45 2094.06,-529.39"/></g><!-- 2420262105440&#45;&gt;2420262103856 --><g id="edge62" class="edge"><title>2420262105440&#45;&gt;2420262103856</title><path fill="none" stroke="black" d="M2037.53,-405.81C2048.81,-423.37 2066.19,-447.38 2086,-464 2090.64,-467.9 2095.94,-471.44 2101.34,-474.59"/><polygon fill="black" stroke="black" points="2099.95,-477.82 2110.42,-479.5 2103.28,-471.66 2099.95,-477.82"/></g><!-- 2420262105440&#45;&gt;2420262102704 --><g id="edge63" class="edge"><title>2420262105440&#45;&gt;2420262102704</title><path fill="none" stroke="black" d="M2047.62,-394.19C2060.04,-400.07 2075.73,-407.5 2090.53,-414.52"/><polygon fill="black" stroke="black" points="2089.07,-417.69 2099.6,-418.81 2092.06,-411.37 2089.07,-417.69"/></g><!-- 2420262105440&#45;&gt;2420262104144 --><g id="edge61" class="edge"><title>2420262105440&#45;&gt;2420262104144</title><path fill="none" stroke="black" d="M2050.15,-383C2058.93,-383 2069.1,-383 2079.34,-383"/><polygon fill="black" stroke="black" points="2079.56,-386.5 2089.56,-383 2079.56,-379.5 2079.56,-386.5"/></g><!-- 2420262105440&#45;&gt;2420262102992 --><g id="edge64" class="edge"><title>2420262105440&#45;&gt;2420262102992</title><path fill="none" stroke="black" d="M2047.62,-371.81C2060.04,-365.93 2075.73,-358.5 2090.53,-351.48"/><polygon fill="black" stroke="black" points="2092.06,-354.63 2099.6,-347.19 2089.07,-348.31 2092.06,-354.63"/></g><!-- 2420262105440&#45;&gt;2420262104432 --><g id="edge60" class="edge"><title>2420262105440&#45;&gt;2420262104432</title><path fill="none" stroke="black" d="M2037.53,-360.19C2048.81,-342.63 2066.19,-318.62 2086,-302 2087.31,-300.9 2088.68,-299.83 2090.08,-298.78"/><polygon fill="black" stroke="black" points="2092.14,-301.62 2098.47,-293.13 2088.23,-295.81 2092.14,-301.62"/></g><!-- 2420262105440&#45;&gt;2420262103280 --><g id="edge66" class="edge"><title>2420262105440&#45;&gt;2420262103280</title><path fill="none" stroke="black" d="M2030.42,-356.97C2038.85,-327.42 2056.2,-279.28 2086,-248 2090.14,-243.66 2095.12,-239.89 2100.35,-236.65"/><polygon fill="black" stroke="black" points="2102.22,-239.61 2109.27,-231.7 2098.83,-233.49 2102.22,-239.61"/></g><!-- 2420262104960&#45;&gt;2420262102176 --><g id="edge67" class="edge"><title>2420262104960&#45;&gt;2420262102176</title><path fill="none" stroke="black" d="M2275.97,-365.07C2287.81,-354.44 2303,-340.8 2316.03,-329.11"/><polygon fill="black" stroke="black" points="2318.7,-331.41 2323.81,-322.13 2314.03,-326.2 2318.7,-331.41"/></g><!-- 2420262104960&#45;&gt;2420262101792 --><g id="edge68" class="edge"><title>2420262104960&#45;&gt;2420262101792</title><path fill="none" stroke="black" d="M2275.97,-400.93C2287.81,-411.56 2303,-425.2 2316.03,-436.89"/><polygon fill="black" stroke="black" points="2314.03,-439.8 2323.81,-443.87 2318.7,-434.59 2314.03,-439.8"/></g><!-- 2420262402464&#45;&gt;2420262399728 --><g id="edge69" class="edge"><title>2420262402464&#45;&gt;2420262399728</title><path fill="none" stroke="black" d="M232.51,-155.92C244.13,-151.62 258.37,-146.34 271.78,-141.38"/><polygon fill="black" stroke="black" points="273.19,-144.59 281.35,-137.83 270.76,-138.02 273.19,-144.59"/></g><!-- 2420262400832&#45;&gt;2420262401840 --><g id="edge70" class="edge"><title>2420262400832&#45;&gt;2420262401840</title><path fill="none" stroke="black" d="M879.24,-81C913.96,-81 977.07,-81 1031,-81 1031,-81 1031,-81 1208.5,-81 1304.46,-81 1417.55,-81 1474.42,-81"/><polygon fill="black" stroke="black" points="1474.7,-84.5 1484.7,-81 1474.7,-77.5 1474.7,-84.5"/></g></g></svg>