<svg xmlns="http://www.w3.org/2000/svg" xmlns:xlink="http://www.w3.org/1999/xlink" width="3226pt" height="720" viewBox="0 0 3226 540"><g id="graph0" class="graph" transform="scale(1 1) rotate(0) translate(4 536)"><title>imdf_net_1676991288.3693435</title><polygon fill="#fff" stroke="transparent" points="-4 4 -4 -536 3222 -536 3222 4 -4 4"/><g id="node1" class="node"><title>2479808688384</title><polygon fill="#fff" stroke="#000" points="152.5 -165 98.5 -165 98.5 -129 152.5 -129 152.5 -165"/><text x="125.5" y="-143.9" font-family="Times New Roman,serif" font-size="12" text-anchor="middle">Liminar</text></g><g id="node70" class="node"><title>2479808689680</title><ellipse cx="224" cy="-174" fill="#fff" stroke="#000" rx="27" ry="27"/></g><g id="edge1" class="edge"><title>2479808688384-&gt;2479808689680</title><path fill="none" stroke="#000" d="M152.61,-154.31C163.49,-157.35 176.29,-160.93 187.97,-164.2"/><polygon fill="#000" stroke="#000" points="187.29 -167.64 197.86 -166.97 189.18 -160.9 187.29 -167.64"/></g><g id="node2" class="node"><title>2479808687616</title><polygon fill="#000" stroke="#000" points="371.5 -237 317.5 -237 317.5 -201 371.5 -201 371.5 -237"/></g><g id="node68" class="node"><title>2479808690928</title><ellipse cx="465" cy="-327" fill="#fff" stroke="#000" rx="27" ry="27"/></g><g id="edge79" class="edge"><title>2479808687616-&gt;2479808690928</title><path fill="none" stroke="#000" d="M371.74,-228.47C381.83,-232.86 393.05,-238.74 402,-246 418.94,-259.75 433.93,-279.02 444.93,-295.32"/><polygon fill="#000" stroke="#000" points="442.21 -297.56 450.62 -304.01 448.07 -293.73 442.21 -297.56"/></g><g id="node3" class="node"><title>2479808679552</title><polygon fill="#000" stroke="#000" points="604 -159 550 -159 550 -123 604 -123 604 -159"/></g><g id="node50" class="node"><title>2479808418800</title><ellipse cx="689" cy="-45" fill="#fff" stroke="#000" rx="27" ry="27"/></g><g id="edge88" class="edge"><title>2479808679552-&gt;2479808418800</title><path fill="none" stroke="#000" d="M598.69,-122.94C616.19,-107.67 641.42,-85.65 660.6,-68.92"/><polygon fill="#000" stroke="#000" points="662.91 -71.54 668.14 -62.33 658.31 -66.27 662.91 -71.54"/></g><g id="node52" class="node"><title>2479808429120</title><ellipse cx="689" cy="-141" fill="#fff" stroke="#000" rx="27" ry="27"/></g><g id="edge89" class="edge"><title>2479808679552-&gt;2479808429120</title><path fill="none" stroke="#000" d="M604.07,-141C618.21,-141 635.92,-141 651.43,-141"/><polygon fill="#000" stroke="#000" points="651.74 -144.5 661.74 -141 651.74 -137.5 651.74 -144.5"/></g><g id="node4" class="node"><title>2479808418176</title><polygon fill="#000" stroke="#000" points="1001 -128 947 -128 947 -92 1001 -92 1001 -128"/></g><g id="node45" class="node"><title>2479808681424</title><ellipse cx="1064" cy="-287" fill="#fff" stroke="#000" rx="27" ry="27"/></g><g id="edge85" class="edge"><title>2479808418176-&gt;2479808681424</title><path fill="none" stroke="#000" d="M994.16,-128.1C996.64,-130.94 999.01,-133.95 1001,-137 1024.66,-173.17 1042.23,-219.85 1052.51,-251.46"/><polygon fill="#000" stroke="#000" points="1049.23 -252.69 1055.59 -261.16 1055.9 -250.57 1049.23 -252.69"/></g><g id="node5" class="node"><title>2479808423936</title><polygon fill="#fff" stroke="#000" points="1388 -282 1307 -282 1307 -246 1388 -246 1388 -282"/><text x="1347.5" y="-260.9" font-family="Times New Roman,serif" font-size="12" text-anchor="middle">Redistribuição</text></g><g id="node57" class="node"><title>2479808423744</title><ellipse cx="1451" cy="-260" fill="#fff" stroke="#000" rx="27" ry="27"/></g><g id="edge12" class="edge"><title>2479808423936-&gt;2479808423744</title><path fill="none" stroke="#000" d="M1388.03,-262.44C1396.49,-262.11 1405.38,-261.76 1413.7,-261.43"/><polygon fill="#000" stroke="#000" points="1414.02 -264.92 1423.87 -261.03 1413.74 -257.93 1414.02 -264.92"/></g><g id="node6" class="node"><title>2479808594608</title><polygon fill="#fff" stroke="#000" points="2342 -223 2210 -223 2210 -187 2342 -187 2342 -223"/><text x="2276" y="-201.9" font-family="Times New Roman,serif" font-size="12" text-anchor="middle">Expedição de documento</text></g><g id="node64" class="node"><title>2479808594416</title><ellipse cx="2405" cy="-200" fill="#fff" stroke="#000" rx="27" ry="27"/></g><g id="edge14" class="edge"><title>2479808594608-&gt;2479808594416</title><path fill="none" stroke="#000" d="M2342.36,-202.43C2351.15,-202.08 2359.89,-201.74 2367.91,-201.42"/><polygon fill="#000" stroke="#000" points="2368.13 -204.92 2377.98 -201.02 2367.85 -197.92 2368.13 -204.92"/></g><g id="node7" class="node"><title>2479808425856</title><polygon fill="#000" stroke="#000" points="1091 -532 1037 -532 1037 -496 1091 -496 1091 -532"/></g><g id="node54" class="node"><title>2479808681472</title><ellipse cx="2985" cy="-403" fill="#fff" stroke="#000" rx="27" ry="27"/></g><g id="edge80" class="edge"><title>2479808425856-&gt;2479808681472</title><path fill="none" stroke="#000" d="M1091.24,-514C1125.96,-514 1189.07,-514 1243,-514 1243,-514 1243,-514 2806,-514 2860.25,-514 2876.97,-506.26 2922,-476 2938.38,-464.99 2952.9,-448.5 2963.77,-433.97"/><polygon fill="#000" stroke="#000" points="2966.72 -435.86 2969.72 -425.7 2961.04 -431.77 2966.72 -435.86"/></g><g id="node8" class="node"><title>2479808598016</title><polygon fill="#000" stroke="#000" points="3111 -448 3057 -448 3057 -412 3111 -412 3111 -448"/></g><g id="node71" class="node"><title>2479808691696</title><ellipse cx="3187" cy="-403" fill="#fff" stroke="#000" rx="27" ry="27"/><ellipse cx="3187" cy="-403" fill="none" stroke="#000" rx="31" ry="31"/><text x="3177" y="-394.9" font-family="Times New Roman,serif" font-size="32" text-anchor="start">■</text></g><g id="edge81" class="edge"><title>2479808598016-&gt;2479808691696</title><path fill="none" stroke="#000" d="M3111.01,-423.05C3121.97,-420.12 3134.96,-416.64 3147.02,-413.42"/><polygon fill="#000" stroke="#000" points="3148.11 -416.75 3156.87 -410.79 3146.31 -409.99 3148.11 -416.75"/></g><g id="node9" class="node"><title>2479808598400</title><polygon fill="#fff" stroke="#000" points="3120 -394 3048 -394 3048 -358 3120 -358 3120 -394"/><text x="3084" y="-372.9" font-family="Times New Roman,serif" font-size="12" text-anchor="middle">Força maior</text></g><g id="edge5" class="edge"><title>2479808598400-&gt;2479808691696</title><path fill="none" stroke="#000" d="M3120.04,-385.37C3128.73,-387.69 3138.1,-390.2 3146.97,-392.57"/><polygon fill="#000" stroke="#000" points="3146.15 -395.97 3156.72 -395.17 3147.96 -389.21 3146.15 -395.97"/></g><g id="node10" class="node"><title>2479808690448</title><polygon fill="#fff" stroke="#000" points="161 -441 90 -441 90 -405 161 -405 161 -441"/><text x="125.5" y="-419.9" font-family="Times New Roman,serif" font-size="12" text-anchor="middle">Distribuição</text></g><g id="node65" class="node"><title>2479808691264</title><ellipse cx="224" cy="-381" fill="#fff" stroke="#000" rx="27" ry="27"/></g><g id="edge4" class="edge"><title>2479808690448-&gt;2479808691264</title><path fill="none" stroke="#000" d="M161.07,-407.96C170.38,-403.9 180.43,-399.53 189.67,-395.5"/><polygon fill="#000" stroke="#000" points="191.18 -398.67 198.95 -391.47 188.38 -392.25 191.18 -398.67"/></g><g id="node11" class="node"><title>2479808691216</title><polygon fill="#000" stroke="#000" points="371.5 -291 317.5 -291 317.5 -255 371.5 -255 371.5 -291"/></g><g id="node69" class="node"><title>2479808690640</title><ellipse cx="465" cy="-165" fill="#fff" stroke="#000" rx="27" ry="27"/></g><g id="edge18" class="edge"><title>2479808691216-&gt;2479808690640</title><path fill="none" stroke="#000" d="M371.74,-263.53C381.83,-259.14 393.05,-253.26 402,-246 418.94,-232.25 433.93,-212.98 444.93,-196.68"/><polygon fill="#000" stroke="#000" points="448.07 -198.27 450.62 -187.99 442.21 -194.44 448.07 -198.27"/></g><g id="node12" class="node"><title>2479808419472</title><polygon fill="#fff" stroke="#000" points="817 -63 756 -63 756 -27 817 -27 817 -63"/><text x="786.5" y="-41.9" font-family="Times New Roman,serif" font-size="12" text-anchor="middle">Mandado</text></g><g id="node51" class="node"><title>2479808419280</title><ellipse cx="884" cy="-45" fill="#fff" stroke="#000" rx="27" ry="27"/></g><g id="edge8" class="edge"><title>2479808419472-&gt;2479808419280</title><path fill="none" stroke="#000" d="M817.19,-45C826.52,-45 836.93,-45 846.66,-45"/><polygon fill="#000" stroke="#000" points="846.88 -48.5 856.88 -45 846.88 -41.5 846.88 -48.5"/></g><g id="node13" class="node"><title>2479808427920</title><polygon fill="#fff" stroke="#000" points="2562 -410 2468 -410 2468 -374 2562 -374 2562 -410"/><text x="2515" y="-388.9" font-family="Times New Roman,serif" font-size="12" text-anchor="middle">Mero expediente</text></g><g id="node62" class="node"><title>2479808427728</title><ellipse cx="2625" cy="-383" fill="#fff" stroke="#000" rx="27" ry="27"/></g><g id="edge9" class="edge"><title>2479808427920-&gt;2479808427728</title><path fill="none" stroke="#000" d="M2562.11,-388.16C2570.74,-387.44 2579.64,-386.7 2587.91,-386.01"/><polygon fill="#000" stroke="#000" points="2588.31 -389.49 2597.98 -385.17 2587.72 -382.51 2588.31 -389.49"/></g><g id="node14" class="node"><title>2479808429072</title><polygon fill="#000" stroke="#000" points="2922 -467 2868 -467 2868 -431 2922 -431 2922 -467"/></g><g id="node58" class="node"><title>2479808426288</title><ellipse cx="2147" cy="-421" fill="#fff" stroke="#000" rx="27" ry="27"/></g><g id="edge76" class="edge"><title>2479808429072-&gt;2479808426288</title><path fill="none" stroke="#000" d="M2867.95,-455.47C2833.43,-463.45 2770.54,-476 2716,-476 2404,-476 2404,-476 2404,-476 2316.88,-476 2293.79,-471.83 2210,-448 2200.19,-445.21 2189.91,-441.21 2180.59,-437.14"/><polygon fill="#000" stroke="#000" points="2181.85 -433.86 2171.3 -432.91 2178.96 -440.24 2181.85 -433.86"/></g><g id="node15" class="node"><title>2479808597008</title><polygon fill="#000" stroke="#000" points="2542 -356 2488 -356 2488 -320 2542 -320 2542 -356"/></g><g id="node66" class="node"><title>2479808596048</title><ellipse cx="2147" cy="-338" fill="#fff" stroke="#000" rx="27" ry="27"/></g><g id="edge78" class="edge"><title>2479808597008-&gt;2479808596048</title><path fill="none" stroke="#000" d="M2487.83,-341.21C2471.75,-343.02 2450.72,-345.09 2432,-346 2343.09,-350.33 2238.4,-344.58 2184.36,-340.81"/><polygon fill="#000" stroke="#000" points="2184.47 -337.31 2174.25 -340.08 2183.97 -344.29 2184.47 -337.31"/></g><g id="node16" class="node"><title>2479808684064</title><polygon fill="#fff" stroke="#000" points="821 -321 752 -321 752 -285 821 -285 821 -321"/><text x="786.5" y="-299.9" font-family="Times New Roman,serif" font-size="12" text-anchor="middle">Documento</text></g><g id="node47" class="node"><title>2479808683872</title><ellipse cx="884" cy="-303" fill="#fff" stroke="#000" rx="27" ry="27"/></g><g id="edge15" class="edge"><title>2479808684064-&gt;2479808683872</title><path fill="none" stroke="#000" d="M821.17,-303C829.4,-303 838.25,-303 846.6,-303"/><polygon fill="#000" stroke="#000" points="846.83 -306.5 856.83 -303 846.83 -299.5 846.83 -306.5"/></g><g id="node17" class="node"><title>2479808230688</title><polygon fill="#fff" stroke="#000" points="815 -393 758 -393 758 -357 815 -357 815 -393"/><text x="786.5" y="-371.9" font-family="Times New Roman,serif" font-size="12" text-anchor="middle">Remessa</text></g><g id="node49" class="node"><title>2479808222336</title><ellipse cx="884" cy="-375" fill="#fff" stroke="#000" rx="27" ry="27"/></g><g id="edge3" class="edge"><title>2479808230688-&gt;2479808222336</title><path fill="none" stroke="#000" d="M815.12,-375C824.96,-375 836.18,-375 846.64,-375"/><polygon fill="#000" stroke="#000" points="846.75 -378.5 856.75 -375 846.75 -371.5 846.75 -378.5"/></g><g id="node18" class="node"><title>2479808422688</title><polygon fill="#fff" stroke="#000" points="626 -260 528 -260 528 -224 626 -224 626 -260"/><text x="577" y="-238.9" font-family="Times New Roman,serif" font-size="12" text-anchor="middle">Decurso de Prazo</text></g><g id="edge16" class="edge"><title>2479808422688-&gt;2479808681424</title><path fill="none" stroke="#000" d="M626.31,-230.27C668.16,-221.13 730.46,-210 785.5,-210 785.5,-210 785.5,-210 885,-210 937.24,-210 954.12,-205.94 1001,-229 1015.51,-236.14 1028.96,-247.81 1039.61,-258.81"/><polygon fill="#000" stroke="#000" points="1037.14 -261.3 1046.51 -266.26 1042.28 -256.55 1037.14 -261.3"/></g><g id="node19" class="node"><title>2479808424224</title><polygon fill="#000" stroke="#000" points="1568 -333 1514 -333 1514 -297 1568 -297 1568 -333"/></g><g id="node56" class="node"><title>2479808423264</title><ellipse cx="1244" cy="-287" fill="#fff" stroke="#000" rx="27" ry="27"/></g><g id="edge71" class="edge"><title>2479808424224-&gt;2479808423264</title><path fill="none" stroke="#000" d="M1513.82,-312.52C1460.95,-307.5 1341.34,-296.14 1281.1,-290.43"/><polygon fill="#000" stroke="#000" points="1281.21 -286.92 1270.92 -289.46 1280.55 -293.89 1281.21 -286.92"/></g><g id="node20" class="node"><title>2479808424608</title><polygon fill="#000" stroke="#000" points="1568 -279 1514 -279 1514 -243 1568 -243 1568 -279"/></g><g id="node55" class="node"><title>2479808423168</title><ellipse cx="1631" cy="-261" fill="#fff" stroke="#000" rx="27" ry="27"/></g><g id="edge72" class="edge"><title>2479808424608-&gt;2479808423168</title><path fill="none" stroke="#000" d="M1568.4,-261C1576.39,-261 1585.31,-261 1593.82,-261"/><polygon fill="#000" stroke="#000" points="1593.92 -264.5 1603.92 -261 1593.92 -257.5 1593.92 -264.5"/></g><g id="node21" class="node"><title>2479808677680</title><polygon fill="#000" stroke="#000" points="604 -345 550 -345 550 -309 604 -309 604 -345"/></g><g id="node46" class="node"><title>2479808683392</title><ellipse cx="689" cy="-303" fill="#fff" stroke="#000" rx="27" ry="27"/></g><g id="edge93" class="edge"><title>2479808677680-&gt;2479808683392</title><path fill="none" stroke="#000" d="M604.07,-321.31C618.56,-318.15 636.79,-314.17 652.56,-310.73"/><polygon fill="#000" stroke="#000" points="653.47 -314.12 662.5 -308.56 651.98 -307.28 653.47 -314.12"/></g><g id="node48" class="node"><title>2479808687232</title><ellipse cx="689" cy="-375" fill="#fff" stroke="#000" rx="27" ry="27"/></g><g id="edge94" class="edge"><title>2479808677680-&gt;2479808687232</title><path fill="none" stroke="#000" d="M604.07,-338.38C619.26,-345 638.56,-353.43 654.83,-360.52"/><polygon fill="#000" stroke="#000" points="653.43 -363.73 664 -364.53 656.23 -357.32 653.43 -363.73"/></g><g id="node22" class="node"><title>2479808419760</title><polygon fill="#000" stroke="#000" points="1001 -36 947 -36 947 0 1001 0 1001 -36"/></g><g id="edge68" class="edge"><title>2479808419760-&gt;2479808418800</title><path fill="none" stroke="#000" d="M946.85,-13.35C935.82,-11.61 922.82,-9.85 911,-9 840.4,-3.9 820.61,-0.62 752,-18 742.12,-20.5 731.81,-24.42 722.49,-28.49"/><polygon fill="#000" stroke="#000" points="720.84 -25.4 713.21 -32.75 723.76 -31.76 720.84 -25.4"/></g><g id="node23" class="node"><title>2479808425136</title><polygon fill="#fff" stroke="#000" points="1874 -279 1724 -279 1724 -243 1874 -243 1874 -279"/><text x="1799" y="-257.9" font-family="Times New Roman,serif" font-size="12" text-anchor="middle">Cancelamento da distribuição</text></g><g id="node60" class="node"><title>2479808690784</title><ellipse cx="1967" cy="-338" fill="#fff" stroke="#000" rx="27" ry="27"/></g><g id="edge13" class="edge"><title>2479808425136-&gt;2479808690784</title><path fill="none" stroke="#000" d="M1874.16,-276.09C1884.44,-279.37 1894.67,-283.3 1904,-288 1916.7,-294.39 1929.19,-303.71 1939.6,-312.58"/><polygon fill="#000" stroke="#000" points="1937.31 -315.22 1947.13 -319.21 1941.94 -309.97 1937.31 -315.22"/></g><g id="node24" class="node"><title>2479808691120</title><polygon fill="#000" stroke="#000" points="2084 -356 2030 -356 2030 -320 2084 -320 2084 -356"/></g><g id="edge90" class="edge"><title>2479808691120-&gt;2479808426288</title><path fill="none" stroke="#000" d="M2077.09,-356.01C2089.35,-367.57 2105.45,-382.75 2119,-395.53"/><polygon fill="#000" stroke="#000" points="2116.96 -398.42 2126.64 -402.74 2121.77 -393.33 2116.96 -398.42"/></g><g id="node63" class="node"><title>2479808604832</title><ellipse cx="2147" cy="-255" fill="#fff" stroke="#000" rx="27" ry="27"/></g><g id="edge91" class="edge"><title>2479808691120-&gt;2479808604832</title><path fill="none" stroke="#000" d="M2077.09,-319.99C2089.35,-308.43 2105.45,-293.25 2119,-280.47"/><polygon fill="#000" stroke="#000" points="2121.77 -282.67 2126.64 -273.26 2116.96 -277.58 2121.77 -282.67"/></g><g id="edge92" class="edge"><title>2479808691120-&gt;2479808596048</title><path fill="none" stroke="#000" d="M2084.4,-338C2092.39,-338 2101.31,-338 2109.82,-338"/><polygon fill="#000" stroke="#000" points="2109.92 -341.5 2119.92 -338 2109.92 -334.5 2109.92 -341.5"/></g><g id="node25" class="node"><title>2479808427056</title><polygon fill="#fff" stroke="#000" points="2308.5 -439 2243.5 -439 2243.5 -403 2308.5 -403 2308.5 -439"/><text x="2276" y="-417.9" font-family="Times New Roman,serif" font-size="12" text-anchor="middle">Conclusão</text></g><g id="node61" class="node"><title>2479808427248</title><ellipse cx="2405" cy="-421" fill="#fff" stroke="#000" rx="27" ry="27"/></g><g id="edge7" class="edge"><title>2479808427056-&gt;2479808427248</title><path fill="none" stroke="#000" d="M2308.72,-421C2326.61,-421 2349.04,-421 2367.65,-421"/><polygon fill="#000" stroke="#000" points="2367.81 -424.5 2377.81 -421 2367.81 -417.5 2367.81 -424.5"/></g><g id="node26" class="node"><title>2479808428208</title><polygon fill="#000" stroke="#000" points="2742 -448 2688 -448 2688 -412 2742 -412 2742 -448"/></g><g id="edge73" class="edge"><title>2479808428208-&gt;2479808427248</title><path fill="none" stroke="#000" d="M2687.75,-429.23C2632.68,-427.62 2505.02,-423.89 2442.22,-422.06"/><polygon fill="#000" stroke="#000" points="2442.09 -418.55 2431.99 -421.76 2441.89 -425.55 2442.09 -418.55"/></g><g id="node27" class="node"><title>2479808428592</title><polygon fill="#000" stroke="#000" points="2742 -394 2688 -394 2688 -358 2742 -358 2742 -394"/></g><g id="node59" class="node"><title>2479808426768</title><ellipse cx="2805" cy="-376" fill="#fff" stroke="#000" rx="27" ry="27"/></g><g id="edge74" class="edge"><title>2479808428592-&gt;2479808426768</title><path fill="none" stroke="#000" d="M2742.4,-376C2750.39,-376 2759.31,-376 2767.82,-376"/><polygon fill="#000" stroke="#000" points="2767.92 -379.5 2777.92 -376 2767.92 -372.5 2767.92 -379.5"/></g><g id="node28" class="node"><title>2479808690496</title><polygon fill="#fff" stroke="#000" points="402 -345 287 -345 287 -309 402 -309 402 -345"/><text x="344.5" y="-323.9" font-family="Times New Roman,serif" font-size="12" text-anchor="middle">Antecipação de tutela</text></g><g id="edge2" class="edge"><title>2479808690496-&gt;2479808690928</title><path fill="none" stroke="#000" d="M402.32,-327C410.99,-327 419.74,-327 427.8,-327"/><polygon fill="#000" stroke="#000" points="427.96 -330.5 437.96 -327 427.96 -323.5 427.96 -330.5"/></g><g id="node29" class="node"><title>2479808684352</title><polygon fill="#000" stroke="#000" points="1001 -274 947 -274 947 -238 1001 -238 1001 -274"/></g><g id="edge66" class="edge"><title>2479808684352-&gt;2479808683392</title><path fill="none" stroke="#000" d="M946.69,-255.69C904.8,-255.78 820.67,-258.43 752,-276 742.12,-278.53 731.81,-282.45 722.5,-286.52"/><polygon fill="#000" stroke="#000" points="720.85 -283.43 713.22 -290.78 723.77 -289.79 720.85 -283.43"/></g><g id="node30" class="node"><title>2479808423360</title><polygon fill="#000" stroke="#000" points="1181 -305 1127 -305 1127 -269 1181 -269 1181 -305"/></g><g id="edge19" class="edge"><title>2479808423360-&gt;2479808423264</title><path fill="none" stroke="#000" d="M1181.4,-287C1189.39,-287 1198.31,-287 1206.82,-287"/><polygon fill="#000" stroke="#000" points="1206.92 -290.5 1216.92 -287 1206.92 -283.5 1206.92 -290.5"/></g><g id="node31" class="node"><title>2479808425664</title><polygon fill="#000" stroke="#000" points="2922 -352 2868 -352 2868 -316 2922 -316 2922 -352"/></g><g id="edge86" class="edge"><title>2479808425664-&gt;2479808681472</title><path fill="none" stroke="#000" d="M2919.12,-352.13C2930.1,-360.74 2943.34,-371.12 2954.99,-380.26"/><polygon fill="#000" stroke="#000" points="2953.11 -383.23 2963.14 -386.64 2957.43 -377.72 2953.11 -383.23"/></g><g id="node32" class="node"><title>2479808687952</title><polygon fill="#000" stroke="#000" points="371.5 -183 317.5 -183 317.5 -147 371.5 -147 371.5 -183"/></g><g id="edge75" class="edge"><title>2479808687952-&gt;2479808690640</title><path fill="none" stroke="#000" d="M371.51,-165C387.91,-165 409.34,-165 427.44,-165"/><polygon fill="#000" stroke="#000" points="427.65 -168.5 437.65 -165 427.65 -161.5 427.65 -168.5"/></g><g id="node33" class="node"><title>2479808421584</title><polygon fill="#fff" stroke="#000" points="817.5 -140 755.5 -140 755.5 -104 817.5 -104 817.5 -140"/><text x="786.5" y="-118.9" font-family="Times New Roman,serif" font-size="12" text-anchor="middle">Audiência</text></g><g id="node53" class="node"><title>2479808421392</title><ellipse cx="884" cy="-117" fill="#fff" stroke="#000" rx="27" ry="27"/></g><g id="edge10" class="edge"><title>2479808421584-&gt;2479808421392</title><path fill="none" stroke="#000" d="M817.72,-120.42C826.95,-119.93 837.19,-119.4 846.78,-118.9"/><polygon fill="#000" stroke="#000" points="847.04 -122.39 856.84 -118.37 846.67 -115.4 847.04 -122.39"/></g><g id="node34" class="node"><title>2479808425424</title><polygon fill="#fff" stroke="#000" points="1904 -333 1694 -333 1694 -297 1904 -297 1904 -333"/><text x="1799" y="-311.9" font-family="Times New Roman,serif" font-size="12" text-anchor="middle">Perempção, litispendência ou coisa julgada</text></g><g id="edge6" class="edge"><title>2479808425424-&gt;2479808690784</title><path fill="none" stroke="#000" d="M1904.19,-329.44C1913.43,-330.72 1922.29,-331.94 1930.28,-333.05"/><polygon fill="#000" stroke="#000" points="1929.85 -336.52 1940.23 -334.43 1930.81 -329.59 1929.85 -336.52"/></g><g id="node35" class="node"><title>2479808594896</title><polygon fill="#000" stroke="#000" points="2542 -264 2488 -264 2488 -228 2542 -228 2542 -264"/></g><g id="edge77" class="edge"><title>2479808594896-&gt;2479808604832</title><path fill="none" stroke="#000" d="M2487.86,-246.64C2423.61,-248.22 2257.86,-252.3 2184.2,-254.11"/><polygon fill="#000" stroke="#000" points="2183.94 -250.62 2174.03 -254.36 2184.11 -257.61 2183.94 -250.62"/></g><g id="node36" class="node"><title>2479808676576</title><polygon fill="#000" stroke="#000" points="1001 -328 947 -328 947 -292 1001 -292 1001 -328"/></g><g id="edge87" class="edge"><title>2479808676576-&gt;2479808681424</title><path fill="none" stroke="#000" d="M1001.4,-303.1C1009.63,-300.95 1018.83,-298.54 1027.57,-296.26"/><polygon fill="#000" stroke="#000" points="1028.73 -299.57 1037.52 -293.66 1026.96 -292.8 1028.73 -299.57"/></g><g id="node37" class="node"><title>2479808333280</title><polygon fill="#000" stroke="#000" points="1001 -416 947 -416 947 -380 1001 -380 1001 -416"/></g><g id="edge67" class="edge"><title>2479808333280-&gt;2479808687232</title><path fill="none" stroke="#000" d="M946.94,-404.71C935.93,-407.22 922.92,-409.76 911,-411 840.6,-418.3 820.61,-419.38 752,-402 742.12,-399.5 731.81,-395.58 722.49,-391.51"/><polygon fill="#000" stroke="#000" points="723.76 -388.24 713.21 -387.25 720.84 -394.6 723.76 -388.24"/></g><g id="node38" class="node"><title>2479808422880</title><polygon fill="#000" stroke="#000" points="1374.5 -379 1320.5 -379 1320.5 -343 1374.5 -343 1374.5 -379"/></g><g id="edge70" class="edge"><title>2479808422880-&gt;2479808690784</title><path fill="none" stroke="#000" d="M1374.52,-361C1411.36,-361 1480.82,-361 1540,-361 1540,-361 1540,-361 1632,-361 1740.57,-361 1868.51,-348.76 1929.76,-342.13"/><polygon fill="#000" stroke="#000" points="1930.5 -345.58 1940.06 -341.01 1929.74 -338.62 1930.5 -345.58"/></g><g id="node39" class="node"><title>2479808690544</title><polygon fill="#000" stroke="#000" points="371.5 -453 317.5 -453 317.5 -417 371.5 -417 371.5 -453"/></g><g id="edge65" class="edge"><title>2479808690544-&gt;2479808690928</title><path fill="none" stroke="#000" d="M371.74,-425.53C381.83,-421.14 393.05,-415.26 402,-408 418.94,-394.25 433.93,-374.98 444.93,-358.68"/><polygon fill="#000" stroke="#000" points="448.07 -360.27 450.62 -349.99 442.21 -356.44 448.07 -360.27"/></g><g id="node40" class="node"><title>2479808676720</title><polygon fill="#fff" stroke="#000" points="386 -399 303 -399 303 -363 386 -363 386 -399"/><text x="344.5" y="-377.9" font-family="Times New Roman,serif" font-size="12" text-anchor="middle">Incompetência</text></g><g id="edge17" class="edge"><title>2479808676720-&gt;2479808690928</title><path fill="none" stroke="#000" d="M385.29,-362.87C400.04,-356.15 416.6,-348.6 430.71,-342.17"/><polygon fill="#000" stroke="#000" points="432.39 -345.25 440.04 -337.92 429.49 -338.88 432.39 -345.25"/></g><g id="node41" class="node"><title>2479808688624</title><polygon fill="#000" stroke="#000" points="1271 -471 1217 -471 1217 -435 1271 -435 1271 -471"/></g><g id="edge82" class="edge"><title>2479808688624-&gt;2479808690784</title><path fill="none" stroke="#000" d="M1271.03,-446.71C1309.79,-437.91 1385.08,-423 1450,-423 1450,-423 1450,-423 1632,-423 1755.51,-423 1786.58,-404.31 1904,-366 1913.75,-362.82 1924.02,-358.57 1933.33,-354.35"/><polygon fill="#000" stroke="#000" points="1935.05 -357.41 1942.63 -350.01 1932.09 -351.07 1935.05 -357.41"/></g><g id="node42" class="node"><title>2479808421872</title><polygon fill="#000" stroke="#000" points="1001 -182 947 -182 947 -146 1001 -146 1001 -182"/></g><g id="edge69" class="edge"><title>2479808421872-&gt;2479808429120</title><path fill="none" stroke="#000" d="M946.76,-162.73C905.33,-160.62 822.23,-155.91 752,-149 743.55,-148.17 734.48,-147.1 725.95,-146.01"/><polygon fill="#000" stroke="#000" points="726.27 -142.53 715.9 -144.7 725.36 -149.47 726.27 -142.53"/></g><g id="node43" class="node"><title>2479808596720</title><polygon fill="#fff" stroke="#000" points="2303 -333 2249 -333 2249 -297 2303 -297 2303 -333"/><text x="2276" y="-311.9" font-family="Times New Roman,serif" font-size="12" text-anchor="middle">Petição</text></g><g id="node67" class="node"><title>2479808596528</title><ellipse cx="2405" cy="-310" fill="#fff" stroke="#000" rx="27" ry="27"/></g><g id="edge11" class="edge"><title>2479808596720-&gt;2479808596528</title><path fill="none" stroke="#000" d="M2303.01,-313.98C2321.63,-313.24 2346.96,-312.25 2367.59,-311.43"/><polygon fill="#000" stroke="#000" points="2367.74 -314.93 2377.59 -311.04 2367.46 -307.94 2367.74 -314.93"/></g><g id="node44" class="node"><title>2479808691936</title><ellipse cx="27" cy="-466" fill="#fff" stroke="#000" rx="27" ry="27"/><text x="16" y="-457.3" font-family="Times New Roman,serif" font-size="34" text-anchor="start">●</text></g><g id="edge84" class="edge"><title>2479808691936-&gt;2479808425856</title><path fill="none" stroke="#000" d="M52.53,-475.22C89.11,-488.13 160.36,-510 223,-510 223,-510 223,-510 885,-510 934.09,-510 990.78,-511.54 1026.75,-512.71"/><polygon fill="#000" stroke="#000" points="1026.65 -516.21 1036.77 -513.04 1026.89 -509.21 1026.65 -516.21"/></g><g id="edge83" class="edge"><title>2479808691936-&gt;2479808690448</title><path fill="none" stroke="#000" d="M51.85,-455.37C60.57,-451.49 70.72,-446.96 80.63,-442.55"/><polygon fill="#000" stroke="#000" points="82.28 -445.64 89.99 -438.38 79.43 -439.25 82.28 -445.64"/></g><g id="edge20" class="edge"><title>2479808681424-&gt;2479808423360</title><path fill="none" stroke="#000" d="M1091.4,-287C1099.39,-287 1108.31,-287 1116.82,-287"/><polygon fill="#000" stroke="#000" points="1116.92 -290.5 1126.92 -287 1116.92 -283.5 1116.92 -290.5"/></g><g id="edge21" class="edge"><title>2479808681424-&gt;2479808422880</title><path fill="none" stroke="#000" d="M1088.42,-298.52C1099.85,-303.8 1113.92,-309.8 1127,-314 1190.2,-334.3 1266.48,-348.4 1310.45,-355.55"/><polygon fill="#000" stroke="#000" points="1309.95 -359.02 1320.38 -357.14 1311.06 -352.11 1309.95 -359.02"/></g><g id="edge22" class="edge"><title>2479808683392-&gt;2479808684064</title><path fill="none" stroke="#000" d="M716.1,-303C724.03,-303 732.99,-303 741.76,-303"/><polygon fill="#000" stroke="#000" points="741.9 -306.5 751.9 -303 741.9 -299.5 741.9 -306.5"/></g><g id="edge23" class="edge"><title>2479808683872-&gt;2479808684352</title><path fill="none" stroke="#000" d="M908.12,-290.65C917.24,-285.78 927.93,-280.07 937.96,-274.71"/><polygon fill="#000" stroke="#000" points="939.76 -277.72 946.93 -269.92 936.46 -271.55 939.76 -277.72"/></g><g id="edge24" class="edge"><title>2479808683872-&gt;2479808676576</title><path fill="none" stroke="#000" d="M910.93,-305.06C919,-305.7 928.06,-306.43 936.7,-307.11"/><polygon fill="#000" stroke="#000" points="936.71 -310.62 946.95 -307.93 937.26 -303.65 936.71 -310.62"/></g><g id="edge25" class="edge"><title>2479808687232-&gt;2479808230688</title><path fill="none" stroke="#000" d="M716.1,-375C725.79,-375 736.99,-375 747.53,-375"/><polygon fill="#000" stroke="#000" points="747.77 -378.5 757.77 -375 747.77 -371.5 747.77 -378.5"/></g><g id="edge27" class="edge"><title>2479808222336-&gt;2479808676576</title><path fill="none" stroke="#000" d="M906.3,-359.27C916.54,-351.71 929.02,-342.48 940.42,-334.07"/><polygon fill="#000" stroke="#000" points="942.5 -336.88 948.47 -328.12 938.35 -331.25 942.5 -336.88"/></g><g id="edge26" class="edge"><title>2479808222336-&gt;2479808333280</title><path fill="none" stroke="#000" d="M910.45,-381.65C918.79,-383.83 928.21,-386.29 937.16,-388.63"/><polygon fill="#000" stroke="#000" points="936.43 -392.06 946.99 -391.2 938.2 -385.29 936.43 -392.06"/></g><g id="edge28" class="edge"><title>2479808418800-&gt;2479808419472</title><path fill="none" stroke="#000" d="M716.1,-45C725.2,-45 735.63,-45 745.59,-45"/><polygon fill="#000" stroke="#000" points="745.73 -48.5 755.73 -45 745.73 -41.5 745.73 -48.5"/></g><g id="edge30" class="edge"><title>2479808419280-&gt;2479808418176</title><path fill="none" stroke="#000" d="M906.3,-60.73C916.54,-68.29 929.02,-77.52 940.42,-85.93"/><polygon fill="#000" stroke="#000" points="938.35 -88.75 948.47 -91.88 942.5 -83.12 938.35 -88.75"/></g><g id="edge29" class="edge"><title>2479808419280-&gt;2479808419760</title><path fill="none" stroke="#000" d="M909.98,-37.34C918.42,-34.75 928,-31.81 937.11,-29.01"/><polygon fill="#000" stroke="#000" points="938.19 -32.34 946.73 -26.06 936.14 -25.65 938.19 -32.34"/></g><g id="edge31" class="edge"><title>2479808429120-&gt;2479808421584</title><path fill="none" stroke="#000" d="M715.59,-135.91C724.79,-134.08 735.4,-131.97 745.53,-129.95"/><polygon fill="#000" stroke="#000" points="746.3 -133.37 755.43 -127.98 744.94 -126.5 746.3 -133.37"/></g><g id="edge33" class="edge"><title>2479808421392-&gt;2479808418176</title><path fill="none" stroke="#000" d="M910.93,-114.94C919,-114.3 928.06,-113.57 936.7,-112.89"/><polygon fill="#000" stroke="#000" points="937.26 -116.35 946.95 -112.07 936.71 -109.38 937.26 -116.35"/></g><g id="edge32" class="edge"><title>2479808421392-&gt;2479808421872</title><path fill="none" stroke="#000" d="M908.12,-129.35C917.24,-134.22 927.93,-139.93 937.96,-145.29"/><polygon fill="#000" stroke="#000" points="936.46 -148.45 946.93 -150.08 939.76 -142.28 936.46 -148.45"/></g><g id="edge35" class="edge"><title>2479808681472-&gt;2479808598016</title><path fill="none" stroke="#000" d="M3011.23,-410.02C3022.2,-413.08 3035.24,-416.71 3047.18,-420.03"/><polygon fill="#000" stroke="#000" points="3046.31 -423.42 3056.88 -422.73 3048.18 -416.68 3046.31 -423.42"/></g><g id="edge34" class="edge"><title>2479808681472-&gt;2479808598400</title><path fill="none" stroke="#000" d="M3011.23,-395.98C3019.39,-393.7 3028.71,-391.11 3037.86,-388.56"/><polygon fill="#000" stroke="#000" points="3038.98 -391.89 3047.67 -385.83 3037.1 -385.14 3038.98 -391.89"/></g><g id="edge37" class="edge"><title>2479808423168-&gt;2479808425136</title><path fill="none" stroke="#000" d="M1658.3,-261C1673.48,-261 1693.49,-261 1713.61,-261"/><polygon fill="#000" stroke="#000" points="1713.8 -264.5 1723.8 -261 1713.8 -257.5 1713.8 -264.5"/></g><g id="edge36" class="edge"><title>2479808423168-&gt;2479808425424</title><path fill="none" stroke="#000" d="M1655.8,-272.41C1667.19,-277.6 1681.13,-283.56 1694,-288 1700.22,-290.15 1706.7,-292.21 1713.25,-294.18"/><polygon fill="#000" stroke="#000" points="1712.3 -297.55 1722.88 -297 1714.26 -290.83 1712.3 -297.55"/></g><g id="edge38" class="edge"><title>2479808423264-&gt;2479808423936</title><path fill="none" stroke="#000" d="M1270.61,-281.2C1278.63,-279.38 1287.78,-277.31 1296.87,-275.25"/><polygon fill="#000" stroke="#000" points="1297.69 -278.65 1306.67 -273.03 1296.14 -271.82 1297.69 -278.65"/></g><g id="edge39" class="edge"><title>2479808423744-&gt;2479808424224</title><path fill="none" stroke="#000" d="M1474.21,-273.88C1483.59,-279.75 1494.75,-286.72 1505.19,-293.24"/><polygon fill="#000" stroke="#000" points="1503.4 -296.25 1513.73 -298.58 1507.11 -290.31 1503.4 -296.25"/></g><g id="edge40" class="edge"><title>2479808423744-&gt;2479808424608</title><path fill="none" stroke="#000" d="M1478.4,-260.3C1486.39,-260.39 1495.31,-260.49 1503.82,-260.59"/><polygon fill="#000" stroke="#000" points="1503.88 -264.09 1513.92 -260.7 1503.96 -257.09 1503.88 -264.09"/></g><g id="edge41" class="edge"><title>2479808426288-&gt;2479808427056</title><path fill="none" stroke="#000" d="M2174.01,-421C2190.98,-421 2213.53,-421 2233.02,-421"/><polygon fill="#000" stroke="#000" points="2233.18 -424.5 2243.18 -421 2233.18 -417.5 2233.18 -424.5"/></g><g id="edge42" class="edge"><title>2479808426768-&gt;2479808429072</title><path fill="none" stroke="#000" d="M2826.41,-392.93C2837.66,-402.26 2851.82,-414.01 2864.27,-424.34"/><polygon fill="#000" stroke="#000" points="2862.23 -427.19 2872.16 -430.88 2866.7 -421.81 2862.23 -427.19"/></g><g id="edge43" class="edge"><title>2479808426768-&gt;2479808425664</title><path fill="none" stroke="#000" d="M2829.58,-364.74C2838.53,-360.47 2848.93,-355.51 2858.73,-350.83"/><polygon fill="#000" stroke="#000" points="2860.36 -353.94 2867.87 -346.47 2857.34 -347.62 2860.36 -353.94"/></g><g id="edge44" class="edge"><title>2479808690784-&gt;2479808691120</title><path fill="none" stroke="#000" d="M1994.4,-338C2002.39,-338 2011.31,-338 2019.82,-338"/><polygon fill="#000" stroke="#000" points="2019.92 -341.5 2029.92 -338 2019.92 -334.5 2019.92 -341.5"/></g><g id="edge45" class="edge"><title>2479808427248-&gt;2479808427920</title><path fill="none" stroke="#000" d="M2431.32,-414.2C2439.37,-412.04 2448.62,-409.56 2457.95,-407.05"/><polygon fill="#000" stroke="#000" points="2458.91 -410.42 2467.66 -404.44 2457.1 -403.66 2458.91 -410.42"/></g><g id="edge46" class="edge"><title>2479808427728-&gt;2479808428208</title><path fill="none" stroke="#000" d="M2649.12,-395.35C2658.24,-400.22 2668.93,-405.93 2678.96,-411.29"/><polygon fill="#000" stroke="#000" points="2677.46 -414.45 2687.93 -416.08 2680.76 -408.28 2677.46 -414.45"/></g><g id="edge47" class="edge"><title>2479808427728-&gt;2479808428592</title><path fill="none" stroke="#000" d="M2651.93,-380.94C2660,-380.3 2669.06,-379.57 2677.7,-378.89"/><polygon fill="#000" stroke="#000" points="2678.26 -382.35 2687.95 -378.07 2677.71 -375.38 2678.26 -382.35"/></g><g id="edge48" class="edge"><title>2479808604832-&gt;2479808594608</title><path fill="none" stroke="#000" d="M2172.49,-245.36C2185.92,-240.07 2203.17,-233.28 2219.66,-226.79"/><polygon fill="#000" stroke="#000" points="2221.23 -229.93 2229.25 -223.01 2218.66 -223.42 2221.23 -229.93"/></g><g id="edge50" class="edge"><title>2479808594416-&gt;2479808425664</title><path fill="none" stroke="#000" d="M2432.17,-200C2473.1,-200 2554.74,-200 2624,-200 2624,-200 2624,-200 2716,-200 2786.84,-200 2847.43,-268.59 2876.17,-307.62"/><polygon fill="#000" stroke="#000" points="2873.46 -309.85 2882.14 -315.93 2879.15 -305.76 2873.46 -309.85"/></g><g id="edge49" class="edge"><title>2479808594416-&gt;2479808594896</title><path fill="none" stroke="#000" d="M2430.24,-210.32C2444.45,-216.38 2462.67,-224.14 2478.48,-230.87"/><polygon fill="#000" stroke="#000" points="2477.39 -234.21 2487.96 -234.91 2480.13 -227.77 2477.39 -234.21"/></g><g id="edge53" class="edge"><title>2479808691264-&gt;2479808691216</title><path fill="none" stroke="#000" d="M238.38,-358.01C249.58,-340.35 266.92,-316.29 287,-300 293.29,-294.89 300.71,-290.47 308.06,-286.77"/><polygon fill="#000" stroke="#000" points="309.68 -289.88 317.26 -282.47 306.71 -283.54 309.68 -289.88"/></g><g id="edge51" class="edge"><title>2479808691264-&gt;2479808690496</title><path fill="none" stroke="#000" d="M248.98,-370.07C262.1,-364.1 278.84,-356.47 294.58,-349.29"/><polygon fill="#000" stroke="#000" points="296.04 -352.47 303.69 -345.14 293.14 -346.1 296.04 -352.47"/></g><g id="edge54" class="edge"><title>2479808691264-&gt;2479808690544</title><path fill="none" stroke="#000" d="M248.98,-391.93C265.99,-399.68 289.1,-410.21 308.2,-418.92"/><polygon fill="#000" stroke="#000" points="306.95 -422.19 317.5 -423.15 309.85 -415.82 306.95 -422.19"/></g><g id="edge52" class="edge"><title>2479808691264-&gt;2479808676720</title><path fill="none" stroke="#000" d="M251.01,-381C263.18,-381 278.11,-381 292.41,-381"/><polygon fill="#000" stroke="#000" points="292.65 -384.5 302.65 -381 292.65 -377.5 292.65 -384.5"/></g><g id="edge55" class="edge"><title>2479808596048-&gt;2479808596720</title><path fill="none" stroke="#000" d="M2173.7,-333.35C2192.43,-329.95 2218.05,-325.31 2238.84,-321.55"/><polygon fill="#000" stroke="#000" points="2239.69 -324.95 2248.9 -319.73 2238.44 -318.06 2239.69 -324.95"/></g><g id="edge56" class="edge"><title>2479808596528-&gt;2479808597008</title><path fill="none" stroke="#000" d="M2431.32,-316.56C2445.23,-320.17 2462.72,-324.71 2478.03,-328.67"/><polygon fill="#000" stroke="#000" points="2477.15 -332.06 2487.71 -331.18 2478.91 -325.29 2477.15 -332.06"/></g><g id="edge57" class="edge"><title>2479808596528-&gt;2479808425664</title><path fill="none" stroke="#000" d="M2431.78,-306.49C2472.52,-301.25 2554.31,-292 2624,-292 2624,-292 2624,-292 2716,-292 2766.5,-292 2822.96,-308.21 2858.48,-320.49"/><polygon fill="#000" stroke="#000" points="2857.32 -323.79 2867.92 -323.83 2859.66 -317.2 2857.32 -323.79"/></g><g id="edge60" class="edge"><title>2479808690928-&gt;2479808679552</title><path fill="none" stroke="#000" d="M478.59,-303.13C490.79,-280.27 510.05,-244.92 528,-215 537.57,-199.06 548.85,-181.59 558.08,-167.64"/><polygon fill="#000" stroke="#000" points="561.19 -169.29 563.81 -159.02 555.36 -165.41 561.19 -169.29"/></g><g id="edge58" class="edge"><title>2479808690928-&gt;2479808422688</title><path fill="none" stroke="#000" d="M486.95,-310.81C503.17,-298.28 525.89,-280.72 544.33,-266.47"/><polygon fill="#000" stroke="#000" points="546.69 -269.07 552.46 -260.19 542.41 -263.54 546.69 -269.07"/></g><g id="edge61" class="edge"><title>2479808690928-&gt;2479808677680</title><path fill="none" stroke="#000" d="M492.07,-327C506.21,-327 523.92,-327 539.43,-327"/><polygon fill="#000" stroke="#000" points="539.74 -330.5 549.74 -327 539.74 -323.5 539.74 -330.5"/></g><g id="edge59" class="edge"><title>2479808690928-&gt;2479808688624</title><path fill="none" stroke="#000" d="M482.91,-347.5C517.18,-386.61 599.19,-468 688,-468 688,-468 688,-468 1065,-468 1114.25,-468 1170.91,-462.23 1206.82,-457.84"/><polygon fill="#000" stroke="#000" points="1207.33 -461.31 1216.82 -456.59 1206.46 -454.36 1207.33 -461.31"/></g><g id="edge62" class="edge"><title>2479808690640-&gt;2479808688384</title><path fill="none" stroke="#000" d="M440.91,-152.24C429.55,-146.68 415.45,-140.8 402,-138 317.67,-120.43 215.73,-132.02 162.63,-140.45"/><polygon fill="#000" stroke="#000" points="161.98 -137.01 152.68 -142.08 163.12 -143.91 161.98 -137.01"/></g><g id="edge64" class="edge"><title>2479808689680-&gt;2479808687616</title><path fill="none" stroke="#000" d="M249.55,-183.32C266.41,-189.73 289.05,-198.32 307.88,-205.48"/><polygon fill="#000" stroke="#000" points="306.74 -208.79 317.33 -209.06 309.23 -202.24 306.74 -208.79"/></g><g id="edge63" class="edge"><title>2479808689680-&gt;2479808687952</title><path fill="none" stroke="#000" d="M251.01,-172.02C267.41,-170.78 288.84,-169.15 306.94,-167.78"/><polygon fill="#000" stroke="#000" points="307.44 -171.25 317.15 -167 306.91 -164.27 307.44 -171.25"/></g></g></svg>