<?xml version="1.0" encoding="UTF-8" standalone="no"?><!DOCTYPE svg PUBLIC "-//W3C//DTD SVG 1.1//EN" "http://www.w3.org/Graphics/SVG/1.1/DTD/svg11.dtd"><!-- Generated by graphviz version 2.49.3 (20211023.0002) --><!-- Title: pt Pages: 1 --><svg width="1896pt" height="836pt" viewBox="0.00 0.00 1895.92 836.00" xmlns="http://www.w3.org/2000/svg" xmlns:xlink="http://www.w3.org/1999/xlink"><g id="graph0" class="graph" transform="scale(1 1) rotate(0) translate(4 832)"><title>pt</title><polygon fill="white" stroke="transparent" points="-4,4 -4,-832 1891.92,-832 1891.92,4 -4,4"/><!-- 2280406557856 --><g id="node1" class="node"><title>2280406557856</title><ellipse fill="none" stroke="black" cx="843.66" cy="-810" rx="27" ry="18"/><text text-anchor="middle" x="843.66" y="-806.5" font-family="Times New Roman,serif" font-size="15.00">and</text></g><!-- 2280406557520 --><g id="node2" class="node"><title>2280406557520</title><ellipse fill="none" stroke="black" cx="789.66" cy="-738" rx="63.47" ry="18"/><text text-anchor="middle" x="789.66" y="-734.5" font-family="Times New Roman,serif" font-size="15.00">Distribuição</text></g><!-- 2280406557856&#45;&#45;2280406557520 --><g id="edge1" class="edge"><title>2280406557856&#45;&#45;2280406557520</title><path fill="none" stroke="black" d="M831.67,-793.46C823.1,-782.35 811.56,-767.39 802.74,-755.96"/></g><!-- 2280406557616 --><g id="node3" class="node"><title>2280406557616</title><ellipse fill="none" stroke="black" cx="897.66" cy="-738" rx="27" ry="18"/><text text-anchor="middle" x="897.66" y="-734.5" font-family="Times New Roman,serif" font-size="15.00">and</text></g><!-- 2280406557856&#45;&#45;2280406557616 --><g id="edge54" class="edge"><title>2280406557856&#45;&#45;2280406557616</title><path fill="none" stroke="black" d="M855.64,-793.46C864.59,-781.86 876.76,-766.08 885.7,-754.49"/></g><!-- 2280406555840 --><g id="node4" class="node"><title>2280406555840</title><ellipse fill="none" stroke="black" cx="851.66" cy="-666" rx="46.61" ry="18"/><text text-anchor="middle" x="851.66" y="-662.5" font-family="Times New Roman,serif" font-size="15.00">xor loop</text></g><!-- 2280406557616&#45;&#45;2280406555840 --><g id="edge4" class="edge"><title>2280406557616&#45;&#45;2280406555840</title><path fill="none" stroke="black" d="M887.22,-721.12C879.9,-709.98 870.14,-695.13 862.69,-683.8"/></g><!-- 2280406556416 --><g id="node7" class="node"><title>2280406556416</title><ellipse fill="none" stroke="black" cx="943.66" cy="-666" rx="27" ry="18"/><text text-anchor="middle" x="943.66" y="-662.5" font-family="Times New Roman,serif" font-size="15.00">seq</text></g><!-- 2280406557616&#45;&#45;2280406556416 --><g id="edge53" class="edge"><title>2280406557616&#45;&#45;2280406556416</title><path fill="none" stroke="black" d="M908.09,-721.12C915.62,-709.66 925.74,-694.26 933.26,-682.82"/></g><!-- 2280406555888 --><g id="node5" class="node"><title>2280406555888</title><ellipse fill="none" stroke="black" cx="786.66" cy="-594" rx="54.79" ry="18"/><text text-anchor="middle" x="786.66" y="-590.5" font-family="Times New Roman,serif" font-size="15.00">Conclusão</text></g><!-- 2280406555840&#45;&#45;2280406555888 --><g id="edge2" class="edge"><title>2280406555840&#45;&#45;2280406555888</title><path fill="none" stroke="black" d="M836.58,-648.76C826.23,-637.62 812.53,-622.87 802.1,-611.63"/></g><!-- 2280406557232 --><g id="node6" class="node"><title>2280406557232</title><ellipse fill="black" stroke="black" cx="862.66" cy="-594" rx="2.7" ry="2.7"/></g><!-- 2280406555840&#45;&#45;2280406557232 --><g id="edge3" class="edge"><title>2280406555840&#45;&#45;2280406557232</title><path fill="none" stroke="black" d="M854.37,-647.7C857.17,-629.88 861.28,-603.77 862.38,-596.78"/></g><!-- 2280406557424 --><g id="node8" class="node"><title>2280406557424</title><ellipse fill="none" stroke="black" cx="932.66" cy="-594" rx="27" ry="18"/><text text-anchor="middle" x="932.66" y="-590.5" font-family="Times New Roman,serif" font-size="15.00">and</text></g><!-- 2280406556416&#45;&#45;2280406557424 --><g id="edge49" class="edge"><title>2280406556416&#45;&#45;2280406557424</title><path fill="none" stroke="black" d="M940.99,-648.05C939.29,-637.21 937.08,-623.18 935.37,-612.28"/></g><!-- 2280406556032 --><g id="node53" class="node"><title>2280406556032</title><ellipse fill="none" stroke="black" cx="1004.66" cy="-594" rx="27" ry="18"/><text text-anchor="middle" x="1004.66" y="-590.5" font-family="Times New Roman,serif" font-size="15.00">xor</text></g><!-- 2280406556416&#45;&#45;2280406556032 --><g id="edge52" class="edge"><title>2280406556416&#45;&#45;2280406556032</title><path fill="none" stroke="black" d="M956.59,-650.15C966.94,-638.28 981.39,-621.7 991.74,-609.82"/></g><!-- 2280406555744 --><g id="node9" class="node"><title>2280406555744</title><ellipse fill="none" stroke="black" cx="812.66" cy="-522" rx="27" ry="18"/><text text-anchor="middle" x="812.66" y="-518.5" font-family="Times New Roman,serif" font-size="15.00">xor</text></g><!-- 2280406557424&#45;&#45;2280406555744 --><g id="edge7" class="edge"><title>2280406557424&#45;&#45;2280406555744</title><path fill="none" stroke="black" d="M912.84,-581.44C890.61,-568.47 854.75,-547.55 832.5,-534.58"/></g><!-- 2280406556656 --><g id="node12" class="node"><title>2280406556656</title><ellipse fill="none" stroke="black" cx="938.66" cy="-522" rx="27" ry="18"/><text text-anchor="middle" x="938.66" y="-518.5" font-family="Times New Roman,serif" font-size="15.00">and</text></g><!-- 2280406557424&#45;&#45;2280406556656 --><g id="edge48" class="edge"><title>2280406557424&#45;&#45;2280406556656</title><path fill="none" stroke="black" d="M934.14,-575.7C935.07,-564.85 936.26,-550.92 937.19,-540.1"/></g><!-- 2280406555312 --><g id="node10" class="node"><title>2280406555312</title><ellipse fill="black" stroke="black" cx="711.66" cy="-450" rx="2.7" ry="2.7"/></g><!-- 2280406555744&#45;&#45;2280406555312 --><g id="edge5" class="edge"><title>2280406555744&#45;&#45;2280406555312</title><path fill="none" stroke="black" d="M794.6,-508.49C768.73,-490.55 723.15,-458.96 713.49,-452.27"/></g><!-- 2280406556896 --><g id="node11" class="node"><title>2280406556896</title><ellipse fill="none" stroke="black" cx="812.66" cy="-450" rx="80.71" ry="18"/><text text-anchor="middle" x="812.66" y="-446.5" font-family="Times New Roman,serif" font-size="15.00">Desapensamento</text></g><!-- 2280406555744&#45;&#45;2280406556896 --><g id="edge6" class="edge"><title>2280406555744&#45;&#45;2280406556896</title><path fill="none" stroke="black" d="M812.66,-503.7C812.66,-492.85 812.66,-478.92 812.66,-468.1"/></g><!-- 2280406556752 --><g id="node13" class="node"><title>2280406556752</title><ellipse fill="none" stroke="black" cx="938.66" cy="-450" rx="27" ry="18"/><text text-anchor="middle" x="938.66" y="-446.5" font-family="Times New Roman,serif" font-size="15.00">xor</text></g><!-- 2280406556656&#45;&#45;2280406556752 --><g id="edge12" class="edge"><title>2280406556656&#45;&#45;2280406556752</title><path fill="none" stroke="black" d="M938.66,-503.7C938.66,-492.85 938.66,-478.92 938.66,-468.1"/></g><!-- 2280406555936 --><g id="node18" class="node"><title>2280406555936</title><ellipse fill="none" stroke="black" cx="1049.66" cy="-450" rx="46.61" ry="18"/><text text-anchor="middle" x="1049.66" y="-446.5" font-family="Times New Roman,serif" font-size="15.00">xor loop</text></g><!-- 2280406556656&#45;&#45;2280406555936 --><g id="edge47" class="edge"><title>2280406556656&#45;&#45;2280406555936</title><path fill="none" stroke="black" d="M957.74,-508.97C976.7,-497.01 1005.83,-478.64 1026.2,-465.79"/></g><!-- 2280406554304 --><g id="node14" class="node"><title>2280406554304</title><ellipse fill="black" stroke="black" cx="871.66" cy="-378" rx="2.7" ry="2.7"/></g><!-- 2280406556752&#45;&#45;2280406554304 --><g id="edge8" class="edge"><title>2280406556752&#45;&#45;2280406554304</title><path fill="none" stroke="black" d="M924.77,-434.5C907.6,-416.56 879.81,-387.52 873.13,-380.54"/></g><!-- 2280406554256 --><g id="node15" class="node"><title>2280406554256</title><ellipse fill="none" stroke="black" cx="938.66" cy="-378" rx="46.61" ry="18"/><text text-anchor="middle" x="938.66" y="-374.5" font-family="Times New Roman,serif" font-size="15.00">xor loop</text></g><!-- 2280406556752&#45;&#45;2280406554256 --><g id="edge11" class="edge"><title>2280406556752&#45;&#45;2280406554256</title><path fill="none" stroke="black" d="M938.66,-431.7C938.66,-420.85 938.66,-406.92 938.66,-396.1"/></g><!-- 2280406555216 --><g id="node16" class="node"><title>2280406555216</title><ellipse fill="none" stroke="black" cx="882.66" cy="-306" rx="42.28" ry="18"/><text text-anchor="middle" x="882.66" y="-302.5" font-family="Times New Roman,serif" font-size="15.00">Petição</text></g><!-- 2280406554256&#45;&#45;2280406555216 --><g id="edge9" class="edge"><title>2280406554256&#45;&#45;2280406555216</title><path fill="none" stroke="black" d="M925.38,-360.41C916.46,-349.25 904.74,-334.6 895.83,-323.47"/></g><!-- 2280406555072 --><g id="node17" class="node"><title>2280406555072</title><ellipse fill="black" stroke="black" cx="945.66" cy="-306" rx="2.7" ry="2.7"/></g><!-- 2280406554256&#45;&#45;2280406555072 --><g id="edge10" class="edge"><title>2280406554256&#45;&#45;2280406555072</title><path fill="none" stroke="black" d="M940.39,-359.7C942.17,-341.88 944.78,-315.77 945.48,-308.78"/></g><!-- 2280406555264 --><g id="node19" class="node"><title>2280406555264</title><ellipse fill="none" stroke="black" cx="1049.66" cy="-378" rx="46.61" ry="18"/><text text-anchor="middle" x="1049.66" y="-374.5" font-family="Times New Roman,serif" font-size="15.00">xor loop</text></g><!-- 2280406555936&#45;&#45;2280406555264 --><g id="edge45" class="edge"><title>2280406555936&#45;&#45;2280406555264</title><path fill="none" stroke="black" d="M1049.66,-431.7C1049.66,-420.85 1049.66,-406.92 1049.66,-396.1"/></g><!-- 2280406555024 --><g id="node52" class="node"><title>2280406555024</title><ellipse fill="black" stroke="black" cx="1116.66" cy="-378" rx="2.7" ry="2.7"/></g><!-- 2280406555936&#45;&#45;2280406555024 --><g id="edge46" class="edge"><title>2280406555936&#45;&#45;2280406555024</title><path fill="none" stroke="black" d="M1065.2,-432.76C1082.51,-414.67 1108.92,-387.08 1115.26,-380.46"/></g><!-- 2280406554016 --><g id="node20" class="node"><title>2280406554016</title><ellipse fill="none" stroke="black" cx="1025.66" cy="-306" rx="27" ry="18"/><text text-anchor="middle" x="1025.66" y="-302.5" font-family="Times New Roman,serif" font-size="15.00">seq</text></g><!-- 2280406555264&#45;&#45;2280406554016 --><g id="edge43" class="edge"><title>2280406555264&#45;&#45;2280406554016</title><path fill="none" stroke="black" d="M1043.85,-360.05C1040.07,-349.05 1035.17,-334.76 1031.41,-323.79"/></g><!-- 2280406553632 --><g id="node51" class="node"><title>2280406553632</title><ellipse fill="black" stroke="black" cx="1073.66" cy="-306" rx="2.7" ry="2.7"/></g><!-- 2280406555264&#45;&#45;2280406553632 --><g id="edge44" class="edge"><title>2280406555264&#45;&#45;2280406553632</title><path fill="none" stroke="black" d="M1055.47,-360.05C1061.57,-342.25 1070.62,-315.87 1073.04,-308.8"/></g><!-- 2280406555120 --><g id="node21" class="node"><title>2280406555120</title><ellipse fill="none" stroke="black" cx="307.66" cy="-234" rx="27" ry="18"/><text text-anchor="middle" x="307.66" y="-230.5" font-family="Times New Roman,serif" font-size="15.00">xor</text></g><!-- 2280406554016&#45;&#45;2280406555120 --><g id="edge23" class="edge"><title>2280406554016&#45;&#45;2280406555120</title><path fill="none" stroke="black" d="M998.82,-302.38C885.53,-291.34 447.06,-248.59 334.24,-237.59"/></g><!-- 2280406554976 --><g id="node32" class="node"><title>2280406554976</title><ellipse fill="none" stroke="black" cx="1025.66" cy="-234" rx="27" ry="18"/><text text-anchor="middle" x="1025.66" y="-230.5" font-family="Times New Roman,serif" font-size="15.00">xor</text></g><!-- 2280406554016&#45;&#45;2280406554976 --><g id="edge37" class="edge"><title>2280406554016&#45;&#45;2280406554976</title><path fill="none" stroke="black" d="M1025.66,-287.7C1025.66,-276.85 1025.66,-262.92 1025.66,-252.1"/></g><!-- 2280406556176 --><g id="node46" class="node"><title>2280406556176</title><ellipse fill="none" stroke="black" cx="1131.66" cy="-234" rx="27" ry="18"/><text text-anchor="middle" x="1131.66" y="-230.5" font-family="Times New Roman,serif" font-size="15.00">xor</text></g><!-- 2280406554016&#45;&#45;2280406556176 --><g id="edge42" class="edge"><title>2280406554016&#45;&#45;2280406556176</title><path fill="none" stroke="black" d="M1044.12,-292.81C1063.46,-280.04 1093.66,-260.09 1113.05,-247.29"/></g><!-- 2280406552672 --><g id="node22" class="node"><title>2280406552672</title><ellipse fill="none" stroke="black" cx="69.66" cy="-162" rx="53.51" ry="18"/><text text-anchor="middle" x="69.66" y="-158.5" font-family="Times New Roman,serif" font-size="15.00">Audiência</text></g><!-- 2280406555120&#45;&#45;2280406552672 --><g id="edge13" class="edge"><title>2280406555120&#45;&#45;2280406552672</title><path fill="none" stroke="black" d="M283.53,-225.9C242.4,-213.81 158.38,-189.09 108.77,-174.5"/></g><!-- 2280406554880 --><g id="node23" class="node"><title>2280406554880</title><ellipse fill="none" stroke="black" cx="186.66" cy="-162" rx="45.34" ry="18"/><text text-anchor="middle" x="186.66" y="-158.5" font-family="Times New Roman,serif" font-size="15.00">Decisão</text></g><!-- 2280406555120&#45;&#45;2280406554880 --><g id="edge14" class="edge"><title>2280406555120&#45;&#45;2280406554880</title><path fill="none" stroke="black" d="M287.95,-221.6C267.05,-209.51 234.01,-190.39 211.38,-177.31"/></g><!-- 2280406552336 --><g id="node24" class="node"><title>2280406552336</title><ellipse fill="none" stroke="black" cx="307.66" cy="-162" rx="57.85" ry="18"/><text text-anchor="middle" x="307.66" y="-158.5" font-family="Times New Roman,serif" font-size="15.00">Julgamento</text></g><!-- 2280406555120&#45;&#45;2280406552336 --><g id="edge15" class="edge"><title>2280406555120&#45;&#45;2280406552336</title><path fill="none" stroke="black" d="M307.66,-215.7C307.66,-204.85 307.66,-190.92 307.66,-180.1"/></g><!-- 2280406552960 --><g id="node25" class="node"><title>2280406552960</title><ellipse fill="none" stroke="black" cx="410.66" cy="-162" rx="27" ry="18"/><text text-anchor="middle" x="410.66" y="-158.5" font-family="Times New Roman,serif" font-size="15.00">seq</text></g><!-- 2280406555120&#45;&#45;2280406552960 --><g id="edge22" class="edge"><title>2280406555120&#45;&#45;2280406552960</title><path fill="none" stroke="black" d="M326.07,-220.49C344.82,-207.74 373.71,-188.11 392.4,-175.41"/></g><!-- 2280406552192 --><g id="node26" class="node"><title>2280406552192</title><ellipse fill="none" stroke="black" cx="299.66" cy="-90" rx="27" ry="18"/><text text-anchor="middle" x="299.66" y="-86.5" font-family="Times New Roman,serif" font-size="15.00">xor</text></g><!-- 2280406552960&#45;&#45;2280406552192 --><g id="edge18" class="edge"><title>2280406552960&#45;&#45;2280406552192</title><path fill="none" stroke="black" d="M391.57,-148.97C371.24,-136.15 339.24,-115.96 318.86,-103.11"/></g><!-- 2280406553296 --><g id="node29" class="node"><title>2280406553296</title><ellipse fill="none" stroke="black" cx="410.66" cy="-90" rx="27" ry="18"/><text text-anchor="middle" x="410.66" y="-86.5" font-family="Times New Roman,serif" font-size="15.00">xor</text></g><!-- 2280406552960&#45;&#45;2280406553296 --><g id="edge21" class="edge"><title>2280406552960&#45;&#45;2280406553296</title><path fill="none" stroke="black" d="M410.66,-143.7C410.66,-132.85 410.66,-118.92 410.66,-108.1"/></g><!-- 2280406551184 --><g id="node27" class="node"><title>2280406551184</title><ellipse fill="none" stroke="black" cx="114.66" cy="-18" rx="114.81" ry="18"/><text text-anchor="middle" x="114.66" y="-14.5" font-family="Times New Roman,serif" font-size="15.00">Expedição de documento</text></g><!-- 2280406552192&#45;&#45;2280406551184 --><g id="edge16" class="edge"><title>2280406552192&#45;&#45;2280406551184</title><path fill="none" stroke="black" d="M276.6,-80.28C246.57,-68.91 193.54,-48.85 156.37,-34.78"/></g><!-- 2280406552480 --><g id="node28" class="node"><title>2280406552480</title><ellipse fill="none" stroke="black" cx="299.66" cy="-18" rx="52.23" ry="18"/><text text-anchor="middle" x="299.66" y="-14.5" font-family="Times New Roman,serif" font-size="15.00">Despacho</text></g><!-- 2280406552192&#45;&#45;2280406552480 --><g id="edge17" class="edge"><title>2280406552192&#45;&#45;2280406552480</title><path fill="none" stroke="black" d="M299.66,-71.7C299.66,-60.85 299.66,-46.92 299.66,-36.1"/></g><!-- 2280406551328 --><g id="node30" class="node"><title>2280406551328</title><ellipse fill="black" stroke="black" cx="372.66" cy="-18" rx="2.7" ry="2.7"/></g><!-- 2280406553296&#45;&#45;2280406551328 --><g id="edge19" class="edge"><title>2280406553296&#45;&#45;2280406551328</title><path fill="none" stroke="black" d="M401.84,-72.76C392.2,-54.99 377.57,-28.06 373.65,-20.84"/></g><!-- 2280406553728 --><g id="node31" class="node"><title>2280406553728</title><ellipse fill="none" stroke="black" cx="448.66" cy="-18" rx="55.68" ry="18"/><text text-anchor="middle" x="448.66" y="-14.5" font-family="Times New Roman,serif" font-size="15.00">Provisório</text></g><!-- 2280406553296&#45;&#45;2280406553728 --><g id="edge20" class="edge"><title>2280406553296&#45;&#45;2280406553728</title><path fill="none" stroke="black" d="M419.47,-72.76C425.43,-61.78 433.3,-47.29 439.36,-36.12"/></g><!-- 2280406553872 --><g id="node33" class="node"><title>2280406553872</title><ellipse fill="black" stroke="black" cx="992.66" cy="-162" rx="2.7" ry="2.7"/></g><!-- 2280406554976&#45;&#45;2280406553872 --><g id="edge24" class="edge"><title>2280406554976&#45;&#45;2280406553872</title><path fill="none" stroke="black" d="M1017.84,-216.41C1009.45,-198.62 996.88,-171.96 993.51,-164.82"/></g><!-- 2280406553248 --><g id="node34" class="node"><title>2280406553248</title><ellipse fill="none" stroke="black" cx="1059.66" cy="-162" rx="46.61" ry="18"/><text text-anchor="middle" x="1059.66" y="-158.5" font-family="Times New Roman,serif" font-size="15.00">xor loop</text></g><!-- 2280406554976&#45;&#45;2280406553248 --><g id="edge36" class="edge"><title>2280406554976&#45;&#45;2280406553248</title><path fill="none" stroke="black" d="M1033.54,-216.76C1038.88,-205.78 1045.91,-191.29 1051.34,-180.12"/></g><!-- 2280406551568 --><g id="node35" class="node"><title>2280406551568</title><ellipse fill="none" stroke="black" cx="1035.66" cy="-90" rx="27" ry="18"/><text text-anchor="middle" x="1035.66" y="-86.5" font-family="Times New Roman,serif" font-size="15.00">xor</text></g><!-- 2280406553248&#45;&#45;2280406551568 --><g id="edge34" class="edge"><title>2280406553248&#45;&#45;2280406551568</title><path fill="none" stroke="black" d="M1053.85,-144.05C1050.07,-133.05 1045.17,-118.76 1041.41,-107.79"/></g><!-- 2280406550656 --><g id="node45" class="node"><title>2280406550656</title><ellipse fill="black" stroke="black" cx="1083.66" cy="-90" rx="2.7" ry="2.7"/></g><!-- 2280406553248&#45;&#45;2280406550656 --><g id="edge35" class="edge"><title>2280406553248&#45;&#45;2280406550656</title><path fill="none" stroke="black" d="M1065.47,-144.05C1071.57,-126.25 1080.62,-99.87 1083.04,-92.8"/></g><!-- 2280406551376 --><g id="node36" class="node"><title>2280406551376</title><ellipse fill="none" stroke="black" cx="570.66" cy="-18" rx="47.89" ry="18"/><text text-anchor="middle" x="570.66" y="-14.5" font-family="Times New Roman,serif" font-size="15.00">Remessa</text></g><!-- 2280406551568&#45;&#45;2280406551376 --><g id="edge25" class="edge"><title>2280406551568&#45;&#45;2280406551376</title><path fill="none" stroke="black" d="M1009.66,-85.09C933.35,-73.6 709.37,-39.88 614.22,-25.56"/></g><!-- 2280406550512 --><g id="node37" class="node"><title>2280406550512</title><ellipse fill="none" stroke="black" cx="694.66" cy="-18" rx="57.85" ry="18"/><text text-anchor="middle" x="694.66" y="-14.5" font-family="Times New Roman,serif" font-size="15.00">Documento</text></g><!-- 2280406551568&#45;&#45;2280406550512 --><g id="edge26" class="edge"><title>2280406551568&#45;&#45;2280406550512</title><path fill="none" stroke="black" d="M1010.3,-83.8C953.35,-72.1 814.54,-43.61 741.44,-28.6"/></g><!-- 2280406551424 --><g id="node38" class="node"><title>2280406551424</title><ellipse fill="none" stroke="black" cx="836.66" cy="-18" rx="66.92" ry="18"/><text text-anchor="middle" x="836.66" y="-14.5" font-family="Times New Roman,serif" font-size="15.00">Apensamento</text></g><!-- 2280406551568&#45;&#45;2280406551424 --><g id="edge27" class="edge"><title>2280406551568&#45;&#45;2280406551424</title><path fill="none" stroke="black" d="M1012.05,-80.7C978.38,-68.85 916.17,-46.97 875.62,-32.71"/></g><!-- 2280406551808 --><g id="node39" class="node"><title>2280406551808</title><ellipse fill="none" stroke="black" cx="974.66" cy="-18" rx="53.51" ry="18"/><text text-anchor="middle" x="974.66" y="-14.5" font-family="Times New Roman,serif" font-size="15.00">Definitivo</text></g><!-- 2280406551568&#45;&#45;2280406551808 --><g id="edge28" class="edge"><title>2280406551568&#45;&#45;2280406551808</title><path fill="none" stroke="black" d="M1022.72,-74.15C1012.93,-62.92 999.47,-47.48 989.29,-35.79"/></g><!-- 2280406552864 --><g id="node40" class="node"><title>2280406552864</title><ellipse fill="none" stroke="black" cx="1096.66" cy="-18" rx="50.06" ry="18"/><text text-anchor="middle" x="1096.66" y="-14.5" font-family="Times New Roman,serif" font-size="15.00">Mandado</text></g><!-- 2280406551568&#45;&#45;2280406552864 --><g id="edge29" class="edge"><title>2280406551568&#45;&#45;2280406552864</title><path fill="none" stroke="black" d="M1048.59,-74.15C1058.52,-62.76 1072.23,-47.03 1082.46,-35.29"/></g><!-- 2280406551760 --><g id="node41" class="node"><title>2280406551760</title><ellipse fill="none" stroke="black" cx="1258.66" cy="-18" rx="93.62" ry="18"/><text text-anchor="middle" x="1258.66" y="-14.5" font-family="Times New Roman,serif" font-size="15.00">Trânsito em julgado</text></g><!-- 2280406551568&#45;&#45;2280406551760 --><g id="edge30" class="edge"><title>2280406551568&#45;&#45;2280406551760</title><path fill="none" stroke="black" d="M1059.52,-81.51C1095.7,-70.15 1165.14,-48.36 1211.69,-33.74"/></g><!-- 2280406553392 --><g id="node42" class="node"><title>2280406553392</title><ellipse fill="none" stroke="black" cx="1455.66" cy="-18" rx="84.55" ry="18"/><text text-anchor="middle" x="1455.66" y="-14.5" font-family="Times New Roman,serif" font-size="15.00">Decurso de Prazo</text></g><!-- 2280406551568&#45;&#45;2280406553392 --><g id="edge31" class="edge"><title>2280406551568&#45;&#45;2280406553392</title><path fill="none" stroke="black" d="M1061.61,-84.67C1126.44,-73.87 1297,-45.44 1391.07,-29.76"/></g><!-- 2280406552768 --><g id="node43" class="node"><title>2280406552768</title><ellipse fill="none" stroke="black" cx="1641.66" cy="-18" rx="83.27" ry="18"/><text text-anchor="middle" x="1641.66" y="-14.5" font-family="Times New Roman,serif" font-size="15.00">Desarquivamento</text></g><!-- 2280406551568&#45;&#45;2280406552768 --><g id="edge32" class="edge"><title>2280406551568&#45;&#45;2280406552768</title><path fill="none" stroke="black" d="M1062.08,-85.95C1150.13,-75.78 1435.52,-42.81 1570.13,-27.26"/></g><!-- 2280406551136 --><g id="node44" class="node"><title>2280406551136</title><ellipse fill="none" stroke="black" cx="1815.66" cy="-18" rx="72.04" ry="18"/><text text-anchor="middle" x="1815.66" y="-14.5" font-family="Times New Roman,serif" font-size="15.00">Redistribuição</text></g><!-- 2280406551568&#45;&#45;2280406551136 --><g id="edge33" class="edge"><title>2280406551568&#45;&#45;2280406551136</title><path fill="none" stroke="black" d="M1062.5,-86.59C1171.87,-76.78 1585.67,-39.64 1748.88,-24.99"/></g><!-- 2280406552000 --><g id="node47" class="node"><title>2280406552000</title><ellipse fill="black" stroke="black" cx="1131.66" cy="-162" rx="2.7" ry="2.7"/></g><!-- 2280406556176&#45;&#45;2280406552000 --><g id="edge38" class="edge"><title>2280406556176&#45;&#45;2280406552000</title><path fill="none" stroke="black" d="M1131.66,-215.7C1131.66,-197.88 1131.66,-171.77 1131.66,-164.78"/></g><!-- 2280406551616 --><g id="node48" class="node"><title>2280406551616</title><ellipse fill="none" stroke="black" cx="1209.66" cy="-162" rx="27" ry="18"/><text text-anchor="middle" x="1209.66" y="-158.5" font-family="Times New Roman,serif" font-size="15.00">xor</text></g><!-- 2280406556176&#45;&#45;2280406551616 --><g id="edge41" class="edge"><title>2280406556176&#45;&#45;2280406551616</title><path fill="none" stroke="black" d="M1147.07,-219.17C1160.74,-206.9 1180.61,-189.06 1194.28,-176.8"/></g><!-- 2280406553440 --><g id="node49" class="node"><title>2280406553440</title><ellipse fill="none" stroke="black" cx="1209.66" cy="-90" rx="104.85" ry="18"/><text text-anchor="middle" x="1209.66" y="-86.5" font-family="Times New Roman,serif" font-size="15.00">Com efeito suspensivo</text></g><!-- 2280406551616&#45;&#45;2280406553440 --><g id="edge39" class="edge"><title>2280406551616&#45;&#45;2280406553440</title><path fill="none" stroke="black" d="M1209.66,-143.7C1209.66,-132.85 1209.66,-118.92 1209.66,-108.1"/></g><!-- 2280406552096 --><g id="node50" class="node"><title>2280406552096</title><ellipse fill="none" stroke="black" cx="1408.66" cy="-90" rx="75.99" ry="18"/><text text-anchor="middle" x="1408.66" y="-86.5" font-family="Times New Roman,serif" font-size="15.00">Ato ordinatório</text></g><!-- 2280406551616&#45;&#45;2280406552096 --><g id="edge40" class="edge"><title>2280406551616&#45;&#45;2280406552096</title><path fill="none" stroke="black" d="M1233.26,-152.7C1266.52,-141 1327.62,-119.51 1368.2,-105.23"/></g><!-- 2280406554544 --><g id="node54" class="node"><title>2280406554544</title><ellipse fill="black" stroke="black" cx="998.66" cy="-522" rx="2.7" ry="2.7"/></g><!-- 2280406556032&#45;&#45;2280406554544 --><g id="edge50" class="edge"><title>2280406556032&#45;&#45;2280406554544</title><path fill="none" stroke="black" d="M1003.17,-575.7C1001.65,-557.88 999.41,-531.77 998.81,-524.78"/></g><!-- 2280406555984 --><g id="node55" class="node"><title>2280406555984</title><ellipse fill="none" stroke="black" cx="1216.66" cy="-522" rx="197.19" ry="18"/><text text-anchor="middle" x="1216.66" y="-518.5" font-family="Times New Roman,serif" font-size="15.00">Cumprimento de Levantamento da Suspensão</text></g><!-- 2280406556032&#45;&#45;2280406555984 --><g id="edge51" class="edge"><title>2280406556032&#45;&#45;2280406555984</title><path fill="none" stroke="black" d="M1028.56,-585.11C1061.92,-574.09 1123.21,-553.86 1166.75,-539.48"/></g></g></svg>