<?xml version="1.0" encoding="UTF-8" standalone="no"?><!DOCTYPE svg PUBLIC "-//W3C//DTD SVG 1.1//EN" "http://www.w3.org/Graphics/SVG/1.1/DTD/svg11.dtd"><!-- Generated by graphviz version 2.49.3 (20211023.0002) --><!-- Title: imdf_net_1677270088.1483042 Pages: 1 --><svg width="2920pt" height="473pt" viewBox="0.00 0.00 2920.00 473.00" xmlns="http://www.w3.org/2000/svg" xmlns:xlink="http://www.w3.org/1999/xlink"><g id="graph0" class="graph" transform="scale(1 1) rotate(0) translate(4 469)"><title>imdf_net_1677270088.1483042</title><polygon fill="white" stroke="transparent" points="-4,4 -4,-469 2916,-469 2916,4 -4,4"/><!-- 1834068345856 --><g id="node1" class="node"><title>1834068345856</title><polygon fill="white" stroke="black" points="1275,-418 1214,-418 1214,-382 1275,-382 1275,-418"/><text text-anchor="middle" x="1244.5" y="-396.9" font-family="Times New Roman,serif" font-size="12.00">Mandado</text></g><!-- 1834068345664 --><g id="node45" class="node"><title>1834068345664</title><ellipse fill="white" stroke="black" cx="1338" cy="-428" rx="27" ry="27"/></g><!-- 1834068345856&#45;&gt;1834068345664 --><g id="edge8" class="edge"><title>1834068345856&#45;&gt;1834068345664</title><path fill="none" stroke="black" d="M1275.21,-409.09C1283.85,-411.74 1293.37,-414.65 1302.29,-417.38"/><polygon fill="black" stroke="black" points="1301.45,-420.78 1312.04,-420.36 1303.5,-414.09 1301.45,-420.78"/></g><!-- 1834068353152 --><g id="node2" class="node"><title>1834068353152</title><polygon fill="black" stroke="black" points="908,-152 854,-152 854,-116 908,-116 908,-152"/></g><!-- 1834068352192 --><g id="node51" class="node"><title>1834068352192</title><ellipse fill="white" stroke="black" cx="584" cy="-155" rx="27" ry="27"/></g><!-- 1834068353152&#45;&gt;1834068352192 --><g id="edge65" class="edge"><title>1834068353152&#45;&gt;1834068352192</title><path fill="none" stroke="black" d="M853.69,-133.68C810.42,-133.45 721.58,-134.24 647,-143 638.31,-144.02 629.02,-145.57 620.34,-147.22"/><polygon fill="black" stroke="black" points="619.63,-143.79 610.51,-149.18 621,-150.66 619.63,-143.79"/></g><!-- 1834068355840 --><g id="node3" class="node"><title>1834068355840</title><polygon fill="white" stroke="black" points="2454,-111 2322,-111 2322,-75 2454,-75 2454,-111"/><text text-anchor="middle" x="2388" y="-89.9" font-family="Times New Roman,serif" font-size="12.00">Expedição de documento</text></g><!-- 1834068355648 --><g id="node54" class="node"><title>1834068355648</title><ellipse fill="white" stroke="black" cx="2517" cy="-93" rx="27" ry="27"/></g><!-- 1834068355840&#45;&gt;1834068355648 --><g id="edge1" class="edge"><title>1834068355840&#45;&gt;1834068355648</title><path fill="none" stroke="black" d="M2454.36,-93C2463.15,-93 2471.89,-93 2479.91,-93"/><polygon fill="black" stroke="black" points="2479.98,-96.5 2489.98,-93 2479.98,-89.5 2479.98,-96.5"/></g><!-- 1834068379392 --><g id="node4" class="node"><title>1834068379392</title><polygon fill="white" stroke="black" points="2420.5,-217 2355.5,-217 2355.5,-181 2420.5,-181 2420.5,-217"/><text text-anchor="middle" x="2388" y="-195.9" font-family="Times New Roman,serif" font-size="12.00">Conclusão</text></g><!-- 1834068379200 --><g id="node62" class="node"><title>1834068379200</title><ellipse fill="white" stroke="black" cx="2517" cy="-203" rx="27" ry="27"/></g><!-- 1834068379392&#45;&gt;1834068379200 --><g id="edge4" class="edge"><title>1834068379392&#45;&gt;1834068379200</title><path fill="none" stroke="black" d="M2420.72,-200C2438.61,-200.56 2461.04,-201.27 2479.65,-201.85"/><polygon fill="black" stroke="black" points="2479.71,-205.36 2489.81,-202.18 2479.93,-198.36 2479.71,-205.36"/></g><!-- 1834067867536 --><g id="node5" class="node"><title>1834067867536</title><polygon fill="black" stroke="black" points="1088,-350 1034,-350 1034,-314 1088,-314 1088,-350"/></g><!-- 1834067857360 --><g id="node42" class="node"><title>1834067857360</title><ellipse fill="white" stroke="black" cx="1151" cy="-318" rx="27" ry="27"/></g><!-- 1834067867536&#45;&gt;1834067857360 --><g id="edge14" class="edge"><title>1834067867536&#45;&gt;1834067857360</title><path fill="none" stroke="black" d="M1088.4,-327.8C1096.55,-326.5 1105.67,-325.05 1114.34,-323.67"/><polygon fill="black" stroke="black" points="1114.9,-327.13 1124.22,-322.1 1113.8,-320.22 1114.9,-327.13"/></g><!-- 1834068349456 --><g id="node6" class="node"><title>1834068349456</title><polygon fill="black" stroke="black" points="908,-219 854,-219 854,-183 908,-183 908,-219"/></g><!-- 1834067856400 --><g id="node64" class="node"><title>1834067856400</title><ellipse fill="white" stroke="black" cx="1886" cy="-201" rx="27" ry="27"/></g><!-- 1834068349456&#45;&gt;1834067856400 --><g id="edge77" class="edge"><title>1834068349456&#45;&gt;1834067856400</title><path fill="none" stroke="black" d="M908.24,-201C942.96,-201 1006.07,-201 1060,-201 1060,-201 1060,-201 1707,-201 1756.08,-201 1812.77,-201 1848.74,-201"/><polygon fill="black" stroke="black" points="1848.76,-204.5 1858.76,-201 1848.76,-197.5 1848.76,-204.5"/></g><!-- 1834068359056 --><g id="node7" class="node"><title>1834068359056</title><polygon fill="black" stroke="black" points="2634,-430 2580,-430 2580,-394 2634,-394 2634,-430"/></g><!-- 1834068358096 --><g id="node56" class="node"><title>1834068358096</title><ellipse fill="white" stroke="black" cx="2259" cy="-385" rx="27" ry="27"/></g><!-- 1834068359056&#45;&gt;1834068358096 --><g id="edge69" class="edge"><title>1834068359056&#45;&gt;1834068358096</title><path fill="none" stroke="black" d="M2579.85,-416.65C2568.82,-418.39 2555.82,-420.15 2544,-421 2445.51,-428.11 2418.1,-434.72 2322,-412 2312.08,-409.65 2301.75,-405.79 2292.44,-401.72"/><polygon fill="black" stroke="black" points="2293.71,-398.45 2283.16,-397.44 2290.78,-404.8 2293.71,-398.45"/></g><!-- 1834067857312 --><g id="node8" class="node"><title>1834067857312</title><polygon fill="white" stroke="black" points="341,-115 270,-115 270,-79 341,-79 341,-115"/><text text-anchor="middle" x="305.5" y="-93.9" font-family="Times New Roman,serif" font-size="12.00">Distribuição</text></g><!-- 1834067855968 --><g id="node63" class="node"><title>1834067855968</title><ellipse fill="white" stroke="black" cx="404" cy="-108" rx="27" ry="27"/></g><!-- 1834067857312&#45;&gt;1834067855968 --><g id="edge9" class="edge"><title>1834067857312&#45;&gt;1834067855968</title><path fill="none" stroke="black" d="M341.07,-100.94C349.52,-101.9 358.6,-102.94 367.11,-103.91"/><polygon fill="black" stroke="black" points="366.82,-107.4 377.15,-105.05 367.61,-100.44 366.82,-107.4"/></g><!-- 1834067867296 --><g id="node9" class="node"><title>1834067867296</title><polygon fill="black" stroke="black" points="908,-407 854,-407 854,-371 908,-371 908,-407"/></g><!-- 1834067858320 --><g id="node65" class="node"><title>1834067858320</title><ellipse fill="white" stroke="black" cx="971" cy="-339" rx="27" ry="27"/></g><!-- 1834067867296&#45;&gt;1834067858320 --><g id="edge74" class="edge"><title>1834067867296&#45;&gt;1834067858320</title><path fill="none" stroke="black" d="M908.4,-374C917.86,-368.62 928.62,-362.51 938.47,-356.92"/><polygon fill="black" stroke="black" points="940.23,-359.94 947.19,-351.96 936.77,-353.86 940.23,-359.94"/></g><!-- 1834068346144 --><g id="node10" class="node"><title>1834068346144</title><polygon fill="black" stroke="black" points="1455,-437 1401,-437 1401,-401 1455,-401 1455,-437"/></g><!-- 1834068345184 --><g id="node44" class="node"><title>1834068345184</title><ellipse fill="white" stroke="black" cx="1518" cy="-376" rx="27" ry="27"/></g><!-- 1834068346144&#45;&gt;1834068345184 --><g id="edge60" class="edge"><title>1834068346144&#45;&gt;1834068345184</title><path fill="none" stroke="black" d="M1455.4,-406.1C1464.44,-401.68 1474.66,-396.69 1484.15,-392.05"/><polygon fill="black" stroke="black" points="1485.86,-395.11 1493.31,-387.58 1482.79,-388.82 1485.86,-395.11"/></g><!-- 1834068350752 --><g id="node11" class="node"><title>1834068350752</title><polygon fill="white" stroke="black" points="722,-264 653,-264 653,-228 722,-228 722,-264"/><text text-anchor="middle" x="687.5" y="-242.9" font-family="Times New Roman,serif" font-size="12.00">Documento</text></g><!-- 1834068350560 --><g id="node49" class="node"><title>1834068350560</title><ellipse fill="white" stroke="black" cx="791" cy="-246" rx="27" ry="27"/></g><!-- 1834068350752&#45;&gt;1834068350560 --><g id="edge7" class="edge"><title>1834068350752&#45;&gt;1834068350560</title><path fill="none" stroke="black" d="M722.02,-246C732.24,-246 743.52,-246 753.9,-246"/><polygon fill="black" stroke="black" points="753.91,-249.5 763.91,-246 753.91,-242.5 753.91,-249.5"/></g><!-- 1834068356128 --><g id="node12" class="node"><title>1834068356128</title><polygon fill="black" stroke="black" points="2634,-88 2580,-88 2580,-52 2634,-52 2634,-88"/></g><!-- 1834068355168 --><g id="node53" class="node"><title>1834068355168</title><ellipse fill="white" stroke="black" cx="2259" cy="-93" rx="27" ry="27"/></g><!-- 1834068356128&#45;&gt;1834068355168 --><g id="edge67" class="edge"><title>1834068356128&#45;&gt;1834068355168</title><path fill="none" stroke="black" d="M2579.94,-63.29C2568.93,-60.78 2555.92,-58.24 2544,-57 2445.78,-46.81 2418.1,-43.28 2322,-66 2312.08,-68.35 2301.75,-72.21 2292.44,-76.28"/><polygon fill="black" stroke="black" points="2290.78,-73.2 2283.16,-80.56 2293.71,-79.55 2290.78,-73.2"/></g><!-- 1834067857840 --><g id="node13" class="node"><title>1834067857840</title><polygon fill="black" stroke="black" points="611,-338 557,-338 557,-302 611,-302 611,-338"/></g><!-- 1834067857840&#45;&gt;1834067858320 --><g id="edge68" class="edge"><title>1834067857840&#45;&gt;1834067858320</title><path fill="none" stroke="black" d="M611.16,-321.29C678.24,-324.6 856.51,-333.4 933.62,-337.2"/><polygon fill="black" stroke="black" points="933.64,-340.71 943.8,-337.71 933.99,-333.72 933.64,-340.71"/></g><!-- 1834067865904 --><g id="node14" class="node"><title>1834067865904</title><polygon fill="black" stroke="black" points="908,-464 854,-464 854,-428 908,-428 908,-464"/></g><!-- 1834067862688 --><g id="node40" class="node"><title>1834067862688</title><ellipse fill="white" stroke="black" cx="584" cy="-394" rx="27" ry="27"/></g><!-- 1834067865904&#45;&gt;1834067862688 --><g id="edge73" class="edge"><title>1834067865904&#45;&gt;1834067862688</title><path fill="none" stroke="black" d="M853.67,-445.76C810,-444.79 720.15,-440.37 647,-421 637.14,-418.39 626.84,-414.45 617.53,-410.37"/><polygon fill="black" stroke="black" points="618.79,-407.1 608.24,-406.13 615.88,-413.47 618.79,-407.1"/></g><!-- 1834067869360 --><g id="node15" class="node"><title>1834067869360</title><polygon fill="black" stroke="black" points="1823,-331 1769,-331 1769,-295 1823,-295 1823,-331"/></g><!-- 1834067869360&#45;&gt;1834067856400 --><g id="edge76" class="edge"><title>1834067869360&#45;&gt;1834067856400</title><path fill="none" stroke="black" d="M1815.25,-294.72C1817.91,-291.86 1820.57,-288.89 1823,-286 1837.6,-268.61 1852.64,-248.06 1864.25,-231.52"/><polygon fill="black" stroke="black" points="1867.15,-233.49 1869.99,-223.28 1861.41,-229.49 1867.15,-233.49"/></g><!-- 1834068360880 --><g id="node16" class="node"><title>1834068360880</title><polygon fill="white" stroke="black" points="2419,-293 2357,-293 2357,-257 2419,-257 2419,-293"/><text text-anchor="middle" x="2388" y="-271.9" font-family="Times New Roman,serif" font-size="12.00">Despacho</text></g><!-- 1834068360688 --><g id="node60" class="node"><title>1834068360688</title><ellipse fill="white" stroke="black" cx="2517" cy="-275" rx="27" ry="27"/></g><!-- 1834068360880&#45;&gt;1834068360688 --><g id="edge6" class="edge"><title>1834068360880&#45;&gt;1834068360688</title><path fill="none" stroke="black" d="M2419.1,-275C2437.29,-275 2460.6,-275 2479.8,-275"/><polygon fill="black" stroke="black" points="2479.99,-278.5 2489.99,-275 2479.99,-271.5 2479.99,-278.5"/></g><!-- 1834068354736 --><g id="node17" class="node"><title>1834068354736</title><polygon fill="black" stroke="black" points="431,-57 377,-57 377,-21 431,-21 431,-57"/></g><!-- 1834067718832 --><g id="node55" class="node"><title>1834067718832</title><ellipse fill="white" stroke="black" cx="2697" cy="-101" rx="27" ry="27"/></g><!-- 1834068354736&#45;&gt;1834067718832 --><g id="edge72" class="edge"><title>1834068354736&#45;&gt;1834067718832</title><path fill="none" stroke="black" d="M431.15,-29.56C465.5,-18.02 527.95,0 583,0 583,0 583,0 2518,0 2572.98,0 2587.23,-14.1 2634,-43 2647.65,-51.44 2660.91,-63.19 2671.63,-73.91"/><polygon fill="black" stroke="black" points="2669.15,-76.38 2678.63,-81.11 2674.17,-71.5 2669.15,-76.38"/></g><!-- 1834067718592 --><g id="node18" class="node"><title>1834067718592</title><polygon fill="black" stroke="black" points="144,-88 90,-88 90,-52 144,-52 144,-88"/></g><!-- 1834067718256 --><g id="node50" class="node"><title>1834067718256</title><ellipse fill="white" stroke="black" cx="207" cy="-70" rx="27" ry="27"/></g><!-- 1834067718592&#45;&gt;1834067718256 --><g id="edge85" class="edge"><title>1834067718592&#45;&gt;1834067718256</title><path fill="none" stroke="black" d="M144.4,-70C152.39,-70 161.31,-70 169.82,-70"/><polygon fill="black" stroke="black" points="169.92,-73.5 179.92,-70 169.92,-66.5 169.92,-73.5"/></g><!-- 1834067720512 --><g id="node19" class="node"><title>1834067720512</title><polygon fill="black" stroke="black" points="2814,-119 2760,-119 2760,-83 2814,-83 2814,-119"/></g><!-- 1834067719216 --><g id="node66" class="node"><title>1834067719216</title><ellipse fill="white" stroke="black" cx="2881" cy="-101" rx="27" ry="27"/><ellipse fill="none" stroke="black" cx="2881" cy="-101" rx="31" ry="31"/><text text-anchor="start" x="2871" y="-92.9" font-family="Times New Roman,serif" font-size="32.00">■</text></g><!-- 1834067720512&#45;&gt;1834067719216 --><g id="edge86" class="edge"><title>1834067720512&#45;&gt;1834067719216</title><path fill="none" stroke="black" d="M2814.12,-101C2822.14,-101 2831.15,-101 2839.88,-101"/><polygon fill="black" stroke="black" points="2839.92,-104.5 2849.92,-101 2839.92,-97.5 2839.92,-104.5"/></g><!-- 1834067866048 --><g id="node20" class="node"><title>1834067866048</title><polygon fill="black" stroke="black" points="521,-385 467,-385 467,-349 521,-349 521,-385"/></g><!-- 1834067866048&#45;&gt;1834067862688 --><g id="edge13" class="edge"><title>1834067866048&#45;&gt;1834067862688</title><path fill="none" stroke="black" d="M521.4,-375.1C529.79,-377.67 539.2,-380.56 548.09,-383.29"/><polygon fill="black" stroke="black" points="547.24,-386.69 557.82,-386.28 549.29,-380 547.24,-386.69"/></g><!-- 1834068347968 --><g id="node21" class="node"><title>1834068347968</title><polygon fill="white" stroke="black" points="1643,-328 1581,-328 1581,-292 1643,-292 1643,-328"/><text text-anchor="middle" x="1612" y="-306.9" font-family="Times New Roman,serif" font-size="12.00">Audiência</text></g><!-- 1834068347776 --><g id="node47" class="node"><title>1834068347776</title><ellipse fill="white" stroke="black" cx="1706" cy="-313" rx="27" ry="27"/></g><!-- 1834068347968&#45;&gt;1834068347776 --><g id="edge2" class="edge"><title>1834068347968&#45;&gt;1834068347776</title><path fill="none" stroke="black" d="M1643.12,-310.98C1651.32,-311.25 1660.28,-311.54 1668.78,-311.82"/><polygon fill="black" stroke="black" points="1668.72,-315.32 1678.83,-312.15 1668.95,-308.32 1668.72,-315.32"/></g><!-- 1834068351040 --><g id="node22" class="node"><title>1834068351040</title><polygon fill="black" stroke="black" points="908,-296 854,-296 854,-260 908,-260 908,-296"/></g><!-- 1834068350080 --><g id="node48" class="node"><title>1834068350080</title><ellipse fill="white" stroke="black" cx="584" cy="-246" rx="27" ry="27"/></g><!-- 1834068351040&#45;&gt;1834068350080 --><g id="edge63" class="edge"><title>1834068351040&#45;&gt;1834068350080</title><path fill="none" stroke="black" d="M854,-281.12C810.42,-285.54 720.23,-291.21 647,-273 637.11,-270.54 626.79,-266.64 617.48,-262.56"/><polygon fill="black" stroke="black" points="618.74,-259.29 608.2,-258.3 615.82,-265.66 618.74,-259.29"/></g><!-- 1834067868112 --><g id="node23" class="node"><title>1834067868112</title><polygon fill="white" stroke="black" points="1271.5,-336 1217.5,-336 1217.5,-300 1271.5,-300 1271.5,-336"/><text text-anchor="middle" x="1244.5" y="-314.9" font-family="Times New Roman,serif" font-size="12.00">Decisão</text></g><!-- 1834067867920 --><g id="node43" class="node"><title>1834067867920</title><ellipse fill="white" stroke="black" cx="1338" cy="-318" rx="27" ry="27"/></g><!-- 1834067868112&#45;&gt;1834067867920 --><g id="edge11" class="edge"><title>1834067868112&#45;&gt;1834067867920</title><path fill="none" stroke="black" d="M1271.97,-318C1280.96,-318 1291.17,-318 1300.79,-318"/><polygon fill="black" stroke="black" points="1300.91,-321.5 1310.91,-318 1300.91,-314.5 1300.91,-321.5"/></g><!-- 1834068349264 --><g id="node24" class="node"><title>1834068349264</title><polygon fill="black" stroke="black" points="521,-173 467,-173 467,-137 521,-137 521,-173"/></g><!-- 1834068349264&#45;&gt;1834068350080 --><g id="edge79" class="edge"><title>1834068349264&#45;&gt;1834068350080</title><path fill="none" stroke="black" d="M512.81,-173.42C525.64,-186.68 543.14,-204.78 557.46,-219.59"/><polygon fill="black" stroke="black" points="555.14,-222.23 564.61,-226.99 560.18,-217.36 555.14,-222.23"/></g><!-- 1834068349264&#45;&gt;1834068352192 --><g id="edge80" class="edge"><title>1834068349264&#45;&gt;1834068352192</title><path fill="none" stroke="black" d="M521.4,-155C529.39,-155 538.31,-155 546.82,-155"/><polygon fill="black" stroke="black" points="546.92,-158.5 556.92,-155 546.92,-151.5 546.92,-158.5"/></g><!-- 1834068349648 --><g id="node25" class="node"><title>1834068349648</title><polygon fill="black" stroke="black" points="2009.5,-233 1955.5,-233 1955.5,-197 2009.5,-197 2009.5,-233"/></g><!-- 1834067856064 --><g id="node58" class="node"><title>1834067856064</title><ellipse fill="white" stroke="black" cx="2079" cy="-165" rx="27" ry="27"/></g><!-- 1834068349648&#45;&gt;1834067856064 --><g id="edge66" class="edge"><title>1834068349648&#45;&gt;1834067856064</title><path fill="none" stroke="black" d="M2009.57,-201.2C2020.78,-195.27 2033.99,-188.28 2045.8,-182.03"/><polygon fill="black" stroke="black" points="2047.71,-184.99 2054.91,-177.22 2044.44,-178.8 2047.71,-184.99"/></g><!-- 1834068354256 --><g id="node26" class="node"><title>1834068354256</title><polygon fill="white" stroke="black" points="2016,-179 1949,-179 1949,-143 2016,-143 2016,-179"/><text text-anchor="middle" x="1982.5" y="-157.9" font-family="Times New Roman,serif" font-size="12.00">Julgamento</text></g><!-- 1834068354256&#45;&gt;1834067856064 --><g id="edge10" class="edge"><title>1834068354256&#45;&gt;1834067856064</title><path fill="none" stroke="black" d="M2016.02,-162.38C2024.37,-162.73 2033.4,-163.11 2041.92,-163.47"/><polygon fill="black" stroke="black" points="2041.84,-166.97 2051.98,-163.9 2042.14,-159.98 2041.84,-166.97"/></g><!-- 1834068361168 --><g id="node27" class="node"><title>1834068361168</title><polygon fill="black" stroke="black" points="2634,-321 2580,-321 2580,-285 2634,-285 2634,-321"/></g><!-- 1834068360208 --><g id="node59" class="node"><title>1834068360208</title><ellipse fill="white" stroke="black" cx="2259" cy="-275" rx="27" ry="27"/></g><!-- 1834068361168&#45;&gt;1834068360208 --><g id="edge70" class="edge"><title>1834068361168&#45;&gt;1834068360208</title><path fill="none" stroke="black" d="M2579.83,-307.13C2568.8,-308.68 2555.81,-310.24 2544,-311 2445.46,-317.33 2418.1,-324.72 2322,-302 2312.08,-299.65 2301.75,-295.79 2292.44,-291.72"/><polygon fill="black" stroke="black" points="2293.71,-288.45 2283.16,-287.44 2290.78,-294.8 2293.71,-288.45"/></g><!-- 1834067859424 --><g id="node28" class="node"><title>1834067859424</title><polygon fill="black" stroke="black" points="1088,-115 1034,-115 1034,-79 1088,-79 1088,-115"/></g><!-- 1834067859424&#45;&gt;1834067856064 --><g id="edge64" class="edge"><title>1834067859424&#45;&gt;1834067856064</title><path fill="none" stroke="black" d="M1088.14,-98.64C1123.39,-100.71 1188.16,-104 1243.5,-104 1243.5,-104 1243.5,-104 1887,-104 1945.86,-104 1960.63,-114.03 2016,-134 2026.1,-137.64 2036.7,-142.51 2046.21,-147.31"/><polygon fill="black" stroke="black" points="2044.82,-150.54 2055.31,-152.04 2048.05,-144.32 2044.82,-150.54"/></g><!-- 1834067864416 --><g id="node29" class="node"><title>1834067864416</title><polygon fill="white" stroke="black" points="728,-412 647,-412 647,-376 728,-376 728,-412"/><text text-anchor="middle" x="687.5" y="-390.9" font-family="Times New Roman,serif" font-size="12.00">Redistribuição</text></g><!-- 1834067865664 --><g id="node41" class="node"><title>1834067865664</title><ellipse fill="white" stroke="black" cx="791" cy="-394" rx="27" ry="27"/></g><!-- 1834067864416&#45;&gt;1834067865664 --><g id="edge5" class="edge"><title>1834067864416&#45;&gt;1834067865664</title><path fill="none" stroke="black" d="M728.03,-394C736.49,-394 745.38,-394 753.7,-394"/><polygon fill="black" stroke="black" points="753.87,-397.5 763.87,-394 753.87,-390.5 753.87,-397.5"/></g><!-- 1834068348256 --><g id="node30" class="node"><title>1834068348256</title><polygon fill="black" stroke="black" points="1823,-277 1769,-277 1769,-241 1823,-241 1823,-277"/></g><!-- 1834068347296 --><g id="node46" class="node"><title>1834068347296</title><ellipse fill="white" stroke="black" cx="1518" cy="-304" rx="27" ry="27"/></g><!-- 1834068348256&#45;&gt;1834068347296 --><g id="edge61" class="edge"><title>1834068348256&#45;&gt;1834068347296</title><path fill="none" stroke="black" d="M1768.68,-260.13C1728,-262.29 1647.6,-268.17 1581,-283 1571.81,-285.05 1562.08,-287.97 1553.12,-290.98"/><polygon fill="black" stroke="black" points="1551.68,-287.78 1543.39,-294.38 1553.99,-294.38 1551.68,-287.78"/></g><!-- 1834068352864 --><g id="node31" class="node"><title>1834068352864</title><polygon fill="white" stroke="black" points="716,-188 659,-188 659,-152 716,-152 716,-188"/><text text-anchor="middle" x="687.5" y="-166.9" font-family="Times New Roman,serif" font-size="12.00">Remessa</text></g><!-- 1834068352672 --><g id="node52" class="node"><title>1834068352672</title><ellipse fill="white" stroke="black" cx="791" cy="-174" rx="27" ry="27"/></g><!-- 1834068352864&#45;&gt;1834068352672 --><g id="edge12" class="edge"><title>1834068352864&#45;&gt;1834068352672</title><path fill="none" stroke="black" d="M716.24,-171.09C727.79,-171.55 741.37,-172.08 753.7,-172.57"/><polygon fill="black" stroke="black" points="753.57,-176.07 763.7,-172.96 753.84,-169.07 753.57,-176.07"/></g><!-- 1834068379680 --><g id="node32" class="node"><title>1834068379680</title><polygon fill="black" stroke="black" points="2634,-167 2580,-167 2580,-131 2634,-131 2634,-167"/></g><!-- 1834068378720 --><g id="node61" class="node"><title>1834068378720</title><ellipse fill="white" stroke="black" cx="2259" cy="-173" rx="27" ry="27"/></g><!-- 1834068379680&#45;&gt;1834068378720 --><g id="edge71" class="edge"><title>1834068379680&#45;&gt;1834068378720</title><path fill="none" stroke="black" d="M2579.69,-150.82C2518.4,-155.08 2366.01,-165.65 2296.1,-170.5"/><polygon fill="black" stroke="black" points="2295.74,-167.01 2286.01,-171.2 2296.22,-174 2295.74,-167.01"/></g><!-- 1834067868400 --><g id="node33" class="node"><title>1834067868400</title><polygon fill="black" stroke="black" points="1455,-281 1401,-281 1401,-245 1455,-245 1455,-281"/></g><!-- 1834067868400&#45;&gt;1834067857360 --><g id="edge57" class="edge"><title>1834067868400&#45;&gt;1834067857360</title><path fill="none" stroke="black" d="M1400.96,-264.08C1360.35,-266.28 1279.77,-272.75 1214,-291 1204.18,-293.73 1193.88,-297.71 1184.57,-301.78"/><polygon fill="black" stroke="black" points="1182.93,-298.68 1175.28,-306.01 1185.83,-305.05 1182.93,-298.68"/></g><!-- 1834067868784 --><g id="node34" class="node"><title>1834067868784</title><polygon fill="black" stroke="black" points="1455,-336 1401,-336 1401,-300 1455,-300 1455,-336"/></g><!-- 1834067868784&#45;&gt;1834068345184 --><g id="edge58" class="edge"><title>1834067868784&#45;&gt;1834068345184</title><path fill="none" stroke="black" d="M1455.4,-335.4C1465.19,-341.85 1476.37,-349.22 1486.5,-355.9"/><polygon fill="black" stroke="black" points="1484.79,-358.96 1495.06,-361.54 1488.64,-353.12 1484.79,-358.96"/></g><!-- 1834067868784&#45;&gt;1834068347296 --><g id="edge59" class="edge"><title>1834067868784&#45;&gt;1834068347296</title><path fill="none" stroke="black" d="M1455.4,-313.8C1463.55,-312.5 1472.67,-311.05 1481.34,-309.67"/><polygon fill="black" stroke="black" points="1481.9,-313.13 1491.22,-308.1 1480.8,-306.22 1481.9,-313.13"/></g><!-- 1834067869552 --><g id="node35" class="node"><title>1834067869552</title><polygon fill="black" stroke="black" points="998,-137 944,-137 944,-101 998,-101 998,-137"/></g><!-- 1834067869552&#45;&gt;1834067856400 --><g id="edge62" class="edge"><title>1834067869552&#45;&gt;1834067856400</title><path fill="none" stroke="black" d="M998.29,-126.5C1032.8,-135.68 1095.42,-150 1150,-150 1150,-150 1150,-150 1707,-150 1759.3,-150 1817.02,-170.6 1852.15,-185.62"/><polygon fill="black" stroke="black" points="1850.87,-188.88 1861.43,-189.68 1853.68,-182.46 1850.87,-188.88"/></g><!-- 1834067859184 --><g id="node36" class="node"><title>1834067859184</title><polygon fill="black" stroke="black" points="2196,-191 2142,-191 2142,-155 2196,-155 2196,-191"/></g><!-- 1834067859184&#45;&gt;1834068355168 --><g id="edge81" class="edge"><title>1834067859184&#45;&gt;1834068355168</title><path fill="none" stroke="black" d="M2189.97,-154.85C2202.09,-143.83 2217.73,-129.61 2230.95,-117.59"/><polygon fill="black" stroke="black" points="2233.37,-120.12 2238.41,-110.81 2228.66,-114.94 2233.37,-120.12"/></g><!-- 1834067859184&#45;&gt;1834068358096 --><g id="edge82" class="edge"><title>1834067859184&#45;&gt;1834068358096</title><path fill="none" stroke="black" d="M2177.5,-191.08C2192.18,-226.43 2224.9,-305.25 2243.79,-350.77"/><polygon fill="black" stroke="black" points="2240.65,-352.33 2247.72,-360.22 2247.11,-349.65 2240.65,-352.33"/></g><!-- 1834067859184&#45;&gt;1834068360208 --><g id="edge83" class="edge"><title>1834067859184&#45;&gt;1834068360208</title><path fill="none" stroke="black" d="M2185.73,-191.24C2199.11,-206.74 2218.53,-229.25 2233.87,-247.03"/><polygon fill="black" stroke="black" points="2231.41,-249.54 2240.59,-254.83 2236.71,-244.97 2231.41,-249.54"/></g><!-- 1834067859184&#45;&gt;1834068378720 --><g id="edge84" class="edge"><title>1834067859184&#45;&gt;1834068378720</title><path fill="none" stroke="black" d="M2196.4,-173C2204.39,-173 2213.31,-173 2221.82,-173"/><polygon fill="black" stroke="black" points="2221.92,-176.5 2231.92,-173 2221.92,-169.5 2221.92,-176.5"/></g><!-- 1834068354544 --><g id="node37" class="node"><title>1834068354544</title><polygon fill="black" stroke="black" points="2634,-221 2580,-221 2580,-185 2634,-185 2634,-221"/></g><!-- 1834068354544&#45;&gt;1834067718832 --><g id="edge78" class="edge"><title>1834068354544&#45;&gt;1834067718832</title><path fill="none" stroke="black" d="M2625.81,-184.88C2628.59,-181.94 2631.4,-178.91 2634,-176 2647.35,-161.04 2661.65,-143.83 2673.15,-129.67"/><polygon fill="black" stroke="black" points="2676.01,-131.7 2679.57,-121.72 2670.56,-127.3 2676.01,-131.7"/></g><!-- 1834068358768 --><g id="node38" class="node"><title>1834068358768</title><polygon fill="white" stroke="black" points="2415,-403 2361,-403 2361,-367 2415,-367 2415,-403"/><text text-anchor="middle" x="2388" y="-381.9" font-family="Times New Roman,serif" font-size="12.00">Petição</text></g><!-- 1834068358576 --><g id="node57" class="node"><title>1834068358576</title><ellipse fill="white" stroke="black" cx="2517" cy="-385" rx="27" ry="27"/></g><!-- 1834068358768&#45;&gt;1834068358576 --><g id="edge3" class="edge"><title>1834068358768&#45;&gt;1834068358576</title><path fill="none" stroke="black" d="M2415.01,-385C2433.63,-385 2458.96,-385 2479.59,-385"/><polygon fill="black" stroke="black" points="2479.59,-388.5 2489.59,-385 2479.59,-381.5 2479.59,-388.5"/></g><!-- 1834067718640 --><g id="node39" class="node"><title>1834067718640</title><ellipse fill="white" stroke="black" cx="27" cy="-70" rx="27" ry="27"/><text text-anchor="start" x="16" y="-61.3" font-family="Times New Roman,serif" font-size="34.00">●</text></g><!-- 1834067718640&#45;&gt;1834067718592 --><g id="edge75" class="edge"><title>1834067718640&#45;&gt;1834067718592</title><path fill="none" stroke="black" d="M54.4,-70C62.39,-70 71.31,-70 79.82,-70"/><polygon fill="black" stroke="black" points="79.92,-73.5 89.92,-70 79.92,-66.5 79.92,-73.5"/></g><!-- 1834067862688&#45;&gt;1834067864416 --><g id="edge15" class="edge"><title>1834067862688&#45;&gt;1834067864416</title><path fill="none" stroke="black" d="M611.14,-394C618.91,-394 627.69,-394 636.45,-394"/><polygon fill="black" stroke="black" points="636.65,-397.5 646.65,-394 636.65,-390.5 636.65,-397.5"/></g><!-- 1834067865664&#45;&gt;1834067867296 --><g id="edge17" class="edge"><title>1834067865664&#45;&gt;1834067867296</title><path fill="none" stroke="black" d="M818.4,-392.5C826.39,-392.05 835.31,-391.54 843.82,-391.06"/><polygon fill="black" stroke="black" points="844.13,-394.54 853.92,-390.48 843.74,-387.55 844.13,-394.54"/></g><!-- 1834067865664&#45;&gt;1834067865904 --><g id="edge16" class="edge"><title>1834067865664&#45;&gt;1834067865904</title><path fill="none" stroke="black" d="M814.66,-407.39C823.96,-412.88 834.93,-419.37 845.2,-425.44"/><polygon fill="black" stroke="black" points="843.6,-428.56 853.99,-430.63 847.16,-422.53 843.6,-428.56"/></g><!-- 1834067857360&#45;&gt;1834067868112 --><g id="edge18" class="edge"><title>1834067857360&#45;&gt;1834067868112</title><path fill="none" stroke="black" d="M1178.47,-318C1187.46,-318 1197.67,-318 1207.29,-318"/><polygon fill="black" stroke="black" points="1207.41,-321.5 1217.41,-318 1207.41,-314.5 1207.41,-321.5"/></g><!-- 1834067867920&#45;&gt;1834067868400 --><g id="edge19" class="edge"><title>1834067867920&#45;&gt;1834067868400</title><path fill="none" stroke="black" d="M1361.21,-304.12C1370.59,-298.25 1381.75,-291.28 1392.19,-284.76"/><polygon fill="black" stroke="black" points="1394.11,-287.69 1400.73,-279.42 1390.4,-281.75 1394.11,-287.69"/></g><!-- 1834067867920&#45;&gt;1834067868784 --><g id="edge20" class="edge"><title>1834067867920&#45;&gt;1834067868784</title><path fill="none" stroke="black" d="M1365.4,-318C1373.39,-318 1382.31,-318 1390.82,-318"/><polygon fill="black" stroke="black" points="1390.92,-321.5 1400.92,-318 1390.92,-314.5 1390.92,-321.5"/></g><!-- 1834068345184&#45;&gt;1834068345856 --><g id="edge21" class="edge"><title>1834068345184&#45;&gt;1834068345856</title><path fill="none" stroke="black" d="M1490.95,-377.65C1451.83,-380.22 1375.61,-385.55 1311,-392 1302.65,-392.83 1293.72,-393.84 1285.22,-394.86"/><polygon fill="black" stroke="black" points="1284.64,-391.41 1275.14,-396.1 1285.49,-398.36 1284.64,-391.41"/></g><!-- 1834068345664&#45;&gt;1834068346144 --><g id="edge22" class="edge"><title>1834068345664&#45;&gt;1834068346144</title><path fill="none" stroke="black" d="M1364.93,-425.35C1373.09,-424.51 1382.26,-423.58 1390.99,-422.68"/><polygon fill="black" stroke="black" points="1391.36,-426.16 1400.95,-421.66 1390.65,-419.2 1391.36,-426.16"/></g><!-- 1834068345664&#45;&gt;1834067869360 --><g id="edge23" class="edge"><title>1834068345664&#45;&gt;1834067869360</title><path fill="none" stroke="black" d="M1363.72,-436.49C1397.79,-447.41 1461.29,-465 1517,-465 1517,-465 1517,-465 1613,-465 1690.25,-465 1752.04,-383.33 1779.53,-339.72"/><polygon fill="black" stroke="black" points="1782.61,-341.39 1784.87,-331.03 1776.65,-337.72 1782.61,-341.39"/></g><!-- 1834068347296&#45;&gt;1834068347968 --><g id="edge24" class="edge"><title>1834068347296&#45;&gt;1834068347968</title><path fill="none" stroke="black" d="M1545.12,-305.7C1553.14,-306.23 1562.15,-306.81 1570.88,-307.38"/><polygon fill="black" stroke="black" points="1570.71,-310.88 1580.92,-308.04 1571.17,-303.89 1570.71,-310.88"/></g><!-- 1834068347776&#45;&gt;1834067869360 --><g id="edge26" class="edge"><title>1834068347776&#45;&gt;1834067869360</title><path fill="none" stroke="black" d="M1733.4,-313C1741.39,-313 1750.31,-313 1758.82,-313"/><polygon fill="black" stroke="black" points="1758.92,-316.5 1768.92,-313 1758.92,-309.5 1758.92,-316.5"/></g><!-- 1834068347776&#45;&gt;1834068348256 --><g id="edge25" class="edge"><title>1834068347776&#45;&gt;1834068348256</title><path fill="none" stroke="black" d="M1729.66,-299.09C1738.96,-293.39 1749.93,-286.66 1760.2,-280.35"/><polygon fill="black" stroke="black" points="1762.3,-283.18 1768.99,-274.96 1758.63,-277.21 1762.3,-283.18"/></g><!-- 1834068350080&#45;&gt;1834068350752 --><g id="edge27" class="edge"><title>1834068350080&#45;&gt;1834068350752</title><path fill="none" stroke="black" d="M611.14,-246C620.75,-246 631.92,-246 642.67,-246"/><polygon fill="black" stroke="black" points="642.78,-249.5 652.78,-246 642.78,-242.5 642.78,-249.5"/></g><!-- 1834068350560&#45;&gt;1834068349456 --><g id="edge29" class="edge"><title>1834068350560&#45;&gt;1834068349456</title><path fill="none" stroke="black" d="M815.58,-233.94C824.53,-229.36 834.93,-224.05 844.73,-219.04"/><polygon fill="black" stroke="black" points="846.56,-222.03 853.87,-214.36 843.38,-215.8 846.56,-222.03"/></g><!-- 1834068350560&#45;&gt;1834068351040 --><g id="edge28" class="edge"><title>1834068350560&#45;&gt;1834068351040</title><path fill="none" stroke="black" d="M816.51,-254.91C825.12,-258.04 834.97,-261.63 844.31,-265.02"/><polygon fill="black" stroke="black" points="843.18,-268.33 853.77,-268.46 845.57,-261.76 843.18,-268.33"/></g><!-- 1834067718256&#45;&gt;1834067857312 --><g id="edge30" class="edge"><title>1834067718256&#45;&gt;1834067857312</title><path fill="none" stroke="black" d="M233.1,-77.02C241.3,-79.32 250.68,-81.94 259.87,-84.51"/><polygon fill="black" stroke="black" points="259.14,-87.94 269.72,-87.27 261.03,-81.2 259.14,-87.94"/></g><!-- 1834067718256&#45;&gt;1834068354736 --><g id="edge31" class="edge"><title>1834067718256&#45;&gt;1834068354736</title><path fill="none" stroke="black" d="M233.89,-65.88C267.99,-60.46 328.11,-50.91 366.72,-44.77"/><polygon fill="black" stroke="black" points="367.67,-48.16 377,-43.13 366.57,-41.25 367.67,-48.16"/></g><!-- 1834068352192&#45;&gt;1834068352864 --><g id="edge32" class="edge"><title>1834068352192&#45;&gt;1834068352864</title><path fill="none" stroke="black" d="M610.88,-158.82C622.35,-160.52 636.07,-162.55 648.66,-164.41"/><polygon fill="black" stroke="black" points="648.49,-167.92 658.89,-165.92 649.51,-161 648.49,-167.92"/></g><!-- 1834068352672&#45;&gt;1834068353152 --><g id="edge33" class="edge"><title>1834068352672&#45;&gt;1834068353152</title><path fill="none" stroke="black" d="M816.05,-163.07C824.82,-159.08 834.95,-154.48 844.51,-150.13"/><polygon fill="black" stroke="black" points="846.17,-153.22 853.82,-145.9 843.27,-146.85 846.17,-153.22"/></g><!-- 1834068352672&#45;&gt;1834068349456 --><g id="edge34" class="edge"><title>1834068352672&#45;&gt;1834068349456</title><path fill="none" stroke="black" d="M816.98,-181.66C825.42,-184.25 835,-187.19 844.11,-189.99"/><polygon fill="black" stroke="black" points="843.14,-193.35 853.73,-192.94 845.19,-186.66 843.14,-193.35"/></g><!-- 1834068355168&#45;&gt;1834068355840 --><g id="edge35" class="edge"><title>1834068355168&#45;&gt;1834068355840</title><path fill="none" stroke="black" d="M2286.01,-93C2293.73,-93 2302.62,-93 2311.84,-93"/><polygon fill="black" stroke="black" points="2311.94,-96.5 2321.94,-93 2311.94,-89.5 2311.94,-96.5"/></g><!-- 1834068355648&#45;&gt;1834068356128 --><g id="edge36" class="edge"><title>1834068355648&#45;&gt;1834068356128</title><path fill="none" stroke="black" d="M2543.45,-86.35C2551.79,-84.17 2561.21,-81.71 2570.16,-79.37"/><polygon fill="black" stroke="black" points="2571.2,-82.71 2579.99,-76.8 2569.43,-75.94 2571.2,-82.71"/></g><!-- 1834068355648&#45;&gt;1834068354544 --><g id="edge37" class="edge"><title>1834068355648&#45;&gt;1834068354544</title><path fill="none" stroke="black" d="M2533.09,-114.72C2545.23,-131.8 2563,-155.98 2580,-176 2580.39,-176.47 2580.8,-176.93 2581.2,-177.4"/><polygon fill="black" stroke="black" points="2578.76,-179.92 2588.06,-184.99 2583.95,-175.22 2578.76,-179.92"/></g><!-- 1834067718832&#45;&gt;1834067720512 --><g id="edge38" class="edge"><title>1834067718832&#45;&gt;1834067720512</title><path fill="none" stroke="black" d="M2724.4,-101C2732.39,-101 2741.31,-101 2749.82,-101"/><polygon fill="black" stroke="black" points="2749.92,-104.5 2759.92,-101 2749.92,-97.5 2749.92,-104.5"/></g><!-- 1834068358096&#45;&gt;1834068358768 --><g id="edge39" class="edge"><title>1834068358096&#45;&gt;1834068358768</title><path fill="none" stroke="black" d="M2286.01,-385C2304.63,-385 2329.96,-385 2350.59,-385"/><polygon fill="black" stroke="black" points="2350.59,-388.5 2360.59,-385 2350.59,-381.5 2350.59,-388.5"/></g><!-- 1834068358576&#45;&gt;1834068359056 --><g id="edge40" class="edge"><title>1834068358576&#45;&gt;1834068359056</title><path fill="none" stroke="black" d="M2542.98,-392.66C2551.42,-395.25 2561,-398.19 2570.11,-400.99"/><polygon fill="black" stroke="black" points="2569.14,-404.35 2579.73,-403.94 2571.19,-397.66 2569.14,-404.35"/></g><!-- 1834068358576&#45;&gt;1834068354544 --><g id="edge41" class="edge"><title>1834068358576&#45;&gt;1834068354544</title><path fill="none" stroke="black" d="M2529.69,-360.83C2546.01,-327.07 2575.56,-265.95 2592.71,-230.49"/><polygon fill="black" stroke="black" points="2595.99,-231.74 2597.19,-221.21 2589.69,-228.69 2595.99,-231.74"/></g><!-- 1834067856064&#45;&gt;1834067859184 --><g id="edge42" class="edge"><title>1834067856064&#45;&gt;1834067859184</title><path fill="none" stroke="black" d="M2105.93,-167.36C2114.09,-168.1 2123.26,-168.93 2131.99,-169.73"/><polygon fill="black" stroke="black" points="2131.68,-173.21 2141.95,-170.63 2132.31,-166.24 2131.68,-173.21"/></g><!-- 1834068360208&#45;&gt;1834068360880 --><g id="edge43" class="edge"><title>1834068360208&#45;&gt;1834068360880</title><path fill="none" stroke="black" d="M2286.01,-275C2303.43,-275 2326.73,-275 2346.56,-275"/><polygon fill="black" stroke="black" points="2346.56,-278.5 2356.56,-275 2346.56,-271.5 2346.56,-278.5"/></g><!-- 1834068360688&#45;&gt;1834068361168 --><g id="edge44" class="edge"><title>1834068360688&#45;&gt;1834068361168</title><path fill="none" stroke="black" d="M2542.98,-282.95C2551.42,-285.63 2561,-288.68 2570.11,-291.58"/><polygon fill="black" stroke="black" points="2569.14,-294.94 2579.73,-294.64 2571.26,-288.27 2569.14,-294.94"/></g><!-- 1834068360688&#45;&gt;1834068354544 --><g id="edge45" class="edge"><title>1834068360688&#45;&gt;1834068354544</title><path fill="none" stroke="black" d="M2538.41,-258.3C2549.57,-249.17 2563.61,-237.68 2576,-227.55"/><polygon fill="black" stroke="black" points="2578.33,-230.16 2583.85,-221.12 2573.89,-224.75 2578.33,-230.16"/></g><!-- 1834068378720&#45;&gt;1834068379392 --><g id="edge46" class="edge"><title>1834068378720&#45;&gt;1834068379392</title><path fill="none" stroke="black" d="M2285.7,-178.26C2302.86,-181.77 2325.81,-186.47 2345.52,-190.51"/><polygon fill="black" stroke="black" points="2344.99,-193.97 2355.49,-192.55 2346.39,-187.11 2344.99,-193.97"/></g><!-- 1834068379200&#45;&gt;1834068379680 --><g id="edge47" class="edge"><title>1834068379200&#45;&gt;1834068379680</title><path fill="none" stroke="black" d="M2540.66,-189.09C2549.96,-183.39 2560.93,-176.66 2571.2,-170.35"/><polygon fill="black" stroke="black" points="2573.3,-173.18 2579.99,-164.96 2569.63,-167.21 2573.3,-173.18"/></g><!-- 1834068379200&#45;&gt;1834068354544 --><g id="edge48" class="edge"><title>1834068379200&#45;&gt;1834068354544</title><path fill="none" stroke="black" d="M2544.4,-203C2552.39,-203 2561.31,-203 2569.82,-203"/><polygon fill="black" stroke="black" points="2569.92,-206.5 2579.92,-203 2569.92,-199.5 2569.92,-206.5"/></g><!-- 1834067855968&#45;&gt;1834067857840 --><g id="edge52" class="edge"><title>1834067855968&#45;&gt;1834067857840</title><path fill="none" stroke="black" d="M422.1,-128.42C434.54,-143.29 451.81,-163.9 467,-182 499.78,-221.06 537.82,-266.29 561.15,-294.03"/><polygon fill="black" stroke="black" points="558.49,-296.3 567.6,-301.7 563.84,-291.8 558.49,-296.3"/></g><!-- 1834067855968&#45;&gt;1834067866048 --><g id="edge49" class="edge"><title>1834067855968&#45;&gt;1834067866048</title><path fill="none" stroke="black" d="M413.6,-133.31C430.15,-182.01 466.31,-288.44 483.52,-339.11"/><polygon fill="black" stroke="black" points="480.27,-340.41 486.8,-348.75 486.9,-338.16 480.27,-340.41"/></g><!-- 1834067855968&#45;&gt;1834068349264 --><g id="edge53" class="edge"><title>1834067855968&#45;&gt;1834068349264</title><path fill="none" stroke="black" d="M428.12,-120.35C437.24,-125.22 447.93,-130.93 457.96,-136.29"/><polygon fill="black" stroke="black" points="456.46,-139.45 466.93,-141.08 459.76,-133.28 456.46,-139.45"/></g><!-- 1834067855968&#45;&gt;1834067859424 --><g id="edge51" class="edge"><title>1834067855968&#45;&gt;1834067859424</title><path fill="none" stroke="black" d="M427.37,-94.06C460.19,-74.96 523.95,-43 583,-43 583,-43 583,-43 882,-43 933.21,-43 989.29,-63.72 1024.54,-79.49"/><polygon fill="black" stroke="black" points="1023.36,-82.8 1033.91,-83.79 1026.28,-76.44 1023.36,-82.8"/></g><!-- 1834067855968&#45;&gt;1834067869552 --><g id="edge50" class="edge"><title>1834067855968&#45;&gt;1834067869552</title><path fill="none" stroke="black" d="M430.46,-101.67C464.85,-93.69 528.15,-81 583,-81 583,-81 583,-81 792,-81 842.04,-81 898.29,-95.54 933.91,-106.63"/><polygon fill="black" stroke="black" points="933.24,-110.09 943.83,-109.8 935.37,-103.43 933.24,-110.09"/></g><!-- 1834067856400&#45;&gt;1834068349648 --><g id="edge55" class="edge"><title>1834067856400&#45;&gt;1834068349648</title><path fill="none" stroke="black" d="M1912.82,-204.83C1922.84,-206.31 1934.5,-208.04 1945.33,-209.64"/><polygon fill="black" stroke="black" points="1944.98,-213.13 1955.38,-211.13 1946,-206.2 1944.98,-213.13"/></g><!-- 1834067856400&#45;&gt;1834068354256 --><g id="edge54" class="edge"><title>1834067856400&#45;&gt;1834068354256</title><path fill="none" stroke="black" d="M1911.34,-190.7C1919.87,-187.09 1929.71,-182.92 1939.28,-178.87"/><polygon fill="black" stroke="black" points="1940.85,-182.01 1948.7,-174.88 1938.12,-175.56 1940.85,-182.01"/></g><!-- 1834067858320&#45;&gt;1834067867536 --><g id="edge56" class="edge"><title>1834067858320&#45;&gt;1834067867536</title><path fill="none" stroke="black" d="M997.93,-336.94C1006,-336.3 1015.06,-335.57 1023.7,-334.89"/><polygon fill="black" stroke="black" points="1024.26,-338.35 1033.95,-334.07 1023.71,-331.38 1024.26,-338.35"/></g></g></svg>