<svg xmlns="http://www.w3.org/2000/svg" xmlns:xlink="http://www.w3.org/1999/xlink" width="940" height="667pt" viewBox="0 0 705 667"><g id="graph0" class="graph" transform="scale(1 1) rotate(0) translate(4 663)"><g id="node1" class="node"><title>-6355594484988642004</title><g id="a_node1"><a xlink:title="Distribuição"><path fill="#fff" stroke="#000" d="M84,-659C84,-659 12,-659 12,-659 6,-659 0,-653 0,-647 0,-647 0,-631 0,-631 0,-625 6,-619 12,-619 12,-619 84,-619 84,-619 90,-619 96,-625 96,-631 96,-631 96,-647 96,-647 96,-653 90,-659 84,-659"/><text x="48" y="-642.4" font-family="Times New Roman,serif" font-size="12" text-anchor="middle">Distribuição</text><text x="48" y="-629.4" font-family="Times New Roman,serif" font-size="12" text-anchor="middle">538 movimentos</text></a></g></g><g id="node3" class="node"><title>-6638748395014287532</title><g id="a_node3"><a xlink:title="Audiência"><path fill="#fff" stroke="#000" d="M250,-570C250,-570 178,-570 178,-570 172,-570 166,-564 166,-558 166,-558 166,-542 166,-542 166,-536 172,-530 178,-530 178,-530 250,-530 250,-530 256,-530 262,-536 262,-542 262,-542 262,-558 262,-558 262,-564 256,-570 250,-570"/><text x="214" y="-553.4" font-family="Times New Roman,serif" font-size="12" text-anchor="middle">Audiência</text><text x="214" y="-540.4" font-family="Times New Roman,serif" font-size="12" text-anchor="middle">209 movimentos</text></a></g></g><g id="edge5" class="edge"><title>-6355594484988642004-&gt;-6638748395014287532</title><g id="a_edge5"><a xlink:title="Distribuição -&gt; Audiência"><path fill="none" stroke="#009600" d="M84.43,-618.91C109.19,-605.93 142.12,-588.67 168.59,-574.8"/><polygon fill="#009600" stroke="#009600" points="170.42 -577.79 177.66 -570.05 167.17 -571.59 170.42 -577.79"/></a></g><g id="a_edge5-label"><a xlink:title="Distribuição -&gt; Audiência"><text x="151.5" y="-591.4" font-family="Times New Roman,serif" font-size="12" text-anchor="middle">1m</text></a></g></g><g id="node4" class="node"><title>-4155164424438587150</title><g id="a_node4"><a xlink:title="Conclusão"><path fill="#fff" stroke="#000" stroke-width="2.5" d="M175,-392C175,-392 97,-392 97,-392 91,-392 85,-386 85,-380 85,-380 85,-364 85,-364 85,-358 91,-352 97,-352 97,-352 175,-352 175,-352 181,-352 187,-358 187,-364 187,-364 187,-380 187,-380 187,-386 181,-392 175,-392"/><text x="136" y="-375.4" font-family="Times New Roman,serif" font-size="12" text-anchor="middle">Conclusão</text><text x="136" y="-362.4" font-family="Times New Roman,serif" font-size="12" text-anchor="middle">3353 movimentos</text></a></g></g><g id="edge6" class="edge"><title>-6355594484988642004-&gt;-4155164424438587150</title><g id="a_edge6"><a xlink:title="Distribuição -&gt; Conclusão"><path fill="none" stroke="#009600" stroke-width="1.28" d="M54.33,-618.94C69.55,-573.12 108.26,-456.54 126.38,-401.98"/><polygon fill="#009600" stroke="#009600" stroke-width="1.28" points="129.78 -402.84 129.61 -392.24 123.14 -400.63 129.78 -402.84"/></a></g><g id="a_edge6-label"><a xlink:title="Distribuição -&gt; Conclusão"><text x="103.5" y="-502.4" font-family="Times New Roman,serif" font-size="12" text-anchor="middle">2s</text></a></g></g><g id="node2" class="node"><title>4158219948691257417</title><g id="a_node2"><a xlink:title="Definitivo"><path fill="#fff" stroke="#000" d="M685,-40C685,-40 613,-40 613,-40 607,-40 601,-34 601,-28 601,-28 601,-12 601,-12 601,-6 607,0 613,0 613,0 685,0 685,0 691,0 697,-6 697,-12 697,-12 697,-28 697,-28 697,-34 691,-40 685,-40"/><text x="649" y="-23.4" font-family="Times New Roman,serif" font-size="12" text-anchor="middle">Definitivo</text><text x="649" y="-10.4" font-family="Times New Roman,serif" font-size="12" text-anchor="middle">564 movimentos</text></a></g></g><g id="node6" class="node"><title>1136901616300872993</title><g id="a_node6"><a xlink:title="Expedição de documento"><path fill="#fff" stroke="#000" stroke-width="5" d="M413.5,-481C413.5,-481 298.5,-481 298.5,-481 292.5,-481 286.5,-475 286.5,-469 286.5,-469 286.5,-453 286.5,-453 286.5,-447 292.5,-441 298.5,-441 298.5,-441 413.5,-441 413.5,-441 419.5,-441 425.5,-447 425.5,-453 425.5,-453 425.5,-469 425.5,-469 425.5,-475 419.5,-481 413.5,-481"/><text x="356" y="-464.4" font-family="Times New Roman,serif" font-size="12" text-anchor="middle">Expedição de documento</text><text x="356" y="-451.4" font-family="Times New Roman,serif" font-size="12" text-anchor="middle">6718 movimentos</text></a></g></g><g id="edge1" class="edge"><title>-6638748395014287532-&gt;1136901616300872993</title><g id="a_edge1"><a xlink:title="Audiência -&gt; Expedição de documento"><path fill="none" stroke="#009600" d="M245.16,-529.91C266.06,-517.1 293.78,-500.12 316.26,-486.35"/><polygon fill="#009600" stroke="#009600" points="318.21 -489.26 324.91 -481.05 314.55 -483.29 318.21 -489.26"/></a></g><g id="a_edge1-label"><a xlink:title="Audiência -&gt; Expedição de documento"><text x="304.5" y="-502.4" font-family="Times New Roman,serif" font-size="12" text-anchor="middle">9m</text></a></g></g><g id="edge2" class="edge"><title>-4155164424438587150-&gt;1136901616300872993</title><g id="a_edge2"><a xlink:title="Conclusão -&gt; Expedição de documento"><path fill="none" stroke="#964400" d="M144.6,-392.44C150.3,-403.08 158.8,-415.58 170,-423 201.1,-443.6 241.12,-453.21 276.05,-457.53"/><polygon fill="#964400" stroke="#964400" points="275.91 -461.04 286.24 -458.66 276.68 -454.08 275.91 -461.04"/></a></g><g id="a_edge2-label"><a xlink:title="Conclusão -&gt; Expedição de documento"><text x="180.5" y="-413.4" font-family="Times New Roman,serif" font-size="12" text-anchor="middle">6D</text></a></g></g><g id="node8" class="node"><title>7334451637223804556</title><g id="a_node8"><a xlink:title="Mero expediente"><path fill="#fff" stroke="#000" stroke-width="1.52" d="M437,-276C437,-276 359,-276 359,-276 353,-276 347,-270 347,-264 347,-264 347,-248 347,-248 347,-242 353,-236 359,-236 359,-236 437,-236 437,-236 443,-236 449,-242 449,-248 449,-248 449,-264 449,-264 449,-270 443,-276 437,-276"/><text x="398" y="-259.4" font-family="Times New Roman,serif" font-size="12" text-anchor="middle">Mero expediente</text><text x="398" y="-246.4" font-family="Times New Roman,serif" font-size="12" text-anchor="middle">2048 movimentos</text></a></g></g><g id="edge3" class="edge"><title>-4155164424438587150-&gt;7334451637223804556</title><g id="a_edge3"><a xlink:title="Conclusão -&gt; Mero expediente"><path fill="none" stroke="#209600" stroke-width="4.02" d="M179.85,-351.92C225.19,-332.19 296.03,-301.37 344.6,-280.24"/><polygon fill="#209600" stroke="#209600" stroke-width="4.02" points="346.24 -283.36 354 -276.14 343.43 -276.91 346.24 -283.36"/></a></g><g id="a_edge3-label"><a xlink:title="Conclusão -&gt; Mero expediente"><text x="316.5" y="-310.9" font-family="Times New Roman,serif" font-size="12" text-anchor="middle">1D</text></a></g></g><g id="node9" class="node"><title>3768329636919797765</title><g id="a_node9"><a xlink:title="Petição"><path fill="#fff" stroke="#000" stroke-width="3.84" d="M358,-187C358,-187 280,-187 280,-187 274,-187 268,-181 268,-175 268,-175 268,-159 268,-159 268,-153 274,-147 280,-147 280,-147 358,-147 358,-147 364,-147 370,-153 370,-159 370,-159 370,-175 370,-175 370,-181 364,-187 358,-187"/><text x="319" y="-170.4" font-family="Times New Roman,serif" font-size="12" text-anchor="middle">Petição</text><text x="319" y="-157.4" font-family="Times New Roman,serif" font-size="12" text-anchor="middle">5154 movimentos</text></a></g></g><g id="edge4" class="edge"><title>-4155164424438587150-&gt;3768329636919797765</title><g id="a_edge4"><a xlink:title="Conclusão -&gt; Petição"><path fill="none" stroke="#965c00" d="M136.58,-351.58C138.1,-324.33 143.55,-273.84 163,-236 180.96,-201.05 222.36,-184.06 258,-175.81"/><polygon fill="#965c00" stroke="#965c00" points="258.83 -179.21 267.88 -173.7 257.37 -172.36 258.83 -179.21"/></a></g><g id="a_edge4-label"><a xlink:title="Conclusão -&gt; Petição"><text x="173.5" y="-252.9" font-family="Times New Roman,serif" font-size="12" text-anchor="middle">3D</text></a></g></g><g id="node5" class="node"><title>-6338852882765663245</title><g id="a_node5"><a xlink:title="Documento"><path fill="#fff" stroke="#000" d="M355,-98C355,-98 283,-98 283,-98 277,-98 271,-92 271,-86 271,-86 271,-70 271,-70 271,-64 277,-58 283,-58 283,-58 355,-58 355,-58 361,-58 367,-64 367,-70 367,-70 367,-86 367,-86 367,-92 361,-98 355,-98"/><text x="319" y="-81.4" font-family="Times New Roman,serif" font-size="12" text-anchor="middle">Documento</text><text x="319" y="-68.4" font-family="Times New Roman,serif" font-size="12" text-anchor="middle">749 movimentos</text></a></g></g><g id="edge7" class="edge"><title>-6338852882765663245-&gt;1136901616300872993</title><g id="a_edge7"><a xlink:title="Documento -&gt; Expedição de documento"><path fill="none" stroke="#962c00" d="M367.04,-84.66C443.91,-95.07 586,-120.48 586,-166 586,-373 586,-373 586,-373 586,-405.99 502.16,-430.86 435.71,-445.39"/><polygon fill="#962c00" stroke="#962c00" points="434.68 -442.03 425.63 -447.54 436.14 -448.87 434.68 -442.03"/></a></g><g id="a_edge7-label"><a xlink:title="Documento -&gt; Expedição de documento"><text x="599.5" y="-252.9" font-family="Times New Roman,serif" font-size="12" text-anchor="middle">11D</text></a></g></g><g id="edge8" class="edge"><title>-6338852882765663245-&gt;3768329636919797765</title><g id="a_edge8"><a xlink:title="Documento -&gt; Petição"><path fill="none" stroke="#964e00" d="M319,-98.25C319,-109.51 319,-123.94 319,-136.59"/><polygon fill="#964e00" stroke="#964e00" points="315.5 -136.69 319 -146.69 322.5 -136.69 315.5 -136.69"/></a></g><g id="a_edge8-label"><a xlink:title="Documento -&gt; Petição"><text x="329.5" y="-119.4" font-family="Times New Roman,serif" font-size="12" text-anchor="middle">5D</text></a></g></g><g id="edge10" class="edge"><title>1136901616300872993-&gt;4158219948691257417</title><g id="a_edge10"><a xlink:title="Expedição de documento -&gt; Definitivo"><path fill="none" stroke="#009600" d="M425.81,-453.28C512.47,-442.97 649,-419.36 649,-373 649,-373 649,-373 649,-121.5 649,-97.54 649,-70.37 649,-50.32"/><polygon fill="#009600" stroke="#009600" points="652.5 -50.27 649 -40.27 645.5 -50.27 652.5 -50.27"/></a></g><g id="a_edge10-label"><a xlink:title="Expedição de documento -&gt; Definitivo"><text x="659.5" y="-252.9" font-family="Times New Roman,serif" font-size="12" text-anchor="middle">1m</text></a></g></g><g id="edge9" class="edge"><title>1136901616300872993-&gt;-4155164424438587150</title><g id="a_edge9"><a xlink:title="Expedição de documento -&gt; Conclusão"><path fill="none" stroke="#009600" stroke-width="1.97" d="M298.76,-440.93C282.88,-435.39 265.69,-429.17 250,-423 229.09,-414.78 206.35,-404.99 186.73,-396.26"/><polygon fill="#009600" stroke="#009600" stroke-width="1.97" points="187.92 -392.96 177.37 -392.07 185.07 -399.35 187.92 -392.96"/></a></g><g id="a_edge9-label"><a xlink:title="Expedição de documento -&gt; Conclusão"><text x="260.5" y="-413.4" font-family="Times New Roman,serif" font-size="12" text-anchor="middle">1m</text></a></g></g><g id="edge11" class="edge"><title>1136901616300872993-&gt;-6338852882765663245</title><g id="a_edge11"><a xlink:title="Expedição de documento -&gt; Documento"><path fill="none" stroke="#960000" d="M286.28,-453.72C197.92,-443.79 57,-420.51 57,-373 57,-373 57,-373 57,-166 57,-123.34 183.68,-97.94 260.86,-86.43"/><polygon fill="#960000" stroke="#960000" points="261.55 -89.86 270.95 -84.96 260.55 -82.94 261.55 -89.86"/></a></g><g id="a_edge11-label"><a xlink:title="Expedição de documento -&gt; Documento"><text x="70.5" y="-252.9" font-family="Times New Roman,serif" font-size="12" text-anchor="middle">24D</text></a></g></g><g id="edge12" class="edge"><title>1136901616300872993-&gt;1136901616300872993</title><g id="a_edge12"><a xlink:title="Expedição de documento -&gt; Expedição de documento"><path fill="none" stroke="#259600" stroke-width="4.93" d="M425.67,-468.52C436.29,-467.37 443.5,-464.87 443.5,-461 443.5,-458.52 440.54,-456.6 435.62,-455.24"/><polygon fill="#259600" stroke="#259600" stroke-width="4.93" points="436.27 -450.98 425.67 -453.48 434.77 -459.47 436.27 -450.98"/></a></g><g id="a_edge12-label"><a xlink:title="Expedição de documento -&gt; Expedição de documento"><text x="454" y="-457.9" font-family="Times New Roman,serif" font-size="12" text-anchor="middle">2D</text></a></g></g><g id="node7" class="node"><title>-2774805245225423316</title><g id="a_node7"><a xlink:title="Mandado"><path fill="#fff" stroke="#000" d="M295,-392C295,-392 217,-392 217,-392 211,-392 205,-386 205,-380 205,-380 205,-364 205,-364 205,-358 211,-352 217,-352 217,-352 295,-352 295,-352 301,-352 307,-358 307,-364 307,-364 307,-380 307,-380 307,-386 301,-392 295,-392"/><text x="256" y="-375.4" font-family="Times New Roman,serif" font-size="12" text-anchor="middle">Mandado</text><text x="256" y="-362.4" font-family="Times New Roman,serif" font-size="12" text-anchor="middle">1143 movimentos</text></a></g></g><g id="edge13" class="edge"><title>1136901616300872993-&gt;-2774805245225423316</title><g id="a_edge13"><a xlink:title="Expedição de documento -&gt; Mandado"><path fill="none" stroke="#009600" stroke-width="1.29" d="M308.79,-440.81C299.92,-435.86 291.18,-429.93 284,-423 277.69,-416.91 272.4,-409.09 268.19,-401.44"/><polygon fill="#009600" stroke="#009600" stroke-width="1.29" points="271.22 -399.68 263.57 -392.34 264.97 -402.84 271.22 -399.68"/></a></g><g id="a_edge13-label"><a xlink:title="Expedição de documento -&gt; Mandado"><text x="295.5" y="-413.4" font-family="Times New Roman,serif" font-size="12" text-anchor="middle">10s</text></a></g></g><g id="edge14" class="edge"><title>1136901616300872993-&gt;3768329636919797765</title><g id="a_edge14"><a xlink:title="Expedição de documento -&gt; Petição"><path fill="none" stroke="#962000" stroke-width="5" d="M357.04,-440.81C357.92,-419.15 358.56,-382.92 355,-352 351.04,-317.61 344.78,-309.94 338,-276 332.68,-249.37 327.39,-218.88 323.75,-197.1"/><polygon fill="#962000" stroke="#962000" stroke-width="5" points="328.05 -196.32 322.1 -187.17 319.42 -197.75 328.05 -196.32"/></a></g><g id="a_edge14-label"><a xlink:title="Expedição de documento -&gt; Petição"><text x="366.5" y="-310.9" font-family="Times New Roman,serif" font-size="12" text-anchor="middle">14D</text></a></g></g><g id="node10" class="node"><title>-231088627470763890</title><g id="a_node10"><a xlink:title="Remessa"><path fill="#fff" stroke="#000" d="M505,-334C505,-334 433,-334 433,-334 427,-334 421,-328 421,-322 421,-322 421,-306 421,-306 421,-300 427,-294 433,-294 433,-294 505,-294 505,-294 511,-294 517,-300 517,-306 517,-306 517,-322 517,-322 517,-328 511,-334 505,-334"/><text x="469" y="-317.4" font-family="Times New Roman,serif" font-size="12" text-anchor="middle">Remessa</text><text x="469" y="-304.4" font-family="Times New Roman,serif" font-size="12" text-anchor="middle">518 movimentos</text></a></g></g><g id="edge15" class="edge"><title>1136901616300872993-&gt;-231088627470763890</title><g id="a_edge15"><a xlink:title="Expedição de documento -&gt; Remessa"><path fill="none" stroke="#019600" d="M410.96,-440.8C419.48,-435.99 427.57,-430.12 434,-423 453.7,-401.18 462.33,-368.12 466.09,-344.33"/><polygon fill="#019600" stroke="#019600" points="469.6 -344.51 467.51 -334.13 462.67 -343.55 469.6 -344.51"/></a></g><g id="a_edge15-label"><a xlink:title="Expedição de documento -&gt; Remessa"><text x="453" y="-413.4" font-family="Times New Roman,serif" font-size="12" text-anchor="middle">1h</text></a></g></g><g id="edge16" class="edge"><title>-2774805245225423316-&gt;1136901616300872993</title><g id="a_edge16"><a xlink:title="Mandado -&gt; Expedição de documento"><path fill="none" stroke="#389600" d="M284.17,-392.15C291.78,-397.67 299.88,-403.86 307,-410 315.28,-417.14 323.8,-425.44 331.36,-433.2"/><polygon fill="#389600" stroke="#389600" points="329.11 -435.92 338.56 -440.72 334.17 -431.08 329.11 -435.92"/></a></g><g id="a_edge16-label"><a xlink:title="Mandado -&gt; Expedição de documento"><text x="330.5" y="-413.4" font-family="Times New Roman,serif" font-size="12" text-anchor="middle">3D</text></a></g></g><g id="edge17" class="edge"><title>-2774805245225423316-&gt;-2774805245225423316</title><g id="a_edge17"><a xlink:title="Mandado -&gt; Mandado"><path fill="none" stroke="#179600" stroke-width="1.39" d="M307.15,-379.94C317.55,-379.07 325,-376.43 325,-372 325,-369.23 322.09,-367.16 317.37,-365.79"/><polygon fill="#179600" stroke="#179600" stroke-width="1.39" points="317.6 -362.28 307.15 -364.06 316.43 -369.18 317.6 -362.28"/></a></g><g id="a_edge17-label"><a xlink:title="Mandado -&gt; Mandado"><text x="335.5" y="-368.9" font-family="Times New Roman,serif" font-size="12" text-anchor="middle">1D</text></a></g></g><g id="edge18" class="edge"><title>-2774805245225423316-&gt;3768329636919797765</title><g id="a_edge18"><a xlink:title="Mandado -&gt; Petição"><path fill="none" stroke="#964500" d="M258.32,-351.78C261.9,-325.19 269.87,-275.94 284,-236 288.82,-222.37 295.87,-208.03 302.39,-196.05"/><polygon fill="#964500" stroke="#964500" points="305.62 -197.45 307.44 -187.01 299.51 -194.03 305.62 -197.45"/></a></g><g id="a_edge18-label"><a xlink:title="Mandado -&gt; Petição"><text x="294.5" y="-252.9" font-family="Times New Roman,serif" font-size="12" text-anchor="middle">6D</text></a></g></g><g id="edge19" class="edge"><title>7334451637223804556-&gt;1136901616300872993</title><g id="a_edge19"><a xlink:title="Mero expediente -&gt; Expedição de documento"><path fill="none" stroke="#3a9600" stroke-width="3.64" d="M400.68,-276.03C404.33,-307.82 408.3,-373.13 388,-423 386.65,-426.33 384.87,-429.56 382.84,-432.65"/><polygon fill="#3a9600" stroke="#3a9600" stroke-width="3.64" points="379.84 -430.81 376.61 -440.9 385.43 -435.02 379.84 -430.81"/></a></g><g id="a_edge19-label"><a xlink:title="Mero expediente -&gt; Expedição de documento"><text x="413.5" y="-368.9" font-family="Times New Roman,serif" font-size="12" text-anchor="middle">3D</text></a></g></g><g id="edge20" class="edge"><title>7334451637223804556-&gt;3768329636919797765</title><g id="a_edge20"><a xlink:title="Mero expediente -&gt; Petição"><path fill="none" stroke="#965400" d="M380.47,-235.69C369.52,-223.64 355.28,-207.96 343.26,-194.72"/><polygon fill="#965400" stroke="#965400" points="345.8 -192.3 336.48 -187.25 340.62 -197.01 345.8 -192.3"/></a></g><g id="a_edge20-label"><a xlink:title="Mero expediente -&gt; Petição"><text x="374.5" y="-208.4" font-family="Times New Roman,serif" font-size="12" text-anchor="middle">4D</text></a></g></g><g id="edge21" class="edge"><title>3768329636919797765-&gt;-4155164424438587150</title><g id="a_edge21"><a xlink:title="Petição -&gt; Conclusão"><path fill="none" stroke="#965400" stroke-width="4.16" d="M297.88,-187.04C283.43,-200.35 264.05,-218.76 248,-236 214.71,-271.75 179.17,-315.7 157.26,-343.54"/><polygon fill="#965400" stroke="#965400" stroke-width="4.16" points="154.22 -341.52 150.92 -351.64 159.95 -346.01 154.22 -341.52"/></a></g><g id="a_edge21-label"><a xlink:title="Petição -&gt; Conclusão"><text x="258.5" y="-252.9" font-family="Times New Roman,serif" font-size="12" text-anchor="middle">4D</text></a></g></g><g id="edge22" class="edge"><title>3768329636919797765-&gt;-6338852882765663245</title><g id="a_edge22"><a xlink:title="Petição -&gt; Documento"><path fill="none" stroke="#963700" d="M301.47,-146.68C295.36,-137.65 290.76,-126.58 294,-116 294.92,-112.98 296.18,-109.99 297.65,-107.09"/><polygon fill="#963700" stroke="#963700" points="300.82 -108.62 302.89 -98.23 294.79 -105.06 300.82 -108.62"/></a></g><g id="a_edge22-label"><a xlink:title="Petição -&gt; Documento"><text x="304.5" y="-119.4" font-family="Times New Roman,serif" font-size="12" text-anchor="middle">8D</text></a></g></g><g id="edge23" class="edge"><title>3768329636919797765-&gt;1136901616300872993</title><g id="a_edge23"><a xlink:title="Petição -&gt; Expedição de documento"><path fill="none" stroke="#964800" stroke-width="2.24" d="M370.2,-172.58C412.48,-179.26 470.49,-195.67 502,-236 518.47,-257.07 514.41,-267.5 518,-294 526.29,-355.26 513.94,-383.97 466,-423 456.84,-430.45 446.12,-436.43 435.02,-441.22"/><polygon fill="#964800" stroke="#964800" stroke-width="2.24" points="433.62 -438.01 425.63 -444.97 436.22 -444.51 433.62 -438.01"/></a></g><g id="a_edge23-label"><a xlink:title="Petição -&gt; Expedição de documento"><text x="531.5" y="-310.9" font-family="Times New Roman,serif" font-size="12" text-anchor="middle">6D</text></a></g></g><g id="edge24" class="edge"><title>3768329636919797765-&gt;3768329636919797765</title><g id="a_edge24"><a xlink:title="Petição -&gt; Petição"><path fill="none" stroke="#019600" stroke-width="3.89" d="M370.15,-174.94C380.55,-174.07 388,-171.43 388,-167 388,-164.23 385.09,-162.16 380.37,-160.79"/><polygon fill="#019600" stroke="#019600" stroke-width="3.89" points="380.6 -157.28 370.15 -159.06 379.43 -164.18 380.6 -157.28"/></a></g><g id="a_edge24-label"><a xlink:title="Petição -&gt; Petição"><text x="397" y="-163.9" font-family="Times New Roman,serif" font-size="12" text-anchor="middle">1h</text></a></g></g><g id="edge25" class="edge"><title>-231088627470763890-&gt;3768329636919797765</title><g id="a_edge25"><a xlink:title="Remessa -&gt; Petição"><path fill="none" stroke="#960300" d="M470.99,-293.75C471.71,-276.95 470.15,-252.71 458,-236 439.27,-210.25 408.09,-193.77 380,-183.49"/><polygon fill="#960300" stroke="#960300" points="380.81 -180.07 370.22 -180.11 378.53 -186.68 380.81 -180.07"/></a></g><g id="a_edge25-label"><a xlink:title="Remessa -&gt; Petição"><text x="484.5" y="-252.9" font-family="Times New Roman,serif" font-size="12" text-anchor="middle">23D</text></a></g></g></g></svg>