<?xml version="1.0" encoding="UTF-8" standalone="no"?><!DOCTYPE svg PUBLIC "-//W3C//DTD SVG 1.1//EN" "http://www.w3.org/Graphics/SVG/1.1/DTD/svg11.dtd"><!-- Generated by graphviz version 2.49.3 (20211023.0002) --><!-- Pages: 1 --><svg width="342pt" height="427pt" viewBox="0.00 0.00 342.00 427.00" xmlns="http://www.w3.org/2000/svg" xmlns:xlink="http://www.w3.org/1999/xlink"><g id="graph0" class="graph" transform="scale(1 1) rotate(0) translate(4 423)"><!-- 1569400017503937267 --><g id="node1" class="node"><title>1569400017503937267</title><path fill="none" stroke="#c4c7c7" stroke-dasharray="5,2" d="M199,-419C199,-419 143,-419 143,-419 137,-419 131,-413 131,-407 131,-407 131,-395 131,-395 131,-389 137,-383 143,-383 143,-383 199,-383 199,-383 205,-383 211,-389 211,-395 211,-395 211,-407 211,-407 211,-413 205,-419 199,-419"/><text text-anchor="middle" x="171" y="-404.4" font-family="Times New Roman,serif" font-size="12.00" fill="#c4c7c7"> Distribuição &#160;</text><text text-anchor="middle" x="171" y="-391.4" font-family="Times New Roman,serif" font-size="12.00" fill="#c4c7c7"> não executou</text></g><!-- &#45;7475462392750634986 --><g id="node2" class="node"><title>&#45;7475462392750634986</title><g id="a_node2"><a xlink:title="Definitivo"><path fill="white" stroke="black" d="M84,-40C84,-40 12,-40 12,-40 6,-40 0,-34 0,-28 0,-28 0,-12 0,-12 0,-6 6,0 12,0 12,0 84,0 84,0 90,0 96,-6 96,-12 96,-12 96,-28 96,-28 96,-34 90,-40 84,-40"/><text text-anchor="middle" x="48" y="-23.4" font-family="Times New Roman,serif" font-size="12.00"> Definitivo &#160;</text><text text-anchor="middle" x="48" y="-10.4" font-family="Times New Roman,serif" font-size="12.00"> 564 movimentos </text></a></g></g><!-- 3481022503272025849 --><g id="node3" class="node"><title>3481022503272025849</title><g id="a_node3"><a xlink:title="Conclusão"><path fill="#ffffff" stroke="black" stroke-width="2.5" d="M281,-187C281,-187 203,-187 203,-187 197,-187 191,-181 191,-175 191,-175 191,-159 191,-159 191,-153 197,-147 203,-147 203,-147 281,-147 281,-147 287,-147 293,-153 293,-159 293,-159 293,-175 293,-175 293,-181 287,-187 281,-187"/><text text-anchor="middle" x="242" y="-170.4" font-family="Times New Roman,serif" font-size="12.00"> Conclusão &#160;</text><text text-anchor="middle" x="242" y="-157.4" font-family="Times New Roman,serif" font-size="12.00"> 3353 movimentos </text></a></g></g><!-- 7987048985312221378 --><g id="node4" class="node"><title>7987048985312221378</title><g id="a_node4"><a xlink:title="Despacho"><path fill="#ffffff" stroke="black" stroke-width="1.53" d="M178,-98C178,-98 100,-98 100,-98 94,-98 88,-92 88,-86 88,-86 88,-70 88,-70 88,-64 94,-58 100,-58 100,-58 178,-58 178,-58 184,-58 190,-64 190,-70 190,-70 190,-86 190,-86 190,-92 184,-98 178,-98"/><text text-anchor="middle" x="139" y="-81.4" font-family="Times New Roman,serif" font-size="12.00"> Despacho &#160;</text><text text-anchor="middle" x="139" y="-68.4" font-family="Times New Roman,serif" font-size="12.00"> 2053 movimentos </text></a></g></g><!-- 3481022503272025849&#45;&gt;7987048985312221378 --><g id="edge1" class="edge"><title>3481022503272025849&#45;&gt;7987048985312221378</title><g id="a_edge1"><a xlink:title="Conclusão &#45;&gt; Despacho"><path fill="none" stroke="#319600" stroke-width="3.79" d="M219.4,-146.91C204.77,-134.56 185.55,-118.32 169.57,-104.82"/><polygon fill="#319600" stroke="#319600" stroke-width="3.79" points="171.45,-101.83 161.55,-98.05 166.93,-107.17 171.45,-101.83"/></a></g><g id="a_edge1&#45;label"><a xlink:title="Conclusão &#45;&gt; Despacho"><text text-anchor="middle" x="206.5" y="-119.4" font-family="Times New Roman,serif" font-size="12.00"> 1D </text></a></g></g><!-- &#45;7502121929537258044 --><g id="node6" class="node"><title>&#45;7502121929537258044</title><g id="a_node6"><a xlink:title="Julgamento"><path fill="#ffffff" stroke="black" d="M292,-98C292,-98 220,-98 220,-98 214,-98 208,-92 208,-86 208,-86 208,-70 208,-70 208,-64 214,-58 220,-58 220,-58 292,-58 292,-58 298,-58 304,-64 304,-70 304,-70 304,-86 304,-86 304,-92 298,-98 292,-98"/><text text-anchor="middle" x="256" y="-81.4" font-family="Times New Roman,serif" font-size="12.00"> Julgamento &#160;</text><text text-anchor="middle" x="256" y="-68.4" font-family="Times New Roman,serif" font-size="12.00"> 685 movimentos </text></a></g></g><!-- 3481022503272025849&#45;&gt;&#45;7502121929537258044 --><g id="edge2" class="edge"><title>3481022503272025849&#45;&gt;&#45;7502121929537258044</title><g id="a_edge2"><a xlink:title="Conclusão &#45;&gt; Julgamento"><path fill="none" stroke="#964500" d="M245.11,-146.69C246.92,-135.43 249.24,-120.99 251.28,-108.35"/><polygon fill="#964500" stroke="#964500" points="254.77,-108.68 252.9,-98.25 247.86,-107.57 254.77,-108.68"/></a></g><g id="a_edge2&#45;label"><a xlink:title="Conclusão &#45;&gt; Julgamento"><text text-anchor="middle" x="259.5" y="-119.4" font-family="Times New Roman,serif" font-size="12.00"> 3D </text></a></g></g><!-- 4422747661767652410 --><g id="node5" class="node"><title>4422747661767652410</title><g id="a_node5"><a xlink:title="Expedição de documento"><path fill="#ffffff" stroke="black" stroke-width="5" d="M228.5,-365C228.5,-365 113.5,-365 113.5,-365 107.5,-365 101.5,-359 101.5,-353 101.5,-353 101.5,-337 101.5,-337 101.5,-331 107.5,-325 113.5,-325 113.5,-325 228.5,-325 228.5,-325 234.5,-325 240.5,-331 240.5,-337 240.5,-337 240.5,-353 240.5,-353 240.5,-359 234.5,-365 228.5,-365"/><text text-anchor="middle" x="171" y="-348.4" font-family="Times New Roman,serif" font-size="12.00"> Expedição de documento &#160;</text><text text-anchor="middle" x="171" y="-335.4" font-family="Times New Roman,serif" font-size="12.00"> 6718 movimentos </text></a></g></g><!-- 7987048985312221378&#45;&gt;4422747661767652410 --><g id="edge3" class="edge"><title>7987048985312221378&#45;&gt;4422747661767652410</title><g id="a_edge3"><a xlink:title="Despacho &#45;&gt; Expedição de documento"><path fill="none" stroke="#964500" stroke-width="3.13" d="M131.91,-98.06C119.67,-133.93 97.84,-213.48 119,-276 124.15,-291.21 134.22,-305.7 144.13,-317.36"/><polygon fill="#964500" stroke="#964500" stroke-width="3.13" points="141.64,-319.83 150.91,-324.96 146.87,-315.17 141.64,-319.83"/></a></g><g id="a_edge3&#45;label"><a xlink:title="Despacho &#45;&gt; Expedição de documento"><text text-anchor="middle" x="120.5" y="-208.4" font-family="Times New Roman,serif" font-size="12.00"> 3D </text></a></g></g><!-- 4422747661767652410&#45;&gt;&#45;7475462392750634986 --><g id="edge5" class="edge"><title>4422747661767652410&#45;&gt;&#45;7475462392750634986</title><g id="a_edge5"><a xlink:title="Expedição de documento &#45;&gt; Definitivo"><path fill="none" stroke="#009600" d="M108.06,-324.98C77.8,-311.55 48,-289.96 48,-257 48,-257 48,-257 48,-121.5 48,-97.54 48,-70.37 48,-50.32"/><polygon fill="#009600" stroke="#009600" points="51.5,-50.27 48,-40.27 44.5,-50.27 51.5,-50.27"/></a></g><g id="a_edge5&#45;label"><a xlink:title="Expedição de documento &#45;&gt; Definitivo"><text text-anchor="middle" x="58.5" y="-208.4" font-family="Times New Roman,serif" font-size="12.00"> 1m </text></a></g></g><!-- 4422747661767652410&#45;&gt;3481022503272025849 --><g id="edge4" class="edge"><title>4422747661767652410&#45;&gt;3481022503272025849</title><g id="a_edge4"><a xlink:title="Expedição de documento &#45;&gt; Conclusão"><path fill="none" stroke="#009600" d="M209.56,-324.99C228.15,-313.58 248.62,-297.14 259,-276 271.24,-251.07 263.93,-219.35 255.42,-196.75"/><polygon fill="#009600" stroke="#009600" points="258.62,-195.32 251.63,-187.36 252.13,-197.95 258.62,-195.32"/></a></g><g id="a_edge4&#45;label"><a xlink:title="Expedição de documento &#45;&gt; Conclusão"><text text-anchor="middle" x="275.5" y="-252.9" font-family="Times New Roman,serif" font-size="12.00"> 1m </text></a></g></g><!-- 4422747661767652410&#45;&gt;4422747661767652410 --><g id="edge6" class="edge"><title>4422747661767652410&#45;&gt;4422747661767652410</title><g id="a_edge6"><a xlink:title="Expedição de documento &#45;&gt; Expedição de documento"><path fill="none" stroke="#379600" stroke-width="5" d="M240.67,-352.52C251.29,-351.37 258.5,-348.87 258.5,-345 258.5,-342.52 255.54,-340.6 250.62,-339.24"/><polygon fill="#379600" stroke="#379600" stroke-width="5" points="251.28,-334.92 240.67,-337.48 249.76,-343.53 251.28,-334.92"/></a></g><g id="a_edge6&#45;label"><a xlink:title="Expedição de documento &#45;&gt; Expedição de documento"><text text-anchor="middle" x="269" y="-341.9" font-family="Times New Roman,serif" font-size="12.00"> 2D </text></a></g></g><!-- &#45;2998375710546834842 --><g id="node7" class="node"><title>&#45;2998375710546834842</title><g id="a_node7"><a xlink:title="Petição"><path fill="#ffffff" stroke="black" stroke-width="3.84" d="M210,-276C210,-276 132,-276 132,-276 126,-276 120,-270 120,-264 120,-264 120,-248 120,-248 120,-242 126,-236 132,-236 132,-236 210,-236 210,-236 216,-236 222,-242 222,-248 222,-248 222,-264 222,-264 222,-270 216,-276 210,-276"/><text text-anchor="middle" x="171" y="-259.4" font-family="Times New Roman,serif" font-size="12.00"> Petição &#160;</text><text text-anchor="middle" x="171" y="-246.4" font-family="Times New Roman,serif" font-size="12.00"> 5154 movimentos </text></a></g></g><!-- 4422747661767652410&#45;&gt;&#45;2998375710546834842 --><g id="edge7" class="edge"><title>4422747661767652410&#45;&gt;&#45;2998375710546834842</title><g id="a_edge7"><a xlink:title="Expedição de documento &#45;&gt; Petição"><path fill="none" stroke="#960000" stroke-width="4.2" d="M171,-324.69C171,-313.43 171,-298.99 171,-286.35"/><polygon fill="#960000" stroke="#960000" stroke-width="4.2" points="174.67,-286.25 171,-276.25 167.33,-286.25 174.67,-286.25"/></a></g><g id="a_edge7&#45;label"><a xlink:title="Expedição de documento &#45;&gt; Petição"><text text-anchor="middle" x="184.5" y="-297.4" font-family="Times New Roman,serif" font-size="12.00"> 14D </text></a></g></g><!-- &#45;7502121929537258044&#45;&gt;4422747661767652410 --><g id="edge8" class="edge"><title>&#45;7502121929537258044&#45;&gt;4422747661767652410</title><g id="a_edge8"><a xlink:title="Julgamento &#45;&gt; Expedição de documento"><path fill="none" stroke="#965200" d="M273.57,-98.17C284.06,-110.96 296.4,-128.74 302,-147 318.87,-202.05 317.45,-225.38 290,-276 279.33,-295.68 260.42,-310.08 240.78,-320.42"/><polygon fill="#965200" stroke="#965200" points="239.15,-317.33 231.73,-324.89 242.25,-323.6 239.15,-317.33"/></a></g><g id="a_edge8&#45;label"><a xlink:title="Julgamento &#45;&gt; Expedição de documento"><text text-anchor="middle" x="323.5" y="-208.4" font-family="Times New Roman,serif" font-size="12.00"> 2D </text></a></g></g><!-- &#45;2998375710546834842&#45;&gt;3481022503272025849 --><g id="edge9" class="edge"><title>&#45;2998375710546834842&#45;&gt;3481022503272025849</title><g id="a_edge9"><a xlink:title="Petição &#45;&gt; Conclusão"><path fill="none" stroke="#963b00" stroke-width="1.18" d="M186.76,-235.69C196.5,-223.75 209.15,-208.25 219.89,-195.09"/><polygon fill="#963b00" stroke="#963b00" stroke-width="1.18" points="222.68,-197.21 226.29,-187.25 217.25,-192.79 222.68,-197.21"/></a></g><g id="a_edge9&#45;label"><a xlink:title="Petição &#45;&gt; Conclusão"><text text-anchor="middle" x="220.5" y="-208.4" font-family="Times New Roman,serif" font-size="12.00"> 4D </text></a></g></g><!-- &#45;2998375710546834842&#45;&gt;&#45;2998375710546834842 --><g id="edge10" class="edge"><title>&#45;2998375710546834842&#45;&gt;&#45;2998375710546834842</title><g id="a_edge10"><a xlink:title="Petição &#45;&gt; Petição"><path fill="none" stroke="#029600" stroke-width="3.38" d="M222.15,-263.94C232.55,-263.07 240,-260.43 240,-256 240,-253.23 237.09,-251.16 232.37,-249.79"/><polygon fill="#029600" stroke="#029600" stroke-width="3.38" points="232.6,-246.28 222.15,-248.06 231.43,-253.18 232.6,-246.28"/></a></g><g id="a_edge10&#45;label"><a xlink:title="Petição &#45;&gt; Petição"><text text-anchor="middle" x="249" y="-252.9" font-family="Times New Roman,serif" font-size="12.00"> 1h </text></a></g></g></g></svg>