<?xml version="1.0" encoding="UTF-8" standalone="no"?><!DOCTYPE svg PUBLIC "-//W3C//DTD SVG 1.1//EN" "http://www.w3.org/Graphics/SVG/1.1/DTD/svg11.dtd"><!-- Generated by graphviz version 2.49.3 (20211023.0002) --><!-- Pages: 1 --><svg width="798pt" height="551pt" viewBox="0.00 0.00 798.00 551.00" xmlns="http://www.w3.org/2000/svg" xmlns:xlink="http://www.w3.org/1999/xlink"><g id="graph0" class="graph" transform="scale(1 1) rotate(0) translate(4 547)"><!-- 1569400017503937267 --><g id="node1" class="node"><title>1569400017503937267</title><g id="a_node1"><a xlink:title="Distribuição"><path fill="white" stroke="black" d="M367,-543C367,-543 295,-543 295,-543 289,-543 283,-537 283,-531 283,-531 283,-515 283,-515 283,-509 289,-503 295,-503 295,-503 367,-503 367,-503 373,-503 379,-509 379,-515 379,-515 379,-531 379,-531 379,-537 373,-543 367,-543"/><text text-anchor="middle" x="331" y="-526.4" font-family="Times New Roman,serif" font-size="12.00"> Distribuição &#160;</text><text text-anchor="middle" x="331" y="-513.4" font-family="Times New Roman,serif" font-size="12.00"> 538 movimentos </text></a></g></g><!-- 3481022503272025849 --><g id="node3" class="node"><title>3481022503272025849</title><g id="a_node3"><a xlink:title="Conclusão"><path fill="#ffffff" stroke="black" stroke-width="2.5" d="M370,-454C370,-454 292,-454 292,-454 286,-454 280,-448 280,-442 280,-442 280,-426 280,-426 280,-420 286,-414 292,-414 292,-414 370,-414 370,-414 376,-414 382,-420 382,-426 382,-426 382,-442 382,-442 382,-448 376,-454 370,-454"/><text text-anchor="middle" x="331" y="-437.4" font-family="Times New Roman,serif" font-size="12.00"> Conclusão &#160;</text><text text-anchor="middle" x="331" y="-424.4" font-family="Times New Roman,serif" font-size="12.00"> 3353 movimentos </text></a></g></g><!-- 1569400017503937267&#45;&gt;3481022503272025849 --><g id="edge8" class="edge"><title>1569400017503937267&#45;&gt;3481022503272025849</title><g id="a_edge8"><a xlink:title="Distribuição &#45;&gt; Conclusão"><path fill="none" stroke="#009600" d="M331,-502.69C331,-491.43 331,-476.99 331,-464.35"/><polygon fill="#009600" stroke="#009600" points="334.5,-464.25 331,-454.25 327.5,-464.25 334.5,-464.25"/></a></g><g id="a_edge8&#45;label"><a xlink:title="Distribuição &#45;&gt; Conclusão"><text text-anchor="middle" x="339.5" y="-475.4" font-family="Times New Roman,serif" font-size="12.00"> 2s </text></a></g></g><!-- &#45;7475462392750634986 --><g id="node2" class="node"><title>&#45;7475462392750634986</title><g id="a_node2"><a xlink:title="Definitivo"><path fill="white" stroke="black" d="M756,-40C756,-40 684,-40 684,-40 678,-40 672,-34 672,-28 672,-28 672,-12 672,-12 672,-6 678,0 684,0 684,0 756,0 756,0 762,0 768,-6 768,-12 768,-12 768,-28 768,-28 768,-34 762,-40 756,-40"/><text text-anchor="middle" x="720" y="-23.4" font-family="Times New Roman,serif" font-size="12.00"> Definitivo &#160;</text><text text-anchor="middle" x="720" y="-10.4" font-family="Times New Roman,serif" font-size="12.00"> 564 movimentos </text></a></g></g><!-- &#45;7937369133835899472 --><g id="node4" class="node"><title>&#45;7937369133835899472</title><g id="a_node4"><a xlink:title="Decisão"><path fill="#ffffff" stroke="black" d="M84,-365C84,-365 12,-365 12,-365 6,-365 0,-359 0,-353 0,-353 0,-337 0,-337 0,-331 6,-325 12,-325 12,-325 84,-325 84,-325 90,-325 96,-331 96,-337 96,-337 96,-353 96,-353 96,-359 90,-365 84,-365"/><text text-anchor="middle" x="48" y="-348.4" font-family="Times New Roman,serif" font-size="12.00"> Decisão &#160;</text><text text-anchor="middle" x="48" y="-335.4" font-family="Times New Roman,serif" font-size="12.00"> 363 movimentos </text></a></g></g><!-- 3481022503272025849&#45;&gt;&#45;7937369133835899472 --><g id="edge1" class="edge"><title>3481022503272025849&#45;&gt;&#45;7937369133835899472</title><g id="a_edge1"><a xlink:title="Conclusão &#45;&gt; Decisão"><path fill="none" stroke="#329600" d="M279.92,-429.49C218.8,-424.55 120.71,-414.07 89,-396 79.49,-390.58 71.28,-382.04 64.75,-373.54"/><polygon fill="#329600" stroke="#329600" points="67.45,-371.29 58.8,-365.16 61.74,-375.34 67.45,-371.29"/></a></g><g id="a_edge1&#45;label"><a xlink:title="Conclusão &#45;&gt; Decisão"><text text-anchor="middle" x="99.5" y="-386.4" font-family="Times New Roman,serif" font-size="12.00"> 3D </text></a></g></g><!-- 7987048985312221378 --><g id="node5" class="node"><title>7987048985312221378</title><g id="a_node5"><a xlink:title="Despacho"><path fill="#ffffff" stroke="black" stroke-width="1.53" d="M253,-365C253,-365 175,-365 175,-365 169,-365 163,-359 163,-353 163,-353 163,-337 163,-337 163,-331 169,-325 175,-325 175,-325 253,-325 253,-325 259,-325 265,-331 265,-337 265,-337 265,-353 265,-353 265,-359 259,-365 253,-365"/><text text-anchor="middle" x="214" y="-348.4" font-family="Times New Roman,serif" font-size="12.00"> Despacho &#160;</text><text text-anchor="middle" x="214" y="-335.4" font-family="Times New Roman,serif" font-size="12.00"> 2053 movimentos </text></a></g></g><!-- 3481022503272025849&#45;&gt;7987048985312221378 --><g id="edge2" class="edge"><title>3481022503272025849&#45;&gt;7987048985312221378</title><g id="a_edge2"><a xlink:title="Conclusão &#45;&gt; Despacho"><path fill="none" stroke="#219600" stroke-width="3.97" d="M305.32,-413.91C288.41,-401.33 266.08,-384.72 247.73,-371.08"/><polygon fill="#219600" stroke="#219600" stroke-width="3.97" points="249.73,-368.21 239.62,-365.05 245.55,-373.82 249.73,-368.21"/></a></g><g id="a_edge2&#45;label"><a xlink:title="Conclusão &#45;&gt; Despacho"><text text-anchor="middle" x="290.5" y="-386.4" font-family="Times New Roman,serif" font-size="12.00"> 1D </text></a></g></g><!-- 4422747661767652410 --><g id="node7" class="node"><title>4422747661767652410</title><g id="a_node7"><a xlink:title="Expedição de documento"><path fill="#ffffff" stroke="black" stroke-width="5" d="M488.5,-276C488.5,-276 373.5,-276 373.5,-276 367.5,-276 361.5,-270 361.5,-264 361.5,-264 361.5,-248 361.5,-248 361.5,-242 367.5,-236 373.5,-236 373.5,-236 488.5,-236 488.5,-236 494.5,-236 500.5,-242 500.5,-248 500.5,-248 500.5,-264 500.5,-264 500.5,-270 494.5,-276 488.5,-276"/><text text-anchor="middle" x="431" y="-259.4" font-family="Times New Roman,serif" font-size="12.00"> Expedição de documento &#160;</text><text text-anchor="middle" x="431" y="-246.4" font-family="Times New Roman,serif" font-size="12.00"> 6718 movimentos </text></a></g></g><!-- 3481022503272025849&#45;&gt;4422747661767652410 --><g id="edge3" class="edge"><title>3481022503272025849&#45;&gt;4422747661767652410</title><g id="a_edge3"><a xlink:title="Conclusão &#45;&gt; Expedição de documento"><path fill="none" stroke="#964400" d="M350.02,-413.75C362.07,-400.79 377.34,-382.86 388,-365 403.07,-339.76 414.92,-308.27 422.32,-285.82"/><polygon fill="#964400" stroke="#964400" points="425.69,-286.78 425.41,-276.19 419.02,-284.64 425.69,-286.78"/></a></g><g id="a_edge3&#45;label"><a xlink:title="Conclusão &#45;&gt; Expedição de documento"><text text-anchor="middle" x="417.5" y="-341.9" font-family="Times New Roman,serif" font-size="12.00"> 6D </text></a></g></g><!-- &#45;7502121929537258044 --><g id="node8" class="node"><title>&#45;7502121929537258044</title><g id="a_node8"><a xlink:title="Julgamento"><path fill="#ffffff" stroke="black" d="M367,-365C367,-365 295,-365 295,-365 289,-365 283,-359 283,-353 283,-353 283,-337 283,-337 283,-331 289,-325 295,-325 295,-325 367,-325 367,-325 373,-325 379,-331 379,-337 379,-337 379,-353 379,-353 379,-359 373,-365 367,-365"/><text text-anchor="middle" x="331" y="-348.4" font-family="Times New Roman,serif" font-size="12.00"> Julgamento &#160;</text><text text-anchor="middle" x="331" y="-335.4" font-family="Times New Roman,serif" font-size="12.00"> 685 movimentos </text></a></g></g><!-- 3481022503272025849&#45;&gt;&#45;7502121929537258044 --><g id="edge4" class="edge"><title>3481022503272025849&#45;&gt;&#45;7502121929537258044</title><g id="a_edge4"><a xlink:title="Conclusão &#45;&gt; Julgamento"><path fill="none" stroke="#965c00" d="M331,-413.69C331,-402.43 331,-387.99 331,-375.35"/><polygon fill="#965c00" stroke="#965c00" points="334.5,-375.25 331,-365.25 327.5,-375.25 334.5,-375.25"/></a></g><g id="a_edge4&#45;label"><a xlink:title="Conclusão &#45;&gt; Julgamento"><text text-anchor="middle" x="341.5" y="-386.4" font-family="Times New Roman,serif" font-size="12.00"> 3D </text></a></g></g><!-- &#45;2998375710546834842 --><g id="node10" class="node"><title>&#45;2998375710546834842</title><g id="a_node10"><a xlink:title="Petição"><path fill="#ffffff" stroke="black" stroke-width="3.84" d="M459,-98C459,-98 381,-98 381,-98 375,-98 369,-92 369,-86 369,-86 369,-70 369,-70 369,-64 375,-58 381,-58 381,-58 459,-58 459,-58 465,-58 471,-64 471,-70 471,-70 471,-86 471,-86 471,-92 465,-98 459,-98"/><text text-anchor="middle" x="420" y="-81.4" font-family="Times New Roman,serif" font-size="12.00"> Petição &#160;</text><text text-anchor="middle" x="420" y="-68.4" font-family="Times New Roman,serif" font-size="12.00"> 5154 movimentos </text></a></g></g><!-- 3481022503272025849&#45;&gt;&#45;2998375710546834842 --><g id="edge5" class="edge"><title>3481022503272025849&#45;&gt;&#45;2998375710546834842</title><g id="a_edge5"><a xlink:title="Conclusão &#45;&gt; Petição"><path fill="none" stroke="#965c00" d="M279.83,-432.76C218.53,-429.46 124,-413.44 124,-346 124,-346 124,-346 124,-166 124,-117.5 272.1,-94.09 358.78,-84.53"/><polygon fill="#965c00" stroke="#965c00" points="359.21,-88.01 368.78,-83.46 358.46,-81.05 359.21,-88.01"/></a></g><g id="a_edge5&#45;label"><a xlink:title="Conclusão &#45;&gt; Petição"><text text-anchor="middle" x="134.5" y="-252.9" font-family="Times New Roman,serif" font-size="12.00"> 3D </text></a></g></g><!-- 7987048985312221378&#45;&gt;4422747661767652410 --><g id="edge6" class="edge"><title>7987048985312221378&#45;&gt;4422747661767652410</title><g id="a_edge6"><a xlink:title="Despacho &#45;&gt; Expedição de documento"><path fill="none" stroke="#3a9600" stroke-width="2.96" d="M261.62,-324.91C294.69,-311.65 338.92,-293.92 373.89,-279.9"/><polygon fill="#3a9600" stroke="#3a9600" stroke-width="2.96" points="375.51,-283.02 383.49,-276.05 372.91,-276.52 375.51,-283.02"/></a></g><g id="a_edge6&#45;label"><a xlink:title="Despacho &#45;&gt; Expedição de documento"><text text-anchor="middle" x="346.5" y="-297.4" font-family="Times New Roman,serif" font-size="12.00"> 3D </text></a></g></g><!-- 7987048985312221378&#45;&gt;&#45;2998375710546834842 --><g id="edge7" class="edge"><title>7987048985312221378&#45;&gt;&#45;2998375710546834842</title><g id="a_edge7"><a xlink:title="Despacho &#45;&gt; Petição"><path fill="none" stroke="#965400" d="M203.1,-324.95C182.97,-286.98 145.56,-200.87 186,-147 206.78,-119.32 296.61,-99.24 358.72,-88.36"/><polygon fill="#965400" stroke="#965400" points="359.55,-91.77 368.82,-86.63 358.37,-84.87 359.55,-91.77"/></a></g><g id="a_edge7&#45;label"><a xlink:title="Despacho &#45;&gt; Petição"><text text-anchor="middle" x="179.5" y="-208.4" font-family="Times New Roman,serif" font-size="12.00"> 4D </text></a></g></g><!-- 201821933845037951 --><g id="node6" class="node"><title>201821933845037951</title><g id="a_node6"><a xlink:title="Documento"><path fill="#ffffff" stroke="black" d="M393,-187C393,-187 321,-187 321,-187 315,-187 309,-181 309,-175 309,-175 309,-159 309,-159 309,-153 315,-147 321,-147 321,-147 393,-147 393,-147 399,-147 405,-153 405,-159 405,-159 405,-175 405,-175 405,-181 399,-187 393,-187"/><text text-anchor="middle" x="357" y="-170.4" font-family="Times New Roman,serif" font-size="12.00"> Documento &#160;</text><text text-anchor="middle" x="357" y="-157.4" font-family="Times New Roman,serif" font-size="12.00"> 749 movimentos </text></a></g></g><!-- 201821933845037951&#45;&gt;4422747661767652410 --><g id="edge9" class="edge"><title>201821933845037951&#45;&gt;4422747661767652410</title><g id="a_edge9"><a xlink:title="Documento &#45;&gt; Expedição de documento"><path fill="none" stroke="#962c00" d="M373.38,-187.25C383.52,-199.18 396.71,-214.69 407.91,-227.85"/><polygon fill="#962c00" stroke="#962c00" points="405.43,-230.34 414.58,-235.69 410.76,-225.81 405.43,-230.34"/></a></g><g id="a_edge9&#45;label"><a xlink:title="Documento &#45;&gt; Expedição de documento"><text text-anchor="middle" x="411.5" y="-208.4" font-family="Times New Roman,serif" font-size="12.00"> 11D </text></a></g></g><!-- 201821933845037951&#45;&gt;&#45;2998375710546834842 --><g id="edge10" class="edge"><title>201821933845037951&#45;&gt;&#45;2998375710546834842</title><g id="a_edge10"><a xlink:title="Documento &#45;&gt; Petição"><path fill="none" stroke="#964e00" d="M370.98,-146.69C379.55,-134.87 390.64,-119.54 400.11,-106.46"/><polygon fill="#964e00" stroke="#964e00" points="403.03,-108.41 406.06,-98.25 397.36,-104.3 403.03,-108.41"/></a></g><g id="a_edge10&#45;label"><a xlink:title="Documento &#45;&gt; Petição"><text text-anchor="middle" x="403.5" y="-119.4" font-family="Times New Roman,serif" font-size="12.00"> 5D </text></a></g></g><!-- 4422747661767652410&#45;&gt;&#45;7475462392750634986 --><g id="edge12" class="edge"><title>4422747661767652410&#45;&gt;&#45;7475462392750634986</title><g id="a_edge12"><a xlink:title="Expedição de documento &#45;&gt; Definitivo"><path fill="none" stroke="#009600" d="M500.83,-248.5C538.39,-243.32 584.89,-234.13 624,-218 646.79,-208.6 655.37,-206.85 670,-187 700.51,-145.61 712.56,-85.54 717.21,-50.15"/><polygon fill="#009600" stroke="#009600" points="720.71,-50.36 718.43,-40.01 713.76,-49.52 720.71,-50.36"/></a></g><g id="a_edge12&#45;label"><a xlink:title="Expedição de documento &#45;&gt; Definitivo"><text text-anchor="middle" x="701.5" y="-163.9" font-family="Times New Roman,serif" font-size="12.00"> 1m </text></a></g></g><!-- 4422747661767652410&#45;&gt;3481022503272025849 --><g id="edge11" class="edge"><title>4422747661767652410&#45;&gt;3481022503272025849</title><g id="a_edge11"><a xlink:title="Expedição de documento &#45;&gt; Conclusão"><path fill="none" stroke="#009600" stroke-width="1.37" d="M436.43,-276.25C441.68,-298.92 446.89,-337.03 432,-365 422.01,-383.76 404.29,-398.28 386.45,-408.98"/><polygon fill="#009600" stroke="#009600" stroke-width="1.37" points="384.69,-405.96 377.72,-413.94 388.14,-412.05 384.69,-405.96"/></a></g><g id="a_edge11&#45;label"><a xlink:title="Expedição de documento &#45;&gt; Conclusão"><text text-anchor="middle" x="451.5" y="-341.9" font-family="Times New Roman,serif" font-size="12.00"> 1m </text></a></g></g><!-- 4422747661767652410&#45;&gt;201821933845037951 --><g id="edge13" class="edge"><title>4422747661767652410&#45;&gt;201821933845037951</title><g id="a_edge13"><a xlink:title="Expedição de documento &#45;&gt; Documento"><path fill="none" stroke="#960000" d="M377.34,-235.88C370.11,-231.11 363.61,-225.23 359,-218 355.17,-212 353.59,-204.71 353.2,-197.58"/><polygon fill="#960000" stroke="#960000" points="356.71,-197.47 353.38,-187.41 349.71,-197.35 356.71,-197.47"/></a></g><g id="a_edge13&#45;label"><a xlink:title="Expedição de documento &#45;&gt; Documento"><text text-anchor="middle" x="372.5" y="-208.4" font-family="Times New Roman,serif" font-size="12.00"> 24D </text></a></g></g><!-- 4422747661767652410&#45;&gt;4422747661767652410 --><g id="edge14" class="edge"><title>4422747661767652410&#45;&gt;4422747661767652410</title><g id="a_edge14"><a xlink:title="Expedição de documento &#45;&gt; Expedição de documento"><path fill="none" stroke="#259600" stroke-width="5" d="M500.67,-263.52C511.29,-262.37 518.5,-259.87 518.5,-256 518.5,-253.52 515.54,-251.6 510.62,-250.24"/><polygon fill="#259600" stroke="#259600" stroke-width="5" points="511.28,-245.92 500.67,-248.48 509.76,-254.53 511.28,-245.92"/></a></g><g id="a_edge14&#45;label"><a xlink:title="Expedição de documento &#45;&gt; Expedição de documento"><text text-anchor="middle" x="529" y="-252.9" font-family="Times New Roman,serif" font-size="12.00"> 2D </text></a></g></g><!-- &#45;6066848101526773743 --><g id="node9" class="node"><title>&#45;6066848101526773743</title><g id="a_node9"><a xlink:title="Mandado"><path fill="#ffffff" stroke="black" d="M576,-187C576,-187 498,-187 498,-187 492,-187 486,-181 486,-175 486,-175 486,-159 486,-159 486,-153 492,-147 498,-147 498,-147 576,-147 576,-147 582,-147 588,-153 588,-159 588,-159 588,-175 588,-175 588,-181 582,-187 576,-187"/><text text-anchor="middle" x="537" y="-170.4" font-family="Times New Roman,serif" font-size="12.00"> Mandado &#160;</text><text text-anchor="middle" x="537" y="-157.4" font-family="Times New Roman,serif" font-size="12.00"> 1143 movimentos </text></a></g></g><!-- 4422747661767652410&#45;&gt;&#45;6066848101526773743 --><g id="edge15" class="edge"><title>4422747661767652410&#45;&gt;&#45;6066848101526773743</title><g id="a_edge15"><a xlink:title="Expedição de documento &#45;&gt; Mandado"><path fill="none" stroke="#009600" d="M450.01,-235.77C459.84,-226.16 472.22,-214.58 484,-205 488.97,-200.96 494.36,-196.88 499.73,-192.98"/><polygon fill="#009600" stroke="#009600" points="501.98,-195.68 508.11,-187.03 497.93,-189.97 501.98,-195.68"/></a></g><g id="a_edge15&#45;label"><a xlink:title="Expedição de documento &#45;&gt; Mandado"><text text-anchor="middle" x="495.5" y="-208.4" font-family="Times New Roman,serif" font-size="12.00"> 10s </text></a></g></g><!-- 4422747661767652410&#45;&gt;&#45;2998375710546834842 --><g id="edge16" class="edge"><title>4422747661767652410&#45;&gt;&#45;2998375710546834842</title><g id="a_edge16"><a xlink:title="Expedição de documento &#45;&gt; Petição"><path fill="none" stroke="#962000" stroke-width="4.24" d="M429.8,-235.83C427.88,-205.15 424.11,-144.79 421.85,-108.56"/><polygon fill="#962000" stroke="#962000" stroke-width="4.24" points="425.52,-107.9 421.2,-98.15 418.12,-108.36 425.52,-107.9"/></a></g><g id="a_edge16&#45;label"><a xlink:title="Expedição de documento &#45;&gt; Petição"><text text-anchor="middle" x="439.5" y="-163.9" font-family="Times New Roman,serif" font-size="12.00"> 14D </text></a></g></g><!-- &#45;1899612676363016532 --><g id="node11" class="node"><title>&#45;1899612676363016532</title><g id="a_node11"><a xlink:title="Remessa"><path fill="#ffffff" stroke="black" d="M279,-187C279,-187 207,-187 207,-187 201,-187 195,-181 195,-175 195,-175 195,-159 195,-159 195,-153 201,-147 207,-147 207,-147 279,-147 279,-147 285,-147 291,-153 291,-159 291,-159 291,-175 291,-175 291,-181 285,-187 279,-187"/><text text-anchor="middle" x="243" y="-170.4" font-family="Times New Roman,serif" font-size="12.00"> Remessa &#160;</text><text text-anchor="middle" x="243" y="-157.4" font-family="Times New Roman,serif" font-size="12.00"> 518 movimentos </text></a></g></g><!-- 4422747661767652410&#45;&gt;&#45;1899612676363016532 --><g id="edge17" class="edge"><title>4422747661767652410&#45;&gt;&#45;1899612676363016532</title><g id="a_edge17"><a xlink:title="Expedição de documento &#45;&gt; Remessa"><path fill="none" stroke="#019600" d="M376.24,-235.94C361.99,-230.54 346.78,-224.39 333,-218 316.62,-210.41 299.15,-201.02 284,-192.44"/><polygon fill="#019600" stroke="#019600" points="285.32,-189.16 274.9,-187.22 281.83,-195.23 285.32,-189.16"/></a></g><g id="a_edge17&#45;label"><a xlink:title="Expedição de documento &#45;&gt; Remessa"><text text-anchor="middle" x="342" y="-208.4" font-family="Times New Roman,serif" font-size="12.00"> 1h </text></a></g></g><!-- &#45;7502121929537258044&#45;&gt;4422747661767652410 --><g id="edge18" class="edge"><title>&#45;7502121929537258044&#45;&gt;4422747661767652410</title><g id="a_edge18"><a xlink:title="Julgamento &#45;&gt; Expedição de documento"><path fill="none" stroke="#2f9600" d="M348.44,-324.72C357.5,-315.11 368.95,-303.52 380,-294 384.56,-290.06 389.53,-286.11 394.5,-282.33"/><polygon fill="#2f9600" stroke="#2f9600" points="396.88,-284.92 402.83,-276.15 392.71,-279.3 396.88,-284.92"/></a></g><g id="a_edge18&#45;label"><a xlink:title="Julgamento &#45;&gt; Expedição de documento"><text text-anchor="middle" x="390.5" y="-297.4" font-family="Times New Roman,serif" font-size="12.00"> 2D </text></a></g></g><!-- &#45;6066848101526773743&#45;&gt;4422747661767652410 --><g id="edge19" class="edge"><title>&#45;6066848101526773743&#45;&gt;4422747661767652410</title><g id="a_edge19"><a xlink:title="Mandado &#45;&gt; Expedição de documento"><path fill="none" stroke="#389600" d="M528.68,-187.41C523.58,-197.52 516.26,-209.52 507,-218 501.72,-222.84 495.69,-227.18 489.39,-231.03"/><polygon fill="#389600" stroke="#389600" points="487.63,-228 480.67,-235.99 491.09,-234.09 487.63,-228"/></a></g><g id="a_edge19&#45;label"><a xlink:title="Mandado &#45;&gt; Expedição de documento"><text text-anchor="middle" x="527.5" y="-208.4" font-family="Times New Roman,serif" font-size="12.00"> 3D </text></a></g></g><!-- &#45;6066848101526773743&#45;&gt;&#45;6066848101526773743 --><g id="edge20" class="edge"><title>&#45;6066848101526773743&#45;&gt;&#45;6066848101526773743</title><g id="a_edge20"><a xlink:title="Mandado &#45;&gt; Mandado"><path fill="none" stroke="#179600" d="M588.15,-174.94C598.55,-174.07 606,-171.43 606,-167 606,-164.23 603.09,-162.16 598.37,-160.79"/><polygon fill="#179600" stroke="#179600" points="598.6,-157.28 588.15,-159.06 597.43,-164.18 598.6,-157.28"/></a></g><g id="a_edge20&#45;label"><a xlink:title="Mandado &#45;&gt; Mandado"><text text-anchor="middle" x="616.5" y="-163.9" font-family="Times New Roman,serif" font-size="12.00"> 1D </text></a></g></g><!-- &#45;6066848101526773743&#45;&gt;&#45;2998375710546834842 --><g id="edge21" class="edge"><title>&#45;6066848101526773743&#45;&gt;&#45;2998375710546834842</title><g id="a_edge21"><a xlink:title="Mandado &#45;&gt; Petição"><path fill="none" stroke="#964500" d="M511.32,-146.91C494.41,-134.33 472.08,-117.72 453.73,-104.08"/><polygon fill="#964500" stroke="#964500" points="455.73,-101.21 445.62,-98.05 451.55,-106.82 455.73,-101.21"/></a></g><g id="a_edge21&#45;label"><a xlink:title="Mandado &#45;&gt; Petição"><text text-anchor="middle" x="495.5" y="-119.4" font-family="Times New Roman,serif" font-size="12.00"> 6D </text></a></g></g><!-- &#45;2998375710546834842&#45;&gt;3481022503272025849 --><g id="edge22" class="edge"><title>&#45;2998375710546834842&#45;&gt;3481022503272025849</title><g id="a_edge22"><a xlink:title="Petição &#45;&gt; Conclusão"><path fill="none" stroke="#965400" stroke-width="3.44" d="M471.12,-81.16C568.06,-86.65 769,-105.35 769,-166 769,-346 769,-346 769,-346 769,-421.9 512.79,-432.59 392.28,-433.42"/><polygon fill="#965400" stroke="#965400" stroke-width="3.44" points="392.08,-429.92 382.1,-433.47 392.12,-436.92 392.08,-429.92"/></a></g><g id="a_edge22&#45;label"><a xlink:title="Petição &#45;&gt; Conclusão"><text text-anchor="middle" x="779.5" y="-252.9" font-family="Times New Roman,serif" font-size="12.00"> 4D </text></a></g></g><!-- &#45;2998375710546834842&#45;&gt;4422747661767652410 --><g id="edge23" class="edge"><title>&#45;2998375710546834842&#45;&gt;4422747661767652410</title><g id="a_edge23"><a xlink:title="Petição &#45;&gt; Expedição de documento"><path fill="none" stroke="#964800" stroke-width="1.63" d="M471.22,-79.03C522.31,-82.14 598.44,-95.8 636,-147 674.29,-199.2 583.43,-228.45 510.66,-242.98"/><polygon fill="#964800" stroke="#964800" stroke-width="1.63" points="509.68,-239.6 500.53,-244.93 511.01,-246.47 509.68,-239.6"/></a></g><g id="a_edge23&#45;label"><a xlink:title="Petição &#45;&gt; Expedição de documento"><text text-anchor="middle" x="655.5" y="-163.9" font-family="Times New Roman,serif" font-size="12.00"> 6D </text></a></g></g><!-- &#45;2998375710546834842&#45;&gt;&#45;2998375710546834842 --><g id="edge24" class="edge"><title>&#45;2998375710546834842&#45;&gt;&#45;2998375710546834842</title><g id="a_edge24"><a xlink:title="Petição &#45;&gt; Petição"><path fill="none" stroke="#019600" stroke-width="3.19" d="M471.15,-85.94C481.55,-85.07 489,-82.43 489,-78 489,-75.23 486.09,-73.16 481.37,-71.79"/><polygon fill="#019600" stroke="#019600" stroke-width="3.19" points="481.6,-68.28 471.15,-70.06 480.43,-75.18 481.6,-68.28"/></a></g><g id="a_edge24&#45;label"><a xlink:title="Petição &#45;&gt; Petição"><text text-anchor="middle" x="498" y="-74.9" font-family="Times New Roman,serif" font-size="12.00"> 1h </text></a></g></g><!-- &#45;1899612676363016532&#45;&gt;&#45;2998375710546834842 --><g id="edge25" class="edge"><title>&#45;1899612676363016532&#45;&gt;&#45;2998375710546834842</title><g id="a_edge25"><a xlink:title="Remessa &#45;&gt; Petição"><path fill="none" stroke="#960300" d="M281.84,-146.91C308.36,-133.88 343.66,-116.52 371.95,-102.62"/><polygon fill="#960300" stroke="#960300" points="373.82,-105.6 381.25,-98.05 370.73,-99.32 373.82,-105.6"/></a></g><g id="a_edge25&#45;label"><a xlink:title="Remessa &#45;&gt; Petição"><text text-anchor="middle" x="356.5" y="-119.4" font-family="Times New Roman,serif" font-size="12.00"> 23D </text></a></g></g></g></svg>