<svg xmlns="http://www.w3.org/2000/svg" xmlns:xlink="http://www.w3.org/1999/xlink" width="649pt" height="640pt" viewBox="0 0 649 640"><g id="graph0" class="graph" transform="scale(1 1) rotate(0) translate(4 636)"><g id="node1" class="node"><title>1816617596251028275</title><g id="a_node1"><a xlink:title="Distribuição"><path fill="#fff" stroke="#000" d="M290,-632C290,-632 218,-632 218,-632 212,-632 206,-626 206,-620 206,-620 206,-604 206,-604 206,-598 212,-592 218,-592 218,-592 290,-592 290,-592 296,-592 302,-598 302,-604 302,-604 302,-620 302,-620 302,-626 296,-632 290,-632"/><text x="254" y="-615.4" font-family="Times New Roman,serif" font-size="12" text-anchor="middle">Distribuição</text><text x="254" y="-602.4" font-family="Times New Roman,serif" font-size="12" text-anchor="middle">538 movimentos</text></a></g></g><g id="node3" class="node"><title>11137600505644627</title><g id="a_node3"><a xlink:title="Conclusão"><path fill="#fff" stroke="#000" stroke-width="2.5" d="M293,-543C293,-543 215,-543 215,-543 209,-543 203,-537 203,-531 203,-531 203,-515 203,-515 203,-509 209,-503 215,-503 215,-503 293,-503 293,-503 299,-503 305,-509 305,-515 305,-515 305,-531 305,-531 305,-537 299,-543 293,-543"/><text x="254" y="-526.4" font-family="Times New Roman,serif" font-size="12" text-anchor="middle">Conclusão</text><text x="254" y="-513.4" font-family="Times New Roman,serif" font-size="12" text-anchor="middle">3353 movimentos</text></a></g></g><g id="edge4" class="edge"><title>1816617596251028275-&gt;11137600505644627</title><g id="a_edge4"><a xlink:title="Distribuição -&gt; Conclusão"><path fill="none" stroke="#009600" d="M254,-591.69C254,-580.43 254,-565.99 254,-553.35"/><polygon fill="#009600" stroke="#009600" points="257.5 -553.25 254 -543.25 250.5 -553.25 257.5 -553.25"/></a></g><g id="a_edge4-label"><a xlink:title="Distribuição -&gt; Conclusão"><text x="262.5" y="-564.4" font-family="Times New Roman,serif" font-size="12" text-anchor="middle">2s</text></a></g></g><g id="node2" class="node"><title>-1230318475312658953</title><g id="a_node2"><a xlink:title="Definitivo"><path fill="#fff" stroke="#000" d="M629,-40C629,-40 557,-40 557,-40 551,-40 545,-34 545,-28 545,-28 545,-12 545,-12 545,-6 551,0 557,0 557,0 629,0 629,0 635,0 641,-6 641,-12 641,-12 641,-28 641,-28 641,-34 635,-40 629,-40"/><text x="593" y="-23.4" font-family="Times New Roman,serif" font-size="12" text-anchor="middle">Definitivo</text><text x="593" y="-10.4" font-family="Times New Roman,serif" font-size="12" text-anchor="middle">564 movimentos</text></a></g></g><g id="node5" class="node"><title>2589505254290744466</title><g id="a_node5"><a xlink:title="Expedição de documento"><path fill="#fff" stroke="#000" stroke-width="5" d="M368.5,-365C368.5,-365 253.5,-365 253.5,-365 247.5,-365 241.5,-359 241.5,-353 241.5,-353 241.5,-337 241.5,-337 241.5,-331 247.5,-325 253.5,-325 253.5,-325 368.5,-325 368.5,-325 374.5,-325 380.5,-331 380.5,-337 380.5,-337 380.5,-353 380.5,-353 380.5,-359 374.5,-365 368.5,-365"/><text x="311" y="-348.4" font-family="Times New Roman,serif" font-size="12" text-anchor="middle">Expedição de documento</text><text x="311" y="-335.4" font-family="Times New Roman,serif" font-size="12" text-anchor="middle">6718 movimentos</text></a></g></g><g id="edge1" class="edge"><title>11137600505644627-&gt;2589505254290744466</title><g id="a_edge1"><a xlink:title="Conclusão -&gt; Expedição de documento"><path fill="none" stroke="#964400" d="M254.01,-502.68C254.59,-480.61 257.28,-443.7 268,-414 273.19,-399.62 281.8,-385.11 289.96,-373.21"/><polygon fill="#964400" stroke="#964400" points="292.82 -375.22 295.76 -365.04 287.12 -371.16 292.82 -375.22"/></a></g><g id="a_edge1-label"><a xlink:title="Conclusão -&gt; Expedição de documento"><text x="278.5" y="-430.9" font-family="Times New Roman,serif" font-size="12" text-anchor="middle">6D</text></a></g></g><g id="node7" class="node"><title>-376253791099866133</title><g id="a_node7"><a xlink:title="Mero expediente"><path fill="#fff" stroke="#000" stroke-width="1.52" d="M206,-454C206,-454 128,-454 128,-454 122,-454 116,-448 116,-442 116,-442 116,-426 116,-426 116,-420 122,-414 128,-414 128,-414 206,-414 206,-414 212,-414 218,-420 218,-426 218,-426 218,-442 218,-442 218,-448 212,-454 206,-454"/><text x="167" y="-437.4" font-family="Times New Roman,serif" font-size="12" text-anchor="middle">Mero expediente</text><text x="167" y="-424.4" font-family="Times New Roman,serif" font-size="12" text-anchor="middle">2048 movimentos</text></a></g></g><g id="edge2" class="edge"><title>11137600505644627-&gt;-376253791099866133</title><g id="a_edge2"><a xlink:title="Conclusão -&gt; Mero expediente"><path fill="none" stroke="#209600" stroke-width="3.99" d="M234.69,-502.69C222.53,-490.53 206.66,-474.66 193.35,-461.35"/><polygon fill="#209600" stroke="#209600" stroke-width="3.99" points="195.8 -458.85 186.25 -454.25 190.85 -463.8 195.8 -458.85"/></a></g><g id="a_edge2-label"><a xlink:title="Conclusão -&gt; Mero expediente"><text x="226.5" y="-475.4" font-family="Times New Roman,serif" font-size="12" text-anchor="middle">1D</text></a></g></g><g id="node8" class="node"><title>-2563227018683569549</title><g id="a_node8"><a xlink:title="Petição"><path fill="#fff" stroke="#000" stroke-width="3.84" d="M371,-187C371,-187 293,-187 293,-187 287,-187 281,-181 281,-175 281,-175 281,-159 281,-159 281,-153 287,-147 293,-147 293,-147 371,-147 371,-147 377,-147 383,-153 383,-159 383,-159 383,-175 383,-175 383,-181 377,-187 371,-187"/><text x="332" y="-170.4" font-family="Times New Roman,serif" font-size="12" text-anchor="middle">Petição</text><text x="332" y="-157.4" font-family="Times New Roman,serif" font-size="12" text-anchor="middle">5154 movimentos</text></a></g></g><g id="edge3" class="edge"><title>11137600505644627-&gt;-2563227018683569549</title><g id="a_edge3"><a xlink:title="Conclusão -&gt; Petição"><path fill="none" stroke="#3a9600" d="M202.9,-515.07C128.73,-503.57 0,-477.48 0,-435 0,-435 0,-435 0,-255 0,-199.67 174.76,-178.83 270.69,-171.56"/><polygon fill="#3a9600" stroke="#3a9600" points="271.13 -175.04 280.85 -170.82 270.62 -168.05 271.13 -175.04"/></a></g><g id="a_edge3-label"><a xlink:title="Conclusão -&gt; Petição"><text x="10.5" y="-341.9" font-family="Times New Roman,serif" font-size="12" text-anchor="middle">3D</text></a></g></g><g id="node4" class="node"><title>3519806490584274300</title><g id="a_node4"><a xlink:title="Documento"><path fill="#fff" stroke="#000" d="M482,-98C482,-98 410,-98 410,-98 404,-98 398,-92 398,-86 398,-86 398,-70 398,-70 398,-64 404,-58 410,-58 410,-58 482,-58 482,-58 488,-58 494,-64 494,-70 494,-70 494,-86 494,-86 494,-92 488,-98 482,-98"/><text x="446" y="-81.4" font-family="Times New Roman,serif" font-size="12" text-anchor="middle">Documento</text><text x="446" y="-68.4" font-family="Times New Roman,serif" font-size="12" text-anchor="middle">749 movimentos</text></a></g></g><g id="edge5" class="edge"><title>3519806490584274300-&gt;2589505254290744466</title><g id="a_edge5"><a xlink:title="Documento -&gt; Expedição de documento"><path fill="none" stroke="#962c00" d="M469.1,-98.33C474.07,-103.57 478.79,-109.59 482,-116 520.05,-192.07 548.59,-241.77 494,-307 480.49,-323.14 433.58,-332.43 390.64,-337.66"/><polygon fill="#962c00" stroke="#962c00" points="390.23 -334.19 380.7 -338.81 391.04 -341.14 390.23 -334.19"/></a></g><g id="a_edge5-label"><a xlink:title="Documento -&gt; Expedição de documento"><text x="535.5" y="-208.4" font-family="Times New Roman,serif" font-size="12" text-anchor="middle">11D</text></a></g></g><g id="edge6" class="edge"><title>3519806490584274300-&gt;-2563227018683569549</title><g id="a_edge6"><a xlink:title="Documento -&gt; Petição"><path fill="none" stroke="#964e00" d="M407.44,-98.11C398.11,-103.4 388.42,-109.49 380,-116 371.29,-122.74 362.68,-131.04 355.2,-138.94"/><polygon fill="#964e00" stroke="#964e00" points="352.33 -136.89 348.14 -146.63 357.48 -141.63 352.33 -136.89"/></a></g><g id="a_edge6-label"><a xlink:title="Documento -&gt; Petição"><text x="390.5" y="-119.4" font-family="Times New Roman,serif" font-size="12" text-anchor="middle">5D</text></a></g></g><g id="edge8" class="edge"><title>2589505254290744466-&gt;-1230318475312658953</title><g id="a_edge8"><a xlink:title="Expedição de documento -&gt; Definitivo"><path fill="none" stroke="#009600" d="M380.73,-336.94C429.9,-330.9 490.65,-320.95 512,-307 597.38,-251.22 599.21,-111.11 595.6,-50.12"/><polygon fill="#009600" stroke="#009600" points="599.09 -49.76 594.91 -40.03 592.1 -50.24 599.09 -49.76"/></a></g><g id="a_edge8-label"><a xlink:title="Expedição de documento -&gt; Definitivo"><text x="590.5" y="-208.4" font-family="Times New Roman,serif" font-size="12" text-anchor="middle">1m</text></a></g></g><g id="edge7" class="edge"><title>2589505254290744466-&gt;11137600505644627</title><g id="a_edge7"><a xlink:title="Expedição de documento -&gt; Conclusão"><path fill="none" stroke="#009600" stroke-width="1.46" d="M308.72,-365.15C305.73,-387.08 299.6,-423.85 289,-454 284.2,-467.64 277.16,-481.98 270.64,-493.95"/><polygon fill="#009600" stroke="#009600" stroke-width="1.46" points="267.41 -492.56 265.58 -502.99 273.52 -495.98 267.41 -492.56"/></a></g><g id="a_edge7-label"><a xlink:title="Expedição de documento -&gt; Conclusão"><text x="310.5" y="-430.9" font-family="Times New Roman,serif" font-size="12" text-anchor="middle">1m</text></a></g></g><g id="edge9" class="edge"><title>2589505254290744466-&gt;3519806490584274300</title><g id="a_edge9"><a xlink:title="Expedição de documento -&gt; Documento"><path fill="none" stroke="#960000" d="M380.78,-330.12C410.83,-320.31 443.11,-303.76 461,-276 494.31,-224.33 473.63,-148.45 458.23,-107.59"/><polygon fill="#960000" stroke="#960000" points="461.46 -106.26 454.56 -98.23 454.95 -108.81 461.46 -106.26"/></a></g><g id="a_edge9-label"><a xlink:title="Expedição de documento -&gt; Documento"><text x="491.5" y="-208.4" font-family="Times New Roman,serif" font-size="12" text-anchor="middle">24D</text></a></g></g><g id="edge10" class="edge"><title>2589505254290744466-&gt;2589505254290744466</title><g id="a_edge10"><a xlink:title="Expedição de documento -&gt; Expedição de documento"><path fill="none" stroke="#259600" stroke-width="5" d="M380.67,-352.52C391.29,-351.37 398.5,-348.87 398.5,-345 398.5,-342.52 395.54,-340.6 390.62,-339.24"/><polygon fill="#259600" stroke="#259600" stroke-width="5" points="391.28 -334.92 380.67 -337.48 389.76 -343.53 391.28 -334.92"/></a></g><g id="a_edge10-label"><a xlink:title="Expedição de documento -&gt; Expedição de documento"><text x="409" y="-341.9" font-family="Times New Roman,serif" font-size="12" text-anchor="middle">2D</text></a></g></g><g id="node6" class="node"><title>3811444755828611879</title><g id="a_node6"><a xlink:title="Mandado"><path fill="#fff" stroke="#000" d="M224,-276C224,-276 146,-276 146,-276 140,-276 134,-270 134,-264 134,-264 134,-248 134,-248 134,-242 140,-236 146,-236 146,-236 224,-236 224,-236 230,-236 236,-242 236,-248 236,-248 236,-264 236,-264 236,-270 230,-276 224,-276"/><text x="185" y="-259.4" font-family="Times New Roman,serif" font-size="12" text-anchor="middle">Mandado</text><text x="185" y="-246.4" font-family="Times New Roman,serif" font-size="12" text-anchor="middle">1143 movimentos</text></a></g></g><g id="edge11" class="edge"><title>2589505254290744466-&gt;3811444755828611879</title><g id="a_edge11"><a xlink:title="Expedição de documento -&gt; Mandado"><path fill="none" stroke="#009600" d="M283.35,-324.91C265.05,-312.27 240.87,-295.57 221.06,-281.9"/><polygon fill="#009600" stroke="#009600" points="222.8 -278.85 212.59 -276.05 218.83 -284.61 222.8 -278.85"/></a></g><g id="a_edge11-label"><a xlink:title="Expedição de documento -&gt; Mandado"><text x="267.5" y="-297.4" font-family="Times New Roman,serif" font-size="12" text-anchor="middle">10s</text></a></g></g><g id="edge12" class="edge"><title>2589505254290744466-&gt;-2563227018683569549</title><g id="a_edge12"><a xlink:title="Expedição de documento -&gt; Petição"><path fill="none" stroke="#962000" stroke-width="4.26" d="M312.07,-324.83C313.39,-303.19 315.99,-266.97 320,-236 321.66,-223.22 324.04,-209.18 326.24,-197.19"/><polygon fill="#962000" stroke="#962000" stroke-width="4.26" points="329.92 -197.79 328.11 -187.27 322.6 -196.41 329.92 -197.79"/></a></g><g id="a_edge12-label"><a xlink:title="Expedição de documento -&gt; Petição"><text x="333.5" y="-252.9" font-family="Times New Roman,serif" font-size="12" text-anchor="middle">14D</text></a></g></g><g id="node10" class="node"><title>8722013241406541806</title><g id="a_node10"><a xlink:title="Remessa"><path fill="#fff" stroke="#000" d="M440,-276C440,-276 368,-276 368,-276 362,-276 356,-270 356,-264 356,-264 356,-248 356,-248 356,-242 362,-236 368,-236 368,-236 440,-236 440,-236 446,-236 452,-242 452,-248 452,-248 452,-264 452,-264 452,-270 446,-276 440,-276"/><text x="404" y="-259.4" font-family="Times New Roman,serif" font-size="12" text-anchor="middle">Remessa</text><text x="404" y="-246.4" font-family="Times New Roman,serif" font-size="12" text-anchor="middle">518 movimentos</text></a></g></g><g id="edge13" class="edge"><title>2589505254290744466-&gt;8722013241406541806</title><g id="a_edge13"><a xlink:title="Expedição de documento -&gt; Remessa"><path fill="none" stroke="#019600" d="M331.64,-324.69C344.64,-312.53 361.6,-296.66 375.83,-283.35"/><polygon fill="#019600" stroke="#019600" points="378.51 -285.64 383.42 -276.25 373.72 -280.53 378.51 -285.64"/></a></g><g id="a_edge13-label"><a xlink:title="Expedição de documento -&gt; Remessa"><text x="373" y="-297.4" font-family="Times New Roman,serif" font-size="12" text-anchor="middle">1h</text></a></g></g><g id="edge14" class="edge"><title>3811444755828611879-&gt;2589505254290744466</title><g id="a_edge14"><a xlink:title="Mandado -&gt; Expedição de documento"><path fill="none" stroke="#389600" d="M193.21,-276.22C198.44,-286.53 206.1,-298.77 216,-307 222.03,-312.01 228.82,-316.4 235.92,-320.22"/><polygon fill="#389600" stroke="#389600" points="234.54 -323.45 245.05 -324.78 237.66 -317.18 234.54 -323.45"/></a></g><g id="a_edge14-label"><a xlink:title="Mandado -&gt; Expedição de documento"><text x="226.5" y="-297.4" font-family="Times New Roman,serif" font-size="12" text-anchor="middle">3D</text></a></g></g><g id="edge15" class="edge"><title>3811444755828611879-&gt;3811444755828611879</title><g id="a_edge15"><a xlink:title="Mandado -&gt; Mandado"><path fill="none" stroke="#179600" d="M236.15,-263.94C246.55,-263.07 254,-260.43 254,-256 254,-253.23 251.09,-251.16 246.37,-249.79"/><polygon fill="#179600" stroke="#179600" points="246.6 -246.28 236.15 -248.06 245.43 -253.18 246.6 -246.28"/></a></g><g id="a_edge15-label"><a xlink:title="Mandado -&gt; Mandado"><text x="264.5" y="-252.9" font-family="Times New Roman,serif" font-size="12" text-anchor="middle">1D</text></a></g></g><g id="edge16" class="edge"><title>3811444755828611879-&gt;-2563227018683569549</title><g id="a_edge16"><a xlink:title="Mandado -&gt; Petição"><path fill="none" stroke="#964500" d="M217.26,-235.91C238.99,-223.05 267.84,-205.97 291.17,-192.16"/><polygon fill="#964500" stroke="#964500" points="292.99 -195.15 299.82 -187.05 289.43 -189.13 292.99 -195.15"/></a></g><g id="a_edge16-label"><a xlink:title="Mandado -&gt; Petição"><text x="278.5" y="-208.4" font-family="Times New Roman,serif" font-size="12" text-anchor="middle">6D</text></a></g></g><g id="edge17" class="edge"><title>-376253791099866133-&gt;2589505254290744466</title><g id="a_edge17"><a xlink:title="Mero expediente -&gt; Expedição de documento"><path fill="none" stroke="#3a9600" stroke-width="3" d="M183.82,-413.56C193.35,-403.43 205.96,-391.43 219,-383 226.94,-377.87 235.71,-373.23 244.58,-369.12"/><polygon fill="#3a9600" stroke="#3a9600" stroke-width="3" points="246.11 -372.27 253.84 -365.02 243.28 -365.87 246.11 -372.27"/></a></g><g id="a_edge17-label"><a xlink:title="Mero expediente -&gt; Expedição de documento"><text x="229.5" y="-386.4" font-family="Times New Roman,serif" font-size="12" text-anchor="middle">3D</text></a></g></g><g id="edge18" class="edge"><title>-376253791099866133-&gt;-2563227018683569549</title><g id="a_edge18"><a xlink:title="Mero expediente -&gt; Petição"><path fill="none" stroke="#965400" d="M149.47,-413.98C119.01,-378.49 62.19,-300.01 91,-236 99.53,-217.05 107.3,-214.06 126,-205 171.46,-182.97 228.31,-173.95 270.76,-170.32"/><polygon fill="#965400" stroke="#965400" points="271.25 -173.79 280.95 -169.52 270.71 -166.81 271.25 -173.79"/></a></g><g id="a_edge18-label"><a xlink:title="Mero expediente -&gt; Petição"><text x="98.5" y="-297.4" font-family="Times New Roman,serif" font-size="12" text-anchor="middle">4D</text></a></g></g><g id="edge19" class="edge"><title>-2563227018683569549-&gt;11137600505644627</title><g id="a_edge19"><a xlink:title="Petição -&gt; Conclusão"><path fill="none" stroke="#965400" stroke-width="3.48" d="M383.42,-171.61C438.32,-176.37 520.82,-186.41 546,-205 583.9,-232.98 594,-252.39 594,-299.5 594,-435 594,-435 594,-435 594,-491.86 413.27,-512.06 315.34,-518.82"/><polygon fill="#965400" stroke="#965400" stroke-width="3.48" points="315.02 -515.34 305.27 -519.49 315.48 -522.32 315.02 -515.34"/></a></g><g id="a_edge19-label"><a xlink:title="Petição -&gt; Conclusão"><text x="604.5" y="-341.9" font-family="Times New Roman,serif" font-size="12" text-anchor="middle">4D</text></a></g></g><g id="edge20" class="edge"><title>-2563227018683569549-&gt;3519806490584274300</title><g id="a_edge20"><a xlink:title="Petição -&gt; Documento"><path fill="none" stroke="#963700" d="M373.23,-146.9C382.75,-141.69 392.55,-135.63 401,-129 409.55,-122.3 417.82,-113.87 424.9,-105.85"/><polygon fill="#963700" stroke="#963700" points="427.72 -107.93 431.53 -98.04 422.39 -103.39 427.72 -107.93"/></a></g><g id="a_edge20-label"><a xlink:title="Petição -&gt; Documento"><text x="424.5" y="-119.4" font-family="Times New Roman,serif" font-size="12" text-anchor="middle">8D</text></a></g></g><g id="edge21" class="edge"><title>-2563227018683569549-&gt;2589505254290744466</title><g id="a_edge21"><a xlink:title="Petição -&gt; Expedição de documento"><path fill="none" stroke="#964800" stroke-width="1.71" d="M280.79,-176.05C220.3,-186.73 125.17,-207.6 104,-236 64.9,-288.46 157.4,-317.7 231.09,-332.15"/><polygon fill="#964800" stroke="#964800" stroke-width="1.71" points="230.87 -335.67 241.34 -334.09 232.17 -328.79 230.87 -335.67"/></a></g><g id="a_edge21-label"><a xlink:title="Petição -&gt; Expedição de documento"><text x="114.5" y="-252.9" font-family="Times New Roman,serif" font-size="12" text-anchor="middle">6D</text></a></g></g><g id="edge22" class="edge"><title>-2563227018683569549-&gt;-2563227018683569549</title><g id="a_edge22"><a xlink:title="Petição -&gt; Petição"><path fill="none" stroke="#019600" stroke-width="3.23" d="M383.15,-174.94C393.55,-174.07 401,-171.43 401,-167 401,-164.23 398.09,-162.16 393.37,-160.79"/><polygon fill="#019600" stroke="#019600" stroke-width="3.23" points="393.6 -157.28 383.15 -159.06 392.43 -164.18 393.6 -157.28"/></a></g><g id="a_edge22-label"><a xlink:title="Petição -&gt; Petição"><text x="410" y="-163.9" font-family="Times New Roman,serif" font-size="12" text-anchor="middle">1h</text></a></g></g><g id="edge23" class="edge"><title>-2563227018683569549-&gt;8722013241406541806</title><g id="a_edge23"><a xlink:title="Petição -&gt; Remessa"><path fill="none" stroke="#965900" d="M363.02,-187.05C369.87,-192.26 376.67,-198.34 382,-205 386.97,-211.21 391.04,-218.72 394.27,-226.01"/><polygon fill="#965900" stroke="#965900" points="391.18 -227.71 398.16 -235.67 397.67 -225.09 391.18 -227.71"/></a></g><g id="a_edge23-label"><a xlink:title="Petição -&gt; Remessa"><text x="401.5" y="-208.4" font-family="Times New Roman,serif" font-size="12" text-anchor="middle">4D</text></a></g></g><g id="node9" class="node"><title>8350985675575213695</title><g id="a_node9"><a xlink:title="Procedência"><path fill="#fff" stroke="#000" d="M434,-454C434,-454 362,-454 362,-454 356,-454 350,-448 350,-442 350,-442 350,-426 350,-426 350,-420 356,-414 362,-414 362,-414 434,-414 434,-414 440,-414 446,-420 446,-426 446,-426 446,-442 446,-442 446,-448 440,-454 434,-454"/><text x="398" y="-437.4" font-family="Times New Roman,serif" font-size="12" text-anchor="middle">Procedência</text><text x="398" y="-424.4" font-family="Times New Roman,serif" font-size="12" text-anchor="middle">160 movimentos</text></a></g></g><g id="edge24" class="edge"><title>8350985675575213695-&gt;2589505254290744466</title><g id="a_edge24"><a xlink:title="Procedência -&gt; Expedição de documento"><path fill="none" stroke="#2f9600" d="M378.69,-413.69C366.53,-401.53 350.66,-385.66 337.35,-372.35"/><polygon fill="#2f9600" stroke="#2f9600" points="339.8 -369.85 330.25 -365.25 334.85 -374.8 339.8 -369.85"/></a></g><g id="a_edge24-label"><a xlink:title="Procedência -&gt; Expedição de documento"><text x="370.5" y="-386.4" font-family="Times New Roman,serif" font-size="12" text-anchor="middle">2D</text></a></g></g><g id="edge25" class="edge"><title>8722013241406541806-&gt;-2563227018683569549</title><g id="a_edge25"><a xlink:title="Remessa -&gt; Petição"><path fill="none" stroke="#960300" d="M370.02,-235.82C363.05,-230.72 356.24,-224.73 351,-218 346.21,-211.86 342.52,-204.37 339.72,-197.08"/><polygon fill="#960300" stroke="#960300" points="342.97 -195.76 336.44 -187.41 336.34 -198.01 342.97 -195.76"/></a></g><g id="a_edge25-label"><a xlink:title="Remessa -&gt; Petição"><text x="364.5" y="-208.4" font-family="Times New Roman,serif" font-size="12" text-anchor="middle">23D</text></a></g></g></g></svg>