<?xml version="1.0" encoding="UTF-8" standalone="no"?><!DOCTYPE svg PUBLIC "-//W3C//DTD SVG 1.1//EN" "http://www.w3.org/Graphics/SVG/1.1/DTD/svg11.dtd"><!-- Generated by graphviz version 2.49.3 (20211023.0002) --><!-- Pages: 1 --><svg width="751pt" height="462pt" viewBox="0.00 0.00 751.00 462.00" xmlns="http://www.w3.org/2000/svg" xmlns:xlink="http://www.w3.org/1999/xlink"><g id="graph0" class="graph" transform="scale(1 1) rotate(0) translate(4 458)"><!-- 1569400017503937267 --><g id="node1" class="node"><title>1569400017503937267</title><g id="a_node1"><a xlink:title="Distribuição"><path fill="white" stroke="black" d="M321,-454C321,-454 249,-454 249,-454 243,-454 237,-448 237,-442 237,-442 237,-426 237,-426 237,-420 243,-414 249,-414 249,-414 321,-414 321,-414 327,-414 333,-420 333,-426 333,-426 333,-442 333,-442 333,-448 327,-454 321,-454"/><text text-anchor="middle" x="285" y="-437.4" font-family="Times New Roman,serif" font-size="12.00"> Distribuição &#160;</text><text text-anchor="middle" x="285" y="-424.4" font-family="Times New Roman,serif" font-size="12.00"> 538 movimentos </text></a></g></g><!-- 3481022503272025849 --><g id="node3" class="node"><title>3481022503272025849</title><g id="a_node3"><a xlink:title="Conclusão"><path fill="#ffffff" stroke="black" stroke-width="2.5" d="M324,-365C324,-365 246,-365 246,-365 240,-365 234,-359 234,-353 234,-353 234,-337 234,-337 234,-331 240,-325 246,-325 246,-325 324,-325 324,-325 330,-325 336,-331 336,-337 336,-337 336,-353 336,-353 336,-359 330,-365 324,-365"/><text text-anchor="middle" x="285" y="-348.4" font-family="Times New Roman,serif" font-size="12.00"> Conclusão &#160;</text><text text-anchor="middle" x="285" y="-335.4" font-family="Times New Roman,serif" font-size="12.00"> 3353 movimentos </text></a></g></g><!-- 1569400017503937267&#45;&gt;3481022503272025849 --><g id="edge11" class="edge"><title>1569400017503937267&#45;&gt;3481022503272025849</title><g id="a_edge11"><a xlink:title="Distribuição &#45;&gt; Conclusão"><path fill="none" stroke="#009600" stroke-width="1.21" d="M285,-413.69C285,-402.43 285,-387.99 285,-375.35"/><polygon fill="#009600" stroke="#009600" stroke-width="1.21" points="288.5,-375.25 285,-365.25 281.5,-375.25 288.5,-375.25"/></a></g><g id="a_edge11&#45;label"><a xlink:title="Distribuição &#45;&gt; Conclusão"><text text-anchor="middle" x="293.5" y="-386.4" font-family="Times New Roman,serif" font-size="12.00"> 2s </text></a></g></g><!-- &#45;7475462392750634986 --><g id="node2" class="node"><title>&#45;7475462392750634986</title><g id="a_node2"><a xlink:title="Definitivo"><path fill="white" stroke="black" d="M488,-40C488,-40 416,-40 416,-40 410,-40 404,-34 404,-28 404,-28 404,-12 404,-12 404,-6 410,0 416,0 416,0 488,0 488,0 494,0 500,-6 500,-12 500,-12 500,-28 500,-28 500,-34 494,-40 488,-40"/><text text-anchor="middle" x="452" y="-23.4" font-family="Times New Roman,serif" font-size="12.00"> Definitivo &#160;</text><text text-anchor="middle" x="452" y="-10.4" font-family="Times New Roman,serif" font-size="12.00"> 564 movimentos </text></a></g></g><!-- &#45;2998375710546834842 --><g id="node11" class="node"><title>&#45;2998375710546834842</title><g id="a_node11"><a xlink:title="Petição"><path fill="#ffffff" stroke="black" stroke-width="3.84" d="M407,-187C407,-187 329,-187 329,-187 323,-187 317,-181 317,-175 317,-175 317,-159 317,-159 317,-153 323,-147 329,-147 329,-147 407,-147 407,-147 413,-147 419,-153 419,-159 419,-159 419,-175 419,-175 419,-181 413,-187 407,-187"/><text text-anchor="middle" x="368" y="-170.4" font-family="Times New Roman,serif" font-size="12.00"> Petição &#160;</text><text text-anchor="middle" x="368" y="-157.4" font-family="Times New Roman,serif" font-size="12.00"> 5154 movimentos </text></a></g></g><!-- &#45;7475462392750634986&#45;&gt;&#45;2998375710546834842 --><g id="edge7" class="edge"><title>&#45;7475462392750634986&#45;&gt;&#45;2998375710546834842</title><g id="a_edge7"><a xlink:title="Definitivo &#45;&gt; Petição"><path fill="none" stroke="#960000" d="M448.77,-40.23C445.69,-56.16 440.27,-79.16 432,-98 425.41,-113.01 422.84,-116.7 412,-129 408.62,-132.83 404.84,-136.61 400.94,-140.21"/><polygon fill="#960000" stroke="#960000" points="398.58,-137.62 393.39,-146.86 403.21,-142.87 398.58,-137.62"/></a></g><g id="a_edge7&#45;label"><a xlink:title="Definitivo &#45;&gt; Petição"><text text-anchor="middle" x="434.5" y="-119.4" font-family="Times New Roman,serif" font-size="12.00"> 1M </text></a></g></g><!-- &#45;7937369133835899472 --><g id="node4" class="node"><title>&#45;7937369133835899472</title><g id="a_node4"><a xlink:title="Decisão"><path fill="#ffffff" stroke="black" d="M84,-276C84,-276 12,-276 12,-276 6,-276 0,-270 0,-264 0,-264 0,-248 0,-248 0,-242 6,-236 12,-236 12,-236 84,-236 84,-236 90,-236 96,-242 96,-248 96,-248 96,-264 96,-264 96,-270 90,-276 84,-276"/><text text-anchor="middle" x="48" y="-259.4" font-family="Times New Roman,serif" font-size="12.00"> Decisão &#160;</text><text text-anchor="middle" x="48" y="-246.4" font-family="Times New Roman,serif" font-size="12.00"> 363 movimentos </text></a></g></g><!-- 3481022503272025849&#45;&gt;&#45;7937369133835899472 --><g id="edge1" class="edge"><title>3481022503272025849&#45;&gt;&#45;7937369133835899472</title><g id="a_edge1"><a xlink:title="Conclusão &#45;&gt; Decisão"><path fill="none" stroke="#1b9600" d="M233.74,-343.78C192.1,-341.48 133.23,-333.23 89,-307 79.59,-301.42 71.4,-292.83 64.86,-284.35"/><polygon fill="#1b9600" stroke="#1b9600" points="67.56,-282.1 58.9,-276 61.87,-286.17 67.56,-282.1"/></a></g><g id="a_edge1&#45;label"><a xlink:title="Conclusão &#45;&gt; Decisão"><text text-anchor="middle" x="99.5" y="-297.4" font-family="Times New Roman,serif" font-size="12.00"> 3D </text></a></g></g><!-- 7987048985312221378 --><g id="node7" class="node"><title>7987048985312221378</title><g id="a_node7"><a xlink:title="Despacho"><path fill="#ffffff" stroke="black" stroke-width="1.53" d="M368,-276C368,-276 290,-276 290,-276 284,-276 278,-270 278,-264 278,-264 278,-248 278,-248 278,-242 284,-236 290,-236 290,-236 368,-236 368,-236 374,-236 380,-242 380,-248 380,-248 380,-264 380,-264 380,-270 374,-276 368,-276"/><text text-anchor="middle" x="329" y="-259.4" font-family="Times New Roman,serif" font-size="12.00"> Despacho &#160;</text><text text-anchor="middle" x="329" y="-246.4" font-family="Times New Roman,serif" font-size="12.00"> 2053 movimentos </text></a></g></g><!-- 3481022503272025849&#45;&gt;7987048985312221378 --><g id="edge2" class="edge"><title>3481022503272025849&#45;&gt;7987048985312221378</title><g id="a_edge2"><a xlink:title="Conclusão &#45;&gt; Despacho"><path fill="none" stroke="#109600" stroke-width="5" d="M281.79,-324.64C281.06,-315 281.56,-303.43 286,-294 287.74,-290.3 290.06,-286.82 292.7,-283.6"/><polygon fill="#109600" stroke="#109600" stroke-width="5" points="296.11,-286.36 299.85,-276.11 289.78,-280.32 296.11,-286.36"/></a></g><g id="a_edge2&#45;label"><a xlink:title="Conclusão &#45;&gt; Despacho"><text text-anchor="middle" x="296.5" y="-297.4" font-family="Times New Roman,serif" font-size="12.00"> 1D </text></a></g></g><!-- 201821933845037951 --><g id="node8" class="node"><title>201821933845037951</title><g id="a_node8"><a xlink:title="Documento"><path fill="#ffffff" stroke="black" d="M138,-98C138,-98 66,-98 66,-98 60,-98 54,-92 54,-86 54,-86 54,-70 54,-70 54,-64 60,-58 66,-58 66,-58 138,-58 138,-58 144,-58 150,-64 150,-70 150,-70 150,-86 150,-86 150,-92 144,-98 138,-98"/><text text-anchor="middle" x="102" y="-81.4" font-family="Times New Roman,serif" font-size="12.00"> Documento &#160;</text><text text-anchor="middle" x="102" y="-68.4" font-family="Times New Roman,serif" font-size="12.00"> 749 movimentos </text></a></g></g><!-- 3481022503272025849&#45;&gt;201821933845037951 --><g id="edge3" class="edge"><title>3481022503272025849&#45;&gt;201821933845037951</title><g id="a_edge3"><a xlink:title="Conclusão &#45;&gt; Documento"><path fill="none" stroke="#1f9600" d="M256,-324.93C249.01,-319.6 241.87,-313.47 236,-307 178.94,-244.12 134.39,-153.11 114.06,-107.42"/><polygon fill="#1f9600" stroke="#1f9600" points="117.2,-105.88 109.97,-98.13 110.79,-108.69 117.2,-105.88"/></a></g><g id="a_edge3&#45;label"><a xlink:title="Conclusão &#45;&gt; Documento"><text text-anchor="middle" x="181.5" y="-208.4" font-family="Times New Roman,serif" font-size="12.00"> 3D </text></a></g></g><!-- &#45;7502121929537258044 --><g id="node9" class="node"><title>&#45;7502121929537258044</title><g id="a_node9"><a xlink:title="Julgamento"><path fill="#ffffff" stroke="black" d="M731,-276C731,-276 659,-276 659,-276 653,-276 647,-270 647,-264 647,-264 647,-248 647,-248 647,-242 653,-236 659,-236 659,-236 731,-236 731,-236 737,-236 743,-242 743,-248 743,-248 743,-264 743,-264 743,-270 737,-276 731,-276"/><text text-anchor="middle" x="695" y="-259.4" font-family="Times New Roman,serif" font-size="12.00"> Julgamento &#160;</text><text text-anchor="middle" x="695" y="-246.4" font-family="Times New Roman,serif" font-size="12.00"> 685 movimentos </text></a></g></g><!-- 3481022503272025849&#45;&gt;&#45;7502121929537258044 --><g id="edge4" class="edge"><title>3481022503272025849&#45;&gt;&#45;7502121929537258044</title><g id="a_edge4"><a xlink:title="Conclusão &#45;&gt; Julgamento"><path fill="none" stroke="#209600" stroke-width="1.38" d="M336.11,-342.1C419.45,-338.42 580.58,-328.69 633,-307 646.34,-301.48 659.11,-292.15 669.56,-283.03"/><polygon fill="#209600" stroke="#209600" stroke-width="1.38" points="672.04,-285.5 677.06,-276.17 667.32,-280.33 672.04,-285.5"/></a></g><g id="a_edge4&#45;label"><a xlink:title="Conclusão &#45;&gt; Julgamento"><text text-anchor="middle" x="665.5" y="-297.4" font-family="Times New Roman,serif" font-size="12.00"> 3D </text></a></g></g><!-- 3481022503272025849&#45;&gt;&#45;2998375710546834842 --><g id="edge5" class="edge"><title>3481022503272025849&#45;&gt;&#45;2998375710546834842</title><g id="a_edge5"><a xlink:title="Conclusão &#45;&gt; Petição"><path fill="none" stroke="#209600" d="M268.95,-324.69C252.41,-302.29 231.24,-264.77 248,-236 261.09,-213.54 284.65,-197.9 307.45,-187.34"/><polygon fill="#209600" stroke="#209600" points="309.04,-190.47 316.8,-183.26 306.24,-184.05 309.04,-190.47"/></a></g><g id="a_edge5&#45;label"><a xlink:title="Conclusão &#45;&gt; Petição"><text text-anchor="middle" x="258.5" y="-252.9" font-family="Times New Roman,serif" font-size="12.00"> 3D </text></a></g></g><!-- 4434963139038534310 --><g id="node5" class="node"><title>4434963139038534310</title><g id="a_node5"><a xlink:title="Decurso de Prazo"><path fill="#ffffff" stroke="black" d="M411.5,-98C411.5,-98 330.5,-98 330.5,-98 324.5,-98 318.5,-92 318.5,-86 318.5,-86 318.5,-70 318.5,-70 318.5,-64 324.5,-58 330.5,-58 330.5,-58 411.5,-58 411.5,-58 417.5,-58 423.5,-64 423.5,-70 423.5,-70 423.5,-86 423.5,-86 423.5,-92 417.5,-98 411.5,-98"/><text text-anchor="middle" x="371" y="-81.4" font-family="Times New Roman,serif" font-size="12.00"> Decurso de Prazo &#160;</text><text text-anchor="middle" x="371" y="-68.4" font-family="Times New Roman,serif" font-size="12.00"> 347 movimentos </text></a></g></g><!-- 4434963139038534310&#45;&gt;&#45;2998375710546834842 --><g id="edge6" class="edge"><title>4434963139038534310&#45;&gt;&#45;2998375710546834842</title><g id="a_edge6"><a xlink:title="Decurso de Prazo &#45;&gt; Petição"><path fill="none" stroke="#966300" d="M367.3,-98.13C366.35,-103.86 365.47,-110.16 365,-116 364.46,-122.71 364.52,-129.94 364.87,-136.75"/><polygon fill="#966300" stroke="#966300" points="361.4,-137.27 365.61,-146.99 368.38,-136.77 361.4,-137.27"/></a></g><g id="a_edge6&#45;label"><a xlink:title="Decurso de Prazo &#45;&gt; Petição"><text text-anchor="middle" x="375.5" y="-119.4" font-family="Times New Roman,serif" font-size="12.00"> 7D </text></a></g></g><!-- 1207628978189926492 --><g id="node6" class="node"><title>1207628978189926492</title><g id="a_node6"><a xlink:title="Desarquivamento"><path fill="#ffffff" stroke="black" d="M729,-98C729,-98 651,-98 651,-98 645,-98 639,-92 639,-86 639,-86 639,-70 639,-70 639,-64 645,-58 651,-58 651,-58 729,-58 729,-58 735,-58 741,-64 741,-70 741,-70 741,-86 741,-86 741,-92 735,-98 729,-98"/><text text-anchor="middle" x="690" y="-81.4" font-family="Times New Roman,serif" font-size="12.00"> Desarquivamento &#160;</text><text text-anchor="middle" x="690" y="-68.4" font-family="Times New Roman,serif" font-size="12.00"> 132 movimentos </text></a></g></g><!-- 1207628978189926492&#45;&gt;3481022503272025849 --><g id="edge8" class="edge"><title>1207628978189926492&#45;&gt;3481022503272025849</title><g id="a_edge8"><a xlink:title="Desarquivamento &#45;&gt; Conclusão"><path fill="none" stroke="#009600" d="M668.73,-98.14C620.75,-140.51 499.24,-243.51 383,-307 371.3,-313.39 358.26,-319.16 345.62,-324.13"/><polygon fill="#009600" stroke="#009600" points="344.15,-320.94 336.05,-327.78 346.64,-327.48 344.15,-320.94"/></a></g><g id="a_edge8&#45;label"><a xlink:title="Desarquivamento &#45;&gt; Conclusão"><text text-anchor="middle" x="549.5" y="-208.4" font-family="Times New Roman,serif" font-size="12.00"> 26s </text></a></g></g><!-- 7987048985312221378&#45;&gt;3481022503272025849 --><g id="edge9" class="edge"><title>7987048985312221378&#45;&gt;3481022503272025849</title><g id="a_edge9"><a xlink:title="Despacho &#45;&gt; Conclusão"><path fill="none" stroke="#199600" d="M321.18,-276.25C317.2,-285.65 312.12,-297.05 307,-307 305.49,-309.92 303.86,-312.94 302.18,-315.92"/><polygon fill="#199600" stroke="#199600" points="299.09,-314.26 297.1,-324.66 305.15,-317.77 299.09,-314.26"/></a></g><g id="a_edge9&#45;label"><a xlink:title="Despacho &#45;&gt; Conclusão"><text text-anchor="middle" x="323.5" y="-297.4" font-family="Times New Roman,serif" font-size="12.00"> 2D </text></a></g></g><!-- 7987048985312221378&#45;&gt;&#45;2998375710546834842 --><g id="edge10" class="edge"><title>7987048985312221378&#45;&gt;&#45;2998375710546834842</title><g id="a_edge10"><a xlink:title="Despacho &#45;&gt; Petição"><path fill="none" stroke="#967100" d="M340.08,-235.66C343.13,-230.04 346.33,-223.84 349,-218 352.06,-211.31 355.05,-203.96 357.72,-197.01"/><polygon fill="#967100" stroke="#967100" points="361.15,-197.83 361.37,-187.24 354.59,-195.38 361.15,-197.83"/></a></g><g id="a_edge10&#45;label"><a xlink:title="Despacho &#45;&gt; Petição"><text text-anchor="middle" x="365.5" y="-208.4" font-family="Times New Roman,serif" font-size="12.00"> 4D </text></a></g></g><!-- 201821933845037951&#45;&gt;201821933845037951 --><g id="edge12" class="edge"><title>201821933845037951&#45;&gt;201821933845037951</title><g id="a_edge12"><a xlink:title="Documento &#45;&gt; Documento"><path fill="none" stroke="#019600" d="M150.05,-86.01C160.46,-85.22 168,-82.55 168,-78 168,-75.08 164.9,-72.94 159.94,-71.57"/><polygon fill="#019600" stroke="#019600" points="160.48,-68.11 150.05,-69.99 159.38,-75.02 160.48,-68.11"/></a></g><g id="a_edge12&#45;label"><a xlink:title="Documento &#45;&gt; Documento"><text text-anchor="middle" x="177" y="-74.9" font-family="Times New Roman,serif" font-size="12.00"> 2h </text></a></g></g><!-- 201821933845037951&#45;&gt;&#45;2998375710546834842 --><g id="edge13" class="edge"><title>201821933845037951&#45;&gt;&#45;2998375710546834842</title><g id="a_edge13"><a xlink:title="Documento &#45;&gt; Petição"><path fill="none" stroke="#966d00" d="M150.1,-97.87C175.73,-107.66 207.89,-119.51 237,-129 259.6,-136.37 284.67,-143.65 306.77,-149.79"/><polygon fill="#966d00" stroke="#966d00" points="306.13,-153.24 316.7,-152.53 307.99,-146.5 306.13,-153.24"/></a></g><g id="a_edge13&#45;label"><a xlink:title="Documento &#45;&gt; Petição"><text text-anchor="middle" x="247.5" y="-119.4" font-family="Times New Roman,serif" font-size="12.00"> 5D </text></a></g></g><!-- &#45;6066848101526773743 --><g id="node10" class="node"><title>&#45;6066848101526773743</title><g id="a_node10"><a xlink:title="Mandado"><path fill="#ffffff" stroke="black" d="M570,-98C570,-98 492,-98 492,-98 486,-98 480,-92 480,-86 480,-86 480,-70 480,-70 480,-64 486,-58 492,-58 492,-58 570,-58 570,-58 576,-58 582,-64 582,-70 582,-70 582,-86 582,-86 582,-92 576,-98 570,-98"/><text text-anchor="middle" x="531" y="-81.4" font-family="Times New Roman,serif" font-size="12.00"> Mandado &#160;</text><text text-anchor="middle" x="531" y="-68.4" font-family="Times New Roman,serif" font-size="12.00"> 1143 movimentos </text></a></g></g><!-- &#45;6066848101526773743&#45;&gt;&#45;6066848101526773743 --><g id="edge14" class="edge"><title>&#45;6066848101526773743&#45;&gt;&#45;6066848101526773743</title><g id="a_edge14"><a xlink:title="Mandado &#45;&gt; Mandado"><path fill="none" stroke="#0b9600" stroke-width="1.33" d="M582.15,-85.94C592.55,-85.07 600,-82.43 600,-78 600,-75.23 597.09,-73.16 592.37,-71.79"/><polygon fill="#0b9600" stroke="#0b9600" stroke-width="1.33" points="592.6,-68.28 582.15,-70.06 591.43,-75.18 592.6,-68.28"/></a></g><g id="a_edge14&#45;label"><a xlink:title="Mandado &#45;&gt; Mandado"><text text-anchor="middle" x="610.5" y="-74.9" font-family="Times New Roman,serif" font-size="12.00"> 1D </text></a></g></g><!-- &#45;6066848101526773743&#45;&gt;&#45;2998375710546834842 --><g id="edge15" class="edge"><title>&#45;6066848101526773743&#45;&gt;&#45;2998375710546834842</title><g id="a_edge15"><a xlink:title="Mandado &#45;&gt; Petição"><path fill="none" stroke="#966600" d="M530.14,-98.47C528.67,-108.85 525.15,-121.09 517,-129 493.8,-151.52 459.14,-161 429.09,-164.75"/><polygon fill="#966600" stroke="#966600" points="428.67,-161.28 419.09,-165.81 429.41,-168.24 428.67,-161.28"/></a></g><g id="a_edge15&#45;label"><a xlink:title="Mandado &#45;&gt; Petição"><text text-anchor="middle" x="536.5" y="-119.4" font-family="Times New Roman,serif" font-size="12.00"> 6D </text></a></g></g><!-- &#45;2998375710546834842&#45;&gt;3481022503272025849 --><g id="edge16" class="edge"><title>&#45;2998375710546834842&#45;&gt;3481022503272025849</title><g id="a_edge16"><a xlink:title="Petição &#45;&gt; Conclusão"><path fill="none" stroke="#967100" stroke-width="4.64" d="M378.95,-187.1C390.29,-209.63 404.36,-247.61 389,-276 378.77,-294.92 360.73,-309.41 342.53,-320.06"/><polygon fill="#967100" stroke="#967100" stroke-width="4.64" points="340.4,-316.6 333.61,-324.98 344.32,-323.7 340.4,-316.6"/></a></g><g id="a_edge16&#45;label"><a xlink:title="Petição &#45;&gt; Conclusão"><text text-anchor="middle" x="406.5" y="-252.9" font-family="Times New Roman,serif" font-size="12.00"> 4D </text></a></g></g><!-- &#45;2998375710546834842&#45;&gt;4434963139038534310 --><g id="edge17" class="edge"><title>&#45;2998375710546834842&#45;&gt;4434963139038534310</title><g id="a_edge17"><a xlink:title="Petição &#45;&gt; Decurso de Prazo"><path fill="none" stroke="#966400" d="M379.45,-146.64C382.14,-141.13 384.62,-134.99 386,-129 387.59,-122.12 386.82,-114.79 384.98,-107.93"/><polygon fill="#966400" stroke="#966400" points="388.23,-106.63 381.67,-98.31 381.61,-108.91 388.23,-106.63"/></a></g><g id="a_edge17&#45;label"><a xlink:title="Petição &#45;&gt; Decurso de Prazo"><text text-anchor="middle" x="397.5" y="-119.4" font-family="Times New Roman,serif" font-size="12.00"> 7D </text></a></g></g><!-- &#45;2998375710546834842&#45;&gt;1207628978189926492 --><g id="edge18" class="edge"><title>&#45;2998375710546834842&#45;&gt;1207628978189926492</title><g id="a_edge18"><a xlink:title="Petição &#45;&gt; Desarquivamento"><path fill="none" stroke="#965d00" d="M419.07,-158.15C456.11,-151.86 507.17,-141.95 551,-129 566.12,-124.53 569.22,-121.49 584,-116 598.61,-110.57 614.44,-104.93 629.3,-99.73"/><polygon fill="#965d00" stroke="#965d00" points="630.61,-102.98 638.9,-96.38 628.31,-96.37 630.61,-102.98"/></a></g><g id="a_edge18&#45;label"><a xlink:title="Petição &#45;&gt; Desarquivamento"><text text-anchor="middle" x="594.5" y="-119.4" font-family="Times New Roman,serif" font-size="12.00"> 8D </text></a></g></g><!-- &#45;2998375710546834842&#45;&gt;7987048985312221378 --><g id="edge19" class="edge"><title>&#45;2998375710546834842&#45;&gt;7987048985312221378</title><g id="a_edge19"><a xlink:title="Petição &#45;&gt; Despacho"><path fill="none" stroke="#967200" d="M337.63,-187.36C332.11,-192.39 327.12,-198.3 324,-205 321.03,-211.38 320.43,-218.7 321,-225.73"/><polygon fill="#967200" stroke="#967200" points="317.55,-226.34 322.52,-235.69 324.47,-225.28 317.55,-226.34"/></a></g><g id="a_edge19&#45;label"><a xlink:title="Petição &#45;&gt; Despacho"><text text-anchor="middle" x="334.5" y="-208.4" font-family="Times New Roman,serif" font-size="12.00"> 4D </text></a></g></g><!-- &#45;2998375710546834842&#45;&gt;201821933845037951 --><g id="edge20" class="edge"><title>&#45;2998375710546834842&#45;&gt;201821933845037951</title><g id="a_edge20"><a xlink:title="Petição &#45;&gt; Documento"><path fill="none" stroke="#965c00" d="M316.78,-161.95C276.9,-157.44 220.82,-148.1 175,-129 160.14,-122.8 145.21,-113.3 132.76,-104.24"/><polygon fill="#965c00" stroke="#965c00" points="134.66,-101.29 124.57,-98.08 130.46,-106.88 134.66,-101.29"/></a></g><g id="a_edge20&#45;label"><a xlink:title="Petição &#45;&gt; Documento"><text text-anchor="middle" x="185.5" y="-119.4" font-family="Times New Roman,serif" font-size="12.00"> 8D </text></a></g></g><!-- &#45;2998375710546834842&#45;&gt;&#45;6066848101526773743 --><g id="edge21" class="edge"><title>&#45;2998375710546834842&#45;&gt;&#45;6066848101526773743</title><g id="a_edge21"><a xlink:title="Petição &#45;&gt; Mandado"><path fill="none" stroke="#049600" d="M419.06,-153.2C437.71,-147.33 458.51,-139.34 476,-129 486.83,-122.6 497.38,-113.83 506.3,-105.41"/><polygon fill="#049600" stroke="#049600" points="508.99,-107.68 513.68,-98.18 504.09,-102.68 508.99,-107.68"/></a></g><g id="a_edge21&#45;label"><a xlink:title="Petição &#45;&gt; Mandado"><text text-anchor="middle" x="504" y="-119.4" font-family="Times New Roman,serif" font-size="12.00"> 9h </text></a></g></g><!-- &#45;2998375710546834842&#45;&gt;&#45;2998375710546834842 --><g id="edge22" class="edge"><title>&#45;2998375710546834842&#45;&gt;&#45;2998375710546834842</title><g id="a_edge22"><a xlink:title="Petição &#45;&gt; Petição"><path fill="none" stroke="#009600" stroke-width="4.36" d="M419.15,-174.94C429.55,-174.07 437,-171.43 437,-167 437,-164.23 434.09,-162.16 429.37,-160.79"/><polygon fill="#009600" stroke="#009600" stroke-width="4.36" points="429.65,-156.97 419.15,-159.06 428.38,-164.49 429.65,-156.97"/></a></g><g id="a_edge22&#45;label"><a xlink:title="Petição &#45;&gt; Petição"><text text-anchor="middle" x="446" y="-163.9" font-family="Times New Roman,serif" font-size="12.00"> 1h </text></a></g></g><!-- &#45;1899612676363016532 --><g id="node12" class="node"><title>&#45;1899612676363016532</title><g id="a_node12"><a xlink:title="Remessa"><path fill="#ffffff" stroke="black" d="M288,-98C288,-98 216,-98 216,-98 210,-98 204,-92 204,-86 204,-86 204,-70 204,-70 204,-64 210,-58 216,-58 216,-58 288,-58 288,-58 294,-58 300,-64 300,-70 300,-70 300,-86 300,-86 300,-92 294,-98 288,-98"/><text text-anchor="middle" x="252" y="-81.4" font-family="Times New Roman,serif" font-size="12.00"> Remessa &#160;</text><text text-anchor="middle" x="252" y="-68.4" font-family="Times New Roman,serif" font-size="12.00"> 518 movimentos </text></a></g></g><!-- &#45;2998375710546834842&#45;&gt;&#45;1899612676363016532 --><g id="edge23" class="edge"><title>&#45;2998375710546834842&#45;&gt;&#45;1899612676363016532</title><g id="a_edge23"><a xlink:title="Petição &#45;&gt; Remessa"><path fill="none" stroke="#967400" d="M316.77,-155.31C300.45,-149.76 283.42,-141.43 271,-129 265.25,-123.24 261.21,-115.57 258.39,-107.97"/><polygon fill="#967400" stroke="#967400" points="261.65,-106.68 255.33,-98.18 254.97,-108.77 261.65,-106.68"/></a></g><g id="a_edge23&#45;label"><a xlink:title="Petição &#45;&gt; Remessa"><text text-anchor="middle" x="281.5" y="-119.4" font-family="Times New Roman,serif" font-size="12.00"> 4D </text></a></g></g><!-- &#45;1899612676363016532&#45;&gt;3481022503272025849 --><g id="edge24" class="edge"><title>&#45;1899612676363016532&#45;&gt;3481022503272025849</title><g id="a_edge24"><a xlink:title="Remessa &#45;&gt; Conclusão"><path fill="none" stroke="#019600" d="M220.95,-98.25C215.31,-103.29 210.2,-109.23 207,-116 204.53,-121.22 206.4,-123.25 207,-129 221.79,-270.82 229.08,-277.15 247,-307 249.19,-310.64 251.82,-314.17 254.66,-317.51"/><polygon fill="#019600" stroke="#019600" points="252.2,-320.01 261.58,-324.93 257.32,-315.23 252.2,-320.01"/></a></g><g id="a_edge24&#45;label"><a xlink:title="Remessa &#45;&gt; Conclusão"><text text-anchor="middle" x="227" y="-208.4" font-family="Times New Roman,serif" font-size="12.00"> 4h </text></a></g></g><!-- &#45;1899612676363016532&#45;&gt;&#45;2998375710546834842 --><g id="edge25" class="edge"><title>&#45;1899612676363016532&#45;&gt;&#45;2998375710546834842</title><g id="a_edge25"><a xlink:title="Remessa &#45;&gt; Petição"><path fill="none" stroke="#963000" d="M277.4,-98.05C294.16,-110.62 316.3,-127.22 334.49,-140.87"/><polygon fill="#963000" stroke="#963000" points="332.44,-143.71 342.54,-146.91 336.64,-138.11 332.44,-143.71"/></a></g><g id="a_edge25&#45;label"><a xlink:title="Remessa &#45;&gt; Petição"><text text-anchor="middle" x="330.5" y="-119.4" font-family="Times New Roman,serif" font-size="12.00"> 23D </text></a></g></g></g></svg>