<svg xmlns="http://www.w3.org/2000/svg" xmlns:xlink="http://www.w3.org/1999/xlink" width="292pt" height="564" viewBox="0 0 292 423"><g id="graph0" class="graph" transform="scale(1 1) rotate(0) translate(4 419)"><g id="node1" class="node"><title>1894939040614898085</title><path fill="none" stroke="#c4c7c7" stroke-dasharray="5 2" d="M225,-415C225,-415 169,-415 169,-415 163,-415 157,-409 157,-403 157,-403 157,-391 157,-391 157,-385 163,-379 169,-379 169,-379 225,-379 225,-379 231,-379 237,-385 237,-391 237,-391 237,-403 237,-403 237,-409 231,-415 225,-415"/><text x="197" y="-400.4" fill="#c4c7c7" font-family="Times New Roman,serif" font-size="12" text-anchor="middle">Distribuição</text><text x="197" y="-387.4" fill="#c4c7c7" font-family="Times New Roman,serif" font-size="12" text-anchor="middle">não executou</text></g><g id="node2" class="node"><title>-3781142108983599563</title><path fill="none" stroke="#c4c7c7" stroke-dasharray="5 2" d="M79,-36C79,-36 23,-36 23,-36 17,-36 11,-30 11,-24 11,-24 11,-12 11,-12 11,-6 17,0 23,0 23,0 79,0 79,0 85,0 91,-6 91,-12 91,-12 91,-24 91,-24 91,-30 85,-36 79,-36"/><text x="51" y="-21.4" fill="#c4c7c7" font-family="Times New Roman,serif" font-size="12" text-anchor="middle">Definitivo</text><text x="51" y="-8.4" fill="#c4c7c7" font-family="Times New Roman,serif" font-size="12" text-anchor="middle">não executou</text></g><g id="node3" class="node"><title>-2366248699620310184</title><g id="a_node3"><a xlink:title="Conclusão"><path fill="#fff" stroke="#000" stroke-width="2.5" d="M236,-361C236,-361 158,-361 158,-361 152,-361 146,-355 146,-349 146,-349 146,-333 146,-333 146,-327 152,-321 158,-321 158,-321 236,-321 236,-321 242,-321 248,-327 248,-333 248,-333 248,-349 248,-349 248,-355 242,-361 236,-361"/><text x="197" y="-344.4" font-family="Times New Roman,serif" font-size="12" text-anchor="middle">Conclusão</text><text x="197" y="-331.4" font-family="Times New Roman,serif" font-size="12" text-anchor="middle">3353 movimentos</text></a></g></g><g id="node6" class="node"><title>4196473730345433951</title><g id="a_node6"><a xlink:title="Mero expediente"><path fill="#fff" stroke="#000" stroke-width="1.52" d="M162,-272C162,-272 84,-272 84,-272 78,-272 72,-266 72,-260 72,-260 72,-244 72,-244 72,-238 78,-232 84,-232 84,-232 162,-232 162,-232 168,-232 174,-238 174,-244 174,-244 174,-260 174,-260 174,-266 168,-272 162,-272"/><text x="123" y="-255.4" font-family="Times New Roman,serif" font-size="12" text-anchor="middle">Mero expediente</text><text x="123" y="-242.4" font-family="Times New Roman,serif" font-size="12" text-anchor="middle">2048 movimentos</text></a></g></g><g id="edge1" class="edge"><title>-2366248699620310184-&gt;4196473730345433951</title><g id="a_edge1"><a xlink:title="Conclusão -&gt; Mero expediente"><path fill="none" stroke="#319600" stroke-width="3.57" d="M178.12,-320.73C172.79,-315.12 167.07,-308.9 162,-303 155.91,-295.92 149.58,-288.04 143.83,-280.67"/><polygon fill="#319600" stroke="#319600" stroke-width="3.57" points="146.28 -278.12 137.4 -272.34 140.73 -282.39 146.28 -278.12"/></a></g><g id="a_edge1-label"><a xlink:title="Conclusão -&gt; Mero expediente"><text x="172.5" y="-293.4" font-family="Times New Roman,serif" font-size="12" text-anchor="middle">1D</text></a></g></g><g id="node4" class="node"><title>-2142120187836555337</title><g id="a_node4"><a xlink:title="Expedição de documento"><path fill="#fff" stroke="#000" stroke-width="5" d="M180.5,-183C180.5,-183 65.5,-183 65.5,-183 59.5,-183 53.5,-177 53.5,-171 53.5,-171 53.5,-155 53.5,-155 53.5,-149 59.5,-143 65.5,-143 65.5,-143 180.5,-143 180.5,-143 186.5,-143 192.5,-149 192.5,-155 192.5,-155 192.5,-171 192.5,-171 192.5,-177 186.5,-183 180.5,-183"/><text x="123" y="-166.4" font-family="Times New Roman,serif" font-size="12" text-anchor="middle">Expedição de documento</text><text x="123" y="-153.4" font-family="Times New Roman,serif" font-size="12" text-anchor="middle">6718 movimentos</text></a></g></g><g id="edge2" class="edge"><title>-2142120187836555337-&gt;-2366248699620310184</title><g id="a_edge2"><a xlink:title="Expedição de documento -&gt; Conclusão"><path fill="none" stroke="#009600" d="M141.56,-183.26C152.89,-196.09 166.75,-213.87 175,-232 186.44,-257.15 191.97,-288.28 194.62,-310.65"/><polygon fill="#009600" stroke="#009600" points="191.17 -311.29 195.71 -320.86 198.13 -310.55 191.17 -311.29"/></a></g><g id="a_edge2-label"><a xlink:title="Expedição de documento -&gt; Conclusão"><text x="197.5" y="-248.9" font-family="Times New Roman,serif" font-size="12" text-anchor="middle">1m</text></a></g></g><g id="edge3" class="edge"><title>-2142120187836555337-&gt;-2142120187836555337</title><g id="a_edge3"><a xlink:title="Expedição de documento -&gt; Expedição de documento"><path fill="none" stroke="#965f00" stroke-width="5" d="M192.67,-170.52C203.29,-169.37 210.5,-166.87 210.5,-163 210.5,-160.52 207.54,-158.6 202.62,-157.24"/><polygon fill="#965f00" stroke="#965f00" stroke-width="5" points="203.28 -152.92 192.67 -155.48 201.76 -161.53 203.28 -152.92"/></a></g><g id="a_edge3-label"><a xlink:title="Expedição de documento -&gt; Expedição de documento"><text x="221" y="-159.9" font-family="Times New Roman,serif" font-size="12" text-anchor="middle">2D</text></a></g></g><g id="node5" class="node"><title>7316831560597932829</title><g id="a_node5"><a xlink:title="Mandado"><path fill="#fff" stroke="#000" d="M90,-94C90,-94 12,-94 12,-94 6,-94 0,-88 0,-82 0,-82 0,-66 0,-66 0,-60 6,-54 12,-54 12,-54 90,-54 90,-54 96,-54 102,-60 102,-66 102,-66 102,-82 102,-82 102,-88 96,-94 90,-94"/><text x="51" y="-77.4" font-family="Times New Roman,serif" font-size="12" text-anchor="middle">Mandado</text><text x="51" y="-64.4" font-family="Times New Roman,serif" font-size="12" text-anchor="middle">1143 movimentos</text></a></g></g><g id="edge4" class="edge"><title>-2142120187836555337-&gt;7316831560597932829</title><g id="a_edge4"><a xlink:title="Expedição de documento -&gt; Mandado"><path fill="none" stroke="#009600" d="M100.42,-142.98C94.45,-137.46 88.22,-131.24 83,-125 77.42,-118.33 72.04,-110.63 67.34,-103.29"/><polygon fill="#009600" stroke="#009600" points="70.02 -100.97 61.78 -94.31 64.06 -104.66 70.02 -100.97"/></a></g><g id="a_edge4-label"><a xlink:title="Expedição de documento -&gt; Mandado"><text x="94.5" y="-115.4" font-family="Times New Roman,serif" font-size="12" text-anchor="middle">10s</text></a></g></g><g id="node7" class="node"><title>-3301837613698818645</title><g id="a_node7"><a xlink:title="Petição"><path fill="#fff" stroke="#000" stroke-width="3.84" d="M236,-94C236,-94 158,-94 158,-94 152,-94 146,-88 146,-82 146,-82 146,-66 146,-66 146,-60 152,-54 158,-54 158,-54 236,-54 236,-54 242,-54 248,-60 248,-66 248,-66 248,-82 248,-82 248,-88 242,-94 236,-94"/><text x="197" y="-77.4" font-family="Times New Roman,serif" font-size="12" text-anchor="middle">Petição</text><text x="197" y="-64.4" font-family="Times New Roman,serif" font-size="12" text-anchor="middle">5154 movimentos</text></a></g></g><g id="edge5" class="edge"><title>-2142120187836555337-&gt;-3301837613698818645</title><g id="a_edge5"><a xlink:title="Expedição de documento -&gt; Petição"><path fill="none" stroke="#960000" stroke-width="4.54" d="M128.77,-142.62C132.35,-132.75 137.69,-120.97 145,-112 148.33,-107.92 152.21,-104.07 156.33,-100.52"/><polygon fill="#960000" stroke="#960000" stroke-width="4.54" points="159.1 -103.4 164.46 -94.07 154.15 -97.18 159.1 -103.4"/></a></g><g id="a_edge5-label"><a xlink:title="Expedição de documento -&gt; Petição"><text x="158.5" y="-115.4" font-family="Times New Roman,serif" font-size="12" text-anchor="middle">14D</text></a></g></g><g id="edge6" class="edge"><title>7316831560597932829-&gt;7316831560597932829</title><g id="a_edge6"><a xlink:title="Mandado -&gt; Mandado"><path fill="none" stroke="#249600" d="M102.15,-81.94C112.55,-81.07 120,-78.43 120,-74 120,-71.23 117.09,-69.16 112.37,-67.79"/><polygon fill="#249600" stroke="#249600" points="112.6 -64.28 102.15 -66.06 111.43 -71.18 112.6 -64.28"/></a></g><g id="a_edge6-label"><a xlink:title="Mandado -&gt; Mandado"><text x="130.5" y="-70.9" font-family="Times New Roman,serif" font-size="12" text-anchor="middle">1D</text></a></g></g><g id="edge7" class="edge"><title>4196473730345433951-&gt;-2142120187836555337</title><g id="a_edge7"><a xlink:title="Mero expediente -&gt; Expedição de documento"><path fill="none" stroke="#964500" stroke-width="3.11" d="M123,-231.69C123,-220.43 123,-205.99 123,-193.35"/><polygon fill="#964500" stroke="#964500" stroke-width="3.11" points="126.5 -193.25 123 -183.25 119.5 -193.25 126.5 -193.25"/></a></g><g id="a_edge7-label"><a xlink:title="Mero expediente -&gt; Expedição de documento"><text x="133.5" y="-204.4" font-family="Times New Roman,serif" font-size="12" text-anchor="middle">3D</text></a></g></g><g id="edge8" class="edge"><title>-3301837613698818645-&gt;-2366248699620310184</title><g id="a_edge8"><a xlink:title="Petição -&gt; Conclusão"><path fill="none" stroke="#963b00" stroke-width="3.47" d="M210.43,-94.19C218.73,-107.28 228.62,-125.37 233,-143 247.69,-202.16 225.37,-272.69 209.85,-311.27"/><polygon fill="#963b00" stroke="#963b00" stroke-width="3.47" points="206.49 -310.24 205.88 -320.81 212.95 -312.92 206.49 -310.24"/></a></g><g id="a_edge8-label"><a xlink:title="Petição -&gt; Conclusão"><text x="247.5" y="-204.4" font-family="Times New Roman,serif" font-size="12" text-anchor="middle">4D</text></a></g></g><g id="edge9" class="edge"><title>-3301837613698818645-&gt;-2142120187836555337</title><g id="a_edge9"><a xlink:title="Petição -&gt; Expedição de documento"><path fill="none" stroke="#962d00" stroke-width="1.14" d="M189.85,-94.27C185.6,-104.11 179.57,-115.9 172,-125 168.68,-129 164.84,-132.81 160.81,-136.37"/><polygon fill="#962d00" stroke="#962d00" stroke-width="1.14" points="158.4 -133.82 152.9 -142.88 162.85 -139.23 158.4 -133.82"/></a></g><g id="a_edge9-label"><a xlink:title="Petição -&gt; Expedição de documento"><text x="190.5" y="-115.4" font-family="Times New Roman,serif" font-size="12" text-anchor="middle">6D</text></a></g></g><g id="edge10" class="edge"><title>-3301837613698818645-&gt;-3301837613698818645</title><g id="a_edge10"><a xlink:title="Petição -&gt; Petição"><path fill="none" stroke="#029600" stroke-width="3.31" d="M248.15,-81.94C258.55,-81.07 266,-78.43 266,-74 266,-71.23 263.09,-69.16 258.37,-67.79"/><polygon fill="#029600" stroke="#029600" stroke-width="3.31" points="258.6 -64.28 248.15 -66.06 257.43 -71.18 258.6 -64.28"/></a></g><g id="a_edge10-label"><a xlink:title="Petição -&gt; Petição"><text x="275" y="-70.9" font-family="Times New Roman,serif" font-size="12" text-anchor="middle">1h</text></a></g></g></g></svg>