<svg xmlns="http://www.w3.org/2000/svg" xmlns:xlink="http://www.w3.org/1999/xlink" width="452pt" height="427pt" viewBox="0 0 452 427"><g id="graph0" class="graph" transform="scale(1 1) rotate(0) translate(4 423)"><g id="node1" class="node"><title>1894939040614898085</title><path fill="none" stroke="#c4c7c7" stroke-dasharray="5 2" d="M255,-419C255,-419 199,-419 199,-419 193,-419 187,-413 187,-407 187,-407 187,-395 187,-395 187,-389 193,-383 199,-383 199,-383 255,-383 255,-383 261,-383 267,-389 267,-395 267,-395 267,-407 267,-407 267,-413 261,-419 255,-419"/><text x="227" y="-404.4" fill="#c4c7c7" font-family="Times New Roman,serif" font-size="12" text-anchor="middle">Distribuição</text><text x="227" y="-391.4" fill="#c4c7c7" font-family="Times New Roman,serif" font-size="12" text-anchor="middle">não executou</text></g><g id="node2" class="node"><title>-3781142108983599563</title><g id="a_node2"><a xlink:title="Definitivo"><path fill="#fff" stroke="#000" d="M84,-40C84,-40 12,-40 12,-40 6,-40 0,-34 0,-28 0,-28 0,-12 0,-12 0,-6 6,0 12,0 12,0 84,0 84,0 90,0 96,-6 96,-12 96,-12 96,-28 96,-28 96,-34 90,-40 84,-40"/><text x="48" y="-23.4" font-family="Times New Roman,serif" font-size="12" text-anchor="middle">Definitivo</text><text x="48" y="-10.4" font-family="Times New Roman,serif" font-size="12" text-anchor="middle">564 movimentos</text></a></g></g><g id="node3" class="node"><title>-2366248699620310184</title><g id="a_node3"><a xlink:title="Conclusão"><path fill="#fff" stroke="#000" stroke-width="2.5" d="M359,-187C359,-187 281,-187 281,-187 275,-187 269,-181 269,-175 269,-175 269,-159 269,-159 269,-153 275,-147 281,-147 281,-147 359,-147 359,-147 365,-147 371,-153 371,-159 371,-159 371,-175 371,-175 371,-181 365,-187 359,-187"/><text x="320" y="-170.4" font-family="Times New Roman,serif" font-size="12" text-anchor="middle">Conclusão</text><text x="320" y="-157.4" font-family="Times New Roman,serif" font-size="12" text-anchor="middle">3353 movimentos</text></a></g></g><g id="node6" class="node"><title>4196473730345433951</title><g id="a_node6"><a xlink:title="Mero expediente"><path fill="#fff" stroke="#000" stroke-width="1.52" d="M410,-98C410,-98 332,-98 332,-98 326,-98 320,-92 320,-86 320,-86 320,-70 320,-70 320,-64 326,-58 332,-58 332,-58 410,-58 410,-58 416,-58 422,-64 422,-70 422,-70 422,-86 422,-86 422,-92 416,-98 410,-98"/><text x="371" y="-81.4" font-family="Times New Roman,serif" font-size="12" text-anchor="middle">Mero expediente</text><text x="371" y="-68.4" font-family="Times New Roman,serif" font-size="12" text-anchor="middle">2048 movimentos</text></a></g></g><g id="edge1" class="edge"><title>-2366248699620310184-&gt;4196473730345433951</title><g id="a_edge1"><a xlink:title="Conclusão -&gt; Mero expediente"><path fill="none" stroke="#319600" stroke-width="3.93" d="M331.32,-146.69C338.12,-135.09 346.89,-120.12 354.46,-107.21"/><polygon fill="#319600" stroke="#319600" stroke-width="3.93" points="357.68 -108.65 359.71 -98.25 351.64 -105.11 357.68 -108.65"/></a></g><g id="a_edge1-label"><a xlink:title="Conclusão -&gt; Mero expediente"><text x="358.5" y="-119.4" font-family="Times New Roman,serif" font-size="12" text-anchor="middle">1D</text></a></g></g><g id="node4" class="node"><title>-2142120187836555337</title><g id="a_node4"><a xlink:title="Expedição de documento"><path fill="#fff" stroke="#000" stroke-width="5" d="M284.5,-365C284.5,-365 169.5,-365 169.5,-365 163.5,-365 157.5,-359 157.5,-353 157.5,-353 157.5,-337 157.5,-337 157.5,-331 163.5,-325 169.5,-325 169.5,-325 284.5,-325 284.5,-325 290.5,-325 296.5,-331 296.5,-337 296.5,-337 296.5,-353 296.5,-353 296.5,-359 290.5,-365 284.5,-365"/><text x="227" y="-348.4" font-family="Times New Roman,serif" font-size="12" text-anchor="middle">Expedição de documento</text><text x="227" y="-335.4" font-family="Times New Roman,serif" font-size="12" text-anchor="middle">6718 movimentos</text></a></g></g><g id="edge3" class="edge"><title>-2142120187836555337-&gt;-3781142108983599563</title><g id="a_edge3"><a xlink:title="Expedição de documento -&gt; Definitivo"><path fill="none" stroke="#009600" d="M157.28,-337.74C107.02,-328.94 48,-307.79 48,-257 48,-257 48,-257 48,-121.5 48,-97.54 48,-70.37 48,-50.32"/><polygon fill="#009600" stroke="#009600" points="51.5 -50.27 48 -40.27 44.5 -50.27 51.5 -50.27"/></a></g><g id="a_edge3-label"><a xlink:title="Expedição de documento -&gt; Definitivo"><text x="58.5" y="-208.4" font-family="Times New Roman,serif" font-size="12" text-anchor="middle">1m</text></a></g></g><g id="edge2" class="edge"><title>-2142120187836555337-&gt;-2366248699620310184</title><g id="a_edge2"><a xlink:title="Expedição de documento -&gt; Conclusão"><path fill="none" stroke="#009600" d="M169.81,-324.92C121.74,-305.72 64.99,-273.63 93,-236 112.88,-209.29 198.39,-189.17 258.58,-177.98"/><polygon fill="#009600" stroke="#009600" points="259.54 -181.37 268.75 -176.13 258.29 -174.48 259.54 -181.37"/></a></g><g id="a_edge2-label"><a xlink:title="Expedição de documento -&gt; Conclusão"><text x="103.5" y="-252.9" font-family="Times New Roman,serif" font-size="12" text-anchor="middle">1m</text></a></g></g><g id="edge4" class="edge"><title>-2142120187836555337-&gt;-2142120187836555337</title><g id="a_edge4"><a xlink:title="Expedição de documento -&gt; Expedição de documento"><path fill="none" stroke="#965f00" stroke-width="5" d="M296.67,-352.52C307.29,-351.37 314.5,-348.87 314.5,-345 314.5,-342.52 311.54,-340.6 306.62,-339.24"/><polygon fill="#965f00" stroke="#965f00" stroke-width="5" points="307.28 -334.92 296.67 -337.48 305.76 -343.53 307.28 -334.92"/></a></g><g id="a_edge4-label"><a xlink:title="Expedição de documento -&gt; Expedição de documento"><text x="325" y="-341.9" font-family="Times New Roman,serif" font-size="12" text-anchor="middle">2D</text></a></g></g><g id="node5" class="node"><title>7316831560597932829</title><g id="a_node5"><a xlink:title="Mandado"><path fill="#fff" stroke="#000" d="M213,-276C213,-276 135,-276 135,-276 129,-276 123,-270 123,-264 123,-264 123,-248 123,-248 123,-242 129,-236 135,-236 135,-236 213,-236 213,-236 219,-236 225,-242 225,-248 225,-248 225,-264 225,-264 225,-270 219,-276 213,-276"/><text x="174" y="-259.4" font-family="Times New Roman,serif" font-size="12" text-anchor="middle">Mandado</text><text x="174" y="-246.4" font-family="Times New Roman,serif" font-size="12" text-anchor="middle">1143 movimentos</text></a></g></g><g id="edge5" class="edge"><title>-2142120187836555337-&gt;7316831560597932829</title><g id="a_edge5"><a xlink:title="Expedição de documento -&gt; Mandado"><path fill="none" stroke="#009600" d="M214.36,-324.91C210.64,-319.19 206.6,-312.87 203,-307 198.64,-299.9 194.07,-292.16 189.87,-284.92"/><polygon fill="#009600" stroke="#009600" points="192.82 -283.04 184.8 -276.13 186.76 -286.54 192.82 -283.04"/></a></g><g id="a_edge5-label"><a xlink:title="Expedição de documento -&gt; Mandado"><text x="214.5" y="-297.4" font-family="Times New Roman,serif" font-size="12" text-anchor="middle">10s</text></a></g></g><g id="node7" class="node"><title>-3301837613698818645</title><g id="a_node7"><a xlink:title="Petição"><path fill="#fff" stroke="#000" stroke-width="3.84" d="M359,-276C359,-276 281,-276 281,-276 275,-276 269,-270 269,-264 269,-264 269,-248 269,-248 269,-242 275,-236 281,-236 281,-236 359,-236 359,-236 365,-236 371,-242 371,-248 371,-248 371,-264 371,-264 371,-270 365,-276 359,-276"/><text x="320" y="-259.4" font-family="Times New Roman,serif" font-size="12" text-anchor="middle">Petição</text><text x="320" y="-246.4" font-family="Times New Roman,serif" font-size="12" text-anchor="middle">5154 movimentos</text></a></g></g><g id="edge6" class="edge"><title>-2142120187836555337-&gt;-3301837613698818645</title><g id="a_edge6"><a xlink:title="Expedição de documento -&gt; Petição"><path fill="none" stroke="#960000" stroke-width="4.3" d="M239.38,-324.75C246.24,-314.91 255.33,-303.13 265,-294 269.4,-289.85 274.3,-285.85 279.33,-282.1"/><polygon fill="#960000" stroke="#960000" stroke-width="4.3" points="281.85 -284.92 287.82 -276.07 277.49 -278.79 281.85 -284.92"/></a></g><g id="a_edge6-label"><a xlink:title="Expedição de documento -&gt; Petição"><text x="278.5" y="-297.4" font-family="Times New Roman,serif" font-size="12" text-anchor="middle">14D</text></a></g></g><g id="edge7" class="edge"><title>7316831560597932829-&gt;7316831560597932829</title><g id="a_edge7"><a xlink:title="Mandado -&gt; Mandado"><path fill="none" stroke="#249600" d="M225.15,-263.94C235.55,-263.07 243,-260.43 243,-256 243,-253.23 240.09,-251.16 235.37,-249.79"/><polygon fill="#249600" stroke="#249600" points="235.6 -246.28 225.15 -248.06 234.43 -253.18 235.6 -246.28"/></a></g><g id="a_edge7-label"><a xlink:title="Mandado -&gt; Mandado"><text x="253.5" y="-252.9" font-family="Times New Roman,serif" font-size="12" text-anchor="middle">1D</text></a></g></g><g id="edge8" class="edge"><title>4196473730345433951-&gt;-2142120187836555337</title><g id="a_edge8"><a xlink:title="Mero expediente -&gt; Expedição de documento"><path fill="none" stroke="#964500" stroke-width="3.36" d="M383.04,-98C405.13,-135.53 446.48,-220.32 408,-276 385.14,-309.08 344.04,-326.09 306.78,-334.83"/><polygon fill="#964500" stroke="#964500" stroke-width="3.36" points="305.92 -331.43 296.89 -336.98 307.41 -338.27 305.92 -331.43"/></a></g><g id="a_edge8-label"><a xlink:title="Mero expediente -&gt; Expedição de documento"><text x="433.5" y="-208.4" font-family="Times New Roman,serif" font-size="12" text-anchor="middle">3D</text></a></g></g><g id="edge9" class="edge"><title>-3301837613698818645-&gt;-2366248699620310184</title><g id="a_edge9"><a xlink:title="Petição -&gt; Conclusão"><path fill="none" stroke="#963b00" stroke-width="1.67" d="M320,-235.69C320,-224.43 320,-209.99 320,-197.35"/><polygon fill="#963b00" stroke="#963b00" stroke-width="1.67" points="323.5 -197.25 320 -187.25 316.5 -197.25 323.5 -197.25"/></a></g><g id="a_edge9-label"><a xlink:title="Petição -&gt; Conclusão"><text x="330.5" y="-208.4" font-family="Times New Roman,serif" font-size="12" text-anchor="middle">4D</text></a></g></g><g id="edge10" class="edge"><title>-3301837613698818645-&gt;-2142120187836555337</title><g id="a_edge10"><a xlink:title="Petição -&gt; Expedição de documento"><path fill="none" stroke="#962d00" d="M312.28,-276.19C307.53,-286.24 300.69,-298.25 292,-307 287.56,-311.47 282.46,-315.58 277.12,-319.3"/><polygon fill="#962d00" stroke="#962d00" points="275.08 -316.46 268.58 -324.83 278.88 -322.33 275.08 -316.46"/></a></g><g id="a_edge10-label"><a xlink:title="Petição -&gt; Expedição de documento"><text x="311.5" y="-297.4" font-family="Times New Roman,serif" font-size="12" text-anchor="middle">6D</text></a></g></g><g id="edge11" class="edge"><title>-3301837613698818645-&gt;-3301837613698818645</title><g id="a_edge11"><a xlink:title="Petição -&gt; Petição"><path fill="none" stroke="#029600" stroke-width="3.59" d="M371.15,-263.94C381.55,-263.07 389,-260.43 389,-256 389,-253.23 386.09,-251.16 381.37,-249.79"/><polygon fill="#029600" stroke="#029600" stroke-width="3.59" points="381.6 -246.28 371.15 -248.06 380.43 -253.18 381.6 -246.28"/></a></g><g id="a_edge11-label"><a xlink:title="Petição -&gt; Petição"><text x="398" y="-252.9" font-family="Times New Roman,serif" font-size="12" text-anchor="middle">1h</text></a></g></g></g></svg>