<?xml version="1.0" encoding="UTF-8" standalone="no"?><!DOCTYPE svg PUBLIC "-//W3C//DTD SVG 1.1//EN" "http://www.w3.org/Graphics/SVG/1.1/DTD/svg11.dtd"><!-- Generated by graphviz version 2.49.3 (20211023.0002) --><!-- Pages: 1 --><svg width="843pt" height="462pt" viewBox="0.00 0.00 843.00 462.00" xmlns="http://www.w3.org/2000/svg" xmlns:xlink="http://www.w3.org/1999/xlink"><g id="graph0" class="graph" transform="scale(1 1) rotate(0) translate(4 458)"><!-- 1569400017503937267 --><g id="node1" class="node"><title>1569400017503937267</title><g id="a_node1"><a xlink:title="Distribuição"><path fill="white" stroke="black" d="M84,-454C84,-454 12,-454 12,-454 6,-454 0,-448 0,-442 0,-442 0,-426 0,-426 0,-420 6,-414 12,-414 12,-414 84,-414 84,-414 90,-414 96,-420 96,-426 96,-426 96,-442 96,-442 96,-448 90,-454 84,-454"/><text text-anchor="middle" x="48" y="-437.4" font-family="Times New Roman,serif" font-size="12.00"> Distribuição &#160;</text><text text-anchor="middle" x="48" y="-424.4" font-family="Times New Roman,serif" font-size="12.00"> 538 movimentos </text></a></g></g><!-- 2477806586160351048 --><g id="node3" class="node"><title>2477806586160351048</title><g id="a_node3"><a xlink:title="Audiência"><path fill="#ffffff" stroke="black" d="M114,-98C114,-98 42,-98 42,-98 36,-98 30,-92 30,-86 30,-86 30,-70 30,-70 30,-64 36,-58 42,-58 42,-58 114,-58 114,-58 120,-58 126,-64 126,-70 126,-70 126,-86 126,-86 126,-92 120,-98 114,-98"/><text text-anchor="middle" x="78" y="-81.4" font-family="Times New Roman,serif" font-size="12.00"> Audiência &#160;</text><text text-anchor="middle" x="78" y="-68.4" font-family="Times New Roman,serif" font-size="12.00"> 209 movimentos </text></a></g></g><!-- 1569400017503937267&#45;&gt;2477806586160351048 --><g id="edge9" class="edge"><title>1569400017503937267&#45;&gt;2477806586160351048</title><g id="a_edge9"><a xlink:title="Distribuição &#45;&gt; Audiência"><path fill="none" stroke="#009600" d="M42.4,-413.84C37.79,-396.33 32,-369.65 32,-346 32,-346 32,-346 32,-166 32,-144.38 43.24,-122.87 54.61,-106.65"/><polygon fill="#009600" stroke="#009600" points="57.72,-108.33 60.87,-98.21 52.1,-104.16 57.72,-108.33"/></a></g><g id="a_edge9&#45;label"><a xlink:title="Distribuição &#45;&gt; Audiência"><text text-anchor="middle" x="42.5" y="-252.9" font-family="Times New Roman,serif" font-size="12.00"> 1m </text></a></g></g><!-- 3481022503272025849 --><g id="node4" class="node"><title>3481022503272025849</title><g id="a_node4"><a xlink:title="Conclusão"><path fill="#ffffff" stroke="black" stroke-width="2.5" d="M392,-365C392,-365 314,-365 314,-365 308,-365 302,-359 302,-353 302,-353 302,-337 302,-337 302,-331 308,-325 314,-325 314,-325 392,-325 392,-325 398,-325 404,-331 404,-337 404,-337 404,-353 404,-353 404,-359 398,-365 392,-365"/><text text-anchor="middle" x="353" y="-348.4" font-family="Times New Roman,serif" font-size="12.00"> Conclusão &#160;</text><text text-anchor="middle" x="353" y="-335.4" font-family="Times New Roman,serif" font-size="12.00"> 3353 movimentos </text></a></g></g><!-- 1569400017503937267&#45;&gt;3481022503272025849 --><g id="edge10" class="edge"><title>1569400017503937267&#45;&gt;3481022503272025849</title><g id="a_edge10"><a xlink:title="Distribuição &#45;&gt; Conclusão"><path fill="none" stroke="#009600" stroke-width="1.54" d="M96.33,-419.21C149.36,-404.09 234.6,-379.77 292.15,-363.36"/><polygon fill="#009600" stroke="#009600" stroke-width="1.54" points="293.19,-366.7 301.85,-360.59 291.27,-359.97 293.19,-366.7"/></a></g><g id="a_edge10&#45;label"><a xlink:title="Distribuição &#45;&gt; Conclusão"><text text-anchor="middle" x="227.5" y="-386.4" font-family="Times New Roman,serif" font-size="12.00"> 2s </text></a></g></g><!-- &#45;7475462392750634986 --><g id="node2" class="node"><title>&#45;7475462392750634986</title><g id="a_node2"><a xlink:title="Definitivo"><path fill="white" stroke="black" d="M194,-40C194,-40 122,-40 122,-40 116,-40 110,-34 110,-28 110,-28 110,-12 110,-12 110,-6 116,0 122,0 122,0 194,0 194,0 200,0 206,-6 206,-12 206,-12 206,-28 206,-28 206,-34 200,-40 194,-40"/><text text-anchor="middle" x="158" y="-23.4" font-family="Times New Roman,serif" font-size="12.00"> Definitivo &#160;</text><text text-anchor="middle" x="158" y="-10.4" font-family="Times New Roman,serif" font-size="12.00"> 564 movimentos </text></a></g></g><!-- &#45;2998375710546834842 --><g id="node12" class="node"><title>&#45;2998375710546834842</title><g id="a_node12"><a xlink:title="Petição"><path fill="#ffffff" stroke="black" stroke-width="3.84" d="M441,-187C441,-187 363,-187 363,-187 357,-187 351,-181 351,-175 351,-175 351,-159 351,-159 351,-153 357,-147 363,-147 363,-147 441,-147 441,-147 447,-147 453,-153 453,-159 453,-159 453,-175 453,-175 453,-181 447,-187 441,-187"/><text text-anchor="middle" x="402" y="-170.4" font-family="Times New Roman,serif" font-size="12.00"> Petição &#160;</text><text text-anchor="middle" x="402" y="-157.4" font-family="Times New Roman,serif" font-size="12.00"> 5154 movimentos </text></a></g></g><!-- &#45;7475462392750634986&#45;&gt;&#45;2998375710546834842 --><g id="edge6" class="edge"><title>&#45;7475462392750634986&#45;&gt;&#45;2998375710546834842</title><g id="a_edge6"><a xlink:title="Definitivo &#45;&gt; Petição"><path fill="none" stroke="#960000" d="M158.31,-40.06C159.53,-56.97 163.7,-81.48 177,-98 215.98,-146.43 288.25,-161.3 340.38,-165.4"/><polygon fill="#960000" stroke="#960000" points="340.31,-168.91 350.52,-166.09 340.78,-161.92 340.31,-168.91"/></a></g><g id="a_edge6&#45;label"><a xlink:title="Definitivo &#45;&gt; Petição"><text text-anchor="middle" x="222.5" y="-119.4" font-family="Times New Roman,serif" font-size="12.00"> 1M </text></a></g></g><!-- &#45;7937369133835899472 --><g id="node5" class="node"><title>&#45;7937369133835899472</title><g id="a_node5"><a xlink:title="Decisão"><path fill="#ffffff" stroke="black" d="M155,-276C155,-276 83,-276 83,-276 77,-276 71,-270 71,-264 71,-264 71,-248 71,-248 71,-242 77,-236 83,-236 83,-236 155,-236 155,-236 161,-236 167,-242 167,-248 167,-248 167,-264 167,-264 167,-270 161,-276 155,-276"/><text text-anchor="middle" x="119" y="-259.4" font-family="Times New Roman,serif" font-size="12.00"> Decisão &#160;</text><text text-anchor="middle" x="119" y="-246.4" font-family="Times New Roman,serif" font-size="12.00"> 363 movimentos </text></a></g></g><!-- 3481022503272025849&#45;&gt;&#45;7937369133835899472 --><g id="edge1" class="edge"><title>3481022503272025849&#45;&gt;&#45;7937369133835899472</title><g id="a_edge1"><a xlink:title="Conclusão &#45;&gt; Decisão"><path fill="none" stroke="#1b9600" d="M301.94,-325.01C264.99,-311.28 215.03,-292.7 176.65,-278.43"/><polygon fill="#1b9600" stroke="#1b9600" points="177.75,-275.11 167.16,-274.9 175.31,-281.67 177.75,-275.11"/></a></g><g id="a_edge1&#45;label"><a xlink:title="Conclusão &#45;&gt; Decisão"><text text-anchor="middle" x="261.5" y="-297.4" font-family="Times New Roman,serif" font-size="12.00"> 3D </text></a></g></g><!-- 7987048985312221378 --><g id="node8" class="node"><title>7987048985312221378</title><g id="a_node8"><a xlink:title="Despacho"><path fill="#ffffff" stroke="black" stroke-width="1.53" d="M275,-276C275,-276 197,-276 197,-276 191,-276 185,-270 185,-264 185,-264 185,-248 185,-248 185,-242 191,-236 197,-236 197,-236 275,-236 275,-236 281,-236 287,-242 287,-248 287,-248 287,-264 287,-264 287,-270 281,-276 275,-276"/><text text-anchor="middle" x="236" y="-259.4" font-family="Times New Roman,serif" font-size="12.00"> Despacho &#160;</text><text text-anchor="middle" x="236" y="-246.4" font-family="Times New Roman,serif" font-size="12.00"> 2053 movimentos </text></a></g></g><!-- 3481022503272025849&#45;&gt;7987048985312221378 --><g id="edge2" class="edge"><title>3481022503272025849&#45;&gt;7987048985312221378</title><g id="a_edge2"><a xlink:title="Conclusão &#45;&gt; Despacho"><path fill="none" stroke="#109600" stroke-width="4.84" d="M327.32,-324.91C310.41,-312.33 288.08,-295.72 269.73,-282.08"/><polygon fill="#109600" stroke="#109600" stroke-width="4.84" points="272.17,-278.62 261.62,-276.05 267.11,-285.41 272.17,-278.62"/></a></g><g id="a_edge2&#45;label"><a xlink:title="Conclusão &#45;&gt; Despacho"><text text-anchor="middle" x="312.5" y="-297.4" font-family="Times New Roman,serif" font-size="12.00"> 1D </text></a></g></g><!-- &#45;7502121929537258044 --><g id="node10" class="node"><title>&#45;7502121929537258044</title><g id="a_node10"><a xlink:title="Julgamento"><path fill="#ffffff" stroke="black" d="M389,-276C389,-276 317,-276 317,-276 311,-276 305,-270 305,-264 305,-264 305,-248 305,-248 305,-242 311,-236 317,-236 317,-236 389,-236 389,-236 395,-236 401,-242 401,-248 401,-248 401,-264 401,-264 401,-270 395,-276 389,-276"/><text text-anchor="middle" x="353" y="-259.4" font-family="Times New Roman,serif" font-size="12.00"> Julgamento &#160;</text><text text-anchor="middle" x="353" y="-246.4" font-family="Times New Roman,serif" font-size="12.00"> 685 movimentos </text></a></g></g><!-- 3481022503272025849&#45;&gt;&#45;7502121929537258044 --><g id="edge3" class="edge"><title>3481022503272025849&#45;&gt;&#45;7502121929537258044</title><g id="a_edge3"><a xlink:title="Conclusão &#45;&gt; Julgamento"><path fill="none" stroke="#209600" stroke-width="1.74" d="M353,-324.69C353,-313.43 353,-298.99 353,-286.35"/><polygon fill="#209600" stroke="#209600" stroke-width="1.74" points="356.5,-286.25 353,-276.25 349.5,-286.25 356.5,-286.25"/></a></g><g id="a_edge3&#45;label"><a xlink:title="Conclusão &#45;&gt; Julgamento"><text text-anchor="middle" x="363.5" y="-297.4" font-family="Times New Roman,serif" font-size="12.00"> 3D </text></a></g></g><!-- 3481022503272025849&#45;&gt;&#45;2998375710546834842 --><g id="edge4" class="edge"><title>3481022503272025849&#45;&gt;&#45;2998375710546834842</title><g id="a_edge4"><a xlink:title="Conclusão &#45;&gt; Petição"><path fill="none" stroke="#209600" d="M375.57,-324.76C388.34,-312.33 403.1,-294.96 410,-276 419.26,-250.53 415.56,-219.49 410.55,-197.24"/><polygon fill="#209600" stroke="#209600" points="413.91,-196.26 408.12,-187.38 407.12,-197.93 413.91,-196.26"/></a></g><g id="a_edge4&#45;label"><a xlink:title="Conclusão &#45;&gt; Petição"><text text-anchor="middle" x="426.5" y="-252.9" font-family="Times New Roman,serif" font-size="12.00"> 3D </text></a></g></g><!-- 4434963139038534310 --><g id="node6" class="node"><title>4434963139038534310</title><g id="a_node6"><a xlink:title="Decurso de Prazo"><path fill="#ffffff" stroke="black" d="M279.5,-98C279.5,-98 198.5,-98 198.5,-98 192.5,-98 186.5,-92 186.5,-86 186.5,-86 186.5,-70 186.5,-70 186.5,-64 192.5,-58 198.5,-58 198.5,-58 279.5,-58 279.5,-58 285.5,-58 291.5,-64 291.5,-70 291.5,-70 291.5,-86 291.5,-86 291.5,-92 285.5,-98 279.5,-98"/><text text-anchor="middle" x="239" y="-81.4" font-family="Times New Roman,serif" font-size="12.00"> Decurso de Prazo &#160;</text><text text-anchor="middle" x="239" y="-68.4" font-family="Times New Roman,serif" font-size="12.00"> 347 movimentos </text></a></g></g><!-- 4434963139038534310&#45;&gt;&#45;2998375710546834842 --><g id="edge5" class="edge"><title>4434963139038534310&#45;&gt;&#45;2998375710546834842</title><g id="a_edge5"><a xlink:title="Decurso de Prazo &#45;&gt; Petição"><path fill="none" stroke="#966300" d="M271.76,-98.22C288.21,-107.71 308.53,-119.21 327,-129 335.38,-133.44 344.36,-138.03 353.1,-142.39"/><polygon fill="#966300" stroke="#966300" points="351.56,-145.54 362.08,-146.84 354.68,-139.26 351.56,-145.54"/></a></g><g id="a_edge5&#45;label"><a xlink:title="Decurso de Prazo &#45;&gt; Petição"><text text-anchor="middle" x="337.5" y="-119.4" font-family="Times New Roman,serif" font-size="12.00"> 7D </text></a></g></g><!-- 1207628978189926492 --><g id="node7" class="node"><title>1207628978189926492</title><g id="a_node7"><a xlink:title="Desarquivamento"><path fill="#ffffff" stroke="black" d="M709,-98C709,-98 631,-98 631,-98 625,-98 619,-92 619,-86 619,-86 619,-70 619,-70 619,-64 625,-58 631,-58 631,-58 709,-58 709,-58 715,-58 721,-64 721,-70 721,-70 721,-86 721,-86 721,-92 715,-98 709,-98"/><text text-anchor="middle" x="670" y="-81.4" font-family="Times New Roman,serif" font-size="12.00"> Desarquivamento &#160;</text><text text-anchor="middle" x="670" y="-68.4" font-family="Times New Roman,serif" font-size="12.00"> 132 movimentos </text></a></g></g><!-- 7987048985312221378&#45;&gt;2477806586160351048 --><g id="edge7" class="edge"><title>7987048985312221378&#45;&gt;2477806586160351048</title><g id="a_edge7"><a xlink:title="Despacho &#45;&gt; Audiência"><path fill="none" stroke="#1a9600" d="M206.84,-235.88C175.13,-213.7 124.99,-174.31 95,-129 90.76,-122.59 87.47,-115.01 84.97,-107.72"/><polygon fill="#1a9600" stroke="#1a9600" points="88.29,-106.63 82.02,-98.09 81.6,-108.68 88.29,-106.63"/></a></g><g id="a_edge7&#45;label"><a xlink:title="Despacho &#45;&gt; Audiência"><text text-anchor="middle" x="154.5" y="-163.9" font-family="Times New Roman,serif" font-size="12.00"> 3D </text></a></g></g><!-- 7987048985312221378&#45;&gt;&#45;2998375710546834842 --><g id="edge8" class="edge"><title>7987048985312221378&#45;&gt;&#45;2998375710546834842</title><g id="a_edge8"><a xlink:title="Despacho &#45;&gt; Petição"><path fill="none" stroke="#967100" d="M269.95,-235.88C286.98,-226.41 307.98,-214.91 327,-205 335.51,-200.57 344.61,-195.96 353.45,-191.56"/><polygon fill="#967100" stroke="#967100" points="355.11,-194.64 362.52,-187.07 352.01,-188.37 355.11,-194.64"/></a></g><g id="a_edge8&#45;label"><a xlink:title="Despacho &#45;&gt; Petição"><text text-anchor="middle" x="337.5" y="-208.4" font-family="Times New Roman,serif" font-size="12.00"> 4D </text></a></g></g><!-- 201821933845037951 --><g id="node9" class="node"><title>201821933845037951</title><g id="a_node9"><a xlink:title="Documento"><path fill="#ffffff" stroke="black" d="M394,-98C394,-98 322,-98 322,-98 316,-98 310,-92 310,-86 310,-86 310,-70 310,-70 310,-64 316,-58 322,-58 322,-58 394,-58 394,-58 400,-58 406,-64 406,-70 406,-70 406,-86 406,-86 406,-92 400,-98 394,-98"/><text text-anchor="middle" x="358" y="-81.4" font-family="Times New Roman,serif" font-size="12.00"> Documento &#160;</text><text text-anchor="middle" x="358" y="-68.4" font-family="Times New Roman,serif" font-size="12.00"> 749 movimentos </text></a></g></g><!-- 201821933845037951&#45;&gt;201821933845037951 --><g id="edge11" class="edge"><title>201821933845037951&#45;&gt;201821933845037951</title><g id="a_edge11"><a xlink:title="Documento &#45;&gt; Documento"><path fill="none" stroke="#019600" d="M406.05,-86.01C416.46,-85.22 424,-82.55 424,-78 424,-75.08 420.9,-72.94 415.94,-71.57"/><polygon fill="#019600" stroke="#019600" points="416.48,-68.11 406.05,-69.99 415.38,-75.02 416.48,-68.11"/></a></g><g id="a_edge11&#45;label"><a xlink:title="Documento &#45;&gt; Documento"><text text-anchor="middle" x="433" y="-74.9" font-family="Times New Roman,serif" font-size="12.00"> 2h </text></a></g></g><!-- 201821933845037951&#45;&gt;&#45;2998375710546834842 --><g id="edge12" class="edge"><title>201821933845037951&#45;&gt;&#45;2998375710546834842</title><g id="a_edge12"><a xlink:title="Documento &#45;&gt; Petição"><path fill="none" stroke="#966d00" d="M370.1,-98.34C373.45,-103.95 376.99,-110.15 380,-116 383.52,-122.84 387.02,-130.37 390.16,-137.46"/><polygon fill="#966d00" stroke="#966d00" points="387,-138.96 394.18,-146.75 393.42,-136.18 387,-138.96"/></a></g><g id="a_edge12&#45;label"><a xlink:title="Documento &#45;&gt; Petição"><text text-anchor="middle" x="396.5" y="-119.4" font-family="Times New Roman,serif" font-size="12.00"> 5D </text></a></g></g><!-- &#45;6066848101526773743 --><g id="node11" class="node"><title>&#45;6066848101526773743</title><g id="a_node11"><a xlink:title="Mandado"><path fill="#ffffff" stroke="black" d="M550,-98C550,-98 472,-98 472,-98 466,-98 460,-92 460,-86 460,-86 460,-70 460,-70 460,-64 466,-58 472,-58 472,-58 550,-58 550,-58 556,-58 562,-64 562,-70 562,-70 562,-86 562,-86 562,-92 556,-98 550,-98"/><text text-anchor="middle" x="511" y="-81.4" font-family="Times New Roman,serif" font-size="12.00"> Mandado &#160;</text><text text-anchor="middle" x="511" y="-68.4" font-family="Times New Roman,serif" font-size="12.00"> 1143 movimentos </text></a></g></g><!-- &#45;6066848101526773743&#45;&gt;&#45;6066848101526773743 --><g id="edge13" class="edge"><title>&#45;6066848101526773743&#45;&gt;&#45;6066848101526773743</title><g id="a_edge13"><a xlink:title="Mandado &#45;&gt; Mandado"><path fill="none" stroke="#0b9600" stroke-width="1.68" d="M562.15,-85.94C572.55,-85.07 580,-82.43 580,-78 580,-75.23 577.09,-73.16 572.37,-71.79"/><polygon fill="#0b9600" stroke="#0b9600" stroke-width="1.68" points="572.6,-68.28 562.15,-70.06 571.43,-75.18 572.6,-68.28"/></a></g><g id="a_edge13&#45;label"><a xlink:title="Mandado &#45;&gt; Mandado"><text text-anchor="middle" x="590.5" y="-74.9" font-family="Times New Roman,serif" font-size="12.00"> 1D </text></a></g></g><!-- &#45;6066848101526773743&#45;&gt;&#45;2998375710546834842 --><g id="edge14" class="edge"><title>&#45;6066848101526773743&#45;&gt;&#45;2998375710546834842</title><g id="a_edge14"><a xlink:title="Mandado &#45;&gt; Petição"><path fill="none" stroke="#966600" d="M499.77,-98.26C493.21,-108.33 484.21,-120.33 474,-129 468.48,-133.69 462.26,-137.99 455.85,-141.87"/><polygon fill="#966600" stroke="#966600" points="453.99,-138.91 447.03,-146.9 457.46,-144.99 453.99,-138.91"/></a></g><g id="a_edge14&#45;label"><a xlink:title="Mandado &#45;&gt; Petição"><text text-anchor="middle" x="496.5" y="-119.4" font-family="Times New Roman,serif" font-size="12.00"> 6D </text></a></g></g><!-- &#45;2998375710546834842&#45;&gt;2477806586160351048 --><g id="edge15" class="edge"><title>&#45;2998375710546834842&#45;&gt;2477806586160351048</title><g id="a_edge15"><a xlink:title="Petição &#45;&gt; Audiência"><path fill="none" stroke="#079600" d="M350.79,-164.47C278.49,-161.47 150.94,-152.89 112,-129 103.46,-123.76 96.56,-115.47 91.26,-107.14"/><polygon fill="#079600" stroke="#079600" points="94.16,-105.16 86.15,-98.23 88.09,-108.64 94.16,-105.16"/></a></g><g id="a_edge15&#45;label"><a xlink:title="Petição &#45;&gt; Audiência"><text text-anchor="middle" x="124" y="-119.4" font-family="Times New Roman,serif" font-size="12.00"> 17h </text></a></g></g><!-- &#45;2998375710546834842&#45;&gt;3481022503272025849 --><g id="edge16" class="edge"><title>&#45;2998375710546834842&#45;&gt;3481022503272025849</title><g id="a_edge16"><a xlink:title="Petição &#45;&gt; Conclusão"><path fill="none" stroke="#967100" stroke-width="5" d="M417.67,-187.29C433.33,-209.02 453.41,-245.32 441,-276 433.73,-293.97 418.62,-308.3 402.95,-319.09"/><polygon fill="#967100" stroke="#967100" stroke-width="5" points="400.26,-315.62 394.23,-324.72 405,-322.97 400.26,-315.62"/></a></g><g id="a_edge16&#45;label"><a xlink:title="Petição &#45;&gt; Conclusão"><text text-anchor="middle" x="455.5" y="-252.9" font-family="Times New Roman,serif" font-size="12.00"> 4D </text></a></g></g><!-- &#45;2998375710546834842&#45;&gt;4434963139038534310 --><g id="edge17" class="edge"><title>&#45;2998375710546834842&#45;&gt;4434963139038534310</title><g id="a_edge17"><a xlink:title="Petição &#45;&gt; Decurso de Prazo"><path fill="none" stroke="#966400" d="M350.89,-157.23C328.16,-151.67 301.89,-142.82 281,-129 272.07,-123.09 264,-114.73 257.39,-106.53"/><polygon fill="#966400" stroke="#966400" points="260.11,-104.33 251.28,-98.49 254.54,-108.57 260.11,-104.33"/></a></g><g id="a_edge17&#45;label"><a xlink:title="Petição &#45;&gt; Decurso de Prazo"><text text-anchor="middle" x="291.5" y="-119.4" font-family="Times New Roman,serif" font-size="12.00"> 7D </text></a></g></g><!-- &#45;2998375710546834842&#45;&gt;1207628978189926492 --><g id="edge18" class="edge"><title>&#45;2998375710546834842&#45;&gt;1207628978189926492</title><g id="a_edge18"><a xlink:title="Petição &#45;&gt; Desarquivamento"><path fill="none" stroke="#965d00" d="M453.04,-149.43C497.42,-135.02 561.81,-114.12 608.92,-98.83"/><polygon fill="#965d00" stroke="#965d00" points="610.26,-102.07 618.69,-95.66 608.1,-95.41 610.26,-102.07"/></a></g><g id="a_edge18&#45;label"><a xlink:title="Petição &#45;&gt; Desarquivamento"><text text-anchor="middle" x="563.5" y="-119.4" font-family="Times New Roman,serif" font-size="12.00"> 8D </text></a></g></g><!-- &#45;2998375710546834842&#45;&gt;7987048985312221378 --><g id="edge19" class="edge"><title>&#45;2998375710546834842&#45;&gt;7987048985312221378</title><g id="a_edge19"><a xlink:title="Petição &#45;&gt; Despacho"><path fill="none" stroke="#967200" d="M385.09,-187.26C375.16,-197.58 361.87,-209.82 348,-218 345.41,-219.53 321.61,-227.45 296.61,-235.57"/><polygon fill="#967200" stroke="#967200" points="295.44,-232.27 287.01,-238.68 297.6,-238.93 295.44,-232.27"/></a></g><g id="a_edge19&#45;label"><a xlink:title="Petição &#45;&gt; Despacho"><text text-anchor="middle" x="377.5" y="-208.4" font-family="Times New Roman,serif" font-size="12.00"> 4D </text></a></g></g><!-- &#45;2998375710546834842&#45;&gt;201821933845037951 --><g id="edge20" class="edge"><title>&#45;2998375710546834842&#45;&gt;201821933845037951</title><g id="a_edge20"><a xlink:title="Petição &#45;&gt; Documento"><path fill="none" stroke="#965c00" d="M369.6,-146.97C363.7,-141.92 358.36,-135.91 355,-129 351.94,-122.69 351.1,-115.4 351.39,-108.37"/><polygon fill="#965c00" stroke="#965c00" points="354.88,-108.72 352.5,-98.39 347.92,-107.95 354.88,-108.72"/></a></g><g id="a_edge20&#45;label"><a xlink:title="Petição &#45;&gt; Documento"><text text-anchor="middle" x="365.5" y="-119.4" font-family="Times New Roman,serif" font-size="12.00"> 8D </text></a></g></g><!-- &#45;2998375710546834842&#45;&gt;&#45;6066848101526773743 --><g id="edge21" class="edge"><title>&#45;2998375710546834842&#45;&gt;&#45;6066848101526773743</title><g id="a_edge21"><a xlink:title="Petição &#45;&gt; Mandado"><path fill="none" stroke="#049600" d="M419.13,-146.91C428.38,-137.13 440.29,-125.33 452,-116 457.34,-111.75 463.19,-107.57 469.07,-103.65"/><polygon fill="#049600" stroke="#049600" points="471.15,-106.47 477.65,-98.09 467.35,-100.59 471.15,-106.47"/></a></g><g id="a_edge21&#45;label"><a xlink:title="Petição &#45;&gt; Mandado"><text text-anchor="middle" x="461" y="-119.4" font-family="Times New Roman,serif" font-size="12.00"> 9h </text></a></g></g><!-- &#45;2998375710546834842&#45;&gt;&#45;2998375710546834842 --><g id="edge22" class="edge"><title>&#45;2998375710546834842&#45;&gt;&#45;2998375710546834842</title><g id="a_edge22"><a xlink:title="Petição &#45;&gt; Petição"><path fill="none" stroke="#009600" stroke-width="4.97" d="M453.15,-174.94C463.55,-174.07 471,-171.43 471,-167 471,-164.23 468.09,-162.16 463.37,-160.79"/><polygon fill="#009600" stroke="#009600" stroke-width="4.97" points="463.74,-156.44 453.15,-159.06 462.29,-165.02 463.74,-156.44"/></a></g><g id="a_edge22&#45;label"><a xlink:title="Petição &#45;&gt; Petição"><text text-anchor="middle" x="480" y="-163.9" font-family="Times New Roman,serif" font-size="12.00"> 1h </text></a></g></g><!-- &#45;1899612676363016532 --><g id="node13" class="node"><title>&#45;1899612676363016532</title><g id="a_node13"><a xlink:title="Remessa"><path fill="#ffffff" stroke="black" d="M823,-98C823,-98 751,-98 751,-98 745,-98 739,-92 739,-86 739,-86 739,-70 739,-70 739,-64 745,-58 751,-58 751,-58 823,-58 823,-58 829,-58 835,-64 835,-70 835,-70 835,-86 835,-86 835,-92 829,-98 823,-98"/><text text-anchor="middle" x="787" y="-81.4" font-family="Times New Roman,serif" font-size="12.00"> Remessa &#160;</text><text text-anchor="middle" x="787" y="-68.4" font-family="Times New Roman,serif" font-size="12.00"> 518 movimentos </text></a></g></g><!-- &#45;2998375710546834842&#45;&gt;&#45;1899612676363016532 --><g id="edge23" class="edge"><title>&#45;2998375710546834842&#45;&gt;&#45;1899612676363016532</title><g id="a_edge23"><a xlink:title="Petição &#45;&gt; Remessa"><path fill="none" stroke="#967400" d="M453.01,-157.34C515.86,-146.25 625.98,-125.44 728.98,-98.13"/><polygon fill="#967400" stroke="#967400" points="730.16,-101.44 738.92,-95.47 728.35,-94.67 730.16,-101.44"/></a></g><g id="a_edge23&#45;label"><a xlink:title="Petição &#45;&gt; Remessa"><text text-anchor="middle" x="660.5" y="-119.4" font-family="Times New Roman,serif" font-size="12.00"> 4D </text></a></g></g><!-- &#45;1899612676363016532&#45;&gt;3481022503272025849 --><g id="edge24" class="edge"><title>&#45;1899612676363016532&#45;&gt;3481022503272025849</title><g id="a_edge24"><a xlink:title="Remessa &#45;&gt; Conclusão"><path fill="none" stroke="#019600" d="M771.58,-98.32C763.16,-108.17 752.19,-119.95 741,-129 619.83,-226.94 577.95,-236.52 439,-307 429.66,-311.74 419.58,-316.43 409.72,-320.81"/><polygon fill="#019600" stroke="#019600" points="408.12,-317.68 400.36,-324.89 410.93,-324.1 408.12,-317.68"/></a></g><g id="a_edge24&#45;label"><a xlink:title="Remessa &#45;&gt; Conclusão"><text text-anchor="middle" x="646" y="-208.4" font-family="Times New Roman,serif" font-size="12.00"> 4h </text></a></g></g><!-- &#45;1899612676363016532&#45;&gt;&#45;2998375710546834842 --><g id="edge25" class="edge"><title>&#45;1899612676363016532&#45;&gt;&#45;2998375710546834842</title><g id="a_edge25"><a xlink:title="Remessa &#45;&gt; Petição"><path fill="none" stroke="#963000" d="M751.16,-98.15C729.65,-108.84 701.42,-121.48 675,-129 603.98,-149.22 519.33,-158.5 463.32,-162.69"/><polygon fill="#963000" stroke="#963000" points="462.93,-159.21 453.2,-163.42 463.43,-166.2 462.93,-159.21"/></a></g><g id="a_edge25&#45;label"><a xlink:title="Remessa &#45;&gt; Petição"><text text-anchor="middle" x="723.5" y="-119.4" font-family="Times New Roman,serif" font-size="12.00"> 23D </text></a></g></g></g></svg>