<?xml version="1.0" encoding="UTF-8" standalone="no"?><!DOCTYPE svg PUBLIC "-//W3C//DTD SVG 1.1//EN" "http://www.w3.org/Graphics/SVG/1.1/DTD/svg11.dtd"><!-- Generated by graphviz version 2.49.3 (20211023.0002) --><!-- Pages: 1 --><svg width="237pt" height="462pt" viewBox="0.00 0.00 237.00 462.00" xmlns="http://www.w3.org/2000/svg" xmlns:xlink="http://www.w3.org/1999/xlink"><g id="graph0" class="graph" transform="scale(1 1) rotate(0) translate(4 458)"><!-- 1894939040614898085 --><g id="node1" class="node"><title>1894939040614898085</title><g id="a_node1"><a xlink:title="Distribuição"><path fill="white" stroke="black" d="M193,-454C193,-454 121,-454 121,-454 115,-454 109,-448 109,-442 109,-442 109,-426 109,-426 109,-420 115,-414 121,-414 121,-414 193,-414 193,-414 199,-414 205,-420 205,-426 205,-426 205,-442 205,-442 205,-448 199,-454 193,-454"/><text text-anchor="middle" x="157" y="-437.4" font-family="Times New Roman,serif" font-size="12.00"> Distribuição &#160;</text><text text-anchor="middle" x="157" y="-424.4" font-family="Times New Roman,serif" font-size="12.00"> 538 movimentos </text></a></g></g><!-- &#45;2366248699620310184 --><g id="node3" class="node"><title>&#45;2366248699620310184</title><g id="a_node3"><a xlink:title="Conclusão"><path fill="#ffffff" stroke="black" stroke-width="2.5" d="M196,-365C196,-365 118,-365 118,-365 112,-365 106,-359 106,-353 106,-353 106,-337 106,-337 106,-331 112,-325 118,-325 118,-325 196,-325 196,-325 202,-325 208,-331 208,-337 208,-337 208,-353 208,-353 208,-359 202,-365 196,-365"/><text text-anchor="middle" x="157" y="-348.4" font-family="Times New Roman,serif" font-size="12.00"> Conclusão &#160;</text><text text-anchor="middle" x="157" y="-335.4" font-family="Times New Roman,serif" font-size="12.00"> 3353 movimentos </text></a></g></g><!-- 1894939040614898085&#45;&gt;&#45;2366248699620310184 --><g id="edge2" class="edge"><title>1894939040614898085&#45;&gt;&#45;2366248699620310184</title><g id="a_edge2"><a xlink:title="Distribuição &#45;&gt; Conclusão"><path fill="none" stroke="#009600" d="M157,-413.69C157,-402.43 157,-387.99 157,-375.35"/><polygon fill="#009600" stroke="#009600" points="160.5,-375.25 157,-365.25 153.5,-375.25 160.5,-375.25"/></a></g><g id="a_edge2&#45;label"><a xlink:title="Distribuição &#45;&gt; Conclusão"><text text-anchor="middle" x="165.5" y="-386.4" font-family="Times New Roman,serif" font-size="12.00"> 2s </text></a></g></g><!-- &#45;3781142108983599563 --><g id="node2" class="node"><title>&#45;3781142108983599563</title><g id="a_node2"><a xlink:title="Definitivo"><path fill="white" stroke="black" d="M84,-40C84,-40 12,-40 12,-40 6,-40 0,-34 0,-28 0,-28 0,-12 0,-12 0,-6 6,0 12,0 12,0 84,0 84,0 90,0 96,-6 96,-12 96,-12 96,-28 96,-28 96,-34 90,-40 84,-40"/><text text-anchor="middle" x="48" y="-23.4" font-family="Times New Roman,serif" font-size="12.00"> Definitivo &#160;</text><text text-anchor="middle" x="48" y="-10.4" font-family="Times New Roman,serif" font-size="12.00"> 564 movimentos </text></a></g></g><!-- 4196473730345433951 --><g id="node5" class="node"><title>4196473730345433951</title><g id="a_node5"><a xlink:title="Mero expediente"><path fill="#ffffff" stroke="black" stroke-width="1.52" d="M109,-276C109,-276 31,-276 31,-276 25,-276 19,-270 19,-264 19,-264 19,-248 19,-248 19,-242 25,-236 31,-236 31,-236 109,-236 109,-236 115,-236 121,-242 121,-248 121,-248 121,-264 121,-264 121,-270 115,-276 109,-276"/><text text-anchor="middle" x="70" y="-259.4" font-family="Times New Roman,serif" font-size="12.00"> Mero expediente &#160;</text><text text-anchor="middle" x="70" y="-246.4" font-family="Times New Roman,serif" font-size="12.00"> 2048 movimentos </text></a></g></g><!-- &#45;2366248699620310184&#45;&gt;4196473730345433951 --><g id="edge1" class="edge"><title>&#45;2366248699620310184&#45;&gt;4196473730345433951</title><g id="a_edge1"><a xlink:title="Conclusão &#45;&gt; Mero expediente"><path fill="none" stroke="#319600" stroke-width="3.81" d="M137.69,-324.69C125.53,-312.53 109.66,-296.66 96.35,-283.35"/><polygon fill="#319600" stroke="#319600" stroke-width="3.81" points="98.8,-280.85 89.25,-276.25 93.85,-285.8 98.8,-280.85"/></a></g><g id="a_edge1&#45;label"><a xlink:title="Conclusão &#45;&gt; Mero expediente"><text text-anchor="middle" x="129.5" y="-297.4" font-family="Times New Roman,serif" font-size="12.00"> 1D </text></a></g></g><!-- &#45;2142120187836555337 --><g id="node4" class="node"><title>&#45;2142120187836555337</title><g id="a_node4"><a xlink:title="Expedição de documento"><path fill="#ffffff" stroke="black" stroke-width="5" d="M127.5,-187C127.5,-187 12.5,-187 12.5,-187 6.5,-187 0.5,-181 0.5,-175 0.5,-175 0.5,-159 0.5,-159 0.5,-153 6.5,-147 12.5,-147 12.5,-147 127.5,-147 127.5,-147 133.5,-147 139.5,-153 139.5,-159 139.5,-159 139.5,-175 139.5,-175 139.5,-181 133.5,-187 127.5,-187"/><text text-anchor="middle" x="70" y="-170.4" font-family="Times New Roman,serif" font-size="12.00"> Expedição de documento &#160;</text><text text-anchor="middle" x="70" y="-157.4" font-family="Times New Roman,serif" font-size="12.00"> 6718 movimentos </text></a></g></g><!-- &#45;2142120187836555337&#45;&gt;&#45;3781142108983599563 --><g id="edge4" class="edge"><title>&#45;2142120187836555337&#45;&gt;&#45;3781142108983599563</title><g id="a_edge4"><a xlink:title="Expedição de documento &#45;&gt; Definitivo"><path fill="none" stroke="#009600" d="M64.25,-146.93C62.68,-141.2 61.12,-134.88 60,-129 55.01,-102.68 51.86,-72.33 50.05,-50.51"/><polygon fill="#009600" stroke="#009600" points="53.52,-49.95 49.24,-40.25 46.54,-50.49 53.52,-49.95"/></a></g><g id="a_edge4&#45;label"><a xlink:title="Expedição de documento &#45;&gt; Definitivo"><text text-anchor="middle" x="70.5" y="-119.4" font-family="Times New Roman,serif" font-size="12.00"> 1m </text></a></g></g><!-- &#45;2142120187836555337&#45;&gt;&#45;2366248699620310184 --><g id="edge3" class="edge"><title>&#45;2142120187836555337&#45;&gt;&#45;2366248699620310184</title><g id="a_edge3"><a xlink:title="Expedição de documento &#45;&gt; Conclusão"><path fill="none" stroke="#009600" stroke-width="1.32" d="M91.5,-187.17C104.44,-199.84 120.26,-217.47 130,-236 143.04,-260.81 149.97,-292.17 153.53,-314.7"/><polygon fill="#009600" stroke="#009600" stroke-width="1.32" points="150.08,-315.28 154.98,-324.68 157.01,-314.28 150.08,-315.28"/></a></g><g id="a_edge3&#45;label"><a xlink:title="Expedição de documento &#45;&gt; Conclusão"><text text-anchor="middle" x="156.5" y="-252.9" font-family="Times New Roman,serif" font-size="12.00"> 1m </text></a></g></g><!-- &#45;2142120187836555337&#45;&gt;&#45;2142120187836555337 --><g id="edge5" class="edge"><title>&#45;2142120187836555337&#45;&gt;&#45;2142120187836555337</title><g id="a_edge5"><a xlink:title="Expedição de documento &#45;&gt; Expedição de documento"><path fill="none" stroke="#965f00" stroke-width="4.91" d="M139.67,-174.52C150.29,-173.37 157.5,-170.87 157.5,-167 157.5,-164.52 154.54,-162.6 149.62,-161.24"/><polygon fill="#965f00" stroke="#965f00" stroke-width="4.91" points="150.27,-156.99 139.67,-159.48 148.77,-165.46 150.27,-156.99"/></a></g><g id="a_edge5&#45;label"><a xlink:title="Expedição de documento &#45;&gt; Expedição de documento"><text text-anchor="middle" x="168" y="-163.9" font-family="Times New Roman,serif" font-size="12.00"> 2D </text></a></g></g><!-- &#45;3301837613698818645 --><g id="node6" class="node"><title>&#45;3301837613698818645</title><g id="a_node6"><a xlink:title="Petição"><path fill="#ffffff" stroke="black" stroke-width="3.84" d="M181,-98C181,-98 103,-98 103,-98 97,-98 91,-92 91,-86 91,-86 91,-70 91,-70 91,-64 97,-58 103,-58 103,-58 181,-58 181,-58 187,-58 193,-64 193,-70 193,-70 193,-86 193,-86 193,-92 187,-98 181,-98"/><text text-anchor="middle" x="142" y="-81.4" font-family="Times New Roman,serif" font-size="12.00"> Petição &#160;</text><text text-anchor="middle" x="142" y="-68.4" font-family="Times New Roman,serif" font-size="12.00"> 5154 movimentos </text></a></g></g><!-- &#45;2142120187836555337&#45;&gt;&#45;3301837613698818645 --><g id="edge6" class="edge"><title>&#45;2142120187836555337&#45;&gt;&#45;3301837613698818645</title><g id="a_edge6"><a xlink:title="Expedição de documento &#45;&gt; Petição"><path fill="none" stroke="#960000" stroke-width="5" d="M76.3,-146.71C80.13,-136.86 85.69,-125.08 93,-116 96.22,-112 99.96,-108.2 103.91,-104.66"/><polygon fill="#960000" stroke="#960000" stroke-width="5" points="106.79,-107.95 111.69,-98.2 101.2,-101.22 106.79,-107.95"/></a></g><g id="a_edge6&#45;label"><a xlink:title="Expedição de documento &#45;&gt; Petição"><text text-anchor="middle" x="106.5" y="-119.4" font-family="Times New Roman,serif" font-size="12.00"> 14D </text></a></g></g><!-- 4196473730345433951&#45;&gt;&#45;2142120187836555337 --><g id="edge7" class="edge"><title>4196473730345433951&#45;&gt;&#45;2142120187836555337</title><g id="a_edge7"><a xlink:title="Mero expediente &#45;&gt; Expedição de documento"><path fill="none" stroke="#964500" stroke-width="3.35" d="M70,-235.69C70,-224.43 70,-209.99 70,-197.35"/><polygon fill="#964500" stroke="#964500" stroke-width="3.35" points="73.5,-197.25 70,-187.25 66.5,-197.25 73.5,-197.25"/></a></g><g id="a_edge7&#45;label"><a xlink:title="Mero expediente &#45;&gt; Expedição de documento"><text text-anchor="middle" x="80.5" y="-208.4" font-family="Times New Roman,serif" font-size="12.00"> 3D </text></a></g></g><!-- &#45;3301837613698818645&#45;&gt;&#45;2366248699620310184 --><g id="edge8" class="edge"><title>&#45;3301837613698818645&#45;&gt;&#45;2366248699620310184</title><g id="a_edge8"><a xlink:title="Petição &#45;&gt; Conclusão"><path fill="none" stroke="#963b00" stroke-width="3.98" d="M159.57,-98.17C170.06,-110.96 182.4,-128.74 188,-147 205.83,-205.19 184.56,-276.36 169.47,-315.24"/><polygon fill="#963b00" stroke="#963b00" stroke-width="3.98" points="166.09,-314.27 165.61,-324.86 172.59,-316.88 166.09,-314.27"/></a></g><g id="a_edge8&#45;label"><a xlink:title="Petição &#45;&gt; Conclusão"><text text-anchor="middle" x="204.5" y="-208.4" font-family="Times New Roman,serif" font-size="12.00"> 4D </text></a></g></g><!-- &#45;3301837613698818645&#45;&gt;&#45;2142120187836555337 --><g id="edge9" class="edge"><title>&#45;3301837613698818645&#45;&gt;&#45;2142120187836555337</title><g id="a_edge9"><a xlink:title="Petição &#45;&gt; Expedição de documento"><path fill="none" stroke="#962d00" stroke-width="1.65" d="M136.16,-98.33C132.56,-108.18 127.22,-119.96 120,-129 116.75,-133.06 112.96,-136.9 108.94,-140.47"/><polygon fill="#962d00" stroke="#962d00" stroke-width="1.65" points="106.54,-137.91 101.02,-146.95 110.97,-143.33 106.54,-137.91"/></a></g><g id="a_edge9&#45;label"><a xlink:title="Petição &#45;&gt; Expedição de documento"><text text-anchor="middle" x="139.5" y="-119.4" font-family="Times New Roman,serif" font-size="12.00"> 6D </text></a></g></g><!-- &#45;3301837613698818645&#45;&gt;&#45;3301837613698818645 --><g id="edge10" class="edge"><title>&#45;3301837613698818645&#45;&gt;&#45;3301837613698818645</title><g id="a_edge10"><a xlink:title="Petição &#45;&gt; Petição"><path fill="none" stroke="#029600" stroke-width="3.65" d="M193.15,-85.94C203.55,-85.07 211,-82.43 211,-78 211,-75.23 208.09,-73.16 203.37,-71.79"/><polygon fill="#029600" stroke="#029600" stroke-width="3.65" points="203.6,-68.28 193.15,-70.06 202.43,-75.18 203.6,-68.28"/></a></g><g id="a_edge10&#45;label"><a xlink:title="Petição &#45;&gt; Petição"><text text-anchor="middle" x="220" y="-74.9" font-family="Times New Roman,serif" font-size="12.00"> 1h </text></a></g></g></g></svg>