<svg xmlns="http://www.w3.org/2000/svg" xmlns:xlink="http://www.w3.org/1999/xlink" width="649pt" height="640pt" viewBox="0 0 649 640"><g id="graph0" class="graph" transform="scale(1 1) rotate(0) translate(4 636)"><g id="node1" class="node"><title>1569400017503937267</title><g id="a_node1"><a xlink:title="Distribuição"><path fill="#fff" stroke="#000" d="M326,-632C326,-632 254,-632 254,-632 248,-632 242,-626 242,-620 242,-620 242,-604 242,-604 242,-598 248,-592 254,-592 254,-592 326,-592 326,-592 332,-592 338,-598 338,-604 338,-604 338,-620 338,-620 338,-626 332,-632 326,-632"/><text x="290" y="-615.4" font-family="Times New Roman,serif" font-size="12" text-anchor="middle">Distribuição</text><text x="290" y="-602.4" font-family="Times New Roman,serif" font-size="12" text-anchor="middle">538 movimentos</text></a></g></g><g id="node3" class="node"><title>3481022503272025849</title><g id="a_node3"><a xlink:title="Conclusão"><path fill="#fff" stroke="#000" stroke-width="2.5" d="M329,-543C329,-543 251,-543 251,-543 245,-543 239,-537 239,-531 239,-531 239,-515 239,-515 239,-509 245,-503 251,-503 251,-503 329,-503 329,-503 335,-503 341,-509 341,-515 341,-515 341,-531 341,-531 341,-537 335,-543 329,-543"/><text x="290" y="-526.4" font-family="Times New Roman,serif" font-size="12" text-anchor="middle">Conclusão</text><text x="290" y="-513.4" font-family="Times New Roman,serif" font-size="12" text-anchor="middle">3353 movimentos</text></a></g></g><g id="edge7" class="edge"><title>1569400017503937267-&gt;3481022503272025849</title><g id="a_edge7"><a xlink:title="Distribuição -&gt; Conclusão"><path fill="none" stroke="#009600" d="M290,-591.69C290,-580.43 290,-565.99 290,-553.35"/><polygon fill="#009600" stroke="#009600" points="293.5 -553.25 290 -543.25 286.5 -553.25 293.5 -553.25"/></a></g><g id="a_edge7-label"><a xlink:title="Distribuição -&gt; Conclusão"><text x="298.5" y="-564.4" font-family="Times New Roman,serif" font-size="12" text-anchor="middle">2s</text></a></g></g><g id="node2" class="node"><title>-7475462392750634986</title><g id="a_node2"><a xlink:title="Definitivo"><path fill="#fff" stroke="#000" d="M629,-40C629,-40 557,-40 557,-40 551,-40 545,-34 545,-28 545,-28 545,-12 545,-12 545,-6 551,0 557,0 557,0 629,0 629,0 635,0 641,-6 641,-12 641,-12 641,-28 641,-28 641,-34 635,-40 629,-40"/><text x="593" y="-23.4" font-family="Times New Roman,serif" font-size="12" text-anchor="middle">Definitivo</text><text x="593" y="-10.4" font-family="Times New Roman,serif" font-size="12" text-anchor="middle">564 movimentos</text></a></g></g><g id="node4" class="node"><title>7987048985312221378</title><g id="a_node4"><a xlink:title="Despacho"><path fill="#fff" stroke="#000" stroke-width="1.53" d="M149,-454C149,-454 71,-454 71,-454 65,-454 59,-448 59,-442 59,-442 59,-426 59,-426 59,-420 65,-414 71,-414 71,-414 149,-414 149,-414 155,-414 161,-420 161,-426 161,-426 161,-442 161,-442 161,-448 155,-454 149,-454"/><text x="110" y="-437.4" font-family="Times New Roman,serif" font-size="12" text-anchor="middle">Despacho</text><text x="110" y="-424.4" font-family="Times New Roman,serif" font-size="12" text-anchor="middle">2053 movimentos</text></a></g></g><g id="edge1" class="edge"><title>3481022503272025849-&gt;7987048985312221378</title><g id="a_edge1"><a xlink:title="Conclusão -&gt; Despacho"><path fill="none" stroke="#219600" stroke-width="3.99" d="M250.5,-502.91C223.42,-489.82 187.32,-472.37 158.49,-458.44"/><polygon fill="#219600" stroke="#219600" stroke-width="3.99" points="159.94 -455.25 149.41 -454.05 156.89 -461.55 159.94 -455.25"/></a></g><g id="a_edge1-label"><a xlink:title="Conclusão -&gt; Despacho"><text x="221.5" y="-475.4" font-family="Times New Roman,serif" font-size="12" text-anchor="middle">1D</text></a></g></g><g id="node6" class="node"><title>4422747661767652410</title><g id="a_node6"><a xlink:title="Expedição de documento"><path fill="#fff" stroke="#000" stroke-width="5" d="M368.5,-365C368.5,-365 253.5,-365 253.5,-365 247.5,-365 241.5,-359 241.5,-353 241.5,-353 241.5,-337 241.5,-337 241.5,-331 247.5,-325 253.5,-325 253.5,-325 368.5,-325 368.5,-325 374.5,-325 380.5,-331 380.5,-337 380.5,-337 380.5,-353 380.5,-353 380.5,-359 374.5,-365 368.5,-365"/><text x="311" y="-348.4" font-family="Times New Roman,serif" font-size="12" text-anchor="middle">Expedição de documento</text><text x="311" y="-335.4" font-family="Times New Roman,serif" font-size="12" text-anchor="middle">6718 movimentos</text></a></g></g><g id="edge2" class="edge"><title>3481022503272025849-&gt;4422747661767652410</title><g id="a_edge2"><a xlink:title="Conclusão -&gt; Expedição de documento"><path fill="none" stroke="#964400" d="M310.92,-502.92C316.02,-497.5 321.12,-491.33 325,-485 332.63,-472.53 333.52,-468.41 336,-454 339.02,-436.48 339.02,-431.52 336,-414 333.52,-399.59 330.03,-396.73 325,-383 324,-380.28 322.95,-377.45 321.9,-374.62"/><polygon fill="#964400" stroke="#964400" points="325.14 -373.3 318.34 -365.18 318.59 -375.77 325.14 -373.3"/></a></g><g id="a_edge2-label"><a xlink:title="Conclusão -&gt; Expedição de documento"><text x="348.5" y="-430.9" font-family="Times New Roman,serif" font-size="12" text-anchor="middle">6D</text></a></g></g><g id="node7" class="node"><title>-7502121929537258044</title><g id="a_node7"><a xlink:title="Julgamento"><path fill="#fff" stroke="#000" d="M263,-454C263,-454 191,-454 191,-454 185,-454 179,-448 179,-442 179,-442 179,-426 179,-426 179,-420 185,-414 191,-414 191,-414 263,-414 263,-414 269,-414 275,-420 275,-426 275,-426 275,-442 275,-442 275,-448 269,-454 263,-454"/><text x="227" y="-437.4" font-family="Times New Roman,serif" font-size="12" text-anchor="middle">Julgamento</text><text x="227" y="-424.4" font-family="Times New Roman,serif" font-size="12" text-anchor="middle">685 movimentos</text></a></g></g><g id="edge3" class="edge"><title>3481022503272025849-&gt;-7502121929537258044</title><g id="a_edge3"><a xlink:title="Conclusão -&gt; Julgamento"><path fill="none" stroke="#3a9600" d="M276.02,-502.69C267.45,-490.87 256.36,-475.54 246.89,-462.46"/><polygon fill="#3a9600" stroke="#3a9600" points="249.64 -460.3 240.94 -454.25 243.97 -464.41 249.64 -460.3"/></a></g><g id="a_edge3-label"><a xlink:title="Conclusão -&gt; Julgamento"><text x="272.5" y="-475.4" font-family="Times New Roman,serif" font-size="12" text-anchor="middle">3D</text></a></g></g><g id="node9" class="node"><title>-2998375710546834842</title><g id="a_node9"><a xlink:title="Petição"><path fill="#fff" stroke="#000" stroke-width="3.84" d="M350,-187C350,-187 272,-187 272,-187 266,-187 260,-181 260,-175 260,-175 260,-159 260,-159 260,-153 266,-147 272,-147 272,-147 350,-147 350,-147 356,-147 362,-153 362,-159 362,-159 362,-175 362,-175 362,-181 356,-187 350,-187"/><text x="311" y="-170.4" font-family="Times New Roman,serif" font-size="12" text-anchor="middle">Petição</text><text x="311" y="-157.4" font-family="Times New Roman,serif" font-size="12" text-anchor="middle">5154 movimentos</text></a></g></g><g id="edge4" class="edge"><title>3481022503272025849-&gt;-2998375710546834842</title><g id="a_edge4"><a xlink:title="Conclusão -&gt; Petição"><path fill="none" stroke="#965c00" d="M238.82,-517.23C155.57,-508.04 0,-484.28 0,-435 0,-435 0,-435 0,-255 0,-203.65 159.25,-181.24 249.84,-172.65"/><polygon fill="#965c00" stroke="#965c00" points="250.35 -176.11 259.99 -171.71 249.71 -169.14 250.35 -176.11"/></a></g><g id="a_edge4-label"><a xlink:title="Conclusão -&gt; Petição"><text x="10.5" y="-341.9" font-family="Times New Roman,serif" font-size="12" text-anchor="middle">3D</text></a></g></g><g id="edge5" class="edge"><title>7987048985312221378-&gt;4422747661767652410</title><g id="a_edge5"><a xlink:title="Despacho -&gt; Expedição de documento"><path fill="none" stroke="#3a9600" stroke-width="3.46" d="M154.11,-413.91C184.61,-400.71 225.36,-383.07 257.68,-369.08"/><polygon fill="#3a9600" stroke="#3a9600" stroke-width="3.46" points="259.21 -372.23 266.99 -365.05 256.43 -365.81 259.21 -372.23"/></a></g><g id="a_edge5-label"><a xlink:title="Despacho -&gt; Expedição de documento"><text x="233.5" y="-386.4" font-family="Times New Roman,serif" font-size="12" text-anchor="middle">3D</text></a></g></g><g id="edge6" class="edge"><title>7987048985312221378-&gt;-2998375710546834842</title><g id="a_edge6"><a xlink:title="Despacho -&gt; Petição"><path fill="none" stroke="#965400" d="M103.19,-413.92C91.46,-378.01 70.67,-298.39 92,-236 97.64,-219.51 101.14,-214.1 116,-205 156.22,-180.35 209.19,-171.49 249.77,-168.57"/><polygon fill="#965400" stroke="#965400" points="250.04 -172.06 259.8 -167.95 249.61 -165.07 250.04 -172.06"/></a></g><g id="a_edge6-label"><a xlink:title="Despacho -&gt; Petição"><text x="93.5" y="-297.4" font-family="Times New Roman,serif" font-size="12" text-anchor="middle">4D</text></a></g></g><g id="node5" class="node"><title>201821933845037951</title><g id="a_node5"><a xlink:title="Documento"><path fill="#fff" stroke="#000" d="M477,-98C477,-98 405,-98 405,-98 399,-98 393,-92 393,-86 393,-86 393,-70 393,-70 393,-64 399,-58 405,-58 405,-58 477,-58 477,-58 483,-58 489,-64 489,-70 489,-70 489,-86 489,-86 489,-92 483,-98 477,-98"/><text x="441" y="-81.4" font-family="Times New Roman,serif" font-size="12" text-anchor="middle">Documento</text><text x="441" y="-68.4" font-family="Times New Roman,serif" font-size="12" text-anchor="middle">749 movimentos</text></a></g></g><g id="edge8" class="edge"><title>201821933845037951-&gt;4422747661767652410</title><g id="a_edge8"><a xlink:title="Documento -&gt; Expedição de documento"><path fill="none" stroke="#962c00" d="M467.74,-98.25C473.24,-103.42 478.44,-109.42 482,-116 522.5,-190.79 548.59,-241.77 494,-307 480.49,-323.14 433.58,-332.43 390.64,-337.66"/><polygon fill="#962c00" stroke="#962c00" points="390.23 -334.19 380.7 -338.81 391.04 -341.14 390.23 -334.19"/></a></g><g id="a_edge8-label"><a xlink:title="Documento -&gt; Expedição de documento"><text x="537.5" y="-208.4" font-family="Times New Roman,serif" font-size="12" text-anchor="middle">11D</text></a></g></g><g id="edge9" class="edge"><title>201821933845037951-&gt;-2998375710546834842</title><g id="a_edge9"><a xlink:title="Documento -&gt; Petição"><path fill="none" stroke="#964e00" d="M400.67,-98.04C390.41,-103.41 379.58,-109.56 370,-116 359.29,-123.2 348.31,-132.04 338.77,-140.27"/><polygon fill="#964e00" stroke="#964e00" points="336.32 -137.76 331.13 -146.99 340.95 -143.01 336.32 -137.76"/></a></g><g id="a_edge9-label"><a xlink:title="Documento -&gt; Petição"><text x="380.5" y="-119.4" font-family="Times New Roman,serif" font-size="12" text-anchor="middle">5D</text></a></g></g><g id="edge11" class="edge"><title>4422747661767652410-&gt;-7475462392750634986</title><g id="a_edge11"><a xlink:title="Expedição de documento -&gt; Definitivo"><path fill="none" stroke="#009600" d="M380.73,-336.94C429.9,-330.9 490.65,-320.95 512,-307 597.38,-251.22 599.21,-111.11 595.6,-50.12"/><polygon fill="#009600" stroke="#009600" points="599.09 -49.76 594.91 -40.03 592.1 -50.24 599.09 -49.76"/></a></g><g id="a_edge11-label"><a xlink:title="Expedição de documento -&gt; Definitivo"><text x="590.5" y="-208.4" font-family="Times New Roman,serif" font-size="12" text-anchor="middle">1m</text></a></g></g><g id="edge10" class="edge"><title>4422747661767652410-&gt;3481022503272025849</title><g id="a_edge10"><a xlink:title="Expedição de documento -&gt; Conclusão"><path fill="none" stroke="#009600" d="M308.72,-365.15C305.04,-395.94 297.79,-456.69 293.47,-492.88"/><polygon fill="#009600" stroke="#009600" points="290 -492.49 292.29 -502.83 296.95 -493.32 290 -492.49"/></a></g><g id="a_edge10-label"><a xlink:title="Expedição de documento -&gt; Conclusão"><text x="312.5" y="-430.9" font-family="Times New Roman,serif" font-size="12" text-anchor="middle">1m</text></a></g></g><g id="edge12" class="edge"><title>4422747661767652410-&gt;201821933845037951</title><g id="a_edge12"><a xlink:title="Expedição de documento -&gt; Documento"><path fill="none" stroke="#960000" d="M380.78,-330.12C410.83,-320.31 443.11,-303.76 461,-276 494.38,-224.22 471.22,-148.38 454.33,-107.56"/><polygon fill="#960000" stroke="#960000" points="457.47 -106.01 450.31 -98.2 451.04 -108.77 457.47 -106.01"/></a></g><g id="a_edge12-label"><a xlink:title="Expedição de documento -&gt; Documento"><text x="491.5" y="-208.4" font-family="Times New Roman,serif" font-size="12" text-anchor="middle">24D</text></a></g></g><g id="edge13" class="edge"><title>4422747661767652410-&gt;4422747661767652410</title><g id="a_edge13"><a xlink:title="Expedição de documento -&gt; Expedição de documento"><path fill="none" stroke="#259600" stroke-width="5" d="M380.67,-352.52C391.29,-351.37 398.5,-348.87 398.5,-345 398.5,-342.52 395.54,-340.6 390.62,-339.24"/><polygon fill="#259600" stroke="#259600" stroke-width="5" points="391.28 -334.92 380.67 -337.48 389.76 -343.53 391.28 -334.92"/></a></g><g id="a_edge13-label"><a xlink:title="Expedição de documento -&gt; Expedição de documento"><text x="409" y="-341.9" font-family="Times New Roman,serif" font-size="12" text-anchor="middle">2D</text></a></g></g><g id="node8" class="node"><title>-6066848101526773743</title><g id="a_node8"><a xlink:title="Mandado"><path fill="#fff" stroke="#000" d="M224,-276C224,-276 146,-276 146,-276 140,-276 134,-270 134,-264 134,-264 134,-248 134,-248 134,-242 140,-236 146,-236 146,-236 224,-236 224,-236 230,-236 236,-242 236,-248 236,-248 236,-264 236,-264 236,-270 230,-276 224,-276"/><text x="185" y="-259.4" font-family="Times New Roman,serif" font-size="12" text-anchor="middle">Mandado</text><text x="185" y="-246.4" font-family="Times New Roman,serif" font-size="12" text-anchor="middle">1143 movimentos</text></a></g></g><g id="edge14" class="edge"><title>4422747661767652410-&gt;-6066848101526773743</title><g id="a_edge14"><a xlink:title="Expedição de documento -&gt; Mandado"><path fill="none" stroke="#009600" d="M283.35,-324.91C265.05,-312.27 240.87,-295.57 221.06,-281.9"/><polygon fill="#009600" stroke="#009600" points="222.8 -278.85 212.59 -276.05 218.83 -284.61 222.8 -278.85"/></a></g><g id="a_edge14-label"><a xlink:title="Expedição de documento -&gt; Mandado"><text x="266.5" y="-297.4" font-family="Times New Roman,serif" font-size="12" text-anchor="middle">10s</text></a></g></g><g id="edge15" class="edge"><title>4422747661767652410-&gt;-2998375710546834842</title><g id="a_edge15"><a xlink:title="Expedição de documento -&gt; Petição"><path fill="none" stroke="#962000" stroke-width="3.8" d="M311,-324.83C311,-294.15 311,-233.79 311,-197.56"/><polygon fill="#962000" stroke="#962000" stroke-width="3.8" points="314.5 -197.15 311 -187.15 307.5 -197.15 314.5 -197.15"/></a></g><g id="a_edge15-label"><a xlink:title="Expedição de documento -&gt; Petição"><text x="324.5" y="-252.9" font-family="Times New Roman,serif" font-size="12" text-anchor="middle">14D</text></a></g></g><g id="node10" class="node"><title>-1899612676363016532</title><g id="a_node10"><a xlink:title="Remessa"><path fill="#fff" stroke="#000" d="M440,-276C440,-276 368,-276 368,-276 362,-276 356,-270 356,-264 356,-264 356,-248 356,-248 356,-242 362,-236 368,-236 368,-236 440,-236 440,-236 446,-236 452,-242 452,-248 452,-248 452,-264 452,-264 452,-270 446,-276 440,-276"/><text x="404" y="-259.4" font-family="Times New Roman,serif" font-size="12" text-anchor="middle">Remessa</text><text x="404" y="-246.4" font-family="Times New Roman,serif" font-size="12" text-anchor="middle">518 movimentos</text></a></g></g><g id="edge16" class="edge"><title>4422747661767652410-&gt;-1899612676363016532</title><g id="a_edge16"><a xlink:title="Expedição de documento -&gt; Remessa"><path fill="none" stroke="#019600" d="M331.64,-324.69C344.64,-312.53 361.6,-296.66 375.83,-283.35"/><polygon fill="#019600" stroke="#019600" points="378.51 -285.64 383.42 -276.25 373.72 -280.53 378.51 -285.64"/></a></g><g id="a_edge16-label"><a xlink:title="Expedição de documento -&gt; Remessa"><text x="372" y="-297.4" font-family="Times New Roman,serif" font-size="12" text-anchor="middle">1h</text></a></g></g><g id="edge17" class="edge"><title>-7502121929537258044-&gt;4422747661767652410</title><g id="a_edge17"><a xlink:title="Julgamento -&gt; Expedição de documento"><path fill="none" stroke="#2f9600" stroke-width="1.13" d="M245.64,-413.69C257.28,-401.64 272.42,-385.96 285.2,-372.72"/><polygon fill="#2f9600" stroke="#2f9600" stroke-width="1.13" points="287.98 -374.88 292.41 -365.25 282.95 -370.02 287.98 -374.88"/></a></g><g id="a_edge17-label"><a xlink:title="Julgamento -&gt; Expedição de documento"><text x="284.5" y="-386.4" font-family="Times New Roman,serif" font-size="12" text-anchor="middle">2D</text></a></g></g><g id="edge18" class="edge"><title>-6066848101526773743-&gt;4422747661767652410</title><g id="a_edge18"><a xlink:title="Mandado -&gt; Expedição de documento"><path fill="none" stroke="#389600" d="M193.21,-276.22C198.44,-286.53 206.1,-298.77 216,-307 222.03,-312.01 228.82,-316.4 235.92,-320.22"/><polygon fill="#389600" stroke="#389600" points="234.54 -323.45 245.05 -324.78 237.66 -317.18 234.54 -323.45"/></a></g><g id="a_edge18-label"><a xlink:title="Mandado -&gt; Expedição de documento"><text x="226.5" y="-297.4" font-family="Times New Roman,serif" font-size="12" text-anchor="middle">3D</text></a></g></g><g id="edge19" class="edge"><title>-6066848101526773743-&gt;-6066848101526773743</title><g id="a_edge19"><a xlink:title="Mandado -&gt; Mandado"><path fill="none" stroke="#179600" d="M236.15,-263.94C246.55,-263.07 254,-260.43 254,-256 254,-253.23 251.09,-251.16 246.37,-249.79"/><polygon fill="#179600" stroke="#179600" points="246.6 -246.28 236.15 -248.06 245.43 -253.18 246.6 -246.28"/></a></g><g id="a_edge19-label"><a xlink:title="Mandado -&gt; Mandado"><text x="264.5" y="-252.9" font-family="Times New Roman,serif" font-size="12" text-anchor="middle">1D</text></a></g></g><g id="edge20" class="edge"><title>-6066848101526773743-&gt;-2998375710546834842</title><g id="a_edge20"><a xlink:title="Mandado -&gt; Petição"><path fill="none" stroke="#964500" d="M212.65,-235.91C230.95,-223.27 255.13,-206.57 274.94,-192.9"/><polygon fill="#964500" stroke="#964500" points="277.17 -195.61 283.41 -187.05 273.2 -189.85 277.17 -195.61"/></a></g><g id="a_edge20-label"><a xlink:title="Mandado -&gt; Petição"><text x="265.5" y="-208.4" font-family="Times New Roman,serif" font-size="12" text-anchor="middle">6D</text></a></g></g><g id="edge21" class="edge"><title>-2998375710546834842-&gt;3481022503272025849</title><g id="a_edge21"><a xlink:title="Petição -&gt; Conclusão"><path fill="none" stroke="#965400" stroke-width="3.11" d="M362.07,-170.66C422.18,-174.7 517.44,-184.24 546,-205 584.11,-232.7 594,-252.39 594,-299.5 594,-435 594,-435 594,-435 594,-485.02 439.97,-507.91 351.19,-516.95"/><polygon fill="#965400" stroke="#965400" stroke-width="3.11" points="350.83 -513.47 341.23 -517.93 351.52 -520.43 350.83 -513.47"/></a></g><g id="a_edge21-label"><a xlink:title="Petição -&gt; Conclusão"><text x="604.5" y="-341.9" font-family="Times New Roman,serif" font-size="12" text-anchor="middle">4D</text></a></g></g><g id="edge22" class="edge"><title>-2998375710546834842-&gt;201821933845037951</title><g id="a_edge22"><a xlink:title="Petição -&gt; Documento"><path fill="none" stroke="#963700" d="M359.47,-146.92C370.25,-141.78 381.34,-135.74 391,-129 400.56,-122.33 409.9,-113.73 417.88,-105.55"/><polygon fill="#963700" stroke="#963700" points="420.47 -107.9 424.79 -98.22 415.38 -103.1 420.47 -107.9"/></a></g><g id="a_edge22-label"><a xlink:title="Petição -&gt; Documento"><text x="416.5" y="-119.4" font-family="Times New Roman,serif" font-size="12" text-anchor="middle">8D</text></a></g></g><g id="edge23" class="edge"><title>-2998375710546834842-&gt;4422747661767652410</title><g id="a_edge23"><a xlink:title="Petição -&gt; Expedição de documento"><path fill="none" stroke="#964800" stroke-width="1.21" d="M259.8,-174.63C185.31,-186.47 60.44,-215.84 104,-276 132.93,-315.95 186.09,-332.84 231.29,-339.81"/><polygon fill="#964800" stroke="#964800" stroke-width="1.21" points="231.01 -343.3 241.4 -341.22 231.98 -336.37 231.01 -343.3"/></a></g><g id="a_edge23-label"><a xlink:title="Petição -&gt; Expedição de documento"><text x="114.5" y="-252.9" font-family="Times New Roman,serif" font-size="12" text-anchor="middle">6D</text></a></g></g><g id="edge24" class="edge"><title>-2998375710546834842-&gt;-2998375710546834842</title><g id="a_edge24"><a xlink:title="Petição -&gt; Petição"><path fill="none" stroke="#019600" stroke-width="3.69" d="M362.15,-174.94C372.55,-174.07 380,-171.43 380,-167 380,-164.23 377.09,-162.16 372.37,-160.79"/><polygon fill="#019600" stroke="#019600" stroke-width="3.69" points="372.6 -157.28 362.15 -159.06 371.43 -164.18 372.6 -157.28"/></a></g><g id="a_edge24-label"><a xlink:title="Petição -&gt; Petição"><text x="389" y="-163.9" font-family="Times New Roman,serif" font-size="12" text-anchor="middle">1h</text></a></g></g><g id="edge25" class="edge"><title>-1899612676363016532-&gt;-2998375710546834842</title><g id="a_edge25"><a xlink:title="Remessa -&gt; Petição"><path fill="none" stroke="#960300" d="M383.36,-235.69C370.36,-223.53 353.4,-207.66 339.17,-194.35"/><polygon fill="#960300" stroke="#960300" points="341.28 -191.53 331.58 -187.25 336.49 -196.64 341.28 -191.53"/></a></g><g id="a_edge25-label"><a xlink:title="Remessa -&gt; Petição"><text x="376.5" y="-208.4" font-family="Times New Roman,serif" font-size="12" text-anchor="middle">23D</text></a></g></g></g></svg>