<?xml version="1.0" encoding="UTF-8" standalone="no"?><!DOCTYPE svg PUBLIC "-//W3C//DTD SVG 1.1//EN" "http://www.w3.org/Graphics/SVG/1.1/DTD/svg11.dtd"><!-- Generated by graphviz version 2.49.3 (20211023.0002) --><!-- Pages: 1 --><svg width="841pt" height="462pt" viewBox="0.00 0.00 841.00 462.00" xmlns="http://www.w3.org/2000/svg" xmlns:xlink="http://www.w3.org/1999/xlink"><g id="graph0" class="graph" transform="scale(1 1) rotate(0) translate(4 458)"><!-- &#45;6355594484988642004 --><g id="node1" class="node"><title>&#45;6355594484988642004</title><g id="a_node1"><a xlink:title="Distribuição"><path fill="white" stroke="black" d="M84,-454C84,-454 12,-454 12,-454 6,-454 0,-448 0,-442 0,-442 0,-426 0,-426 0,-420 6,-414 12,-414 12,-414 84,-414 84,-414 90,-414 96,-420 96,-426 96,-426 96,-442 96,-442 96,-448 90,-454 84,-454"/><text text-anchor="middle" x="48" y="-437.4" font-family="Times New Roman,serif" font-size="12.00"> Distribuição &#160;</text><text text-anchor="middle" x="48" y="-424.4" font-family="Times New Roman,serif" font-size="12.00"> 538 movimentos </text></a></g></g><!-- &#45;6638748395014287532 --><g id="node3" class="node"><title>&#45;6638748395014287532</title><g id="a_node3"><a xlink:title="Audiência"><path fill="#ffffff" stroke="black" d="M114,-98C114,-98 42,-98 42,-98 36,-98 30,-92 30,-86 30,-86 30,-70 30,-70 30,-64 36,-58 42,-58 42,-58 114,-58 114,-58 120,-58 126,-64 126,-70 126,-70 126,-86 126,-86 126,-92 120,-98 114,-98"/><text text-anchor="middle" x="78" y="-81.4" font-family="Times New Roman,serif" font-size="12.00"> Audiência &#160;</text><text text-anchor="middle" x="78" y="-68.4" font-family="Times New Roman,serif" font-size="12.00"> 209 movimentos </text></a></g></g><!-- &#45;6355594484988642004&#45;&gt;&#45;6638748395014287532 --><g id="edge7" class="edge"><title>&#45;6355594484988642004&#45;&gt;&#45;6638748395014287532</title><g id="a_edge7"><a xlink:title="Distribuição &#45;&gt; Audiência"><path fill="none" stroke="#009600" d="M42.4,-413.84C37.79,-396.33 32,-369.65 32,-346 32,-346 32,-346 32,-166 32,-144.38 43.24,-122.87 54.61,-106.65"/><polygon fill="#009600" stroke="#009600" points="57.72,-108.33 60.87,-98.21 52.1,-104.16 57.72,-108.33"/></a></g><g id="a_edge7&#45;label"><a xlink:title="Distribuição &#45;&gt; Audiência"><text text-anchor="middle" x="42.5" y="-252.9" font-family="Times New Roman,serif" font-size="12.00"> 1m </text></a></g></g><!-- &#45;4155164424438587150 --><g id="node4" class="node"><title>&#45;4155164424438587150</title><g id="a_node4"><a xlink:title="Conclusão"><path fill="#ffffff" stroke="black" stroke-width="2.5" d="M402,-365C402,-365 324,-365 324,-365 318,-365 312,-359 312,-353 312,-353 312,-337 312,-337 312,-331 318,-325 324,-325 324,-325 402,-325 402,-325 408,-325 414,-331 414,-337 414,-337 414,-353 414,-353 414,-359 408,-365 402,-365"/><text text-anchor="middle" x="363" y="-348.4" font-family="Times New Roman,serif" font-size="12.00"> Conclusão &#160;</text><text text-anchor="middle" x="363" y="-335.4" font-family="Times New Roman,serif" font-size="12.00"> 3353 movimentos </text></a></g></g><!-- &#45;6355594484988642004&#45;&gt;&#45;4155164424438587150 --><g id="edge8" class="edge"><title>&#45;6355594484988642004&#45;&gt;&#45;4155164424438587150</title><g id="a_edge8"><a xlink:title="Distribuição &#45;&gt; Conclusão"><path fill="none" stroke="#009600" stroke-width="1.54" d="M96.18,-419.69C151.45,-404.43 242.14,-379.38 302.21,-362.79"/><polygon fill="#009600" stroke="#009600" stroke-width="1.54" points="303.24,-366.14 311.95,-360.1 301.38,-359.39 303.24,-366.14"/></a></g><g id="a_edge8&#45;label"><a xlink:title="Distribuição &#45;&gt; Conclusão"><text text-anchor="middle" x="233.5" y="-386.4" font-family="Times New Roman,serif" font-size="12.00"> 2s </text></a></g></g><!-- 4158219948691257417 --><g id="node2" class="node"><title>4158219948691257417</title><g id="a_node2"><a xlink:title="Definitivo"><path fill="white" stroke="black" d="M192,-40C192,-40 120,-40 120,-40 114,-40 108,-34 108,-28 108,-28 108,-12 108,-12 108,-6 114,0 120,0 120,0 192,0 192,0 198,0 204,-6 204,-12 204,-12 204,-28 204,-28 204,-34 198,-40 192,-40"/><text text-anchor="middle" x="156" y="-23.4" font-family="Times New Roman,serif" font-size="12.00"> Definitivo &#160;</text><text text-anchor="middle" x="156" y="-10.4" font-family="Times New Roman,serif" font-size="12.00"> 564 movimentos </text></a></g></g><!-- 3768329636919797765 --><g id="node11" class="node"><title>3768329636919797765</title><g id="a_node11"><a xlink:title="Petição"><path fill="#ffffff" stroke="black" stroke-width="3.84" d="M402,-187C402,-187 324,-187 324,-187 318,-187 312,-181 312,-175 312,-175 312,-159 312,-159 312,-153 318,-147 324,-147 324,-147 402,-147 402,-147 408,-147 414,-153 414,-159 414,-159 414,-175 414,-175 414,-181 408,-187 402,-187"/><text text-anchor="middle" x="363" y="-170.4" font-family="Times New Roman,serif" font-size="12.00"> Petição &#160;</text><text text-anchor="middle" x="363" y="-157.4" font-family="Times New Roman,serif" font-size="12.00"> 5154 movimentos </text></a></g></g><!-- 4158219948691257417&#45;&gt;3768329636919797765 --><g id="edge6" class="edge"><title>4158219948691257417&#45;&gt;3768329636919797765</title><g id="a_edge6"><a xlink:title="Definitivo &#45;&gt; Petição"><path fill="none" stroke="#960000" d="M156.56,-40.22C157.96,-57 162.26,-81.23 175,-98 204.74,-137.15 259.13,-153.79 301.78,-160.85"/><polygon fill="#960000" stroke="#960000" points="301.38,-164.33 311.79,-162.37 302.43,-157.41 301.38,-164.33"/></a></g><g id="a_edge6&#45;label"><a xlink:title="Definitivo &#45;&gt; Petição"><text text-anchor="middle" x="220.5" y="-119.4" font-family="Times New Roman,serif" font-size="12.00"> 1M </text></a></g></g><!-- 6392168303534521969 --><g id="node8" class="node"><title>6392168303534521969</title><g id="a_node8"><a xlink:title="Improcedência"><path fill="#ffffff" stroke="black" d="M195,-276C195,-276 123,-276 123,-276 117,-276 111,-270 111,-264 111,-264 111,-248 111,-248 111,-242 117,-236 123,-236 123,-236 195,-236 195,-236 201,-236 207,-242 207,-248 207,-248 207,-264 207,-264 207,-270 201,-276 195,-276"/><text text-anchor="middle" x="159" y="-259.4" font-family="Times New Roman,serif" font-size="12.00"> Improcedência &#160;</text><text text-anchor="middle" x="159" y="-246.4" font-family="Times New Roman,serif" font-size="12.00"> 104 movimentos </text></a></g></g><!-- &#45;4155164424438587150&#45;&gt;6392168303534521969 --><g id="edge1" class="edge"><title>&#45;4155164424438587150&#45;&gt;6392168303534521969</title><g id="a_edge1"><a xlink:title="Conclusão &#45;&gt; Improcedência"><path fill="none" stroke="#229600" d="M318.23,-324.91C287.27,-311.71 245.92,-294.07 213.11,-280.08"/><polygon fill="#229600" stroke="#229600" points="214.24,-276.75 203.66,-276.05 211.49,-283.19 214.24,-276.75"/></a></g><g id="a_edge1&#45;label"><a xlink:title="Conclusão &#45;&gt; Improcedência"><text text-anchor="middle" x="284.5" y="-297.4" font-family="Times New Roman,serif" font-size="12.00"> 4D </text></a></g></g><!-- 7334451637223804556 --><g id="node10" class="node"><title>7334451637223804556</title><g id="a_node10"><a xlink:title="Mero expediente"><path fill="#ffffff" stroke="black" stroke-width="1.52" d="M315,-276C315,-276 237,-276 237,-276 231,-276 225,-270 225,-264 225,-264 225,-248 225,-248 225,-242 231,-236 237,-236 237,-236 315,-236 315,-236 321,-236 327,-242 327,-248 327,-248 327,-264 327,-264 327,-270 321,-276 315,-276"/><text text-anchor="middle" x="276" y="-259.4" font-family="Times New Roman,serif" font-size="12.00"> Mero expediente &#160;</text><text text-anchor="middle" x="276" y="-246.4" font-family="Times New Roman,serif" font-size="12.00"> 2048 movimentos </text></a></g></g><!-- &#45;4155164424438587150&#45;&gt;7334451637223804556 --><g id="edge2" class="edge"><title>&#45;4155164424438587150&#45;&gt;7334451637223804556</title><g id="a_edge2"><a xlink:title="Conclusão &#45;&gt; Mero expediente"><path fill="none" stroke="#109600" stroke-width="4.83" d="M343.69,-324.69C331.53,-312.53 315.66,-296.66 302.35,-283.35"/><polygon fill="#109600" stroke="#109600" stroke-width="4.83" points="305.31,-280.34 295.25,-276.25 299.34,-286.31 305.31,-280.34"/></a></g><g id="a_edge2&#45;label"><a xlink:title="Conclusão &#45;&gt; Mero expediente"><text text-anchor="middle" x="335.5" y="-297.4" font-family="Times New Roman,serif" font-size="12.00"> 1D </text></a></g></g><!-- &#45;4155164424438587150&#45;&gt;3768329636919797765 --><g id="edge3" class="edge"><title>&#45;4155164424438587150&#45;&gt;3768329636919797765</title><g id="a_edge3"><a xlink:title="Conclusão &#45;&gt; Petição"><path fill="none" stroke="#209600" d="M363,-324.83C363,-294.15 363,-233.79 363,-197.56"/><polygon fill="#209600" stroke="#209600" points="366.5,-197.15 363,-187.15 359.5,-197.15 366.5,-197.15"/></a></g><g id="a_edge3&#45;label"><a xlink:title="Conclusão &#45;&gt; Petição"><text text-anchor="middle" x="373.5" y="-252.9" font-family="Times New Roman,serif" font-size="12.00"> 3D </text></a></g></g><!-- 1258555791265385585 --><g id="node12" class="node"><title>1258555791265385585</title><g id="a_node12"><a xlink:title="Procedência"><path fill="#ffffff" stroke="black" d="M486,-276C486,-276 414,-276 414,-276 408,-276 402,-270 402,-264 402,-264 402,-248 402,-248 402,-242 408,-236 414,-236 414,-236 486,-236 486,-236 492,-236 498,-242 498,-248 498,-248 498,-264 498,-264 498,-270 492,-276 486,-276"/><text text-anchor="middle" x="450" y="-259.4" font-family="Times New Roman,serif" font-size="12.00"> Procedência &#160;</text><text text-anchor="middle" x="450" y="-246.4" font-family="Times New Roman,serif" font-size="12.00"> 160 movimentos </text></a></g></g><!-- &#45;4155164424438587150&#45;&gt;1258555791265385585 --><g id="edge4" class="edge"><title>&#45;4155164424438587150&#45;&gt;1258555791265385585</title><g id="a_edge4"><a xlink:title="Conclusão &#45;&gt; Procedência"><path fill="none" stroke="#966200" d="M382.31,-324.69C394.47,-312.53 410.34,-296.66 423.65,-283.35"/><polygon fill="#966200" stroke="#966200" points="426.15,-285.8 430.75,-276.25 421.2,-280.85 426.15,-285.8"/></a></g><g id="a_edge4&#45;label"><a xlink:title="Conclusão &#45;&gt; Procedência"><text text-anchor="middle" x="422.5" y="-297.4" font-family="Times New Roman,serif" font-size="12.00"> 7D </text></a></g></g><!-- 4524814853568995957 --><g id="node5" class="node"><title>4524814853568995957</title><g id="a_node5"><a xlink:title="Decurso de Prazo"><path fill="#ffffff" stroke="black" d="M277.5,-98C277.5,-98 196.5,-98 196.5,-98 190.5,-98 184.5,-92 184.5,-86 184.5,-86 184.5,-70 184.5,-70 184.5,-64 190.5,-58 196.5,-58 196.5,-58 277.5,-58 277.5,-58 283.5,-58 289.5,-64 289.5,-70 289.5,-70 289.5,-86 289.5,-86 289.5,-92 283.5,-98 277.5,-98"/><text text-anchor="middle" x="237" y="-81.4" font-family="Times New Roman,serif" font-size="12.00"> Decurso de Prazo &#160;</text><text text-anchor="middle" x="237" y="-68.4" font-family="Times New Roman,serif" font-size="12.00"> 347 movimentos </text></a></g></g><!-- 4524814853568995957&#45;&gt;3768329636919797765 --><g id="edge5" class="edge"><title>4524814853568995957&#45;&gt;3768329636919797765</title><g id="a_edge5"><a xlink:title="Decurso de Prazo &#45;&gt; Petição"><path fill="none" stroke="#966300" d="M264.59,-98.05C282.87,-110.67 307.05,-127.37 326.87,-141.05"/><polygon fill="#966300" stroke="#966300" points="325.13,-144.11 335.35,-146.91 329.11,-138.35 325.13,-144.11"/></a></g><g id="a_edge5&#45;label"><a xlink:title="Decurso de Prazo &#45;&gt; Petição"><text text-anchor="middle" x="318.5" y="-119.4" font-family="Times New Roman,serif" font-size="12.00"> 7D </text></a></g></g><!-- &#45;8314158044096225235 --><g id="node6" class="node"><title>&#45;8314158044096225235</title><g id="a_node6"><a xlink:title="Desarquivamento"><path fill="#ffffff" stroke="black" d="M707,-98C707,-98 629,-98 629,-98 623,-98 617,-92 617,-86 617,-86 617,-70 617,-70 617,-64 623,-58 629,-58 629,-58 707,-58 707,-58 713,-58 719,-64 719,-70 719,-70 719,-86 719,-86 719,-92 713,-98 707,-98"/><text text-anchor="middle" x="668" y="-81.4" font-family="Times New Roman,serif" font-size="12.00"> Desarquivamento &#160;</text><text text-anchor="middle" x="668" y="-68.4" font-family="Times New Roman,serif" font-size="12.00"> 132 movimentos </text></a></g></g><!-- &#45;6338852882765663245 --><g id="node7" class="node"><title>&#45;6338852882765663245</title><g id="a_node7"><a xlink:title="Documento"><path fill="#ffffff" stroke="black" d="M392,-98C392,-98 320,-98 320,-98 314,-98 308,-92 308,-86 308,-86 308,-70 308,-70 308,-64 314,-58 320,-58 320,-58 392,-58 392,-58 398,-58 404,-64 404,-70 404,-70 404,-86 404,-86 404,-92 398,-98 392,-98"/><text text-anchor="middle" x="356" y="-81.4" font-family="Times New Roman,serif" font-size="12.00"> Documento &#160;</text><text text-anchor="middle" x="356" y="-68.4" font-family="Times New Roman,serif" font-size="12.00"> 749 movimentos </text></a></g></g><!-- &#45;6338852882765663245&#45;&gt;&#45;6338852882765663245 --><g id="edge9" class="edge"><title>&#45;6338852882765663245&#45;&gt;&#45;6338852882765663245</title><g id="a_edge9"><a xlink:title="Documento &#45;&gt; Documento"><path fill="none" stroke="#019600" d="M404.05,-86.01C414.46,-85.22 422,-82.55 422,-78 422,-75.08 418.9,-72.94 413.94,-71.57"/><polygon fill="#019600" stroke="#019600" points="414.48,-68.11 404.05,-69.99 413.38,-75.02 414.48,-68.11"/></a></g><g id="a_edge9&#45;label"><a xlink:title="Documento &#45;&gt; Documento"><text text-anchor="middle" x="431" y="-74.9" font-family="Times New Roman,serif" font-size="12.00"> 2h </text></a></g></g><!-- &#45;6338852882765663245&#45;&gt;3768329636919797765 --><g id="edge10" class="edge"><title>&#45;6338852882765663245&#45;&gt;3768329636919797765</title><g id="a_edge10"><a xlink:title="Documento &#45;&gt; Petição"><path fill="none" stroke="#966d00" d="M360.32,-98.11C361.42,-103.83 362.45,-110.14 363,-116 363.63,-122.69 363.88,-129.91 363.92,-136.73"/><polygon fill="#966d00" stroke="#966d00" points="360.41,-136.94 363.83,-146.97 367.41,-137 360.41,-136.94"/></a></g><g id="a_edge10&#45;label"><a xlink:title="Documento &#45;&gt; Petição"><text text-anchor="middle" x="374.5" y="-119.4" font-family="Times New Roman,serif" font-size="12.00"> 5D </text></a></g></g><!-- &#45;2774805245225423316 --><g id="node9" class="node"><title>&#45;2774805245225423316</title><g id="a_node9"><a xlink:title="Mandado"><path fill="#ffffff" stroke="black" d="M548,-98C548,-98 470,-98 470,-98 464,-98 458,-92 458,-86 458,-86 458,-70 458,-70 458,-64 464,-58 470,-58 470,-58 548,-58 548,-58 554,-58 560,-64 560,-70 560,-70 560,-86 560,-86 560,-92 554,-98 548,-98"/><text text-anchor="middle" x="509" y="-81.4" font-family="Times New Roman,serif" font-size="12.00"> Mandado &#160;</text><text text-anchor="middle" x="509" y="-68.4" font-family="Times New Roman,serif" font-size="12.00"> 1143 movimentos </text></a></g></g><!-- &#45;2774805245225423316&#45;&gt;&#45;2774805245225423316 --><g id="edge11" class="edge"><title>&#45;2774805245225423316&#45;&gt;&#45;2774805245225423316</title><g id="a_edge11"><a xlink:title="Mandado &#45;&gt; Mandado"><path fill="none" stroke="#0b9600" stroke-width="1.68" d="M560.15,-85.94C570.55,-85.07 578,-82.43 578,-78 578,-75.23 575.09,-73.16 570.37,-71.79"/><polygon fill="#0b9600" stroke="#0b9600" stroke-width="1.68" points="570.6,-68.28 560.15,-70.06 569.43,-75.18 570.6,-68.28"/></a></g><g id="a_edge11&#45;label"><a xlink:title="Mandado &#45;&gt; Mandado"><text text-anchor="middle" x="588.5" y="-74.9" font-family="Times New Roman,serif" font-size="12.00"> 1D </text></a></g></g><!-- &#45;2774805245225423316&#45;&gt;3768329636919797765 --><g id="edge12" class="edge"><title>&#45;2774805245225423316&#45;&gt;3768329636919797765</title><g id="a_edge12"><a xlink:title="Mandado &#45;&gt; Petição"><path fill="none" stroke="#966600" d="M494.23,-98.12C485.48,-108.4 473.65,-120.65 461,-129 449.69,-136.46 436.66,-142.72 423.88,-147.83"/><polygon fill="#966600" stroke="#966600" points="422.28,-144.7 414.18,-151.52 424.77,-151.24 422.28,-144.7"/></a></g><g id="a_edge12&#45;label"><a xlink:title="Mandado &#45;&gt; Petição"><text text-anchor="middle" x="486.5" y="-119.4" font-family="Times New Roman,serif" font-size="12.00"> 6D </text></a></g></g><!-- 7334451637223804556&#45;&gt;&#45;6638748395014287532 --><g id="edge13" class="edge"><title>7334451637223804556&#45;&gt;&#45;6638748395014287532</title><g id="a_edge13"><a xlink:title="Mero expediente &#45;&gt; Audiência"><path fill="none" stroke="#1a9600" d="M234.66,-235.98C193.72,-215.16 131.95,-178.1 95,-129 90.38,-122.86 86.96,-115.37 84.45,-108.08"/><polygon fill="#1a9600" stroke="#1a9600" points="87.78,-107 81.57,-98.41 81.07,-108.99 87.78,-107"/></a></g><g id="a_edge13&#45;label"><a xlink:title="Mero expediente &#45;&gt; Audiência"><text text-anchor="middle" x="165.5" y="-163.9" font-family="Times New Roman,serif" font-size="12.00"> 3D </text></a></g></g><!-- 7334451637223804556&#45;&gt;3768329636919797765 --><g id="edge14" class="edge"><title>7334451637223804556&#45;&gt;3768329636919797765</title><g id="a_edge14"><a xlink:title="Mero expediente &#45;&gt; Petição"><path fill="none" stroke="#967100" d="M274.04,-235.81C274,-225.76 275.61,-213.75 282,-205 287.49,-197.48 294.88,-191.45 302.97,-186.63"/><polygon fill="#967100" stroke="#967100" points="304.78,-189.63 311.97,-181.86 301.5,-183.45 304.78,-189.63"/></a></g><g id="a_edge14&#45;label"><a xlink:title="Mero expediente &#45;&gt; Petição"><text text-anchor="middle" x="292.5" y="-208.4" font-family="Times New Roman,serif" font-size="12.00"> 4D </text></a></g></g><!-- 3768329636919797765&#45;&gt;&#45;6638748395014287532 --><g id="edge15" class="edge"><title>3768329636919797765&#45;&gt;&#45;6638748395014287532</title><g id="a_edge15"><a xlink:title="Petição &#45;&gt; Audiência"><path fill="none" stroke="#079600" d="M311.96,-163.29C248.46,-159.11 144.42,-149.33 112,-129 103.51,-123.68 96.62,-115.37 91.32,-107.05"/><polygon fill="#079600" stroke="#079600" points="94.22,-105.06 86.2,-98.15 88.16,-108.56 94.22,-105.06"/></a></g><g id="a_edge15&#45;label"><a xlink:title="Petição &#45;&gt; Audiência"><text text-anchor="middle" x="124" y="-119.4" font-family="Times New Roman,serif" font-size="12.00"> 17h </text></a></g></g><!-- 3768329636919797765&#45;&gt;&#45;4155164424438587150 --><g id="edge16" class="edge"><title>3768329636919797765&#45;&gt;&#45;4155164424438587150</title><g id="a_edge16"><a xlink:title="Petição &#45;&gt; Conclusão"><path fill="none" stroke="#967100" stroke-width="5" d="M414.28,-177.68C446.91,-186.78 486.73,-204.01 507,-236 516.52,-251.02 516.52,-260.98 507,-276 488.71,-304.87 454.5,-321.71 424.02,-331.42"/><polygon fill="#967100" stroke="#967100" stroke-width="5" points="422.61,-327.27 414.28,-334.32 425.11,-335.65 422.61,-327.27"/></a></g><g id="a_edge16&#45;label"><a xlink:title="Petição &#45;&gt; Conclusão"><text text-anchor="middle" x="525.5" y="-252.9" font-family="Times New Roman,serif" font-size="12.00"> 4D </text></a></g></g><!-- 3768329636919797765&#45;&gt;4524814853568995957 --><g id="edge17" class="edge"><title>3768329636919797765&#45;&gt;4524814853568995957</title><g id="a_edge17"><a xlink:title="Petição &#45;&gt; Decurso de Prazo"><path fill="none" stroke="#966400" d="M311.9,-152.9C296.66,-147.28 280.66,-139.52 268,-129 260.81,-123.02 254.8,-114.93 250.04,-106.99"/><polygon fill="#966400" stroke="#966400" points="253.1,-105.29 245.21,-98.22 246.97,-108.67 253.1,-105.29"/></a></g><g id="a_edge17&#45;label"><a xlink:title="Petição &#45;&gt; Decurso de Prazo"><text text-anchor="middle" x="278.5" y="-119.4" font-family="Times New Roman,serif" font-size="12.00"> 7D </text></a></g></g><!-- 3768329636919797765&#45;&gt;&#45;8314158044096225235 --><g id="edge18" class="edge"><title>3768329636919797765&#45;&gt;&#45;8314158044096225235</title><g id="a_edge18"><a xlink:title="Petição &#45;&gt; Desarquivamento"><path fill="none" stroke="#965d00" d="M414.18,-152.54C440.21,-145.63 472.33,-137 501,-129 545.8,-116.5 559.04,-112.8 607.2,-98.22"/><polygon fill="#965d00" stroke="#965d00" points="608.41,-101.51 616.96,-95.26 606.38,-94.81 608.41,-101.51"/></a></g><g id="a_edge18&#45;label"><a xlink:title="Petição &#45;&gt; Desarquivamento"><text text-anchor="middle" x="556.5" y="-119.4" font-family="Times New Roman,serif" font-size="12.00"> 8D </text></a></g></g><!-- 3768329636919797765&#45;&gt;&#45;6338852882765663245 --><g id="edge19" class="edge"><title>3768329636919797765&#45;&gt;&#45;6338852882765663245</title><g id="a_edge19"><a xlink:title="Petição &#45;&gt; Documento"><path fill="none" stroke="#965c00" d="M346.89,-146.77C343.25,-141.35 339.91,-135.23 338,-129 335.89,-122.12 336.74,-114.8 338.93,-107.94"/><polygon fill="#965c00" stroke="#965c00" points="342.32,-108.9 342.93,-98.32 335.86,-106.22 342.32,-108.9"/></a></g><g id="a_edge19&#45;label"><a xlink:title="Petição &#45;&gt; Documento"><text text-anchor="middle" x="348.5" y="-119.4" font-family="Times New Roman,serif" font-size="12.00"> 8D </text></a></g></g><!-- 3768329636919797765&#45;&gt;&#45;2774805245225423316 --><g id="edge20" class="edge"><title>3768329636919797765&#45;&gt;&#45;2774805245225423316</title><g id="a_edge20"><a xlink:title="Petição &#45;&gt; Mandado"><path fill="none" stroke="#049600" d="M390.75,-146.83C404.97,-137.24 422.69,-125.65 439,-116 446.4,-111.62 454.36,-107.18 462.17,-102.96"/><polygon fill="#049600" stroke="#049600" points="464.04,-105.92 471.22,-98.13 460.75,-99.75 464.04,-105.92"/></a></g><g id="a_edge20&#45;label"><a xlink:title="Petição &#45;&gt; Mandado"><text text-anchor="middle" x="448" y="-119.4" font-family="Times New Roman,serif" font-size="12.00"> 9h </text></a></g></g><!-- 3768329636919797765&#45;&gt;7334451637223804556 --><g id="edge21" class="edge"><title>3768329636919797765&#45;&gt;7334451637223804556</title><g id="a_edge21"><a xlink:title="Petição &#45;&gt; Mero expediente"><path fill="none" stroke="#967300" d="M343.75,-187.25C331.59,-199.41 315.73,-215.27 302.41,-228.59"/><polygon fill="#967300" stroke="#967300" points="299.9,-226.15 295.31,-235.69 304.85,-231.1 299.9,-226.15"/></a></g><g id="a_edge21&#45;label"><a xlink:title="Petição &#45;&gt; Mero expediente"><text text-anchor="middle" x="335.5" y="-208.4" font-family="Times New Roman,serif" font-size="12.00"> 4D </text></a></g></g><!-- 3768329636919797765&#45;&gt;3768329636919797765 --><g id="edge22" class="edge"><title>3768329636919797765&#45;&gt;3768329636919797765</title><g id="a_edge22"><a xlink:title="Petição &#45;&gt; Petição"><path fill="none" stroke="#009600" stroke-width="4.97" d="M414.15,-174.94C424.55,-174.07 432,-171.43 432,-167 432,-164.23 429.09,-162.16 424.37,-160.79"/><polygon fill="#009600" stroke="#009600" stroke-width="4.97" points="424.74,-156.44 414.15,-159.06 423.29,-165.02 424.74,-156.44"/></a></g><g id="a_edge22&#45;label"><a xlink:title="Petição &#45;&gt; Petição"><text text-anchor="middle" x="441" y="-163.9" font-family="Times New Roman,serif" font-size="12.00"> 1h </text></a></g></g><!-- &#45;231088627470763890 --><g id="node13" class="node"><title>&#45;231088627470763890</title><g id="a_node13"><a xlink:title="Remessa"><path fill="#ffffff" stroke="black" d="M821,-98C821,-98 749,-98 749,-98 743,-98 737,-92 737,-86 737,-86 737,-70 737,-70 737,-64 743,-58 749,-58 749,-58 821,-58 821,-58 827,-58 833,-64 833,-70 833,-70 833,-86 833,-86 833,-92 827,-98 821,-98"/><text text-anchor="middle" x="785" y="-81.4" font-family="Times New Roman,serif" font-size="12.00"> Remessa &#160;</text><text text-anchor="middle" x="785" y="-68.4" font-family="Times New Roman,serif" font-size="12.00"> 518 movimentos </text></a></g></g><!-- 3768329636919797765&#45;&gt;&#45;231088627470763890 --><g id="edge23" class="edge"><title>3768329636919797765&#45;&gt;&#45;231088627470763890</title><g id="a_edge23"><a xlink:title="Petição &#45;&gt; Remessa"><path fill="none" stroke="#229600" d="M414.01,-158.94C483.12,-148.84 610.34,-128.35 727.11,-98.08"/><polygon fill="#229600" stroke="#229600" points="728.14,-101.42 736.93,-95.5 726.37,-94.65 728.14,-101.42"/></a></g><g id="a_edge23&#45;label"><a xlink:title="Petição &#45;&gt; Remessa"><text text-anchor="middle" x="659.5" y="-119.4" font-family="Times New Roman,serif" font-size="12.00"> 4D </text></a></g></g><!-- &#45;231088627470763890&#45;&gt;&#45;4155164424438587150 --><g id="edge24" class="edge"><title>&#45;231088627470763890&#45;&gt;&#45;4155164424438587150</title><g id="a_edge24"><a xlink:title="Remessa &#45;&gt; Conclusão"><path fill="none" stroke="#019600" d="M769.18,-98.37C760.91,-108.01 750.38,-119.58 740,-129 641.4,-218.5 618.85,-248.97 499,-307 475.48,-318.39 447.92,-326.71 423.78,-332.55"/><polygon fill="#019600" stroke="#019600" points="422.96,-329.14 414.02,-334.82 424.55,-335.96 422.96,-329.14"/></a></g><g id="a_edge24&#45;label"><a xlink:title="Remessa &#45;&gt; Conclusão"><text text-anchor="middle" x="666" y="-208.4" font-family="Times New Roman,serif" font-size="12.00"> 4h </text></a></g></g><!-- &#45;231088627470763890&#45;&gt;3768329636919797765 --><g id="edge25" class="edge"><title>&#45;231088627470763890&#45;&gt;3768329636919797765</title><g id="a_edge25"><a xlink:title="Remessa &#45;&gt; Petição"><path fill="none" stroke="#963000" d="M750.04,-98.07C728.69,-108.87 700.47,-121.65 674,-129 589.38,-152.49 487.75,-161.07 424.25,-164.2"/><polygon fill="#963000" stroke="#963000" points="423.83,-160.72 414.01,-164.67 424.16,-167.71 423.83,-160.72"/></a></g><g id="a_edge25&#45;label"><a xlink:title="Remessa &#45;&gt; Petição"><text text-anchor="middle" x="722.5" y="-119.4" font-family="Times New Roman,serif" font-size="12.00"> 23D </text></a></g></g></g></svg>