<?xml version="1.0" encoding="UTF-8" standalone="no"?><!DOCTYPE svg PUBLIC "-//W3C//DTD SVG 1.1//EN" "http://www.w3.org/Graphics/SVG/1.1/DTD/svg11.dtd"><!-- Generated by graphviz version 2.49.3 (20211023.0002) --><!-- Pages: 1 --><svg width="813pt" height="640pt" viewBox="0.00 0.00 813.00 640.00" xmlns="http://www.w3.org/2000/svg" xmlns:xlink="http://www.w3.org/1999/xlink"><g id="graph0" class="graph" transform="scale(1 1) rotate(0) translate(4 636)"><!-- 1894939040614898085 --><g id="node1" class="node"><title>1894939040614898085</title><g id="a_node1"><a xlink:title="Distribuição"><path fill="white" stroke="black" d="M658,-632C658,-632 586,-632 586,-632 580,-632 574,-626 574,-620 574,-620 574,-604 574,-604 574,-598 580,-592 586,-592 586,-592 658,-592 658,-592 664,-592 670,-598 670,-604 670,-604 670,-620 670,-620 670,-626 664,-632 658,-632"/><text text-anchor="middle" x="622" y="-615.4" font-family="Times New Roman,serif" font-size="12.00"> Distribuição &#160;</text><text text-anchor="middle" x="622" y="-602.4" font-family="Times New Roman,serif" font-size="12.00"> 538 movimentos </text></a></g></g><!-- &#45;2366248699620310184 --><g id="node3" class="node"><title>&#45;2366248699620310184</title><g id="a_node3"><a xlink:title="Conclusão"><path fill="#ffffff" stroke="black" stroke-width="2.5" d="M661,-543C661,-543 583,-543 583,-543 577,-543 571,-537 571,-531 571,-531 571,-515 571,-515 571,-509 577,-503 583,-503 583,-503 661,-503 661,-503 667,-503 673,-509 673,-515 673,-515 673,-531 673,-531 673,-537 667,-543 661,-543"/><text text-anchor="middle" x="622" y="-526.4" font-family="Times New Roman,serif" font-size="12.00"> Conclusão &#160;</text><text text-anchor="middle" x="622" y="-513.4" font-family="Times New Roman,serif" font-size="12.00"> 3353 movimentos </text></a></g></g><!-- 1894939040614898085&#45;&gt;&#45;2366248699620310184 --><g id="edge5" class="edge"><title>1894939040614898085&#45;&gt;&#45;2366248699620310184</title><g id="a_edge5"><a xlink:title="Distribuição &#45;&gt; Conclusão"><path fill="none" stroke="#009600" stroke-width="1.1" d="M622,-591.69C622,-580.43 622,-565.99 622,-553.35"/><polygon fill="#009600" stroke="#009600" stroke-width="1.1" points="625.5,-553.25 622,-543.25 618.5,-553.25 625.5,-553.25"/></a></g><g id="a_edge5&#45;label"><a xlink:title="Distribuição &#45;&gt; Conclusão"><text text-anchor="middle" x="630.5" y="-564.4" font-family="Times New Roman,serif" font-size="12.00"> 2s </text></a></g></g><!-- &#45;3781142108983599563 --><g id="node2" class="node"><title>&#45;3781142108983599563</title><g id="a_node2"><a xlink:title="Definitivo"><path fill="white" stroke="black" d="M160,-40C160,-40 88,-40 88,-40 82,-40 76,-34 76,-28 76,-28 76,-12 76,-12 76,-6 82,0 88,0 88,0 160,0 160,0 166,0 172,-6 172,-12 172,-12 172,-28 172,-28 172,-34 166,-40 160,-40"/><text text-anchor="middle" x="124" y="-23.4" font-family="Times New Roman,serif" font-size="12.00"> Definitivo &#160;</text><text text-anchor="middle" x="124" y="-10.4" font-family="Times New Roman,serif" font-size="12.00"> 564 movimentos </text></a></g></g><!-- &#45;2142120187836555337 --><g id="node5" class="node"><title>&#45;2142120187836555337</title><g id="a_node5"><a xlink:title="Expedição de documento"><path fill="#ffffff" stroke="black" stroke-width="5" d="M380.5,-365C380.5,-365 265.5,-365 265.5,-365 259.5,-365 253.5,-359 253.5,-353 253.5,-353 253.5,-337 253.5,-337 253.5,-331 259.5,-325 265.5,-325 265.5,-325 380.5,-325 380.5,-325 386.5,-325 392.5,-331 392.5,-337 392.5,-337 392.5,-353 392.5,-353 392.5,-359 386.5,-365 380.5,-365"/><text text-anchor="middle" x="323" y="-348.4" font-family="Times New Roman,serif" font-size="12.00"> Expedição de documento &#160;</text><text text-anchor="middle" x="323" y="-335.4" font-family="Times New Roman,serif" font-size="12.00"> 6718 movimentos </text></a></g></g><!-- &#45;2366248699620310184&#45;&gt;&#45;2142120187836555337 --><g id="edge1" class="edge"><title>&#45;2366248699620310184&#45;&gt;&#45;2142120187836555337</title><g id="a_edge1"><a xlink:title="Conclusão &#45;&gt; Expedição de documento"><path fill="none" stroke="#964400" d="M570.6,-511.09C529.48,-500.76 471.53,-482.53 427,-454 393.08,-432.27 362.17,-397.34 343.02,-373.12"/><polygon fill="#964400" stroke="#964400" points="345.65,-370.79 336.75,-365.03 340.11,-375.08 345.65,-370.79"/></a></g><g id="a_edge1&#45;label"><a xlink:title="Conclusão &#45;&gt; Expedição de documento"><text text-anchor="middle" x="437.5" y="-430.9" font-family="Times New Roman,serif" font-size="12.00"> 6D </text></a></g></g><!-- 4196473730345433951 --><g id="node7" class="node"><title>4196473730345433951</title><g id="a_node7"><a xlink:title="Mero expediente"><path fill="#ffffff" stroke="black" stroke-width="1.52" d="M547,-454C547,-454 469,-454 469,-454 463,-454 457,-448 457,-442 457,-442 457,-426 457,-426 457,-420 463,-414 469,-414 469,-414 547,-414 547,-414 553,-414 559,-420 559,-426 559,-426 559,-442 559,-442 559,-448 553,-454 547,-454"/><text text-anchor="middle" x="508" y="-437.4" font-family="Times New Roman,serif" font-size="12.00"> Mero expediente &#160;</text><text text-anchor="middle" x="508" y="-424.4" font-family="Times New Roman,serif" font-size="12.00"> 2048 movimentos </text></a></g></g><!-- &#45;2366248699620310184&#45;&gt;4196473730345433951 --><g id="edge2" class="edge"><title>&#45;2366248699620310184&#45;&gt;4196473730345433951</title><g id="a_edge2"><a xlink:title="Conclusão &#45;&gt; Mero expediente"><path fill="none" stroke="#209600" stroke-width="4.05" d="M579.75,-502.84C570.21,-497.67 560.42,-491.64 552,-485 543.56,-478.34 535.44,-469.92 528.53,-461.9"/><polygon fill="#209600" stroke="#209600" stroke-width="4.05" points="531.16,-459.52 522.05,-454.09 525.7,-464.05 531.16,-459.52"/></a></g><g id="a_edge2&#45;label"><a xlink:title="Conclusão &#45;&gt; Mero expediente"><text text-anchor="middle" x="562.5" y="-475.4" font-family="Times New Roman,serif" font-size="12.00"> 1D </text></a></g></g><!-- &#45;3301837613698818645 --><g id="node8" class="node"><title>&#45;3301837613698818645</title><g id="a_node8"><a xlink:title="Petição"><path fill="#ffffff" stroke="black" stroke-width="3.84" d="M454,-187C454,-187 376,-187 376,-187 370,-187 364,-181 364,-175 364,-175 364,-159 364,-159 364,-153 370,-147 376,-147 376,-147 454,-147 454,-147 460,-147 466,-153 466,-159 466,-159 466,-175 466,-175 466,-181 460,-187 454,-187"/><text text-anchor="middle" x="415" y="-170.4" font-family="Times New Roman,serif" font-size="12.00"> Petição &#160;</text><text text-anchor="middle" x="415" y="-157.4" font-family="Times New Roman,serif" font-size="12.00"> 5154 movimentos </text></a></g></g><!-- &#45;2366248699620310184&#45;&gt;&#45;3301837613698818645 --><g id="edge3" class="edge"><title>&#45;2366248699620310184&#45;&gt;&#45;3301837613698818645</title><g id="a_edge3"><a xlink:title="Conclusão &#45;&gt; Petição"><path fill="none" stroke="#3a9600" d="M609.36,-502.84C599.34,-485.78 587,-459.75 587,-435 587,-435 587,-435 587,-255 587,-203.81 525.59,-182.74 476.16,-174.06"/><polygon fill="#3a9600" stroke="#3a9600" points="476.57,-170.58 466.14,-172.44 475.45,-177.49 476.57,-170.58"/></a></g><g id="a_edge3&#45;label"><a xlink:title="Conclusão &#45;&gt; Petição"><text text-anchor="middle" x="597.5" y="-341.9" font-family="Times New Roman,serif" font-size="12.00"> 3D </text></a></g></g><!-- &#45;1348852673304535680 --><g id="node9" class="node"><title>&#45;1348852673304535680</title><g id="a_node9"><a xlink:title="Recurso"><path fill="#ffffff" stroke="black" d="M687,-454C687,-454 627,-454 627,-454 621,-454 615,-448 615,-442 615,-442 615,-426 615,-426 615,-420 621,-414 627,-414 627,-414 687,-414 687,-414 693,-414 699,-420 699,-426 699,-426 699,-442 699,-442 699,-448 693,-454 687,-454"/><text text-anchor="middle" x="657" y="-437.4" font-family="Times New Roman,serif" font-size="12.00"> Recurso &#160;</text><text text-anchor="middle" x="657" y="-424.4" font-family="Times New Roman,serif" font-size="12.00"> 7 movimentos </text></a></g></g><!-- &#45;2366248699620310184&#45;&gt;&#45;1348852673304535680 --><g id="edge4" class="edge"><title>&#45;2366248699620310184&#45;&gt;&#45;1348852673304535680</title><g id="a_edge4"><a xlink:title="Conclusão &#45;&gt; Recurso"><path fill="none" stroke="#219600" d="M629.77,-502.69C634.39,-491.2 640.34,-476.41 645.5,-463.59"/><polygon fill="#219600" stroke="#219600" points="648.77,-464.84 649.25,-454.25 642.27,-462.23 648.77,-464.84"/></a></g><g id="a_edge4&#45;label"><a xlink:title="Conclusão &#45;&gt; Recurso"><text text-anchor="middle" x="652.5" y="-475.4" font-family="Times New Roman,serif" font-size="12.00"> 1D </text></a></g></g><!-- 6111611458458012373 --><g id="node4" class="node"><title>6111611458458012373</title><g id="a_node4"><a xlink:title="Documento"><path fill="#ffffff" stroke="black" d="M84,-98C84,-98 12,-98 12,-98 6,-98 0,-92 0,-86 0,-86 0,-70 0,-70 0,-64 6,-58 12,-58 12,-58 84,-58 84,-58 90,-58 96,-64 96,-70 96,-70 96,-86 96,-86 96,-92 90,-98 84,-98"/><text text-anchor="middle" x="48" y="-81.4" font-family="Times New Roman,serif" font-size="12.00"> Documento &#160;</text><text text-anchor="middle" x="48" y="-68.4" font-family="Times New Roman,serif" font-size="12.00"> 749 movimentos </text></a></g></g><!-- 6111611458458012373&#45;&gt;&#45;2142120187836555337 --><g id="edge6" class="edge"><title>6111611458458012373&#45;&gt;&#45;2142120187836555337</title><g id="a_edge6"><a xlink:title="Documento &#45;&gt; Expedição de documento"><path fill="none" stroke="#962c00" d="M49.9,-98.19C55.24,-148.02 72.13,-279.52 104,-307 124.64,-324.8 189.29,-334.23 243.03,-339.1"/><polygon fill="#962c00" stroke="#962c00" points="243.01,-342.61 253.27,-339.98 243.61,-335.63 243.01,-342.61"/></a></g><g id="a_edge6&#45;label"><a xlink:title="Documento &#45;&gt; Expedição de documento"><text text-anchor="middle" x="82.5" y="-208.4" font-family="Times New Roman,serif" font-size="12.00"> 11D </text></a></g></g><!-- 6111611458458012373&#45;&gt;&#45;3301837613698818645 --><g id="edge7" class="edge"><title>6111611458458012373&#45;&gt;&#45;3301837613698818645</title><g id="a_edge7"><a xlink:title="Documento &#45;&gt; Petição"><path fill="none" stroke="#964e00" d="M96.2,-85.38C139.64,-91.6 205.08,-102.14 261,-116 292.12,-123.71 326.08,-134.48 354.17,-144.04"/><polygon fill="#964e00" stroke="#964e00" points="353.25,-147.43 363.84,-147.37 355.52,-140.81 353.25,-147.43"/></a></g><g id="a_edge7&#45;label"><a xlink:title="Documento &#45;&gt; Petição"><text text-anchor="middle" x="314.5" y="-119.4" font-family="Times New Roman,serif" font-size="12.00"> 5D </text></a></g></g><!-- &#45;2142120187836555337&#45;&gt;&#45;3781142108983599563 --><g id="edge9" class="edge"><title>&#45;2142120187836555337&#45;&gt;&#45;3781142108983599563</title><g id="a_edge9"><a xlink:title="Expedição de documento &#45;&gt; Definitivo"><path fill="none" stroke="#009600" d="M253.43,-337.65C212.43,-329.95 163.53,-313.03 137,-276 88.19,-207.88 104.38,-101.3 116.19,-50.22"/><polygon fill="#009600" stroke="#009600" points="119.66,-50.74 118.62,-40.2 112.86,-49.09 119.66,-50.74"/></a></g><g id="a_edge9&#45;label"><a xlink:title="Expedição de documento &#45;&gt; Definitivo"><text text-anchor="middle" x="121.5" y="-208.4" font-family="Times New Roman,serif" font-size="12.00"> 1m </text></a></g></g><!-- &#45;2142120187836555337&#45;&gt;&#45;2366248699620310184 --><g id="edge8" class="edge"><title>&#45;2142120187836555337&#45;&gt;&#45;2366248699620310184</title><g id="a_edge8"><a xlink:title="Expedição de documento &#45;&gt; Conclusão"><path fill="none" stroke="#009600" stroke-width="1.69" d="M392.9,-353.48C498.34,-365.48 687.96,-390.11 708,-414 731.54,-442.07 696.32,-475.12 664.11,-497.19"/><polygon fill="#009600" stroke="#009600" stroke-width="1.69" points="661.99,-494.4 655.59,-502.84 665.86,-500.23 661.99,-494.4"/></a></g><g id="a_edge8&#45;label"><a xlink:title="Expedição de documento &#45;&gt; Conclusão"><text text-anchor="middle" x="725.5" y="-430.9" font-family="Times New Roman,serif" font-size="12.00"> 1m </text></a></g></g><!-- &#45;2142120187836555337&#45;&gt;6111611458458012373 --><g id="edge10" class="edge"><title>&#45;2142120187836555337&#45;&gt;6111611458458012373</title><g id="a_edge10"><a xlink:title="Expedição de documento &#45;&gt; Documento"><path fill="none" stroke="#960000" d="M253.34,-338.99C195.05,-333.7 117.32,-323.75 91,-307 78.01,-298.73 39.28,-230.1 36,-218 25.94,-180.94 32.94,-136.48 39.73,-107.99"/><polygon fill="#960000" stroke="#960000" points="43.13,-108.81 42.19,-98.26 36.35,-107.1 43.13,-108.81"/></a></g><g id="a_edge10&#45;label"><a xlink:title="Expedição de documento &#45;&gt; Documento"><text text-anchor="middle" x="49.5" y="-208.4" font-family="Times New Roman,serif" font-size="12.00"> 24D </text></a></g></g><!-- &#45;2142120187836555337&#45;&gt;&#45;2142120187836555337 --><g id="edge11" class="edge"><title>&#45;2142120187836555337&#45;&gt;&#45;2142120187836555337</title><g id="a_edge11"><a xlink:title="Expedição de documento &#45;&gt; Expedição de documento"><path fill="none" stroke="#259600" stroke-width="5" d="M392.67,-352.52C403.29,-351.37 410.5,-348.87 410.5,-345 410.5,-342.52 407.54,-340.6 402.62,-339.24"/><polygon fill="#259600" stroke="#259600" stroke-width="5" points="403.28,-334.92 392.67,-337.48 401.76,-343.53 403.28,-334.92"/></a></g><g id="a_edge11&#45;label"><a xlink:title="Expedição de documento &#45;&gt; Expedição de documento"><text text-anchor="middle" x="421" y="-341.9" font-family="Times New Roman,serif" font-size="12.00"> 2D </text></a></g></g><!-- 7316831560597932829 --><g id="node6" class="node"><title>7316831560597932829</title><g id="a_node6"><a xlink:title="Mandado"><path fill="#ffffff" stroke="black" d="M236,-276C236,-276 158,-276 158,-276 152,-276 146,-270 146,-264 146,-264 146,-248 146,-248 146,-242 152,-236 158,-236 158,-236 236,-236 236,-236 242,-236 248,-242 248,-248 248,-248 248,-264 248,-264 248,-270 242,-276 236,-276"/><text text-anchor="middle" x="197" y="-259.4" font-family="Times New Roman,serif" font-size="12.00"> Mandado &#160;</text><text text-anchor="middle" x="197" y="-246.4" font-family="Times New Roman,serif" font-size="12.00"> 1143 movimentos </text></a></g></g><!-- &#45;2142120187836555337&#45;&gt;7316831560597932829 --><g id="edge12" class="edge"><title>&#45;2142120187836555337&#45;&gt;7316831560597932829</title><g id="a_edge12"><a xlink:title="Expedição de documento &#45;&gt; Mandado"><path fill="none" stroke="#009600" stroke-width="1.1" d="M260.82,-324.89C250.25,-320.04 239.85,-314.13 231,-307 223.52,-300.97 217.04,-292.86 211.8,-284.93"/><polygon fill="#009600" stroke="#009600" stroke-width="1.1" points="214.64,-282.86 206.43,-276.17 208.67,-286.52 214.64,-282.86"/></a></g><g id="a_edge12&#45;label"><a xlink:title="Expedição de documento &#45;&gt; Mandado"><text text-anchor="middle" x="242.5" y="-297.4" font-family="Times New Roman,serif" font-size="12.00"> 10s </text></a></g></g><!-- &#45;2142120187836555337&#45;&gt;&#45;3301837613698818645 --><g id="edge13" class="edge"><title>&#45;2142120187836555337&#45;&gt;&#45;3301837613698818645</title><g id="a_edge13"><a xlink:title="Expedição de documento &#45;&gt; Petição"><path fill="none" stroke="#962000" stroke-width="4.31" d="M320.29,-324.81C318.03,-302.2 317.21,-264.15 332,-236 341.14,-218.61 356.83,-204 372.13,-192.84"/><polygon fill="#962000" stroke="#962000" stroke-width="4.31" points="374.48,-195.8 380.55,-187 370.19,-189.61 374.48,-195.8"/></a></g><g id="a_edge13&#45;label"><a xlink:title="Expedição de documento &#45;&gt; Petição"><text text-anchor="middle" x="345.5" y="-252.9" font-family="Times New Roman,serif" font-size="12.00"> 14D </text></a></g></g><!-- &#45;3074157233288570601 --><g id="node10" class="node"><title>&#45;3074157233288570601</title><g id="a_node10"><a xlink:title="Remessa"><path fill="#ffffff" stroke="black" d="M452,-276C452,-276 380,-276 380,-276 374,-276 368,-270 368,-264 368,-264 368,-248 368,-248 368,-242 374,-236 380,-236 380,-236 452,-236 452,-236 458,-236 464,-242 464,-248 464,-248 464,-264 464,-264 464,-270 458,-276 452,-276"/><text text-anchor="middle" x="416" y="-259.4" font-family="Times New Roman,serif" font-size="12.00"> Remessa &#160;</text><text text-anchor="middle" x="416" y="-246.4" font-family="Times New Roman,serif" font-size="12.00"> 518 movimentos </text></a></g></g><!-- &#45;2142120187836555337&#45;&gt;&#45;3074157233288570601 --><g id="edge14" class="edge"><title>&#45;2142120187836555337&#45;&gt;&#45;3074157233288570601</title><g id="a_edge14"><a xlink:title="Expedição de documento &#45;&gt; Remessa"><path fill="none" stroke="#019600" d="M343.64,-324.69C356.64,-312.53 373.6,-296.66 387.83,-283.35"/><polygon fill="#019600" stroke="#019600" points="390.51,-285.64 395.42,-276.25 385.72,-280.53 390.51,-285.64"/></a></g><g id="a_edge14&#45;label"><a xlink:title="Expedição de documento &#45;&gt; Remessa"><text text-anchor="middle" x="385" y="-297.4" font-family="Times New Roman,serif" font-size="12.00"> 1h </text></a></g></g><!-- 7316831560597932829&#45;&gt;&#45;2142120187836555337 --><g id="edge15" class="edge"><title>7316831560597932829&#45;&gt;&#45;2142120187836555337</title><g id="a_edge15"><a xlink:title="Mandado &#45;&gt; Expedição de documento"><path fill="none" stroke="#389600" d="M227.07,-276.11C235.82,-281.78 245.34,-288.06 254,-294 265.57,-301.94 278.03,-310.86 289.14,-318.94"/><polygon fill="#389600" stroke="#389600" points="287.2,-321.85 297.34,-324.93 291.33,-316.2 287.2,-321.85"/></a></g><g id="a_edge15&#45;label"><a xlink:title="Mandado &#45;&gt; Expedição de documento"><text text-anchor="middle" x="282.5" y="-297.4" font-family="Times New Roman,serif" font-size="12.00"> 3D </text></a></g></g><!-- 7316831560597932829&#45;&gt;7316831560597932829 --><g id="edge16" class="edge"><title>7316831560597932829&#45;&gt;7316831560597932829</title><g id="a_edge16"><a xlink:title="Mandado &#45;&gt; Mandado"><path fill="none" stroke="#179600" stroke-width="1.19" d="M248.15,-263.94C258.55,-263.07 266,-260.43 266,-256 266,-253.23 263.09,-251.16 258.37,-249.79"/><polygon fill="#179600" stroke="#179600" stroke-width="1.19" points="258.6,-246.28 248.15,-248.06 257.43,-253.18 258.6,-246.28"/></a></g><g id="a_edge16&#45;label"><a xlink:title="Mandado &#45;&gt; Mandado"><text text-anchor="middle" x="276.5" y="-252.9" font-family="Times New Roman,serif" font-size="12.00"> 1D </text></a></g></g><!-- 7316831560597932829&#45;&gt;&#45;3301837613698818645 --><g id="edge17" class="edge"><title>7316831560597932829&#45;&gt;&#45;3301837613698818645</title><g id="a_edge17"><a xlink:title="Mandado &#45;&gt; Petição"><path fill="none" stroke="#964500" d="M227.75,-235.9C245,-225.75 267.18,-213.63 288,-205 308.97,-196.31 332.68,-188.81 353.89,-182.88"/><polygon fill="#964500" stroke="#964500" points="355.03,-186.2 363.76,-180.19 353.19,-179.45 355.03,-186.2"/></a></g><g id="a_edge17&#45;label"><a xlink:title="Mandado &#45;&gt; Petição"><text text-anchor="middle" x="298.5" y="-208.4" font-family="Times New Roman,serif" font-size="12.00"> 6D </text></a></g></g><!-- 4196473730345433951&#45;&gt;&#45;2142120187836555337 --><g id="edge18" class="edge"><title>4196473730345433951&#45;&gt;&#45;2142120187836555337</title><g id="a_edge18"><a xlink:title="Mero expediente &#45;&gt; Expedição de documento"><path fill="none" stroke="#3a9600" stroke-width="3.13" d="M467.4,-413.91C439.57,-400.82 402.47,-383.37 372.84,-369.44"/><polygon fill="#3a9600" stroke="#3a9600" stroke-width="3.13" points="374.04,-366.14 363.5,-365.05 371.06,-372.47 374.04,-366.14"/></a></g><g id="a_edge18&#45;label"><a xlink:title="Mero expediente &#45;&gt; Expedição de documento"><text text-anchor="middle" x="437.5" y="-386.4" font-family="Times New Roman,serif" font-size="12.00"> 3D </text></a></g></g><!-- 4196473730345433951&#45;&gt;&#45;3301837613698818645 --><g id="edge19" class="edge"><title>4196473730345433951&#45;&gt;&#45;3301837613698818645</title><g id="a_edge19"><a xlink:title="Mero expediente &#45;&gt; Petição"><path fill="none" stroke="#965400" d="M512.18,-413.88C519.18,-377.58 530.16,-296.85 505,-236 497.49,-217.83 482.02,-203.45 466,-192.69"/><polygon fill="#965400" stroke="#965400" points="467.41,-189.44 457.09,-187.08 463.69,-195.37 467.41,-189.44"/></a></g><g id="a_edge19&#45;label"><a xlink:title="Mero expediente &#45;&gt; Petição"><text text-anchor="middle" x="530.5" y="-297.4" font-family="Times New Roman,serif" font-size="12.00"> 4D </text></a></g></g><!-- &#45;3301837613698818645&#45;&gt;&#45;2366248699620310184 --><g id="edge20" class="edge"><title>&#45;3301837613698818645&#45;&gt;&#45;2366248699620310184</title><g id="a_edge20"><a xlink:title="Petição &#45;&gt; Conclusão"><path fill="none" stroke="#965400" stroke-width="3.58" d="M466.31,-169.47C567.7,-173.77 784,-190.5 784,-255 784,-435 784,-435 784,-435 784,-482.59 729.07,-504.25 683.19,-514.05"/><polygon fill="#965400" stroke="#965400" stroke-width="3.58" points="682.39,-510.64 673.26,-516.02 683.75,-517.51 682.39,-510.64"/></a></g><g id="a_edge20&#45;label"><a xlink:title="Petição &#45;&gt; Conclusão"><text text-anchor="middle" x="794.5" y="-341.9" font-family="Times New Roman,serif" font-size="12.00"> 4D </text></a></g></g><!-- &#45;3301837613698818645&#45;&gt;6111611458458012373 --><g id="edge21" class="edge"><title>&#45;3301837613698818645&#45;&gt;6111611458458012373</title><g id="a_edge21"><a xlink:title="Petição &#45;&gt; Documento"><path fill="none" stroke="#963700" d="M363.91,-156.23C328.01,-149.17 278.93,-139.14 236,-129 192.28,-118.68 143.25,-105.59 106.22,-95.39"/><polygon fill="#963700" stroke="#963700" points="106.68,-91.88 96.11,-92.59 104.82,-98.63 106.68,-91.88"/></a></g><g id="a_edge21&#45;label"><a xlink:title="Petição &#45;&gt; Documento"><text text-anchor="middle" x="246.5" y="-119.4" font-family="Times New Roman,serif" font-size="12.00"> 8D </text></a></g></g><!-- &#45;3301837613698818645&#45;&gt;&#45;2142120187836555337 --><g id="edge22" class="edge"><title>&#45;3301837613698818645&#45;&gt;&#45;2142120187836555337</title><g id="a_edge22"><a xlink:title="Petição &#45;&gt; Expedição de documento"><path fill="none" stroke="#964800" stroke-width="1.92" d="M438.14,-187.25C461.71,-209.27 492.26,-246.13 473,-276 456.99,-300.83 429.48,-316.69 402.34,-326.78"/><polygon fill="#964800" stroke="#964800" stroke-width="1.92" points="401.07,-323.52 392.78,-330.12 403.38,-330.13 401.07,-323.52"/></a></g><g id="a_edge22&#45;label"><a xlink:title="Petição &#45;&gt; Expedição de documento"><text text-anchor="middle" x="490.5" y="-252.9" font-family="Times New Roman,serif" font-size="12.00"> 6D </text></a></g></g><!-- &#45;3301837613698818645&#45;&gt;&#45;3301837613698818645 --><g id="edge23" class="edge"><title>&#45;3301837613698818645&#45;&gt;&#45;3301837613698818645</title><g id="a_edge23"><a xlink:title="Petição &#45;&gt; Petição"><path fill="none" stroke="#019600" stroke-width="3.35" d="M466.15,-174.94C476.55,-174.07 484,-171.43 484,-167 484,-164.23 481.09,-162.16 476.37,-160.79"/><polygon fill="#019600" stroke="#019600" stroke-width="3.35" points="476.6,-157.28 466.15,-159.06 475.43,-164.18 476.6,-157.28"/></a></g><g id="a_edge23&#45;label"><a xlink:title="Petição &#45;&gt; Petição"><text text-anchor="middle" x="493" y="-163.9" font-family="Times New Roman,serif" font-size="12.00"> 1h </text></a></g></g><!-- &#45;3301837613698818645&#45;&gt;&#45;3074157233288570601 --><g id="edge24" class="edge"><title>&#45;3301837613698818645&#45;&gt;&#45;3074157233288570601</title><g id="a_edge24"><a xlink:title="Petição &#45;&gt; Remessa"><path fill="none" stroke="#965900" d="M416.85,-187.19C417.33,-192.91 417.77,-199.2 418,-205 418.27,-211.61 418.2,-218.71 417.97,-225.42"/><polygon fill="#965900" stroke="#965900" points="414.47,-225.38 417.51,-235.53 421.46,-225.7 414.47,-225.38"/></a></g><g id="a_edge24&#45;label"><a xlink:title="Petição &#45;&gt; Remessa"><text text-anchor="middle" x="429.5" y="-208.4" font-family="Times New Roman,serif" font-size="12.00"> 4D </text></a></g></g><!-- &#45;3074157233288570601&#45;&gt;&#45;3301837613698818645 --><g id="edge25" class="edge"><title>&#45;3074157233288570601&#45;&gt;&#45;3301837613698818645</title><g id="a_edge25"><a xlink:title="Remessa &#45;&gt; Petição"><path fill="none" stroke="#960300" d="M397.05,-235.72C392.94,-230.4 389.18,-224.33 387,-218 384.4,-210.46 386.17,-202.74 389.83,-195.69"/><polygon fill="#960300" stroke="#960300" points="392.84,-197.49 395.3,-187.19 386.95,-193.71 392.84,-197.49"/></a></g><g id="a_edge25&#45;label"><a xlink:title="Remessa &#45;&gt; Petição"><text text-anchor="middle" x="400.5" y="-208.4" font-family="Times New Roman,serif" font-size="12.00"> 23D </text></a></g></g></g></svg>