<?xml version="1.0" encoding="UTF-8" standalone="no"?><!DOCTYPE svg PUBLIC "-//W3C//DTD SVG 1.1//EN" "http://www.w3.org/Graphics/SVG/1.1/DTD/svg11.dtd"><!-- Generated by graphviz version 2.49.3 (20211023.0002) --><!-- Pages: 1 --><svg width="820pt" height="551pt" viewBox="0.00 0.00 820.26 551.00" xmlns="http://www.w3.org/2000/svg" xmlns:xlink="http://www.w3.org/1999/xlink"><g id="graph0" class="graph" transform="scale(1 1) rotate(0) translate(4 547)"><!-- 1569400017503937267 --><g id="node1" class="node"><title>1569400017503937267</title><g id="a_node1"><a xlink:title="Distribuição"><path fill="white" stroke="black" d="M134.26,-543C134.26,-543 62.26,-543 62.26,-543 56.26,-543 50.26,-537 50.26,-531 50.26,-531 50.26,-515 50.26,-515 50.26,-509 56.26,-503 62.26,-503 62.26,-503 134.26,-503 134.26,-503 140.26,-503 146.26,-509 146.26,-515 146.26,-515 146.26,-531 146.26,-531 146.26,-537 140.26,-543 134.26,-543"/><text text-anchor="middle" x="98.26" y="-526.4" font-family="Times New Roman,serif" font-size="12.00"> Distribuição &#160;</text><text text-anchor="middle" x="98.26" y="-513.4" font-family="Times New Roman,serif" font-size="12.00"> 538 movimentos </text></a></g></g><!-- 2477806586160351048 --><g id="node3" class="node"><title>2477806586160351048</title><g id="a_node3"><a xlink:title="Audiência"><path fill="#ffffff" stroke="black" d="M282.26,-454C282.26,-454 210.26,-454 210.26,-454 204.26,-454 198.26,-448 198.26,-442 198.26,-442 198.26,-426 198.26,-426 198.26,-420 204.26,-414 210.26,-414 210.26,-414 282.26,-414 282.26,-414 288.26,-414 294.26,-420 294.26,-426 294.26,-426 294.26,-442 294.26,-442 294.26,-448 288.26,-454 282.26,-454"/><text text-anchor="middle" x="246.26" y="-437.4" font-family="Times New Roman,serif" font-size="12.00"> Audiência &#160;</text><text text-anchor="middle" x="246.26" y="-424.4" font-family="Times New Roman,serif" font-size="12.00"> 209 movimentos </text></a></g></g><!-- 1569400017503937267&#45;&gt;2477806586160351048 --><g id="edge8" class="edge"><title>1569400017503937267&#45;&gt;2477806586160351048</title><g id="a_edge8"><a xlink:title="Distribuição &#45;&gt; Audiência"><path fill="none" stroke="#009600" d="M130.74,-502.91C152.62,-490.05 181.66,-472.97 205.15,-459.16"/><polygon fill="#009600" stroke="#009600" points="207.01,-462.13 213.86,-454.05 203.46,-456.1 207.01,-462.13"/></a></g><g id="a_edge8&#45;label"><a xlink:title="Distribuição &#45;&gt; Audiência"><text text-anchor="middle" x="191.76" y="-475.4" font-family="Times New Roman,serif" font-size="12.00"> 1m </text></a></g></g><!-- 3481022503272025849 --><g id="node4" class="node"><title>3481022503272025849</title><g id="a_node4"><a xlink:title="Conclusão"><path fill="#ffffff" stroke="black" stroke-width="2.5" d="M147.26,-276C147.26,-276 69.26,-276 69.26,-276 63.26,-276 57.26,-270 57.26,-264 57.26,-264 57.26,-248 57.26,-248 57.26,-242 63.26,-236 69.26,-236 69.26,-236 147.26,-236 147.26,-236 153.26,-236 159.26,-242 159.26,-248 159.26,-248 159.26,-264 159.26,-264 159.26,-270 153.26,-276 147.26,-276"/><text text-anchor="middle" x="108.26" y="-259.4" font-family="Times New Roman,serif" font-size="12.00"> Conclusão &#160;</text><text text-anchor="middle" x="108.26" y="-246.4" font-family="Times New Roman,serif" font-size="12.00"> 3353 movimentos </text></a></g></g><!-- 1569400017503937267&#45;&gt;3481022503272025849 --><g id="edge9" class="edge"><title>1569400017503937267&#45;&gt;3481022503272025849</title><g id="a_edge9"><a xlink:title="Distribuição &#45;&gt; Conclusão"><path fill="none" stroke="#009600" stroke-width="1.28" d="M98.98,-502.94C100.71,-457.21 105.09,-341.02 107.15,-286.32"/><polygon fill="#009600" stroke="#009600" stroke-width="1.28" points="110.66,-286.37 107.54,-276.24 103.66,-286.1 110.66,-286.37"/></a></g><g id="a_edge9&#45;label"><a xlink:title="Distribuição &#45;&gt; Conclusão"><text text-anchor="middle" x="112.76" y="-386.4" font-family="Times New Roman,serif" font-size="12.00"> 2s </text></a></g></g><!-- &#45;7475462392750634986 --><g id="node2" class="node"><title>&#45;7475462392750634986</title><g id="a_node2"><a xlink:title="Definitivo"><path fill="white" stroke="black" d="M800.26,-40C800.26,-40 728.26,-40 728.26,-40 722.26,-40 716.26,-34 716.26,-28 716.26,-28 716.26,-12 716.26,-12 716.26,-6 722.26,0 728.26,0 728.26,0 800.26,0 800.26,0 806.26,0 812.26,-6 812.26,-12 812.26,-12 812.26,-28 812.26,-28 812.26,-34 806.26,-40 800.26,-40"/><text text-anchor="middle" x="764.26" y="-23.4" font-family="Times New Roman,serif" font-size="12.00"> Definitivo &#160;</text><text text-anchor="middle" x="764.26" y="-10.4" font-family="Times New Roman,serif" font-size="12.00"> 564 movimentos </text></a></g></g><!-- 4422747661767652410 --><g id="node7" class="node"><title>4422747661767652410</title><g id="a_node7"><a xlink:title="Expedição de documento"><path fill="#ffffff" stroke="black" stroke-width="5" d="M391.76,-365C391.76,-365 276.76,-365 276.76,-365 270.76,-365 264.76,-359 264.76,-353 264.76,-353 264.76,-337 264.76,-337 264.76,-331 270.76,-325 276.76,-325 276.76,-325 391.76,-325 391.76,-325 397.76,-325 403.76,-331 403.76,-337 403.76,-337 403.76,-353 403.76,-353 403.76,-359 397.76,-365 391.76,-365"/><text text-anchor="middle" x="334.26" y="-348.4" font-family="Times New Roman,serif" font-size="12.00"> Expedição de documento &#160;</text><text text-anchor="middle" x="334.26" y="-335.4" font-family="Times New Roman,serif" font-size="12.00"> 6718 movimentos </text></a></g></g><!-- 2477806586160351048&#45;&gt;4422747661767652410 --><g id="edge1" class="edge"><title>2477806586160351048&#45;&gt;4422747661767652410</title><g id="a_edge1"><a xlink:title="Audiência &#45;&gt; Expedição de documento"><path fill="none" stroke="#009600" d="M265.79,-413.69C278.1,-401.53 294.14,-385.66 307.61,-372.35"/><polygon fill="#009600" stroke="#009600" points="310.13,-374.77 314.79,-365.25 305.21,-369.8 310.13,-374.77"/></a></g><g id="a_edge1&#45;label"><a xlink:title="Audiência &#45;&gt; Expedição de documento"><text text-anchor="middle" x="306.76" y="-386.4" font-family="Times New Roman,serif" font-size="12.00"> 9m </text></a></g></g><!-- 7987048985312221378 --><g id="node5" class="node"><title>7987048985312221378</title><g id="a_node5"><a xlink:title="Despacho"><path fill="#ffffff" stroke="black" stroke-width="1.53" d="M291.26,-187C291.26,-187 213.26,-187 213.26,-187 207.26,-187 201.26,-181 201.26,-175 201.26,-175 201.26,-159 201.26,-159 201.26,-153 207.26,-147 213.26,-147 213.26,-147 291.26,-147 291.26,-147 297.26,-147 303.26,-153 303.26,-159 303.26,-159 303.26,-175 303.26,-175 303.26,-181 297.26,-187 291.26,-187"/><text text-anchor="middle" x="252.26" y="-170.4" font-family="Times New Roman,serif" font-size="12.00"> Despacho &#160;</text><text text-anchor="middle" x="252.26" y="-157.4" font-family="Times New Roman,serif" font-size="12.00"> 2053 movimentos </text></a></g></g><!-- 3481022503272025849&#45;&gt;7987048985312221378 --><g id="edge2" class="edge"><title>3481022503272025849&#45;&gt;7987048985312221378</title><g id="a_edge2"><a xlink:title="Conclusão &#45;&gt; Despacho"><path fill="none" stroke="#219600" stroke-width="4.03" d="M139.86,-235.91C161.06,-223.1 189.16,-206.12 211.96,-192.35"/><polygon fill="#219600" stroke="#219600" stroke-width="4.03" points="214,-195.24 220.73,-187.05 210.35,-189.2 214,-195.24"/></a></g><g id="a_edge2&#45;label"><a xlink:title="Conclusão &#45;&gt; Despacho"><text text-anchor="middle" x="199.76" y="-208.4" font-family="Times New Roman,serif" font-size="12.00"> 1D </text></a></g></g><!-- 3481022503272025849&#45;&gt;4422747661767652410 --><g id="edge3" class="edge"><title>3481022503272025849&#45;&gt;4422747661767652410</title><g id="a_edge3"><a xlink:title="Conclusão &#45;&gt; Expedição de documento"><path fill="none" stroke="#964400" d="M123.64,-276.37C133.1,-286.99 146.1,-299.49 160.26,-307 189.06,-322.28 223.7,-331.25 254.46,-336.51"/><polygon fill="#964400" stroke="#964400" points="254.3,-340.03 264.73,-338.16 255.41,-333.12 254.3,-340.03"/></a></g><g id="a_edge3&#45;label"><a xlink:title="Conclusão &#45;&gt; Expedição de documento"><text text-anchor="middle" x="170.76" y="-297.4" font-family="Times New Roman,serif" font-size="12.00"> 6D </text></a></g></g><!-- &#45;7502121929537258044 --><g id="node8" class="node"><title>&#45;7502121929537258044</title><g id="a_node8"><a xlink:title="Julgamento"><path fill="#ffffff" stroke="black" d="M171.26,-187C171.26,-187 99.26,-187 99.26,-187 93.26,-187 87.26,-181 87.26,-175 87.26,-175 87.26,-159 87.26,-159 87.26,-153 93.26,-147 99.26,-147 99.26,-147 171.26,-147 171.26,-147 177.26,-147 183.26,-153 183.26,-159 183.26,-159 183.26,-175 183.26,-175 183.26,-181 177.26,-187 171.26,-187"/><text text-anchor="middle" x="135.26" y="-170.4" font-family="Times New Roman,serif" font-size="12.00"> Julgamento &#160;</text><text text-anchor="middle" x="135.26" y="-157.4" font-family="Times New Roman,serif" font-size="12.00"> 685 movimentos </text></a></g></g><!-- 3481022503272025849&#45;&gt;&#45;7502121929537258044 --><g id="edge4" class="edge"><title>3481022503272025849&#45;&gt;&#45;7502121929537258044</title><g id="a_edge4"><a xlink:title="Conclusão &#45;&gt; Julgamento"><path fill="none" stroke="#965c00" stroke-width="1.44" d="M108.8,-235.62C109.51,-226.19 111.04,-214.8 114.26,-205 115.22,-202.08 116.43,-199.13 117.77,-196.23"/><polygon fill="#965c00" stroke="#965c00" stroke-width="1.44" points="120.91,-197.78 122.4,-187.3 114.69,-194.56 120.91,-197.78"/></a></g><g id="a_edge4&#45;label"><a xlink:title="Conclusão &#45;&gt; Julgamento"><text text-anchor="middle" x="124.76" y="-208.4" font-family="Times New Roman,serif" font-size="12.00"> 3D </text></a></g></g><!-- &#45;2998375710546834842 --><g id="node10" class="node"><title>&#45;2998375710546834842</title><g id="a_node10"><a xlink:title="Petição"><path fill="#ffffff" stroke="black" stroke-width="3.84" d="M370.26,-98C370.26,-98 292.26,-98 292.26,-98 286.26,-98 280.26,-92 280.26,-86 280.26,-86 280.26,-70 280.26,-70 280.26,-64 286.26,-58 292.26,-58 292.26,-58 370.26,-58 370.26,-58 376.26,-58 382.26,-64 382.26,-70 382.26,-70 382.26,-86 382.26,-86 382.26,-92 376.26,-98 370.26,-98"/><text text-anchor="middle" x="331.26" y="-81.4" font-family="Times New Roman,serif" font-size="12.00"> Petição &#160;</text><text text-anchor="middle" x="331.26" y="-68.4" font-family="Times New Roman,serif" font-size="12.00"> 5154 movimentos </text></a></g></g><!-- 3481022503272025849&#45;&gt;&#45;2998375710546834842 --><g id="edge5" class="edge"><title>3481022503272025849&#45;&gt;&#45;2998375710546834842</title><g id="a_edge5"><a xlink:title="Conclusão &#45;&gt; Petição"><path fill="none" stroke="#965c00" d="M57.18,-236.7C36.01,-225.97 14.31,-209.92 5.26,-187 -7.26,-155.3 3.89,-131.48 34.26,-116 74.22,-95.63 195.34,-85.91 269.99,-81.74"/><polygon fill="#965c00" stroke="#965c00" points="270.41,-85.22 280.21,-81.18 270.03,-78.23 270.41,-85.22"/></a></g><g id="a_edge5&#45;label"><a xlink:title="Conclusão &#45;&gt; Petição"><text text-anchor="middle" x="15.76" y="-163.9" font-family="Times New Roman,serif" font-size="12.00"> 3D </text></a></g></g><!-- 7987048985312221378&#45;&gt;4422747661767652410 --><g id="edge6" class="edge"><title>7987048985312221378&#45;&gt;4422747661767652410</title><g id="a_edge6"><a xlink:title="Despacho &#45;&gt; Expedição de documento"><path fill="none" stroke="#965c00" stroke-width="3.64" d="M252.1,-187.38C252.53,-209.51 255.07,-246.47 266.26,-276 272.53,-292.55 285.27,-307.05 298.04,-318.37"/><polygon fill="#965c00" stroke="#965c00" stroke-width="3.64" points="296.03,-321.25 305.94,-324.99 300.52,-315.88 296.03,-321.25"/></a></g><g id="a_edge6&#45;label"><a xlink:title="Despacho &#45;&gt; Expedição de documento"><text text-anchor="middle" x="276.76" y="-252.9" font-family="Times New Roman,serif" font-size="12.00"> 3D </text></a></g></g><!-- 7987048985312221378&#45;&gt;&#45;2998375710546834842 --><g id="edge7" class="edge"><title>7987048985312221378&#45;&gt;&#45;2998375710546834842</title><g id="a_edge7"><a xlink:title="Despacho &#45;&gt; Petição"><path fill="none" stroke="#965400" d="M268.82,-146.86C277,-137.49 287.06,-126.08 296.26,-116 299.36,-112.6 302.65,-109.06 305.92,-105.56"/><polygon fill="#965400" stroke="#965400" points="308.66,-107.76 312.96,-98.08 303.56,-102.96 308.66,-107.76"/></a></g><g id="a_edge7&#45;label"><a xlink:title="Despacho &#45;&gt; Petição"><text text-anchor="middle" x="306.76" y="-119.4" font-family="Times New Roman,serif" font-size="12.00"> 4D </text></a></g></g><!-- 201821933845037951 --><g id="node6" class="node"><title>201821933845037951</title><g id="a_node6"><a xlink:title="Documento"><path fill="#ffffff" stroke="black" d="M610.26,-276C610.26,-276 538.26,-276 538.26,-276 532.26,-276 526.26,-270 526.26,-264 526.26,-264 526.26,-248 526.26,-248 526.26,-242 532.26,-236 538.26,-236 538.26,-236 610.26,-236 610.26,-236 616.26,-236 622.26,-242 622.26,-248 622.26,-248 622.26,-264 622.26,-264 622.26,-270 616.26,-276 610.26,-276"/><text text-anchor="middle" x="574.26" y="-259.4" font-family="Times New Roman,serif" font-size="12.00"> Documento &#160;</text><text text-anchor="middle" x="574.26" y="-246.4" font-family="Times New Roman,serif" font-size="12.00"> 749 movimentos </text></a></g></g><!-- 201821933845037951&#45;&gt;4422747661767652410 --><g id="edge10" class="edge"><title>201821933845037951&#45;&gt;4422747661767652410</title><g id="a_edge10"><a xlink:title="Documento &#45;&gt; Expedição de documento"><path fill="none" stroke="#962c00" d="M554.46,-276.03C542.31,-286.67 525.94,-299.31 509.26,-307 479.62,-320.67 444.81,-329.35 414.08,-334.84"/><polygon fill="#962c00" stroke="#962c00" points="413.1,-331.45 403.83,-336.58 414.28,-338.35 413.1,-331.45"/></a></g><g id="a_edge10&#45;label"><a xlink:title="Documento &#45;&gt; Expedição de documento"><text text-anchor="middle" x="543.76" y="-297.4" font-family="Times New Roman,serif" font-size="12.00"> 11D </text></a></g></g><!-- 201821933845037951&#45;&gt;&#45;2998375710546834842 --><g id="edge11" class="edge"><title>201821933845037951&#45;&gt;&#45;2998375710546834842</title><g id="a_edge11"><a xlink:title="Documento &#45;&gt; Petição"><path fill="none" stroke="#964e00" d="M571.4,-235.92C565.78,-205.56 550.38,-146.6 512.26,-116 493.95,-101.3 437.37,-91.31 392.29,-85.45"/><polygon fill="#964e00" stroke="#964e00" points="392.64,-81.97 382.28,-84.2 391.77,-88.92 392.64,-81.97"/></a></g><g id="a_edge11&#45;label"><a xlink:title="Documento &#45;&gt; Petição"><text text-anchor="middle" x="567.76" y="-163.9" font-family="Times New Roman,serif" font-size="12.00"> 5D </text></a></g></g><!-- 4422747661767652410&#45;&gt;&#45;7475462392750634986 --><g id="edge13" class="edge"><title>4422747661767652410&#45;&gt;&#45;7475462392750634986</title><g id="a_edge13"><a xlink:title="Expedição de documento &#45;&gt; Definitivo"><path fill="none" stroke="#009600" d="M403.83,-344.08C525.53,-342.33 764.26,-329.64 764.26,-257 764.26,-257 764.26,-257 764.26,-121.5 764.26,-97.54 764.26,-70.37 764.26,-50.32"/><polygon fill="#009600" stroke="#009600" points="767.76,-50.27 764.26,-40.27 760.76,-50.27 767.76,-50.27"/></a></g><g id="a_edge13&#45;label"><a xlink:title="Expedição de documento &#45;&gt; Definitivo"><text text-anchor="middle" x="774.76" y="-208.4" font-family="Times New Roman,serif" font-size="12.00"> 1m </text></a></g></g><!-- 4422747661767652410&#45;&gt;3481022503272025849 --><g id="edge12" class="edge"><title>4422747661767652410&#45;&gt;3481022503272025849</title><g id="a_edge12"><a xlink:title="Expedição de documento &#45;&gt; Conclusão"><path fill="none" stroke="#009600" stroke-width="1.97" d="M264.63,-340.48C209.59,-336.21 138.75,-326.93 118.26,-307 112.61,-301.51 109.68,-293.79 108.27,-286.06"/><polygon fill="#009600" stroke="#009600" stroke-width="1.97" points="111.74,-285.63 107.17,-276.07 104.78,-286.4 111.74,-285.63"/></a></g><g id="a_edge12&#45;label"><a xlink:title="Expedição de documento &#45;&gt; Conclusão"><text text-anchor="middle" x="128.76" y="-297.4" font-family="Times New Roman,serif" font-size="12.00"> 1m </text></a></g></g><!-- 4422747661767652410&#45;&gt;201821933845037951 --><g id="edge14" class="edge"><title>4422747661767652410&#45;&gt;201821933845037951</title><g id="a_edge14"><a xlink:title="Expedição de documento &#45;&gt; Documento"><path fill="none" stroke="#960000" d="M404.02,-340.5C461.33,-336.21 536.63,-326.9 559.26,-307 565.32,-301.67 568.98,-294.01 571.17,-286.27"/><polygon fill="#960000" stroke="#960000" points="574.65,-286.76 573.3,-276.26 567.8,-285.31 574.65,-286.76"/></a></g><g id="a_edge14&#45;label"><a xlink:title="Expedição de documento &#45;&gt; Documento"><text text-anchor="middle" x="580.76" y="-297.4" font-family="Times New Roman,serif" font-size="12.00"> 24D </text></a></g></g><!-- 4422747661767652410&#45;&gt;4422747661767652410 --><g id="edge15" class="edge"><title>4422747661767652410&#45;&gt;4422747661767652410</title><g id="a_edge15"><a xlink:title="Expedição de documento &#45;&gt; Expedição de documento"><path fill="none" stroke="#259600" stroke-width="4.93" d="M403.93,-352.52C414.55,-351.37 421.76,-348.87 421.76,-345 421.76,-342.52 418.8,-340.6 413.88,-339.24"/><polygon fill="#259600" stroke="#259600" stroke-width="4.93" points="414.53,-334.98 403.93,-337.48 413.03,-343.47 414.53,-334.98"/></a></g><g id="a_edge15&#45;label"><a xlink:title="Expedição de documento &#45;&gt; Expedição de documento"><text text-anchor="middle" x="432.26" y="-341.9" font-family="Times New Roman,serif" font-size="12.00"> 2D </text></a></g></g><!-- &#45;6066848101526773743 --><g id="node9" class="node"><title>&#45;6066848101526773743</title><g id="a_node9"><a xlink:title="Mandado"><path fill="#ffffff" stroke="black" d="M419.26,-276C419.26,-276 341.26,-276 341.26,-276 335.26,-276 329.26,-270 329.26,-264 329.26,-264 329.26,-248 329.26,-248 329.26,-242 335.26,-236 341.26,-236 341.26,-236 419.26,-236 419.26,-236 425.26,-236 431.26,-242 431.26,-248 431.26,-248 431.26,-264 431.26,-264 431.26,-270 425.26,-276 419.26,-276"/><text text-anchor="middle" x="380.26" y="-259.4" font-family="Times New Roman,serif" font-size="12.00"> Mandado &#160;</text><text text-anchor="middle" x="380.26" y="-246.4" font-family="Times New Roman,serif" font-size="12.00"> 1143 movimentos </text></a></g></g><!-- 4422747661767652410&#45;&gt;&#45;6066848101526773743 --><g id="edge16" class="edge"><title>4422747661767652410&#45;&gt;&#45;6066848101526773743</title><g id="a_edge16"><a xlink:title="Expedição de documento &#45;&gt; Mandado"><path fill="none" stroke="#009600" stroke-width="1.29" d="M330.96,-324.6C330.21,-314.95 330.72,-303.38 335.26,-294 337.05,-290.32 339.39,-286.87 342.08,-283.69"/><polygon fill="#009600" stroke="#009600" stroke-width="1.29" points="344.82,-285.89 349.32,-276.3 339.82,-280.99 344.82,-285.89"/></a></g><g id="a_edge16&#45;label"><a xlink:title="Expedição de documento &#45;&gt; Mandado"><text text-anchor="middle" x="346.76" y="-297.4" font-family="Times New Roman,serif" font-size="12.00"> 10s </text></a></g></g><!-- 4422747661767652410&#45;&gt;&#45;2998375710546834842 --><g id="edge17" class="edge"><title>4422747661767652410&#45;&gt;&#45;2998375710546834842</title><g id="a_edge17"><a xlink:title="Expedição de documento &#45;&gt; Petição"><path fill="none" stroke="#962000" stroke-width="5" d="M329.23,-324.82C325.94,-311.28 321.96,-292.67 320.26,-276 314.2,-216.5 321.52,-146.53 326.79,-108.05"/><polygon fill="#962000" stroke="#962000" stroke-width="5" points="331.14,-108.58 328.21,-98.06 322.47,-107.35 331.14,-108.58"/></a></g><g id="a_edge17&#45;label"><a xlink:title="Expedição de documento &#45;&gt; Petição"><text text-anchor="middle" x="332.76" y="-208.4" font-family="Times New Roman,serif" font-size="12.00"> 14D </text></a></g></g><!-- &#45;1899612676363016532 --><g id="node11" class="node"><title>&#45;1899612676363016532</title><g id="a_node11"><a xlink:title="Remessa"><path fill="#ffffff" stroke="black" d="M724.26,-276C724.26,-276 652.26,-276 652.26,-276 646.26,-276 640.26,-270 640.26,-264 640.26,-264 640.26,-248 640.26,-248 640.26,-242 646.26,-236 652.26,-236 652.26,-236 724.26,-236 724.26,-236 730.26,-236 736.26,-242 736.26,-248 736.26,-248 736.26,-264 736.26,-264 736.26,-270 730.26,-276 724.26,-276"/><text text-anchor="middle" x="688.26" y="-259.4" font-family="Times New Roman,serif" font-size="12.00"> Remessa &#160;</text><text text-anchor="middle" x="688.26" y="-246.4" font-family="Times New Roman,serif" font-size="12.00"> 518 movimentos </text></a></g></g><!-- 4422747661767652410&#45;&gt;&#45;1899612676363016532 --><g id="edge18" class="edge"><title>4422747661767652410&#45;&gt;&#45;1899612676363016532</title><g id="a_edge18"><a xlink:title="Expedição de documento &#45;&gt; Remessa"><path fill="none" stroke="#019600" d="M403.95,-341.2C458.12,-337.38 534.52,-328.35 598.26,-307 616.68,-300.83 635.68,-290.89 651.45,-281.49"/><polygon fill="#019600" stroke="#019600" points="653.63,-284.26 660.33,-276.05 649.97,-278.29 653.63,-284.26"/></a></g><g id="a_edge18&#45;label"><a xlink:title="Expedição de documento &#45;&gt; Remessa"><text text-anchor="middle" x="635.26" y="-297.4" font-family="Times New Roman,serif" font-size="12.00"> 1h </text></a></g></g><!-- &#45;7502121929537258044&#45;&gt;4422747661767652410 --><g id="edge19" class="edge"><title>&#45;7502121929537258044&#45;&gt;4422747661767652410</title><g id="a_edge19"><a xlink:title="Julgamento &#45;&gt; Expedição de documento"><path fill="none" stroke="#2f9600" stroke-width="1.53" d="M161.64,-187.2C168.35,-192.62 175.34,-198.75 181.26,-205 207.98,-233.21 205.13,-248.19 232.26,-276 248.22,-292.35 254.36,-294.17 273.26,-307 279.39,-311.16 285.99,-315.4 292.5,-319.45"/><polygon fill="#2f9600" stroke="#2f9600" stroke-width="1.53" points="290.91,-322.58 301.27,-324.83 294.57,-316.61 290.91,-322.58"/></a></g><g id="a_edge19&#45;label"><a xlink:title="Julgamento &#45;&gt; Expedição de documento"><text text-anchor="middle" x="242.76" y="-252.9" font-family="Times New Roman,serif" font-size="12.00"> 2D </text></a></g></g><!-- &#45;6066848101526773743&#45;&gt;4422747661767652410 --><g id="edge20" class="edge"><title>&#45;6066848101526773743&#45;&gt;4422747661767652410</title><g id="a_edge20"><a xlink:title="Mandado &#45;&gt; Expedição de documento"><path fill="none" stroke="#389600" d="M372.61,-276.34C368.67,-285.76 363.58,-297.15 358.26,-307 356.61,-310.06 354.79,-313.19 352.92,-316.28"/><polygon fill="#389600" stroke="#389600" points="349.94,-314.44 347.57,-324.77 355.86,-318.18 349.94,-314.44"/></a></g><g id="a_edge20&#45;label"><a xlink:title="Mandado &#45;&gt; Expedição de documento"><text text-anchor="middle" x="375.76" y="-297.4" font-family="Times New Roman,serif" font-size="12.00"> 3D </text></a></g></g><!-- &#45;6066848101526773743&#45;&gt;&#45;6066848101526773743 --><g id="edge21" class="edge"><title>&#45;6066848101526773743&#45;&gt;&#45;6066848101526773743</title><g id="a_edge21"><a xlink:title="Mandado &#45;&gt; Mandado"><path fill="none" stroke="#179600" stroke-width="1.39" d="M431.42,-263.94C441.81,-263.07 449.26,-260.43 449.26,-256 449.26,-253.23 446.35,-251.16 441.63,-249.79"/><polygon fill="#179600" stroke="#179600" stroke-width="1.39" points="441.86,-246.28 431.42,-248.06 440.69,-253.18 441.86,-246.28"/></a></g><g id="a_edge21&#45;label"><a xlink:title="Mandado &#45;&gt; Mandado"><text text-anchor="middle" x="459.76" y="-252.9" font-family="Times New Roman,serif" font-size="12.00"> 1D </text></a></g></g><!-- &#45;6066848101526773743&#45;&gt;&#45;2998375710546834842 --><g id="edge22" class="edge"><title>&#45;6066848101526773743&#45;&gt;&#45;2998375710546834842</title><g id="a_edge22"><a xlink:title="Mandado &#45;&gt; Petição"><path fill="none" stroke="#964500" d="M376.19,-235.92C370.27,-208.95 358.53,-158.26 345.26,-116 344.39,-113.24 343.43,-110.38 342.43,-107.53"/><polygon fill="#964500" stroke="#964500" points="345.68,-106.24 338.95,-98.06 339.11,-108.65 345.68,-106.24"/></a></g><g id="a_edge22&#45;label"><a xlink:title="Mandado &#45;&gt; Petição"><text text-anchor="middle" x="375.76" y="-163.9" font-family="Times New Roman,serif" font-size="12.00"> 6D </text></a></g></g><!-- &#45;2998375710546834842&#45;&gt;3481022503272025849 --><g id="edge23" class="edge"><title>&#45;2998375710546834842&#45;&gt;3481022503272025849</title><g id="a_edge23"><a xlink:title="Petição &#45;&gt; Conclusão"><path fill="none" stroke="#965400" stroke-width="4.16" d="M280.04,-84.27C208.51,-92.81 84.4,-112.3 57.26,-147 37.86,-171.8 59.42,-205.17 80.17,-228.23"/><polygon fill="#965400" stroke="#965400" stroke-width="4.16" points="77.61,-230.82 87.11,-235.62 82.92,-225.84 77.61,-230.82"/></a></g><g id="a_edge23&#45;label"><a xlink:title="Petição &#45;&gt; Conclusão"><text text-anchor="middle" x="67.76" y="-163.9" font-family="Times New Roman,serif" font-size="12.00"> 4D </text></a></g></g><!-- &#45;2998375710546834842&#45;&gt;4422747661767652410 --><g id="edge24" class="edge"><title>&#45;2998375710546834842&#45;&gt;4422747661767652410</title><g id="a_edge24"><a xlink:title="Petição &#45;&gt; Expedição de documento"><path fill="none" stroke="#964800" stroke-width="2.24" d="M359.38,-98.13C395.14,-124.37 455.14,-175.25 479.26,-236 485.82,-252.52 488.8,-261 479.26,-276 464.38,-299.41 439.08,-314.9 413.74,-325.09"/><polygon fill="#964800" stroke="#964800" stroke-width="2.24" points="412.17,-321.94 404.05,-328.74 414.64,-328.49 412.17,-321.94"/></a></g><g id="a_edge24&#45;label"><a xlink:title="Petição &#45;&gt; Expedição de documento"><text text-anchor="middle" x="480.76" y="-208.4" font-family="Times New Roman,serif" font-size="12.00"> 6D </text></a></g></g><!-- &#45;2998375710546834842&#45;&gt;&#45;2998375710546834842 --><g id="edge25" class="edge"><title>&#45;2998375710546834842&#45;&gt;&#45;2998375710546834842</title><g id="a_edge25"><a xlink:title="Petição &#45;&gt; Petição"><path fill="none" stroke="#019600" stroke-width="3.89" d="M382.42,-85.94C392.81,-85.07 400.26,-82.43 400.26,-78 400.26,-75.23 397.35,-73.16 392.63,-71.79"/><polygon fill="#019600" stroke="#019600" stroke-width="3.89" points="392.86,-68.28 382.42,-70.06 391.69,-75.18 392.86,-68.28"/></a></g><g id="a_edge25&#45;label"><a xlink:title="Petição &#45;&gt; Petição"><text text-anchor="middle" x="409.26" y="-74.9" font-family="Times New Roman,serif" font-size="12.00"> 1h </text></a></g></g></g></svg>