<svg xmlns="http://www.w3.org/2000/svg" xmlns:xlink="http://www.w3.org/1999/xlink" width="866pt" height="616" viewBox="0 0 866 462"><g id="graph0" class="graph" transform="scale(1 1) rotate(0) translate(4 458)"><g id="node1" class="node"><title>1894939040614898085</title><g id="a_node1"><a xlink:title="Distribuição"><path fill="#fff" stroke="#000" d="M568,-454C568,-454 496,-454 496,-454 490,-454 484,-448 484,-442 484,-442 484,-426 484,-426 484,-420 490,-414 496,-414 496,-414 568,-414 568,-414 574,-414 580,-420 580,-426 580,-426 580,-442 580,-442 580,-448 574,-454 568,-454"/><text x="532" y="-437.4" font-family="Times New Roman,serif" font-size="12" text-anchor="middle">Distribuição</text><text x="532" y="-424.4" font-family="Times New Roman,serif" font-size="12" text-anchor="middle">538 movimentos</text></a></g></g><g id="node3" class="node"><title>-2366248699620310184</title><g id="a_node3"><a xlink:title="Conclusão"><path fill="#fff" stroke="#000" stroke-width="2.5" d="M571,-365C571,-365 493,-365 493,-365 487,-365 481,-359 481,-353 481,-353 481,-337 481,-337 481,-331 487,-325 493,-325 493,-325 571,-325 571,-325 577,-325 583,-331 583,-337 583,-337 583,-353 583,-353 583,-359 577,-365 571,-365"/><text x="532" y="-348.4" font-family="Times New Roman,serif" font-size="12" text-anchor="middle">Conclusão</text><text x="532" y="-335.4" font-family="Times New Roman,serif" font-size="12" text-anchor="middle">3353 movimentos</text></a></g></g><g id="edge9" class="edge"><title>1894939040614898085-&gt;-2366248699620310184</title><g id="a_edge9"><a xlink:title="Distribuição -&gt; Conclusão"><path fill="none" stroke="#009600" stroke-width="1.21" d="M532,-413.69C532,-402.43 532,-387.99 532,-375.35"/><polygon fill="#009600" stroke="#009600" stroke-width="1.21" points="535.5 -375.25 532 -365.25 528.5 -375.25 535.5 -375.25"/></a></g><g id="a_edge9-label"><a xlink:title="Distribuição -&gt; Conclusão"><text x="540.5" y="-386.4" font-family="Times New Roman,serif" font-size="12" text-anchor="middle">2s</text></a></g></g><g id="node2" class="node"><title>-3781142108983599563</title><g id="a_node2"><a xlink:title="Definitivo"><path fill="#fff" stroke="#000" d="M319,-40C319,-40 247,-40 247,-40 241,-40 235,-34 235,-28 235,-28 235,-12 235,-12 235,-6 241,0 247,0 247,0 319,0 319,0 325,0 331,-6 331,-12 331,-12 331,-28 331,-28 331,-34 325,-40 319,-40"/><text x="283" y="-23.4" font-family="Times New Roman,serif" font-size="12" text-anchor="middle">Definitivo</text><text x="283" y="-10.4" font-family="Times New Roman,serif" font-size="12" text-anchor="middle">564 movimentos</text></a></g></g><g id="node10" class="node"><title>-3301837613698818645</title><g id="a_node10"><a xlink:title="Petição"><path fill="#fff" stroke="#000" stroke-width="3.84" d="M359,-187C359,-187 281,-187 281,-187 275,-187 269,-181 269,-175 269,-175 269,-159 269,-159 269,-153 275,-147 281,-147 281,-147 359,-147 359,-147 365,-147 371,-153 371,-159 371,-159 371,-175 371,-175 371,-181 365,-187 359,-187"/><text x="320" y="-170.4" font-family="Times New Roman,serif" font-size="12" text-anchor="middle">Petição</text><text x="320" y="-157.4" font-family="Times New Roman,serif" font-size="12" text-anchor="middle">5154 movimentos</text></a></g></g><g id="edge7" class="edge"><title>-3781142108983599563-&gt;-3301837613698818645</title><g id="a_edge7"><a xlink:title="Definitivo -&gt; Petição"><path fill="none" stroke="#960000" d="M279.92,-40.15C277.19,-62.38 275.23,-99.76 287,-129 288.33,-132.29 290.08,-135.49 292.09,-138.53"/><polygon fill="#960000" stroke="#960000" points="289.44 -140.82 298.3 -146.64 295 -136.57 289.44 -140.82"/></a></g><g id="a_edge7-label"><a xlink:title="Definitivo -&gt; Petição"><text x="298.5" y="-119.4" font-family="Times New Roman,serif" font-size="12" text-anchor="middle">1M</text></a></g></g><g id="node6" class="node"><title>6111611458458012373</title><g id="a_node6"><a xlink:title="Documento"><path fill="#fff" stroke="#000" d="M399,-276C399,-276 327,-276 327,-276 321,-276 315,-270 315,-264 315,-264 315,-248 315,-248 315,-242 321,-236 327,-236 327,-236 399,-236 399,-236 405,-236 411,-242 411,-248 411,-248 411,-264 411,-264 411,-270 405,-276 399,-276"/><text x="363" y="-259.4" font-family="Times New Roman,serif" font-size="12" text-anchor="middle">Documento</text><text x="363" y="-246.4" font-family="Times New Roman,serif" font-size="12" text-anchor="middle">749 movimentos</text></a></g></g><g id="edge1" class="edge"><title>-2366248699620310184-&gt;6111611458458012373</title><g id="a_edge1"><a xlink:title="Conclusão -&gt; Documento"><path fill="none" stroke="#1f9600" d="M486.21,-324.99C473.68,-319.47 460.2,-313.25 448,-307 432.87,-299.25 416.7,-290 402.56,-281.57"/><polygon fill="#1f9600" stroke="#1f9600" points="403.97 -278.33 393.6 -276.17 400.36 -284.33 403.97 -278.33"/></a></g><g id="a_edge1-label"><a xlink:title="Conclusão -&gt; Documento"><text x="458.5" y="-297.4" font-family="Times New Roman,serif" font-size="12" text-anchor="middle">3D</text></a></g></g><g id="node7" class="node"><title>1067539906921362563</title><g id="a_node7"><a xlink:title="Improcedência"><path fill="#fff" stroke="#000" d="M732,-276C732,-276 660,-276 660,-276 654,-276 648,-270 648,-264 648,-264 648,-248 648,-248 648,-242 654,-236 660,-236 660,-236 732,-236 732,-236 738,-236 744,-242 744,-248 744,-248 744,-264 744,-264 744,-270 738,-276 732,-276"/><text x="696" y="-259.4" font-family="Times New Roman,serif" font-size="12" text-anchor="middle">Improcedência</text><text x="696" y="-246.4" font-family="Times New Roman,serif" font-size="12" text-anchor="middle">104 movimentos</text></a></g></g><g id="edge2" class="edge"><title>-2366248699620310184-&gt;1067539906921362563</title><g id="a_edge2"><a xlink:title="Conclusão -&gt; Improcedência"><path fill="none" stroke="#229600" d="M583,-329.2C599.77,-323.38 618.16,-315.93 634,-307 645.88,-300.3 657.81,-291.34 667.99,-282.86"/><polygon fill="#229600" stroke="#229600" points="670.43 -285.38 675.74 -276.21 665.87 -280.07 670.43 -285.38"/></a></g><g id="a_edge2-label"><a xlink:title="Conclusão -&gt; Improcedência"><text x="663.5" y="-297.4" font-family="Times New Roman,serif" font-size="12" text-anchor="middle">4D</text></a></g></g><g id="node9" class="node"><title>4196473730345433951</title><g id="a_node9"><a xlink:title="Mero expediente"><path fill="#fff" stroke="#000" stroke-width="1.52" d="M529,-98C529,-98 451,-98 451,-98 445,-98 439,-92 439,-86 439,-86 439,-70 439,-70 439,-64 445,-58 451,-58 451,-58 529,-58 529,-58 535,-58 541,-64 541,-70 541,-70 541,-86 541,-86 541,-92 535,-98 529,-98"/><text x="490" y="-81.4" font-family="Times New Roman,serif" font-size="12" text-anchor="middle">Mero expediente</text><text x="490" y="-68.4" font-family="Times New Roman,serif" font-size="12" text-anchor="middle">2048 movimentos</text></a></g></g><g id="edge3" class="edge"><title>-2366248699620310184-&gt;4196473730345433951</title><g id="a_edge3"><a xlink:title="Conclusão -&gt; Mero expediente"><path fill="none" stroke="#109600" stroke-width="5" d="M539.91,-324.89C555.71,-283.44 586.36,-183.59 546,-116 543.52,-111.84 540.36,-108.06 536.82,-104.64"/><polygon fill="#109600" stroke="#109600" stroke-width="5" points="539.57 -101.23 529.11 -98.12 533.93 -107.92 539.57 -101.23"/></a></g><g id="a_edge3-label"><a xlink:title="Conclusão -&gt; Mero expediente"><text x="576.5" y="-208.4" font-family="Times New Roman,serif" font-size="12" text-anchor="middle">1D</text></a></g></g><g id="edge4" class="edge"><title>-2366248699620310184-&gt;-3301837613698818645</title><g id="a_edge4"><a xlink:title="Conclusão -&gt; Petição"><path fill="none" stroke="#209600" d="M480.83,-337.22C415.65,-327.42 308.62,-307 285,-276 266.99,-252.37 282.33,-219.12 297.98,-195.77"/><polygon fill="#209600" stroke="#209600" points="301.02 -197.54 303.93 -187.35 295.3 -193.5 301.02 -197.54"/></a></g><g id="a_edge4-label"><a xlink:title="Conclusão -&gt; Petição"><text x="295.5" y="-252.9" font-family="Times New Roman,serif" font-size="12" text-anchor="middle">3D</text></a></g></g><g id="node11" class="node"><title>-6827536499191526894</title><g id="a_node11"><a xlink:title="Procedência"><path fill="#fff" stroke="#000" d="M846,-276C846,-276 774,-276 774,-276 768,-276 762,-270 762,-264 762,-264 762,-248 762,-248 762,-242 768,-236 774,-236 774,-236 846,-236 846,-236 852,-236 858,-242 858,-248 858,-248 858,-264 858,-264 858,-270 852,-276 846,-276"/><text x="810" y="-259.4" font-family="Times New Roman,serif" font-size="12" text-anchor="middle">Procedência</text><text x="810" y="-246.4" font-family="Times New Roman,serif" font-size="12" text-anchor="middle">160 movimentos</text></a></g></g><g id="edge5" class="edge"><title>-2366248699620310184-&gt;-6827536499191526894</title><g id="a_edge5"><a xlink:title="Conclusão -&gt; Procedência"><path fill="none" stroke="#966200" d="M583.08,-332.56C611.28,-325.87 646.82,-316.82 678,-307 703.37,-299.01 730.96,-288.81 754.32,-279.7"/><polygon fill="#966200" stroke="#966200" points="755.69 -282.92 763.72 -276.01 753.13 -276.41 755.69 -282.92"/></a></g><g id="a_edge5-label"><a xlink:title="Conclusão -&gt; Procedência"><text x="725.5" y="-297.4" font-family="Times New Roman,serif" font-size="12" text-anchor="middle">7D</text></a></g></g><g id="node4" class="node"><title>6782424111243638800</title><g id="a_node4"><a xlink:title="Decurso de Prazo"><path fill="#fff" stroke="#000" d="M404.5,-98C404.5,-98 323.5,-98 323.5,-98 317.5,-98 311.5,-92 311.5,-86 311.5,-86 311.5,-70 311.5,-70 311.5,-64 317.5,-58 323.5,-58 323.5,-58 404.5,-58 404.5,-58 410.5,-58 416.5,-64 416.5,-70 416.5,-70 416.5,-86 416.5,-86 416.5,-92 410.5,-98 404.5,-98"/><text x="364" y="-81.4" font-family="Times New Roman,serif" font-size="12" text-anchor="middle">Decurso de Prazo</text><text x="364" y="-68.4" font-family="Times New Roman,serif" font-size="12" text-anchor="middle">347 movimentos</text></a></g></g><g id="edge6" class="edge"><title>6782424111243638800-&gt;-3301837613698818645</title><g id="a_edge6"><a xlink:title="Decurso de Prazo -&gt; Petição"><path fill="none" stroke="#966300" d="M356.18,-98.25C352.2,-107.65 347.12,-119.05 342,-129 340.49,-131.92 338.86,-134.94 337.18,-137.92"/><polygon fill="#966300" stroke="#966300" points="334.09 -136.26 332.1 -146.66 340.15 -139.77 334.09 -136.26"/></a></g><g id="a_edge6-label"><a xlink:title="Decurso de Prazo -&gt; Petição"><text x="358.5" y="-119.4" font-family="Times New Roman,serif" font-size="12" text-anchor="middle">7D</text></a></g></g><g id="node5" class="node"><title>-3329192550611002109</title><g id="a_node5"><a xlink:title="Desarquivamento"><path fill="#fff" stroke="#000" d="M656,-98C656,-98 578,-98 578,-98 572,-98 566,-92 566,-86 566,-86 566,-70 566,-70 566,-64 572,-58 578,-58 578,-58 656,-58 656,-58 662,-58 668,-64 668,-70 668,-70 668,-86 668,-86 668,-92 662,-98 656,-98"/><text x="617" y="-81.4" font-family="Times New Roman,serif" font-size="12" text-anchor="middle">Desarquivamento</text><text x="617" y="-68.4" font-family="Times New Roman,serif" font-size="12" text-anchor="middle">132 movimentos</text></a></g></g><g id="edge8" class="edge"><title>-3329192550611002109-&gt;-2366248699620310184</title><g id="a_edge8"><a xlink:title="Desarquivamento -&gt; Conclusão"><path fill="none" stroke="#009600" d="M616.09,-98.04C613.41,-138.92 602.96,-237.07 563,-307 561.04,-310.42 558.76,-313.84 556.34,-317.13"/><polygon fill="#009600" stroke="#009600" points="553.57 -314.98 550.12 -325 559.07 -319.32 553.57 -314.98"/></a></g><g id="a_edge8-label"><a xlink:title="Desarquivamento -&gt; Conclusão"><text x="612.5" y="-208.4" font-family="Times New Roman,serif" font-size="12" text-anchor="middle">26s</text></a></g></g><g id="edge10" class="edge"><title>6111611458458012373-&gt;6111611458458012373</title><g id="a_edge10"><a xlink:title="Documento -&gt; Documento"><path fill="none" stroke="#019600" d="M411.05,-264.01C421.46,-263.22 429,-260.55 429,-256 429,-253.08 425.9,-250.94 420.94,-249.57"/><polygon fill="#019600" stroke="#019600" points="421.48 -246.11 411.05 -247.99 420.38 -253.02 421.48 -246.11"/></a></g><g id="a_edge10-label"><a xlink:title="Documento -&gt; Documento"><text x="438" y="-252.9" font-family="Times New Roman,serif" font-size="12" text-anchor="middle">2h</text></a></g></g><g id="edge11" class="edge"><title>6111611458458012373-&gt;-3301837613698818645</title><g id="a_edge11"><a xlink:title="Documento -&gt; Petição"><path fill="none" stroke="#966d00" d="M333.75,-235.94C328.18,-230.83 323.12,-224.8 320,-218 317.15,-211.79 316.05,-204.66 315.9,-197.78"/><polygon fill="#966d00" stroke="#966d00" points="319.42 -197.46 316.32 -187.32 312.42 -197.18 319.42 -197.46"/></a></g><g id="a_edge11-label"><a xlink:title="Documento -&gt; Petição"><text x="330.5" y="-208.4" font-family="Times New Roman,serif" font-size="12" text-anchor="middle">5D</text></a></g></g><g id="node8" class="node"><title>7316831560597932829</title><g id="a_node8"><a xlink:title="Mandado"><path fill="#fff" stroke="#000" d="M204,-98C204,-98 126,-98 126,-98 120,-98 114,-92 114,-86 114,-86 114,-70 114,-70 114,-64 120,-58 126,-58 126,-58 204,-58 204,-58 210,-58 216,-64 216,-70 216,-70 216,-86 216,-86 216,-92 210,-98 204,-98"/><text x="165" y="-81.4" font-family="Times New Roman,serif" font-size="12" text-anchor="middle">Mandado</text><text x="165" y="-68.4" font-family="Times New Roman,serif" font-size="12" text-anchor="middle">1143 movimentos</text></a></g></g><g id="edge12" class="edge"><title>7316831560597932829-&gt;7316831560597932829</title><g id="a_edge12"><a xlink:title="Mandado -&gt; Mandado"><path fill="none" stroke="#0b9600" stroke-width="1.34" d="M216.15,-85.94C226.55,-85.07 234,-82.43 234,-78 234,-75.23 231.09,-73.16 226.37,-71.79"/><polygon fill="#0b9600" stroke="#0b9600" stroke-width="1.34" points="226.6 -68.28 216.15 -70.06 225.43 -75.18 226.6 -68.28"/></a></g><g id="a_edge12-label"><a xlink:title="Mandado -&gt; Mandado"><text x="244.5" y="-74.9" font-family="Times New Roman,serif" font-size="12" text-anchor="middle">1D</text></a></g></g><g id="edge13" class="edge"><title>7316831560597932829-&gt;-3301837613698818645</title><g id="a_edge13"><a xlink:title="Mandado -&gt; Petição"><path fill="none" stroke="#966600" d="M170.33,-98.05C174.19,-108.57 180.44,-121.07 190,-129 209.36,-145.05 235.3,-154.15 258.92,-159.3"/><polygon fill="#966600" stroke="#966600" points="258.38 -162.76 268.87 -161.28 259.74 -155.9 258.38 -162.76"/></a></g><g id="a_edge13-label"><a xlink:title="Mandado -&gt; Petição"><text x="200.5" y="-119.4" font-family="Times New Roman,serif" font-size="12" text-anchor="middle">6D</text></a></g></g><g id="edge14" class="edge"><title>4196473730345433951-&gt;-2366248699620310184</title><g id="a_edge14"><a xlink:title="Mero expediente -&gt; Conclusão"><path fill="none" stroke="#199600" d="M507.75,-98.07C511.83,-103.49 515.65,-109.65 518,-116 543.06,-183.69 539.56,-270.36 535.45,-314.82"/><polygon fill="#199600" stroke="#199600" points="531.95 -314.63 534.43 -324.93 538.92 -315.33 531.95 -314.63"/></a></g><g id="a_edge14-label"><a xlink:title="Mero expediente -&gt; Conclusão"><text x="548.5" y="-208.4" font-family="Times New Roman,serif" font-size="12" text-anchor="middle">2D</text></a></g></g><g id="edge15" class="edge"><title>4196473730345433951-&gt;-3301837613698818645</title><g id="a_edge15"><a xlink:title="Mero expediente -&gt; Petição"><path fill="none" stroke="#967100" d="M446.38,-98.12C434.19,-103.68 420.99,-109.91 409,-116 393.3,-123.98 376.38,-133.3 361.55,-141.71"/><polygon fill="#967100" stroke="#967100" points="359.56 -138.82 352.61 -146.82 363.03 -144.9 359.56 -138.82"/></a></g><g id="a_edge15-label"><a xlink:title="Mero expediente -&gt; Petição"><text x="419.5" y="-119.4" font-family="Times New Roman,serif" font-size="12" text-anchor="middle">4D</text></a></g></g><g id="edge16" class="edge"><title>-3301837613698818645-&gt;-2366248699620310184</title><g id="a_edge16"><a xlink:title="Petição -&gt; Conclusão"><path fill="none" stroke="#967100" stroke-width="4.64" d="M371.07,-186.42C398.24,-197.89 431.09,-214.56 456,-236 482.23,-258.58 503.96,-292.08 517.36,-315.78"/><polygon fill="#967100" stroke="#967100" stroke-width="4.64" points="513.87 -317.85 522.26 -324.65 520.99 -313.93 513.87 -317.85"/></a></g><g id="a_edge16-label"><a xlink:title="Petição -&gt; Conclusão"><text x="501.5" y="-252.9" font-family="Times New Roman,serif" font-size="12" text-anchor="middle">4D</text></a></g></g><g id="edge17" class="edge"><title>-3301837613698818645-&gt;6782424111243638800</title><g id="a_edge17"><a xlink:title="Petição -&gt; Decurso de Prazo"><path fill="none" stroke="#966400" d="M314.5,-146.61C312.82,-136.96 312.44,-125.39 317,-116 318.89,-112.11 321.4,-108.51 324.3,-105.2"/><polygon fill="#966400" stroke="#966400" points="326.92 -107.53 331.6 -98.03 322.01 -102.54 326.92 -107.53"/></a></g><g id="a_edge17-label"><a xlink:title="Petição -&gt; Decurso de Prazo"><text x="327.5" y="-119.4" font-family="Times New Roman,serif" font-size="12" text-anchor="middle">7D</text></a></g></g><g id="edge18" class="edge"><title>-3301837613698818645-&gt;-3329192550611002109</title><g id="a_edge18"><a xlink:title="Petição -&gt; Desarquivamento"><path fill="none" stroke="#965d00" d="M371.32,-155.03C401.43,-148.25 440.1,-138.97 474,-129 501.52,-120.91 531.55,-110.63 556.95,-101.51"/><polygon fill="#965d00" stroke="#965d00" points="558.23 -104.77 566.44 -98.07 555.85 -98.18 558.23 -104.77"/></a></g><g id="a_edge18-label"><a xlink:title="Petição -&gt; Desarquivamento"><text x="524.5" y="-119.4" font-family="Times New Roman,serif" font-size="12" text-anchor="middle">8D</text></a></g></g><g id="edge19" class="edge"><title>-3301837613698818645-&gt;6111611458458012373</title><g id="a_edge19"><a xlink:title="Petição -&gt; Documento"><path fill="none" stroke="#965c00" d="M331.28,-187C334.54,-192.72 338.02,-199.06 341,-205 344.45,-211.88 347.93,-219.41 351.06,-226.51"/><polygon fill="#965c00" stroke="#965c00" points="347.9 -228.01 355.09 -235.79 354.32 -225.23 347.9 -228.01"/></a></g><g id="a_edge19-label"><a xlink:title="Petição -&gt; Documento"><text x="357.5" y="-208.4" font-family="Times New Roman,serif" font-size="12" text-anchor="middle">8D</text></a></g></g><g id="edge20" class="edge"><title>-3301837613698818645-&gt;7316831560597932829</title><g id="a_edge20"><a xlink:title="Petição -&gt; Mandado"><path fill="none" stroke="#049600" d="M270.43,-146.89C258.26,-141.6 245.45,-135.5 234,-129 221.39,-121.84 208.32,-112.83 197,-104.44"/><polygon fill="#049600" stroke="#049600" points="198.8 -101.42 188.71 -98.19 194.58 -107 198.8 -101.42"/></a></g><g id="a_edge20-label"><a xlink:title="Petição -&gt; Mandado"><text x="243" y="-119.4" font-family="Times New Roman,serif" font-size="12" text-anchor="middle">9h</text></a></g></g><g id="edge21" class="edge"><title>-3301837613698818645-&gt;4196473730345433951</title><g id="a_edge21"><a xlink:title="Petição -&gt; Mero expediente"><path fill="none" stroke="#967300" d="M371.22,-153.08C390.33,-147.17 411.8,-139.17 430,-129 441.77,-122.42 453.45,-113.41 463.33,-104.85"/><polygon fill="#967300" stroke="#967300" points="465.71 -107.41 470.83 -98.14 461.05 -102.2 465.71 -107.41"/></a></g><g id="a_edge21-label"><a xlink:title="Petição -&gt; Mero expediente"><text x="460.5" y="-119.4" font-family="Times New Roman,serif" font-size="12" text-anchor="middle">4D</text></a></g></g><g id="edge22" class="edge"><title>-3301837613698818645-&gt;-3301837613698818645</title><g id="a_edge22"><a xlink:title="Petição -&gt; Petição"><path fill="none" stroke="#009600" stroke-width="4.37" d="M371.15,-174.94C381.55,-174.07 389,-171.43 389,-167 389,-164.23 386.09,-162.16 381.37,-160.79"/><polygon fill="#009600" stroke="#009600" stroke-width="4.37" points="381.65 -156.96 371.15 -159.06 380.38 -164.5 381.65 -156.96"/></a></g><g id="a_edge22-label"><a xlink:title="Petição -&gt; Petição"><text x="398" y="-163.9" font-family="Times New Roman,serif" font-size="12" text-anchor="middle">1h</text></a></g></g><g id="node12" class="node"><title>-3074157233288570601</title><g id="a_node12"><a xlink:title="Remessa"><path fill="#fff" stroke="#000" d="M84,-98C84,-98 12,-98 12,-98 6,-98 0,-92 0,-86 0,-86 0,-70 0,-70 0,-64 6,-58 12,-58 12,-58 84,-58 84,-58 90,-58 96,-64 96,-70 96,-70 96,-86 96,-86 96,-92 90,-98 84,-98"/><text x="48" y="-81.4" font-family="Times New Roman,serif" font-size="12" text-anchor="middle">Remessa</text><text x="48" y="-68.4" font-family="Times New Roman,serif" font-size="12" text-anchor="middle">518 movimentos</text></a></g></g><g id="edge23" class="edge"><title>-3301837613698818645-&gt;-3074157233288570601</title><g id="a_edge23"><a xlink:title="Petição -&gt; Remessa"><path fill="none" stroke="#229600" d="M268.66,-157.46C235.69,-151.25 192.23,-141.71 155,-129 134.08,-121.86 111.81,-111.87 93.03,-102.69"/><polygon fill="#229600" stroke="#229600" points="94.35 -99.44 83.84 -98.13 91.24 -105.71 94.35 -99.44"/></a></g><g id="a_edge23-label"><a xlink:title="Petição -&gt; Remessa"><text x="165.5" y="-119.4" font-family="Times New Roman,serif" font-size="12" text-anchor="middle">4D</text></a></g></g><g id="edge24" class="edge"><title>-3074157233288570601-&gt;-2366248699620310184</title><g id="a_edge24"><a xlink:title="Remessa -&gt; Conclusão"><path fill="none" stroke="#019600" d="M55.61,-98.24C60.06,-108.07 66.33,-119.85 74,-129 157.52,-228.57 186.72,-255.39 306,-307 358.69,-329.8 423.85,-338.65 470.64,-342.03"/><polygon fill="#019600" stroke="#019600" points="470.43 -345.53 480.63 -342.69 470.89 -338.54 470.43 -345.53"/></a></g><g id="a_edge24-label"><a xlink:title="Remessa -&gt; Conclusão"><text x="164" y="-208.4" font-family="Times New Roman,serif" font-size="12" text-anchor="middle">4h</text></a></g></g><g id="edge25" class="edge"><title>-3074157233288570601-&gt;-3301837613698818645</title><g id="a_edge25"><a xlink:title="Remessa -&gt; Petição"><path fill="none" stroke="#963000" d="M60.65,-98.12C68.85,-108.94 80.5,-121.72 94,-129 121.77,-143.98 201.98,-154.61 258.93,-160.52"/><polygon fill="#963000" stroke="#963000" points="258.62 -164.01 268.92 -161.54 259.32 -157.04 258.62 -164.01"/></a></g><g id="a_edge25-label"><a xlink:title="Remessa -&gt; Petição"><text x="107.5" y="-119.4" font-family="Times New Roman,serif" font-size="12" text-anchor="middle">23D</text></a></g></g></g></svg>