<?xml version="1.0" encoding="UTF-8" standalone="no"?><!DOCTYPE svg PUBLIC "-//W3C//DTD SVG 1.1//EN" "http://www.w3.org/Graphics/SVG/1.1/DTD/svg11.dtd"><!-- Generated by graphviz version 2.49.3 (20211023.0002) --><!-- Pages: 1 --><svg width="886pt" height="462pt" viewBox="0.00 0.00 886.00 462.00" xmlns="http://www.w3.org/2000/svg" xmlns:xlink="http://www.w3.org/1999/xlink"><g id="graph0" class="graph" transform="scale(1 1) rotate(0) translate(4 458)"><!-- 1894939040614898085 --><g id="node1" class="node"><title>1894939040614898085</title><g id="a_node1"><a xlink:title="Distribuição"><path fill="white" stroke="black" d="M535,-454C535,-454 463,-454 463,-454 457,-454 451,-448 451,-442 451,-442 451,-426 451,-426 451,-420 457,-414 463,-414 463,-414 535,-414 535,-414 541,-414 547,-420 547,-426 547,-426 547,-442 547,-442 547,-448 541,-454 535,-454"/><text text-anchor="middle" x="499" y="-437.4" font-family="Times New Roman,serif" font-size="12.00"> Distribuição &#160;</text><text text-anchor="middle" x="499" y="-424.4" font-family="Times New Roman,serif" font-size="12.00"> 538 movimentos </text></a></g></g><!-- &#45;2366248699620310184 --><g id="node3" class="node"><title>&#45;2366248699620310184</title><g id="a_node3"><a xlink:title="Conclusão"><path fill="#ffffff" stroke="black" stroke-width="2.5" d="M538,-365C538,-365 460,-365 460,-365 454,-365 448,-359 448,-353 448,-353 448,-337 448,-337 448,-331 454,-325 460,-325 460,-325 538,-325 538,-325 544,-325 550,-331 550,-337 550,-337 550,-353 550,-353 550,-359 544,-365 538,-365"/><text text-anchor="middle" x="499" y="-348.4" font-family="Times New Roman,serif" font-size="12.00"> Conclusão &#160;</text><text text-anchor="middle" x="499" y="-335.4" font-family="Times New Roman,serif" font-size="12.00"> 3353 movimentos </text></a></g></g><!-- 1894939040614898085&#45;&gt;&#45;2366248699620310184 --><g id="edge10" class="edge"><title>1894939040614898085&#45;&gt;&#45;2366248699620310184</title><g id="a_edge10"><a xlink:title="Distribuição &#45;&gt; Conclusão"><path fill="none" stroke="#009600" stroke-width="1.35" d="M499,-413.69C499,-402.43 499,-387.99 499,-375.35"/><polygon fill="#009600" stroke="#009600" stroke-width="1.35" points="502.5,-375.25 499,-365.25 495.5,-375.25 502.5,-375.25"/></a></g><g id="a_edge10&#45;label"><a xlink:title="Distribuição &#45;&gt; Conclusão"><text text-anchor="middle" x="507.5" y="-386.4" font-family="Times New Roman,serif" font-size="12.00"> 2s </text></a></g></g><!-- &#45;3781142108983599563 --><g id="node2" class="node"><title>&#45;3781142108983599563</title><g id="a_node2"><a xlink:title="Definitivo"><path fill="white" stroke="black" d="M170,-40C170,-40 98,-40 98,-40 92,-40 86,-34 86,-28 86,-28 86,-12 86,-12 86,-6 92,0 98,0 98,0 170,0 170,0 176,0 182,-6 182,-12 182,-12 182,-28 182,-28 182,-34 176,-40 170,-40"/><text text-anchor="middle" x="134" y="-23.4" font-family="Times New Roman,serif" font-size="12.00"> Definitivo &#160;</text><text text-anchor="middle" x="134" y="-10.4" font-family="Times New Roman,serif" font-size="12.00"> 564 movimentos </text></a></g></g><!-- &#45;3301837613698818645 --><g id="node10" class="node"><title>&#45;3301837613698818645</title><g id="a_node10"><a xlink:title="Petição"><path fill="#ffffff" stroke="black" stroke-width="3.84" d="M323,-187C323,-187 245,-187 245,-187 239,-187 233,-181 233,-175 233,-175 233,-159 233,-159 233,-153 239,-147 245,-147 245,-147 323,-147 323,-147 329,-147 335,-153 335,-159 335,-159 335,-175 335,-175 335,-181 329,-187 323,-187"/><text text-anchor="middle" x="284" y="-170.4" font-family="Times New Roman,serif" font-size="12.00"> Petição &#160;</text><text text-anchor="middle" x="284" y="-157.4" font-family="Times New Roman,serif" font-size="12.00"> 5154 movimentos </text></a></g></g><!-- &#45;3781142108983599563&#45;&gt;&#45;3301837613698818645 --><g id="edge8" class="edge"><title>&#45;3781142108983599563&#45;&gt;&#45;3301837613698818645</title><g id="a_edge8"><a xlink:title="Definitivo &#45;&gt; Petição"><path fill="none" stroke="#960000" d="M135.6,-40.22C137.67,-56.55 142.37,-80.13 153,-98 168.23,-123.59 196.63,-139.97 223.11,-150.21"/><polygon fill="#960000" stroke="#960000" points="222.15,-153.59 232.75,-153.72 224.54,-147.01 222.15,-153.59"/></a></g><g id="a_edge8&#45;label"><a xlink:title="Definitivo &#45;&gt; Petição"><text text-anchor="middle" x="193.5" y="-119.4" font-family="Times New Roman,serif" font-size="12.00"> 1M </text></a></g></g><!-- 6111611458458012373 --><g id="node6" class="node"><title>6111611458458012373</title><g id="a_node6"><a xlink:title="Documento"><path fill="#ffffff" stroke="black" d="M366,-276C366,-276 294,-276 294,-276 288,-276 282,-270 282,-264 282,-264 282,-248 282,-248 282,-242 288,-236 294,-236 294,-236 366,-236 366,-236 372,-236 378,-242 378,-248 378,-248 378,-264 378,-264 378,-270 372,-276 366,-276"/><text text-anchor="middle" x="330" y="-259.4" font-family="Times New Roman,serif" font-size="12.00"> Documento &#160;</text><text text-anchor="middle" x="330" y="-246.4" font-family="Times New Roman,serif" font-size="12.00"> 749 movimentos </text></a></g></g><!-- &#45;2366248699620310184&#45;&gt;6111611458458012373 --><g id="edge1" class="edge"><title>&#45;2366248699620310184&#45;&gt;6111611458458012373</title><g id="a_edge1"><a xlink:title="Conclusão &#45;&gt; Documento"><path fill="none" stroke="#1f9600" d="M453.21,-324.99C440.68,-319.47 427.2,-313.25 415,-307 399.87,-299.25 383.7,-290 369.56,-281.57"/><polygon fill="#1f9600" stroke="#1f9600" points="370.97,-278.33 360.6,-276.17 367.36,-284.33 370.97,-278.33"/></a></g><g id="a_edge1&#45;label"><a xlink:title="Conclusão &#45;&gt; Documento"><text text-anchor="middle" x="425.5" y="-297.4" font-family="Times New Roman,serif" font-size="12.00"> 3D </text></a></g></g><!-- 1067539906921362563 --><g id="node7" class="node"><title>1067539906921362563</title><g id="a_node7"><a xlink:title="Improcedência"><path fill="#ffffff" stroke="black" d="M650,-276C650,-276 578,-276 578,-276 572,-276 566,-270 566,-264 566,-264 566,-248 566,-248 566,-242 572,-236 578,-236 578,-236 650,-236 650,-236 656,-236 662,-242 662,-248 662,-248 662,-264 662,-264 662,-270 656,-276 650,-276"/><text text-anchor="middle" x="614" y="-259.4" font-family="Times New Roman,serif" font-size="12.00"> Improcedência &#160;</text><text text-anchor="middle" x="614" y="-246.4" font-family="Times New Roman,serif" font-size="12.00"> 104 movimentos </text></a></g></g><!-- &#45;2366248699620310184&#45;&gt;1067539906921362563 --><g id="edge2" class="edge"><title>&#45;2366248699620310184&#45;&gt;1067539906921362563</title><g id="a_edge2"><a xlink:title="Conclusão &#45;&gt; Improcedência"><path fill="none" stroke="#229600" d="M527.04,-324.96C535.17,-319.3 544.01,-313 552,-307 562.28,-299.28 573.27,-290.57 583.1,-282.61"/><polygon fill="#229600" stroke="#229600" points="585.5,-285.17 591.04,-276.14 581.08,-279.75 585.5,-285.17"/></a></g><g id="a_edge2&#45;label"><a xlink:title="Conclusão &#45;&gt; Improcedência"><text text-anchor="middle" x="578.5" y="-297.4" font-family="Times New Roman,serif" font-size="12.00"> 4D </text></a></g></g><!-- 4196473730345433951 --><g id="node9" class="node"><title>4196473730345433951</title><g id="a_node9"><a xlink:title="Mero expediente"><path fill="#ffffff" stroke="black" stroke-width="1.52" d="M90,-98C90,-98 12,-98 12,-98 6,-98 0,-92 0,-86 0,-86 0,-70 0,-70 0,-64 6,-58 12,-58 12,-58 90,-58 90,-58 96,-58 102,-64 102,-70 102,-70 102,-86 102,-86 102,-92 96,-98 90,-98"/><text text-anchor="middle" x="51" y="-81.4" font-family="Times New Roman,serif" font-size="12.00"> Mero expediente &#160;</text><text text-anchor="middle" x="51" y="-68.4" font-family="Times New Roman,serif" font-size="12.00"> 2048 movimentos </text></a></g></g><!-- &#45;2366248699620310184&#45;&gt;4196473730345433951 --><g id="edge3" class="edge"><title>&#45;2366248699620310184&#45;&gt;4196473730345433951</title><g id="a_edge3"><a xlink:title="Conclusão &#45;&gt; Mero expediente"><path fill="none" stroke="#109600" stroke-width="5" d="M447.59,-342.81C400.4,-340.06 329.45,-331.71 273,-307 155.23,-255.45 101.38,-244.54 45,-129 41.91,-122.67 41.36,-115.36 42.06,-108.33"/><polygon fill="#109600" stroke="#109600" stroke-width="5" points="46.39,-108.97 43.82,-98.36 37.77,-107.44 46.39,-108.97"/></a></g><g id="a_edge3&#45;label"><a xlink:title="Conclusão &#45;&gt; Mero expediente"><text text-anchor="middle" x="116.5" y="-208.4" font-family="Times New Roman,serif" font-size="12.00"> 1D </text></a></g></g><!-- &#45;2366248699620310184&#45;&gt;&#45;3301837613698818645 --><g id="edge4" class="edge"><title>&#45;2366248699620310184&#45;&gt;&#45;3301837613698818645</title><g id="a_edge4"><a xlink:title="Conclusão &#45;&gt; Petição"><path fill="none" stroke="#209600" d="M489.29,-324.6C476.72,-301.08 452.83,-261.44 423,-236 400.06,-216.43 370.53,-200.96 344.58,-189.74"/><polygon fill="#209600" stroke="#209600" points="345.78,-186.45 335.21,-185.8 343.07,-192.9 345.78,-186.45"/></a></g><g id="a_edge4&#45;label"><a xlink:title="Conclusão &#45;&gt; Petição"><text text-anchor="middle" x="468.5" y="-252.9" font-family="Times New Roman,serif" font-size="12.00"> 3D </text></a></g></g><!-- &#45;6827536499191526894 --><g id="node11" class="node"><title>&#45;6827536499191526894</title><g id="a_node11"><a xlink:title="Procedência"><path fill="#ffffff" stroke="black" d="M764,-276C764,-276 692,-276 692,-276 686,-276 680,-270 680,-264 680,-264 680,-248 680,-248 680,-242 686,-236 692,-236 692,-236 764,-236 764,-236 770,-236 776,-242 776,-248 776,-248 776,-264 776,-264 776,-270 770,-276 764,-276"/><text text-anchor="middle" x="728" y="-259.4" font-family="Times New Roman,serif" font-size="12.00"> Procedência &#160;</text><text text-anchor="middle" x="728" y="-246.4" font-family="Times New Roman,serif" font-size="12.00"> 160 movimentos </text></a></g></g><!-- &#45;2366248699620310184&#45;&gt;&#45;6827536499191526894 --><g id="edge5" class="edge"><title>&#45;2366248699620310184&#45;&gt;&#45;6827536499191526894</title><g id="a_edge5"><a xlink:title="Conclusão &#45;&gt; Procedência"><path fill="none" stroke="#966200" d="M549.26,-324.91C584.91,-311.36 632.85,-293.15 670.11,-278.99"/><polygon fill="#966200" stroke="#966200" points="671.72,-282.13 679.82,-275.3 669.23,-275.58 671.72,-282.13"/></a></g><g id="a_edge5&#45;label"><a xlink:title="Conclusão &#45;&gt; Procedência"><text text-anchor="middle" x="638.5" y="-297.4" font-family="Times New Roman,serif" font-size="12.00"> 7D </text></a></g></g><!-- &#45;1348852673304535680 --><g id="node12" class="node"><title>&#45;1348852673304535680</title><g id="a_node12"><a xlink:title="Recurso"><path fill="#ffffff" stroke="black" d="M866,-276C866,-276 806,-276 806,-276 800,-276 794,-270 794,-264 794,-264 794,-248 794,-248 794,-242 800,-236 806,-236 806,-236 866,-236 866,-236 872,-236 878,-242 878,-248 878,-248 878,-264 878,-264 878,-270 872,-276 866,-276"/><text text-anchor="middle" x="836" y="-259.4" font-family="Times New Roman,serif" font-size="12.00"> Recurso &#160;</text><text text-anchor="middle" x="836" y="-246.4" font-family="Times New Roman,serif" font-size="12.00"> 7 movimentos </text></a></g></g><!-- &#45;2366248699620310184&#45;&gt;&#45;1348852673304535680 --><g id="edge6" class="edge"><title>&#45;2366248699620310184&#45;&gt;&#45;1348852673304535680</title><g id="a_edge6"><a xlink:title="Conclusão &#45;&gt; Recurso"><path fill="none" stroke="#109600" d="M550.13,-333.83C605.67,-322.34 697.04,-302.16 784.07,-276.12"/><polygon fill="#109600" stroke="#109600" points="785.28,-279.41 793.84,-273.16 783.25,-272.71 785.28,-279.41"/></a></g><g id="a_edge6&#45;label"><a xlink:title="Conclusão &#45;&gt; Recurso"><text text-anchor="middle" x="726.5" y="-297.4" font-family="Times New Roman,serif" font-size="12.00"> 1D </text></a></g></g><!-- 6782424111243638800 --><g id="node4" class="node"><title>6782424111243638800</title><g id="a_node4"><a xlink:title="Decurso de Prazo"><path fill="#ffffff" stroke="black" d="M255.5,-98C255.5,-98 174.5,-98 174.5,-98 168.5,-98 162.5,-92 162.5,-86 162.5,-86 162.5,-70 162.5,-70 162.5,-64 168.5,-58 174.5,-58 174.5,-58 255.5,-58 255.5,-58 261.5,-58 267.5,-64 267.5,-70 267.5,-70 267.5,-86 267.5,-86 267.5,-92 261.5,-98 255.5,-98"/><text text-anchor="middle" x="215" y="-81.4" font-family="Times New Roman,serif" font-size="12.00"> Decurso de Prazo &#160;</text><text text-anchor="middle" x="215" y="-68.4" font-family="Times New Roman,serif" font-size="12.00"> 347 movimentos </text></a></g></g><!-- 6782424111243638800&#45;&gt;&#45;3301837613698818645 --><g id="edge7" class="edge"><title>6782424111243638800&#45;&gt;&#45;3301837613698818645</title><g id="a_edge7"><a xlink:title="Decurso de Prazo &#45;&gt; Petição"><path fill="none" stroke="#966300" d="M229.23,-98.16C236.27,-107.54 244.97,-118.94 253,-129 255.65,-132.32 258.46,-135.77 261.27,-139.17"/><polygon fill="#966300" stroke="#966300" points="258.65,-141.49 267.74,-146.94 264.03,-137.01 258.65,-141.49"/></a></g><g id="a_edge7&#45;label"><a xlink:title="Decurso de Prazo &#45;&gt; Petição"><text text-anchor="middle" x="263.5" y="-119.4" font-family="Times New Roman,serif" font-size="12.00"> 7D </text></a></g></g><!-- &#45;3329192550611002109 --><g id="node5" class="node"><title>&#45;3329192550611002109</title><g id="a_node5"><a xlink:title="Desarquivamento"><path fill="#ffffff" stroke="black" d="M649,-98C649,-98 571,-98 571,-98 565,-98 559,-92 559,-86 559,-86 559,-70 559,-70 559,-64 565,-58 571,-58 571,-58 649,-58 649,-58 655,-58 661,-64 661,-70 661,-70 661,-86 661,-86 661,-92 655,-98 649,-98"/><text text-anchor="middle" x="610" y="-81.4" font-family="Times New Roman,serif" font-size="12.00"> Desarquivamento &#160;</text><text text-anchor="middle" x="610" y="-68.4" font-family="Times New Roman,serif" font-size="12.00"> 132 movimentos </text></a></g></g><!-- &#45;3329192550611002109&#45;&gt;&#45;2366248699620310184 --><g id="edge9" class="edge"><title>&#45;3329192550611002109&#45;&gt;&#45;2366248699620310184</title><g id="a_edge9"><a xlink:title="Desarquivamento &#45;&gt; Conclusão"><path fill="none" stroke="#009600" d="M601.94,-98.24C582.63,-144.35 533.63,-261.33 510.91,-315.57"/><polygon fill="#009600" stroke="#009600" points="507.62,-314.37 506.98,-324.94 514.07,-317.07 507.62,-314.37"/></a></g><g id="a_edge9&#45;label"><a xlink:title="Desarquivamento &#45;&gt; Conclusão"><text text-anchor="middle" x="569.5" y="-208.4" font-family="Times New Roman,serif" font-size="12.00"> 26s </text></a></g></g><!-- 6111611458458012373&#45;&gt;6111611458458012373 --><g id="edge11" class="edge"><title>6111611458458012373&#45;&gt;6111611458458012373</title><g id="a_edge11"><a xlink:title="Documento &#45;&gt; Documento"><path fill="none" stroke="#019600" d="M378.05,-264.01C388.46,-263.22 396,-260.55 396,-256 396,-253.08 392.9,-250.94 387.94,-249.57"/><polygon fill="#019600" stroke="#019600" points="388.48,-246.11 378.05,-247.99 387.38,-253.02 388.48,-246.11"/></a></g><g id="a_edge11&#45;label"><a xlink:title="Documento &#45;&gt; Documento"><text text-anchor="middle" x="405" y="-252.9" font-family="Times New Roman,serif" font-size="12.00"> 2h </text></a></g></g><!-- 6111611458458012373&#45;&gt;&#45;3301837613698818645 --><g id="edge12" class="edge"><title>6111611458458012373&#45;&gt;&#45;3301837613698818645</title><g id="a_edge12"><a xlink:title="Documento &#45;&gt; Petição"><path fill="none" stroke="#966d00" d="M321.81,-235.73C317.65,-226.33 312.34,-214.93 307,-205 305.42,-202.07 303.71,-199.05 301.95,-196.07"/><polygon fill="#966d00" stroke="#966d00" points="304.82,-194.05 296.64,-187.32 298.84,-197.68 304.82,-194.05"/></a></g><g id="a_edge12&#45;label"><a xlink:title="Documento &#45;&gt; Petição"><text text-anchor="middle" x="324.5" y="-208.4" font-family="Times New Roman,serif" font-size="12.00"> 5D </text></a></g></g><!-- 7316831560597932829 --><g id="node8" class="node"><title>7316831560597932829</title><g id="a_node8"><a xlink:title="Mandado"><path fill="#ffffff" stroke="black" d="M490,-98C490,-98 412,-98 412,-98 406,-98 400,-92 400,-86 400,-86 400,-70 400,-70 400,-64 406,-58 412,-58 412,-58 490,-58 490,-58 496,-58 502,-64 502,-70 502,-70 502,-86 502,-86 502,-92 496,-98 490,-98"/><text text-anchor="middle" x="451" y="-81.4" font-family="Times New Roman,serif" font-size="12.00"> Mandado &#160;</text><text text-anchor="middle" x="451" y="-68.4" font-family="Times New Roman,serif" font-size="12.00"> 1143 movimentos </text></a></g></g><!-- 7316831560597932829&#45;&gt;7316831560597932829 --><g id="edge13" class="edge"><title>7316831560597932829&#45;&gt;7316831560597932829</title><g id="a_edge13"><a xlink:title="Mandado &#45;&gt; Mandado"><path fill="none" stroke="#0b9600" stroke-width="1.47" d="M502.15,-85.94C512.55,-85.07 520,-82.43 520,-78 520,-75.23 517.09,-73.16 512.37,-71.79"/><polygon fill="#0b9600" stroke="#0b9600" stroke-width="1.47" points="512.6,-68.28 502.15,-70.06 511.43,-75.18 512.6,-68.28"/></a></g><g id="a_edge13&#45;label"><a xlink:title="Mandado &#45;&gt; Mandado"><text text-anchor="middle" x="530.5" y="-74.9" font-family="Times New Roman,serif" font-size="12.00"> 1D </text></a></g></g><!-- 7316831560597932829&#45;&gt;&#45;3301837613698818645 --><g id="edge14" class="edge"><title>7316831560597932829&#45;&gt;&#45;3301837613698818645</title><g id="a_edge14"><a xlink:title="Mandado &#45;&gt; Petição"><path fill="none" stroke="#966600" d="M434.1,-98.27C424.17,-108.6 410.88,-120.84 397,-129 381.01,-138.4 362.32,-145.77 344.8,-151.36"/><polygon fill="#966600" stroke="#966600" points="343.76,-148.02 335.21,-154.29 345.8,-154.71 343.76,-148.02"/></a></g><g id="a_edge14&#45;label"><a xlink:title="Mandado &#45;&gt; Petição"><text text-anchor="middle" x="426.5" y="-119.4" font-family="Times New Roman,serif" font-size="12.00"> 6D </text></a></g></g><!-- 4196473730345433951&#45;&gt;&#45;3301837613698818645 --><g id="edge15" class="edge"><title>4196473730345433951&#45;&gt;&#45;3301837613698818645</title><g id="a_edge15"><a xlink:title="Mero expediente &#45;&gt; Petição"><path fill="none" stroke="#967100" d="M63.75,-98.47C71.75,-109.12 83,-121.62 96,-129 134.64,-150.93 184.14,-160.05 222.64,-163.75"/><polygon fill="#967100" stroke="#967100" points="222.42,-167.25 232.69,-164.62 223.02,-160.27 222.42,-167.25"/></a></g><g id="a_edge15&#45;label"><a xlink:title="Mero expediente &#45;&gt; Petição"><text text-anchor="middle" x="106.5" y="-119.4" font-family="Times New Roman,serif" font-size="12.00"> 4D </text></a></g></g><!-- &#45;3301837613698818645&#45;&gt;&#45;2366248699620310184 --><g id="edge16" class="edge"><title>&#45;3301837613698818645&#45;&gt;&#45;2366248699620310184</title><g id="a_edge16"><a xlink:title="Petição &#45;&gt; Conclusão"><path fill="none" stroke="#967100" stroke-width="4.66" d="M269.06,-187.02C252.82,-210.15 231.73,-249.4 252,-276 274.42,-305.43 372,-325.32 437.59,-335.65"/><polygon fill="#967100" stroke="#967100" stroke-width="4.66" points="437.32,-339.73 447.83,-337.22 438.56,-331.68 437.32,-339.73"/></a></g><g id="a_edge16&#45;label"><a xlink:title="Petição &#45;&gt; Conclusão"><text text-anchor="middle" x="262.5" y="-252.9" font-family="Times New Roman,serif" font-size="12.00"> 4D </text></a></g></g><!-- &#45;3301837613698818645&#45;&gt;6782424111243638800 --><g id="edge17" class="edge"><title>&#45;3301837613698818645&#45;&gt;6782424111243638800</title><g id="a_edge17"><a xlink:title="Petição &#45;&gt; Decurso de Prazo"><path fill="none" stroke="#966400" d="M237.01,-146.84C229.95,-142.01 223.53,-136.12 219,-129 215.17,-122.98 213.38,-115.69 212.72,-108.55"/><polygon fill="#966400" stroke="#966400" points="216.21,-108.29 212.45,-98.39 209.22,-108.48 216.21,-108.29"/></a></g><g id="a_edge17&#45;label"><a xlink:title="Petição &#45;&gt; Decurso de Prazo"><text text-anchor="middle" x="229.5" y="-119.4" font-family="Times New Roman,serif" font-size="12.00"> 7D </text></a></g></g><!-- &#45;3301837613698818645&#45;&gt;&#45;3329192550611002109 --><g id="edge18" class="edge"><title>&#45;3301837613698818645&#45;&gt;&#45;3329192550611002109</title><g id="a_edge18"><a xlink:title="Petição &#45;&gt; Desarquivamento"><path fill="none" stroke="#965d00" d="M335.05,-154.59C365.83,-147.56 405.77,-138.16 441,-129 486.89,-117.07 500.23,-112.97 549.36,-98.17"/><polygon fill="#965d00" stroke="#965d00" points="550.4,-101.51 558.97,-95.27 548.38,-94.81 550.4,-101.51"/></a></g><g id="a_edge18&#45;label"><a xlink:title="Petição &#45;&gt; Desarquivamento"><text text-anchor="middle" x="499.5" y="-119.4" font-family="Times New Roman,serif" font-size="12.00"> 8D </text></a></g></g><!-- &#45;3301837613698818645&#45;&gt;6111611458458012373 --><g id="edge19" class="edge"><title>&#45;3301837613698818645&#45;&gt;6111611458458012373</title><g id="a_edge19"><a xlink:title="Petição &#45;&gt; Documento"><path fill="none" stroke="#965c00" d="M279.01,-187.42C277.55,-197.07 277.4,-208.65 282,-218 283.88,-221.82 286.37,-225.36 289.22,-228.61"/><polygon fill="#965c00" stroke="#965c00" points="286.84,-231.18 296.44,-235.67 291.73,-226.18 286.84,-231.18"/></a></g><g id="a_edge19&#45;label"><a xlink:title="Petição &#45;&gt; Documento"><text text-anchor="middle" x="292.5" y="-208.4" font-family="Times New Roman,serif" font-size="12.00"> 8D </text></a></g></g><!-- &#45;3301837613698818645&#45;&gt;7316831560597932829 --><g id="edge20" class="edge"><title>&#45;3301837613698818645&#45;&gt;7316831560597932829</title><g id="a_edge20"><a xlink:title="Petição &#45;&gt; Mandado"><path fill="none" stroke="#049600" d="M317.92,-146.84C334.95,-137.36 355.95,-125.86 375,-116 383.61,-111.54 392.83,-106.92 401.79,-102.52"/><polygon fill="#049600" stroke="#049600" points="403.53,-105.56 410.98,-98.03 400.46,-99.27 403.53,-105.56"/></a></g><g id="a_edge20&#45;label"><a xlink:title="Petição &#45;&gt; Mandado"><text text-anchor="middle" x="384" y="-119.4" font-family="Times New Roman,serif" font-size="12.00"> 9h </text></a></g></g><!-- &#45;3301837613698818645&#45;&gt;4196473730345433951 --><g id="edge21" class="edge"><title>&#45;3301837613698818645&#45;&gt;4196473730345433951</title><g id="a_edge21"><a xlink:title="Petição &#45;&gt; Mero expediente"><path fill="none" stroke="#967300" d="M232.75,-164.84C172.68,-162.31 78.35,-154.31 55,-129 49.88,-123.46 47.77,-115.94 47.22,-108.42"/><polygon fill="#967300" stroke="#967300" points="50.72,-108.37 47.29,-98.35 43.72,-108.32 50.72,-108.37"/></a></g><g id="a_edge21&#45;label"><a xlink:title="Petição &#45;&gt; Mero expediente"><text text-anchor="middle" x="65.5" y="-119.4" font-family="Times New Roman,serif" font-size="12.00"> 4D </text></a></g></g><!-- &#45;3301837613698818645&#45;&gt;&#45;3301837613698818645 --><g id="edge22" class="edge"><title>&#45;3301837613698818645&#45;&gt;&#45;3301837613698818645</title><g id="a_edge22"><a xlink:title="Petição &#45;&gt; Petição"><path fill="none" stroke="#009600" stroke-width="4.39" d="M335.15,-174.94C345.55,-174.07 353,-171.43 353,-167 353,-164.23 350.09,-162.16 345.37,-160.79"/><polygon fill="#009600" stroke="#009600" stroke-width="4.39" points="345.65,-156.94 335.15,-159.06 344.38,-164.52 345.65,-156.94"/></a></g><g id="a_edge22&#45;label"><a xlink:title="Petição &#45;&gt; Petição"><text text-anchor="middle" x="362" y="-163.9" font-family="Times New Roman,serif" font-size="12.00"> 1h </text></a></g></g><!-- &#45;3074157233288570601 --><g id="node13" class="node"><title>&#45;3074157233288570601</title><g id="a_node13"><a xlink:title="Remessa"><path fill="#ffffff" stroke="black" d="M370,-98C370,-98 298,-98 298,-98 292,-98 286,-92 286,-86 286,-86 286,-70 286,-70 286,-64 292,-58 298,-58 298,-58 370,-58 370,-58 376,-58 382,-64 382,-70 382,-70 382,-86 382,-86 382,-92 376,-98 370,-98"/><text text-anchor="middle" x="334" y="-81.4" font-family="Times New Roman,serif" font-size="12.00"> Remessa &#160;</text><text text-anchor="middle" x="334" y="-68.4" font-family="Times New Roman,serif" font-size="12.00"> 518 movimentos </text></a></g></g><!-- &#45;3301837613698818645&#45;&gt;&#45;3074157233288570601 --><g id="edge23" class="edge"><title>&#45;3301837613698818645&#45;&gt;&#45;3074157233288570601</title><g id="a_edge23"><a xlink:title="Petição &#45;&gt; Remessa"><path fill="none" stroke="#229600" d="M300,-146.62C304.18,-141.11 308.49,-134.97 312,-129 315.96,-122.25 319.66,-114.66 322.84,-107.47"/><polygon fill="#229600" stroke="#229600" points="326.16,-108.61 326.85,-98.03 319.72,-105.87 326.16,-108.61"/></a></g><g id="a_edge23&#45;label"><a xlink:title="Petição &#45;&gt; Remessa"><text text-anchor="middle" x="329.5" y="-119.4" font-family="Times New Roman,serif" font-size="12.00"> 4D </text></a></g></g><!-- &#45;3074157233288570601&#45;&gt;&#45;2366248699620310184 --><g id="edge24" class="edge"><title>&#45;3074157233288570601&#45;&gt;&#45;2366248699620310184</title><g id="a_edge24"><a xlink:title="Remessa &#45;&gt; Conclusão"><path fill="none" stroke="#019600" d="M382.07,-95.52C385.08,-96.4 388.07,-97.24 391,-98 432.16,-108.75 456.91,-84.06 485,-116 533.93,-171.62 518.91,-267.46 507.21,-315.22"/><polygon fill="#019600" stroke="#019600" points="503.82,-314.36 504.72,-324.92 510.6,-316.1 503.82,-314.36"/></a></g><g id="a_edge24&#45;label"><a xlink:title="Remessa &#45;&gt; Conclusão"><text text-anchor="middle" x="528" y="-208.4" font-family="Times New Roman,serif" font-size="12.00"> 4h </text></a></g></g><!-- &#45;3074157233288570601&#45;&gt;&#45;3301837613698818645 --><g id="edge25" class="edge"><title>&#45;3074157233288570601&#45;&gt;&#45;3301837613698818645</title><g id="a_edge25"><a xlink:title="Remessa &#45;&gt; Petição"><path fill="none" stroke="#963000" d="M296.47,-98.18C290.24,-103.11 284.63,-109.03 281,-116 277.7,-122.32 276.83,-129.72 277.16,-136.86"/><polygon fill="#963000" stroke="#963000" points="273.7,-137.46 278.36,-146.98 280.65,-136.63 273.7,-137.46"/></a></g><g id="a_edge25&#45;label"><a xlink:title="Remessa &#45;&gt; Petição"><text text-anchor="middle" x="294.5" y="-119.4" font-family="Times New Roman,serif" font-size="12.00"> 23D </text></a></g></g></g></svg>