<svg xmlns="http://www.w3.org/2000/svg" xmlns:xlink="http://www.w3.org/1999/xlink" width="308pt" height="564" viewBox="0 0 308 423"><g id="graph0" class="graph" transform="scale(1 1) rotate(0) translate(4 419)"><g id="node1" class="node"><title>1569400017503937267</title><path fill="none" stroke="#c4c7c7" stroke-dasharray="5 2" d="M218,-415C218,-415 162,-415 162,-415 156,-415 150,-409 150,-403 150,-403 150,-391 150,-391 150,-385 156,-379 162,-379 162,-379 218,-379 218,-379 224,-379 230,-385 230,-391 230,-391 230,-403 230,-403 230,-409 224,-415 218,-415"/><text x="190" y="-400.4" fill="#c4c7c7" font-family="Times New Roman,serif" font-size="12" text-anchor="middle">Distribuição</text><text x="190" y="-387.4" fill="#c4c7c7" font-family="Times New Roman,serif" font-size="12" text-anchor="middle">não executou</text></g><g id="node2" class="node"><title>-7475462392750634986</title><path fill="none" stroke="#c4c7c7" stroke-dasharray="5 2" d="M241,-36C241,-36 185,-36 185,-36 179,-36 173,-30 173,-24 173,-24 173,-12 173,-12 173,-6 179,0 185,0 185,0 241,0 241,0 247,0 253,-6 253,-12 253,-12 253,-24 253,-24 253,-30 247,-36 241,-36"/><text x="213" y="-21.4" fill="#c4c7c7" font-family="Times New Roman,serif" font-size="12" text-anchor="middle">Definitivo</text><text x="213" y="-8.4" fill="#c4c7c7" font-family="Times New Roman,serif" font-size="12" text-anchor="middle">não executou</text></g><g id="node3" class="node"><title>3481022503272025849</title><g id="a_node3"><a xlink:title="Conclusão"><path fill="#fff" stroke="#000" stroke-width="2.5" d="M229,-361C229,-361 151,-361 151,-361 145,-361 139,-355 139,-349 139,-349 139,-333 139,-333 139,-327 145,-321 151,-321 151,-321 229,-321 229,-321 235,-321 241,-327 241,-333 241,-333 241,-349 241,-349 241,-355 235,-361 229,-361"/><text x="190" y="-344.4" font-family="Times New Roman,serif" font-size="12" text-anchor="middle">Conclusão</text><text x="190" y="-331.4" font-family="Times New Roman,serif" font-size="12" text-anchor="middle">3353 movimentos</text></a></g></g><g id="node4" class="node"><title>7987048985312221378</title><g id="a_node4"><a xlink:title="Despacho"><path fill="#fff" stroke="#000" stroke-width="1.53" d="M90,-272C90,-272 12,-272 12,-272 6,-272 0,-266 0,-260 0,-260 0,-244 0,-244 0,-238 6,-232 12,-232 12,-232 90,-232 90,-232 96,-232 102,-238 102,-244 102,-244 102,-260 102,-260 102,-266 96,-272 90,-272"/><text x="51" y="-255.4" font-family="Times New Roman,serif" font-size="12" text-anchor="middle">Despacho</text><text x="51" y="-242.4" font-family="Times New Roman,serif" font-size="12" text-anchor="middle">2053 movimentos</text></a></g></g><g id="edge1" class="edge"><title>3481022503272025849-&gt;7987048985312221378</title><g id="a_edge1"><a xlink:title="Conclusão -&gt; Despacho"><path fill="none" stroke="#319600" stroke-width="3.52" d="M159.5,-320.91C139.13,-308.16 112.15,-291.27 90.19,-277.53"/><polygon fill="#319600" stroke="#319600" stroke-width="3.52" points="91.77 -274.39 81.43 -272.05 88.05 -280.32 91.77 -274.39"/></a></g><g id="a_edge1-label"><a xlink:title="Conclusão -&gt; Despacho"><text x="139.5" y="-293.4" font-family="Times New Roman,serif" font-size="12" text-anchor="middle">1D</text></a></g></g><g id="node6" class="node"><title>-7502121929537258044</title><g id="a_node6"><a xlink:title="Julgamento"><path fill="#fff" stroke="#000" d="M191,-272C191,-272 119,-272 119,-272 113,-272 107,-266 107,-260 107,-260 107,-244 107,-244 107,-238 113,-232 119,-232 119,-232 191,-232 191,-232 197,-232 203,-238 203,-244 203,-244 203,-260 203,-260 203,-266 197,-272 191,-272"/><text x="155" y="-255.4" font-family="Times New Roman,serif" font-size="12" text-anchor="middle">Julgamento</text><text x="155" y="-242.4" font-family="Times New Roman,serif" font-size="12" text-anchor="middle">685 movimentos</text></a></g></g><g id="edge2" class="edge"><title>3481022503272025849-&gt;-7502121929537258044</title><g id="a_edge2"><a xlink:title="Conclusão -&gt; Julgamento"><path fill="none" stroke="#964500" d="M182.23,-320.69C177.61,-309.2 171.66,-294.41 166.5,-281.59"/><polygon fill="#964500" stroke="#964500" points="169.73 -280.23 162.75 -272.25 163.23 -282.84 169.73 -280.23"/></a></g><g id="a_edge2-label"><a xlink:title="Conclusão -&gt; Julgamento"><text x="185.5" y="-293.4" font-family="Times New Roman,serif" font-size="12" text-anchor="middle">3D</text></a></g></g><g id="node5" class="node"><title>4422747661767652410</title><g id="a_node5"><a xlink:title="Expedição de documento"><path fill="#fff" stroke="#000" stroke-width="5" d="M207.5,-183C207.5,-183 92.5,-183 92.5,-183 86.5,-183 80.5,-177 80.5,-171 80.5,-171 80.5,-155 80.5,-155 80.5,-149 86.5,-143 92.5,-143 92.5,-143 207.5,-143 207.5,-143 213.5,-143 219.5,-149 219.5,-155 219.5,-155 219.5,-171 219.5,-171 219.5,-177 213.5,-183 207.5,-183"/><text x="150" y="-166.4" font-family="Times New Roman,serif" font-size="12" text-anchor="middle">Expedição de documento</text><text x="150" y="-153.4" font-family="Times New Roman,serif" font-size="12" text-anchor="middle">6718 movimentos</text></a></g></g><g id="edge3" class="edge"><title>7987048985312221378-&gt;4422747661767652410</title><g id="a_edge3"><a xlink:title="Despacho -&gt; Expedição de documento"><path fill="none" stroke="#964500" stroke-width="3.04" d="M72.97,-231.69C86.94,-219.41 105.2,-203.37 120.44,-189.98"/><polygon fill="#964500" stroke="#964500" stroke-width="3.04" points="122.89 -192.48 128.09 -183.25 118.27 -187.23 122.89 -192.48"/></a></g><g id="a_edge3-label"><a xlink:title="Despacho -&gt; Expedição de documento"><text x="117.5" y="-204.4" font-family="Times New Roman,serif" font-size="12" text-anchor="middle">3D</text></a></g></g><g id="edge4" class="edge"><title>4422747661767652410-&gt;3481022503272025849</title><g id="a_edge4"><a xlink:title="Expedição de documento -&gt; Conclusão"><path fill="none" stroke="#009600" d="M171.12,-183.18C183.29,-195.72 197.45,-213.21 204,-232 212.98,-257.74 207.4,-288.74 200.82,-310.91"/><polygon fill="#009600" stroke="#009600" points="197.39 -310.13 197.67 -320.73 204.06 -312.27 197.39 -310.13"/></a></g><g id="a_edge4-label"><a xlink:title="Expedição de documento -&gt; Conclusão"><text x="219.5" y="-248.9" font-family="Times New Roman,serif" font-size="12" text-anchor="middle">1m</text></a></g></g><g id="edge5" class="edge"><title>4422747661767652410-&gt;4422747661767652410</title><g id="a_edge5"><a xlink:title="Expedição de documento -&gt; Expedição de documento"><path fill="none" stroke="#369600" stroke-width="5" d="M219.67,-170.52C230.29,-169.37 237.5,-166.87 237.5,-163 237.5,-160.52 234.54,-158.6 229.62,-157.24"/><polygon fill="#369600" stroke="#369600" stroke-width="5" points="230.28 -152.92 219.67 -155.48 228.76 -161.53 230.28 -152.92"/></a></g><g id="a_edge5-label"><a xlink:title="Expedição de documento -&gt; Expedição de documento"><text x="248" y="-159.9" font-family="Times New Roman,serif" font-size="12" text-anchor="middle">2D</text></a></g></g><g id="node7" class="node"><title>-2998375710546834842</title><g id="a_node7"><a xlink:title="Petição"><path fill="#fff" stroke="#000" stroke-width="3.84" d="M252,-94C252,-94 174,-94 174,-94 168,-94 162,-88 162,-82 162,-82 162,-66 162,-66 162,-60 168,-54 174,-54 174,-54 252,-54 252,-54 258,-54 264,-60 264,-66 264,-66 264,-82 264,-82 264,-88 258,-94 252,-94"/><text x="213" y="-77.4" font-family="Times New Roman,serif" font-size="12" text-anchor="middle">Petição</text><text x="213" y="-64.4" font-family="Times New Roman,serif" font-size="12" text-anchor="middle">5154 movimentos</text></a></g></g><g id="edge6" class="edge"><title>4422747661767652410-&gt;-2998375710546834842</title><g id="a_edge6"><a xlink:title="Expedição de documento -&gt; Petição"><path fill="none" stroke="#960000" stroke-width="4.52" d="M152.4,-142.71C154.33,-132.87 157.8,-121.09 164,-112 166.75,-107.97 170.07,-104.21 173.69,-100.73"/><polygon fill="#960000" stroke="#960000" stroke-width="4.52" points="176.46 -103.57 181.42 -94.03 171.27 -97.59 176.46 -103.57"/></a></g><g id="a_edge6-label"><a xlink:title="Expedição de documento -&gt; Petição"><text x="177.5" y="-115.4" font-family="Times New Roman,serif" font-size="12" text-anchor="middle">14D</text></a></g></g><g id="edge7" class="edge"><title>-7502121929537258044-&gt;4422747661767652410</title><g id="a_edge7"><a xlink:title="Julgamento -&gt; Expedição de documento"><path fill="none" stroke="#439600" d="M153.89,-231.69C153.24,-220.43 152.41,-205.99 151.69,-193.35"/><polygon fill="#439600" stroke="#439600" points="155.17 -193.04 151.11 -183.25 148.19 -193.44 155.17 -193.04"/></a></g><g id="a_edge7-label"><a xlink:title="Julgamento -&gt; Expedição de documento"><text x="163.5" y="-204.4" font-family="Times New Roman,serif" font-size="12" text-anchor="middle">2D</text></a></g></g><g id="edge8" class="edge"><title>-2998375710546834842-&gt;3481022503272025849</title><g id="a_edge8"><a xlink:title="Petição -&gt; Conclusão"><path fill="none" stroke="#963b00" stroke-width="3.41" d="M230.95,-94.1C241.66,-106.87 254.27,-124.64 260,-143 265.29,-159.97 262.52,-165.4 260,-183 252.02,-238.79 248.83,-255.18 219,-303 216.98,-306.24 214.73,-309.53 212.4,-312.74"/><polygon fill="#963b00" stroke="#963b00" stroke-width="3.41" points="209.41 -310.9 206.16 -320.98 214.99 -315.12 209.41 -310.9"/></a></g><g id="a_edge8-label"><a xlink:title="Petição -&gt; Conclusão"><text x="267.5" y="-204.4" font-family="Times New Roman,serif" font-size="12" text-anchor="middle">4D</text></a></g></g><g id="edge9" class="edge"><title>-2998375710546834842-&gt;4422747661767652410</title><g id="a_edge9"><a xlink:title="Petição -&gt; Expedição de documento"><path fill="none" stroke="#962d00" d="M206.8,-94.05C203.09,-103.83 197.77,-115.62 191,-125 188.34,-128.68 185.26,-132.27 182,-135.68"/><polygon fill="#962d00" stroke="#962d00" points="179.42 -133.31 174.69 -142.79 184.3 -138.32 179.42 -133.31"/></a></g><g id="a_edge9-label"><a xlink:title="Petição -&gt; Expedição de documento"><text x="209.5" y="-115.4" font-family="Times New Roman,serif" font-size="12" text-anchor="middle">6D</text></a></g></g><g id="edge10" class="edge"><title>-2998375710546834842-&gt;-2998375710546834842</title><g id="a_edge10"><a xlink:title="Petição -&gt; Petição"><path fill="none" stroke="#029600" stroke-width="3.24" d="M264.15,-81.94C274.55,-81.07 282,-78.43 282,-74 282,-71.23 279.09,-69.16 274.37,-67.79"/><polygon fill="#029600" stroke="#029600" stroke-width="3.24" points="274.6 -64.28 264.15 -66.06 273.43 -71.18 274.6 -64.28"/></a></g><g id="a_edge10-label"><a xlink:title="Petição -&gt; Petição"><text x="291" y="-70.9" font-family="Times New Roman,serif" font-size="12" text-anchor="middle">1h</text></a></g></g></g></svg>