<?xml version="1.0" encoding="UTF-8" standalone="no"?><!DOCTYPE svg PUBLIC "-//W3C//DTD SVG 1.1//EN" "http://www.w3.org/Graphics/SVG/1.1/DTD/svg11.dtd"><!-- Generated by graphviz version 2.49.3 (20211023.0002) --><!-- Pages: 1 --><svg width="305pt" height="458pt" viewBox="0.00 0.00 305.00 458.00" xmlns="http://www.w3.org/2000/svg" xmlns:xlink="http://www.w3.org/1999/xlink"><g id="graph0" class="graph" transform="scale(1 1) rotate(0) translate(4 454)"><!-- 1894939040614898085 --><g id="node1" class="node"><title>1894939040614898085</title><g id="a_node1"><a xlink:title="Distribuição"><path fill="white" stroke="black" d="M216,-450C216,-450 144,-450 144,-450 138,-450 132,-444 132,-438 132,-438 132,-422 132,-422 132,-416 138,-410 144,-410 144,-410 216,-410 216,-410 222,-410 228,-416 228,-422 228,-422 228,-438 228,-438 228,-444 222,-450 216,-450"/><text text-anchor="middle" x="180" y="-433.4" font-family="Times New Roman,serif" font-size="12.00"> Distribuição &#160;</text><text text-anchor="middle" x="180" y="-420.4" font-family="Times New Roman,serif" font-size="12.00"> 538 movimentos </text></a></g></g><!-- &#45;2366248699620310184 --><g id="node3" class="node"><title>&#45;2366248699620310184</title><g id="a_node3"><a xlink:title="Conclusão"><path fill="#ffffff" stroke="black" stroke-width="2.5" d="M219,-361C219,-361 141,-361 141,-361 135,-361 129,-355 129,-349 129,-349 129,-333 129,-333 129,-327 135,-321 141,-321 141,-321 219,-321 219,-321 225,-321 231,-327 231,-333 231,-333 231,-349 231,-349 231,-355 225,-361 219,-361"/><text text-anchor="middle" x="180" y="-344.4" font-family="Times New Roman,serif" font-size="12.00"> Conclusão &#160;</text><text text-anchor="middle" x="180" y="-331.4" font-family="Times New Roman,serif" font-size="12.00"> 3353 movimentos </text></a></g></g><!-- 1894939040614898085&#45;&gt;&#45;2366248699620310184 --><g id="edge2" class="edge"><title>1894939040614898085&#45;&gt;&#45;2366248699620310184</title><g id="a_edge2"><a xlink:title="Distribuição &#45;&gt; Conclusão"><path fill="none" stroke="#009600" d="M180,-409.69C180,-398.43 180,-383.99 180,-371.35"/><polygon fill="#009600" stroke="#009600" points="183.5,-371.25 180,-361.25 176.5,-371.25 183.5,-371.25"/></a></g><g id="a_edge2&#45;label"><a xlink:title="Distribuição &#45;&gt; Conclusão"><text text-anchor="middle" x="188.5" y="-382.4" font-family="Times New Roman,serif" font-size="12.00"> 2s </text></a></g></g><!-- &#45;3781142108983599563 --><g id="node2" class="node"><title>&#45;3781142108983599563</title><path fill="none" stroke="#c4c7c7" stroke-dasharray="5,2" d="M79,-36C79,-36 23,-36 23,-36 17,-36 11,-30 11,-24 11,-24 11,-12 11,-12 11,-6 17,0 23,0 23,0 79,0 79,0 85,0 91,-6 91,-12 91,-12 91,-24 91,-24 91,-30 85,-36 79,-36"/><text text-anchor="middle" x="51" y="-21.4" font-family="Times New Roman,serif" font-size="12.00" fill="#c4c7c7"> Definitivo &#160;</text><text text-anchor="middle" x="51" y="-8.4" font-family="Times New Roman,serif" font-size="12.00" fill="#c4c7c7"> não executou</text></g><!-- 4196473730345433951 --><g id="node6" class="node"><title>4196473730345433951</title><g id="a_node6"><a xlink:title="Mero expediente"><path fill="#ffffff" stroke="black" stroke-width="1.52" d="M132,-272C132,-272 54,-272 54,-272 48,-272 42,-266 42,-260 42,-260 42,-244 42,-244 42,-238 48,-232 54,-232 54,-232 132,-232 132,-232 138,-232 144,-238 144,-244 144,-244 144,-260 144,-260 144,-266 138,-272 132,-272"/><text text-anchor="middle" x="93" y="-255.4" font-family="Times New Roman,serif" font-size="12.00"> Mero expediente &#160;</text><text text-anchor="middle" x="93" y="-242.4" font-family="Times New Roman,serif" font-size="12.00"> 2048 movimentos </text></a></g></g><!-- &#45;2366248699620310184&#45;&gt;4196473730345433951 --><g id="edge1" class="edge"><title>&#45;2366248699620310184&#45;&gt;4196473730345433951</title><g id="a_edge1"><a xlink:title="Conclusão &#45;&gt; Mero expediente"><path fill="none" stroke="#319600" stroke-width="3.7" d="M160.69,-320.69C148.53,-308.53 132.66,-292.66 119.35,-279.35"/><polygon fill="#319600" stroke="#319600" stroke-width="3.7" points="121.8,-276.85 112.25,-272.25 116.85,-281.8 121.8,-276.85"/></a></g><g id="a_edge1&#45;label"><a xlink:title="Conclusão &#45;&gt; Mero expediente"><text text-anchor="middle" x="151.5" y="-293.4" font-family="Times New Roman,serif" font-size="12.00"> 1D </text></a></g></g><!-- &#45;2142120187836555337 --><g id="node4" class="node"><title>&#45;2142120187836555337</title><g id="a_node4"><a xlink:title="Expedição de documento"><path fill="#ffffff" stroke="black" stroke-width="5" d="M150.5,-183C150.5,-183 35.5,-183 35.5,-183 29.5,-183 23.5,-177 23.5,-171 23.5,-171 23.5,-155 23.5,-155 23.5,-149 29.5,-143 35.5,-143 35.5,-143 150.5,-143 150.5,-143 156.5,-143 162.5,-149 162.5,-155 162.5,-155 162.5,-171 162.5,-171 162.5,-177 156.5,-183 150.5,-183"/><text text-anchor="middle" x="93" y="-166.4" font-family="Times New Roman,serif" font-size="12.00"> Expedição de documento &#160;</text><text text-anchor="middle" x="93" y="-153.4" font-family="Times New Roman,serif" font-size="12.00"> 6718 movimentos </text></a></g></g><!-- &#45;2142120187836555337&#45;&gt;&#45;2366248699620310184 --><g id="edge3" class="edge"><title>&#45;2142120187836555337&#45;&gt;&#45;2366248699620310184</title><g id="a_edge3"><a xlink:title="Expedição de documento &#45;&gt; Conclusão"><path fill="none" stroke="#009600" d="M114.5,-183.17C127.44,-195.84 143.26,-213.47 153,-232 166.04,-256.81 172.97,-288.17 176.53,-310.7"/><polygon fill="#009600" stroke="#009600" points="173.08,-311.28 177.98,-320.68 180.01,-310.28 173.08,-311.28"/></a></g><g id="a_edge3&#45;label"><a xlink:title="Expedição de documento &#45;&gt; Conclusão"><text text-anchor="middle" x="178.5" y="-248.9" font-family="Times New Roman,serif" font-size="12.00"> 1m </text></a></g></g><!-- &#45;2142120187836555337&#45;&gt;&#45;2142120187836555337 --><g id="edge4" class="edge"><title>&#45;2142120187836555337&#45;&gt;&#45;2142120187836555337</title><g id="a_edge4"><a xlink:title="Expedição de documento &#45;&gt; Expedição de documento"><path fill="none" stroke="#965f00" stroke-width="5" d="M162.67,-170.52C173.29,-169.37 180.5,-166.87 180.5,-163 180.5,-160.52 177.54,-158.6 172.62,-157.24"/><polygon fill="#965f00" stroke="#965f00" stroke-width="5" points="173.28,-152.92 162.67,-155.48 171.76,-161.53 173.28,-152.92"/></a></g><g id="a_edge4&#45;label"><a xlink:title="Expedição de documento &#45;&gt; Expedição de documento"><text text-anchor="middle" x="191" y="-159.9" font-family="Times New Roman,serif" font-size="12.00"> 2D </text></a></g></g><!-- 7316831560597932829 --><g id="node5" class="node"><title>7316831560597932829</title><g id="a_node5"><a xlink:title="Mandado"><path fill="#ffffff" stroke="black" d="M90,-94C90,-94 12,-94 12,-94 6,-94 0,-88 0,-82 0,-82 0,-66 0,-66 0,-60 6,-54 12,-54 12,-54 90,-54 90,-54 96,-54 102,-60 102,-66 102,-66 102,-82 102,-82 102,-88 96,-94 90,-94"/><text text-anchor="middle" x="51" y="-77.4" font-family="Times New Roman,serif" font-size="12.00"> Mandado &#160;</text><text text-anchor="middle" x="51" y="-64.4" font-family="Times New Roman,serif" font-size="12.00"> 1143 movimentos </text></a></g></g><!-- &#45;2142120187836555337&#45;&gt;7316831560597932829 --><g id="edge5" class="edge"><title>&#45;2142120187836555337&#45;&gt;7316831560597932829</title><g id="a_edge5"><a xlink:title="Expedição de documento &#45;&gt; Mandado"><path fill="none" stroke="#009600" d="M83.68,-142.69C78.13,-131.2 70.99,-116.41 64.8,-103.59"/><polygon fill="#009600" stroke="#009600" points="67.79,-101.74 60.3,-94.25 61.49,-104.78 67.79,-101.74"/></a></g><g id="a_edge5&#45;label"><a xlink:title="Expedição de documento &#45;&gt; Mandado"><text text-anchor="middle" x="85.5" y="-115.4" font-family="Times New Roman,serif" font-size="12.00"> 10s </text></a></g></g><!-- &#45;3301837613698818645 --><g id="node7" class="node"><title>&#45;3301837613698818645</title><g id="a_node7"><a xlink:title="Petição"><path fill="#ffffff" stroke="black" stroke-width="3.84" d="M249,-94C249,-94 171,-94 171,-94 165,-94 159,-88 159,-82 159,-82 159,-66 159,-66 159,-60 165,-54 171,-54 171,-54 249,-54 249,-54 255,-54 261,-60 261,-66 261,-66 261,-82 261,-82 261,-88 255,-94 249,-94"/><text text-anchor="middle" x="210" y="-77.4" font-family="Times New Roman,serif" font-size="12.00"> Petição &#160;</text><text text-anchor="middle" x="210" y="-64.4" font-family="Times New Roman,serif" font-size="12.00"> 5154 movimentos </text></a></g></g><!-- &#45;2142120187836555337&#45;&gt;&#45;3301837613698818645 --><g id="edge6" class="edge"><title>&#45;2142120187836555337&#45;&gt;&#45;3301837613698818645</title><g id="a_edge6"><a xlink:title="Expedição de documento &#45;&gt; Petição"><path fill="none" stroke="#960000" stroke-width="4.19" d="M109.07,-142.54C117.85,-132.64 129.3,-120.87 141,-112 146.96,-107.48 153.54,-103.2 160.2,-99.25"/><polygon fill="#960000" stroke="#960000" stroke-width="4.19" points="162.4,-102.22 169.29,-94.1 158.78,-95.84 162.4,-102.22"/></a></g><g id="a_edge6&#45;label"><a xlink:title="Expedição de documento &#45;&gt; Petição"><text text-anchor="middle" x="154.5" y="-115.4" font-family="Times New Roman,serif" font-size="12.00"> 14D </text></a></g></g><!-- 7316831560597932829&#45;&gt;7316831560597932829 --><g id="edge7" class="edge"><title>7316831560597932829&#45;&gt;7316831560597932829</title><g id="a_edge7"><a xlink:title="Mandado &#45;&gt; Mandado"><path fill="none" stroke="#249600" d="M102.15,-81.94C112.55,-81.07 120,-78.43 120,-74 120,-71.23 117.09,-69.16 112.37,-67.79"/><polygon fill="#249600" stroke="#249600" points="112.6,-64.28 102.15,-66.06 111.43,-71.18 112.6,-64.28"/></a></g><g id="a_edge7&#45;label"><a xlink:title="Mandado &#45;&gt; Mandado"><text text-anchor="middle" x="130.5" y="-70.9" font-family="Times New Roman,serif" font-size="12.00"> 1D </text></a></g></g><!-- 4196473730345433951&#45;&gt;&#45;2142120187836555337 --><g id="edge8" class="edge"><title>4196473730345433951&#45;&gt;&#45;2142120187836555337</title><g id="a_edge8"><a xlink:title="Mero expediente &#45;&gt; Expedição de documento"><path fill="none" stroke="#964500" stroke-width="3.06" d="M93,-231.69C93,-220.43 93,-205.99 93,-193.35"/><polygon fill="#964500" stroke="#964500" stroke-width="3.06" points="96.5,-193.25 93,-183.25 89.5,-193.25 96.5,-193.25"/></a></g><g id="a_edge8&#45;label"><a xlink:title="Mero expediente &#45;&gt; Expedição de documento"><text text-anchor="middle" x="103.5" y="-204.4" font-family="Times New Roman,serif" font-size="12.00"> 3D </text></a></g></g><!-- &#45;3301837613698818645&#45;&gt;&#45;2366248699620310184 --><g id="edge9" class="edge"><title>&#45;3301837613698818645&#45;&gt;&#45;2366248699620310184</title><g id="a_edge9"><a xlink:title="Petição &#45;&gt; Conclusão"><path fill="none" stroke="#963b00" stroke-width="3.14" d="M210.36,-94.05C210.59,-107.68 210.88,-126.47 211,-143 211.13,-160.78 212.73,-165.31 211,-183 206.58,-228.21 195.16,-279.72 187.48,-311.04"/><polygon fill="#963b00" stroke="#963b00" stroke-width="3.14" points="184.06,-310.29 185.04,-320.84 190.85,-311.99 184.06,-310.29"/></a></g><g id="a_edge9&#45;label"><a xlink:title="Petição &#45;&gt; Conclusão"><text text-anchor="middle" x="218.5" y="-204.4" font-family="Times New Roman,serif" font-size="12.00"> 4D </text></a></g></g><!-- &#45;3301837613698818645&#45;&gt;&#45;2142120187836555337 --><g id="edge10" class="edge"><title>&#45;3301837613698818645&#45;&gt;&#45;2142120187836555337</title><g id="a_edge10"><a xlink:title="Petição &#45;&gt; Expedição de documento"><path fill="none" stroke="#962d00" stroke-width="1.11" d="M196.84,-94.25C189.26,-104.32 179.06,-116.32 168,-125 161.9,-129.79 155.07,-134.19 148.09,-138.16"/><polygon fill="#962d00" stroke="#962d00" stroke-width="1.11" points="146.36,-135.12 139.22,-142.95 149.68,-141.28 146.36,-135.12"/></a></g><g id="a_edge10&#45;label"><a xlink:title="Petição &#45;&gt; Expedição de documento"><text text-anchor="middle" x="191.5" y="-115.4" font-family="Times New Roman,serif" font-size="12.00"> 6D </text></a></g></g><!-- &#45;3301837613698818645&#45;&gt;&#45;3301837613698818645 --><g id="edge11" class="edge"><title>&#45;3301837613698818645&#45;&gt;&#45;3301837613698818645</title><g id="a_edge11"><a xlink:title="Petição &#45;&gt; Petição"><path fill="none" stroke="#029600" stroke-width="3.32" d="M261.15,-81.94C271.55,-81.07 279,-78.43 279,-74 279,-71.23 276.09,-69.16 271.37,-67.79"/><polygon fill="#029600" stroke="#029600" stroke-width="3.32" points="271.6,-64.28 261.15,-66.06 270.43,-71.18 271.6,-64.28"/></a></g><g id="a_edge11&#45;label"><a xlink:title="Petição &#45;&gt; Petição"><text text-anchor="middle" x="288" y="-70.9" font-family="Times New Roman,serif" font-size="12.00"> 1h </text></a></g></g></g></svg>