<?xml version="1.0" encoding="UTF-8" standalone="no"?><!DOCTYPE svg PUBLIC "-//W3C//DTD SVG 1.1//EN" "http://www.w3.org/Graphics/SVG/1.1/DTD/svg11.dtd"><!-- Generated by graphviz version 2.49.3 (20211023.0002) --><!-- Title: G Pages: 1 --><svg width="589pt" height="392pt" viewBox="0.00 0.00 589.00 392.00" xmlns="http://www.w3.org/2000/svg" xmlns:xlink="http://www.w3.org/1999/xlink"><g id="graph0" class="graph" transform="scale(1 1) rotate(0) translate(4 388)"><title>G</title><polygon fill="white" stroke="transparent" points="-4,4 -4,-388 585,-388 585,4 -4,4"/><!-- 2310f2ed&#45;5b65&#45;429d&#45;b26a&#45;611c7b869860 --><g id="node1" class="node"><title>2310f2ed&#45;5b65&#45;429d&#45;b26a&#45;611c7b869860</title><polygon fill="#38c6c6" stroke="black" points="269.5,-384 152.5,-384 152.5,-348 269.5,-348 269.5,-384"/><text text-anchor="middle" x="211" y="-362.3" font-family="Times New Roman,serif" font-size="14.00" fill="#000000">Distribuição (538)</text></g><!-- 3994980d&#45;5894&#45;443a&#45;bd66&#45;8c9621f83924 --><g id="node2" class="node"><title>3994980d&#45;5894&#45;443a&#45;bd66&#45;8c9621f83924</title><polygon fill="#49b5b5" stroke="black" points="269,-297 153,-297 153,-261 269,-261 269,-297"/><text text-anchor="middle" x="211" y="-275.3" font-family="Times New Roman,serif" font-size="14.00" fill="#000000">Conclusão (3353)</text></g><!-- 2310f2ed&#45;5b65&#45;429d&#45;b26a&#45;611c7b869860&#45;&gt;3994980d&#45;5894&#45;443a&#45;bd66&#45;8c9621f83924 --><g id="edge1" class="edge"><title>2310f2ed&#45;5b65&#45;429d&#45;b26a&#45;611c7b869860&#45;&gt;3994980d&#45;5894&#45;443a&#45;bd66&#45;8c9621f83924</title><path fill="none" stroke="#000000" stroke-width="1.57" d="M211,-347.8C211,-336.16 211,-320.55 211,-307.24"/><polygon fill="#000000" stroke="#000000" stroke-width="1.57" points="214.5,-307.18 211,-297.18 207.5,-307.18 214.5,-307.18"/><text text-anchor="middle" x="221.5" y="-318.8" font-family="Times New Roman,serif" font-size="14.00" fill="#000000">537</text></g><!-- 326aacd5&#45;1e96&#45;47c2&#45;a154&#45;677ef7e2ef2e --><g id="node3" class="node"><title>326aacd5&#45;1e96&#45;47c2&#45;a154&#45;677ef7e2ef2e</title><polygon fill="#44baba" stroke="black" points="174.5,-210 25.5,-210 25.5,-174 174.5,-174 174.5,-210"/><text text-anchor="middle" x="100" y="-188.3" font-family="Times New Roman,serif" font-size="14.00" fill="#000000">Mero expediente (2048)</text></g><!-- 3994980d&#45;5894&#45;443a&#45;bd66&#45;8c9621f83924&#45;&gt;326aacd5&#45;1e96&#45;47c2&#45;a154&#45;677ef7e2ef2e --><g id="edge2" class="edge"><title>3994980d&#45;5894&#45;443a&#45;bd66&#45;8c9621f83924&#45;&gt;326aacd5&#45;1e96&#45;47c2&#45;a154&#45;677ef7e2ef2e</title><path fill="none" stroke="#000000" stroke-width="1.68" d="M188.54,-260.8C171.84,-248.01 148.86,-230.42 130.5,-216.36"/><polygon fill="#000000" stroke="#000000" stroke-width="1.68" points="132.5,-213.48 122.43,-210.18 128.24,-219.03 132.5,-213.48"/><text text-anchor="middle" x="177" y="-231.8" font-family="Times New Roman,serif" font-size="14.00" fill="#000000">1773</text></g><!-- dddab5f4&#45;3f47&#45;4499&#45;b781&#45;7f188bcd5e2c --><g id="node4" class="node"><title>dddab5f4&#45;3f47&#45;4499&#45;b781&#45;7f188bcd5e2c</title><polygon fill="#4fafaf" stroke="black" points="200,-123 0,-123 0,-87 200,-87 200,-123"/><text text-anchor="middle" x="100" y="-101.3" font-family="Times New Roman,serif" font-size="14.00" fill="#000000">Expedição de documento (6718)</text></g><!-- 326aacd5&#45;1e96&#45;47c2&#45;a154&#45;677ef7e2ef2e&#45;&gt;dddab5f4&#45;3f47&#45;4499&#45;b781&#45;7f188bcd5e2c --><g id="edge3" class="edge"><title>326aacd5&#45;1e96&#45;47c2&#45;a154&#45;677ef7e2ef2e&#45;&gt;dddab5f4&#45;3f47&#45;4499&#45;b781&#45;7f188bcd5e2c</title><path fill="none" stroke="#000000" stroke-width="1.67" d="M100,-173.8C100,-162.16 100,-146.55 100,-133.24"/><polygon fill="#000000" stroke="#000000" stroke-width="1.67" points="103.5,-133.18 100,-123.18 96.5,-133.18 103.5,-133.18"/><text text-anchor="middle" x="114" y="-144.8" font-family="Times New Roman,serif" font-size="14.00" fill="#000000">1550</text></g><!-- dddab5f4&#45;3f47&#45;4499&#45;b781&#45;7f188bcd5e2c&#45;&gt;3994980d&#45;5894&#45;443a&#45;bd66&#45;8c9621f83924 --><g id="edge5" class="edge"><title>dddab5f4&#45;3f47&#45;4499&#45;b781&#45;7f188bcd5e2c&#45;&gt;3994980d&#45;5894&#45;443a&#45;bd66&#45;8c9621f83924</title><path fill="none" stroke="#000000" stroke-width="1.6" d="M128.95,-123.06C147.02,-135.12 169.35,-152.88 183,-174 198.09,-197.35 205.09,-228.65 208.32,-250.8"/><polygon fill="#000000" stroke="#000000" stroke-width="1.6" points="204.87,-251.39 209.62,-260.86 211.81,-250.49 204.87,-251.39"/><text text-anchor="middle" x="210.5" y="-188.3" font-family="Times New Roman,serif" font-size="14.00" fill="#000000">740</text></g><!-- dddab5f4&#45;3f47&#45;4499&#45;b781&#45;7f188bcd5e2c&#45;&gt;dddab5f4&#45;3f47&#45;4499&#45;b781&#45;7f188bcd5e2c --><g id="edge4" class="edge"><title>dddab5f4&#45;3f47&#45;4499&#45;b781&#45;7f188bcd5e2c&#45;&gt;dddab5f4&#45;3f47&#45;4499&#45;b781&#45;7f188bcd5e2c</title><path fill="none" stroke="#000000" stroke-width="1.7" d="M200.29,-111.58C211.07,-110.31 218,-108.12 218,-105 218,-103 215.15,-101.39 210.28,-100.15"/><polygon fill="#000000" stroke="#000000" stroke-width="1.7" points="210.74,-96.68 200.29,-98.42 209.55,-103.57 210.74,-96.68"/><text text-anchor="middle" x="232" y="-101.3" font-family="Times New Roman,serif" font-size="14.00" fill="#000000">2225</text></g><!-- 2d847f93&#45;e93b&#45;4897&#45;9eb4&#45;00ace731dc87 --><g id="node5" class="node"><title>2d847f93&#45;e93b&#45;4897&#45;9eb4&#45;00ace731dc87</title><polygon fill="#4cb2b2" stroke="black" points="200,-36 102,-36 102,0 200,0 200,-36"/><text text-anchor="middle" x="151" y="-14.3" font-family="Times New Roman,serif" font-size="14.00" fill="#000000">Petição (5154)</text></g><!-- dddab5f4&#45;3f47&#45;4499&#45;b781&#45;7f188bcd5e2c&#45;&gt;2d847f93&#45;e93b&#45;4897&#45;9eb4&#45;00ace731dc87 --><g id="edge6" class="edge"><title>dddab5f4&#45;3f47&#45;4499&#45;b781&#45;7f188bcd5e2c&#45;&gt;2d847f93&#45;e93b&#45;4897&#45;9eb4&#45;00ace731dc87</title><path fill="none" stroke="#000000" stroke-width="1.69" d="M96.63,-86.82C95.51,-76.7 95.69,-63.96 101,-54 103.19,-49.89 106.1,-46.16 109.42,-42.8"/><polygon fill="#000000" stroke="#000000" stroke-width="1.69" points="111.96,-45.24 117.23,-36.04 107.38,-39.95 111.96,-45.24"/><text text-anchor="middle" x="115" y="-57.8" font-family="Times New Roman,serif" font-size="14.00" fill="#000000">1944</text></g><!-- 2d847f93&#45;e93b&#45;4897&#45;9eb4&#45;00ace731dc87&#45;&gt;3994980d&#45;5894&#45;443a&#45;bd66&#45;8c9621f83924 --><g id="edge8" class="edge"><title>2d847f93&#45;e93b&#45;4897&#45;9eb4&#45;00ace731dc87&#45;&gt;3994980d&#45;5894&#45;443a&#45;bd66&#45;8c9621f83924</title><path fill="none" stroke="#000000" stroke-width="1.67" d="M195.82,-36.09C217.87,-47.05 242.38,-63.66 255,-87 284.18,-140.94 250.47,-213.6 227.95,-251.88"/><polygon fill="#000000" stroke="#000000" stroke-width="1.67" points="224.71,-250.48 222.51,-260.84 230.69,-254.11 224.71,-250.48"/><text text-anchor="middle" x="280" y="-144.8" font-family="Times New Roman,serif" font-size="14.00" fill="#000000">1579</text></g><!-- 2d847f93&#45;e93b&#45;4897&#45;9eb4&#45;00ace731dc87&#45;&gt;dddab5f4&#45;3f47&#45;4499&#45;b781&#45;7f188bcd5e2c --><g id="edge9" class="edge"><title>2d847f93&#45;e93b&#45;4897&#45;9eb4&#45;00ace731dc87&#45;&gt;dddab5f4&#45;3f47&#45;4499&#45;b781&#45;7f188bcd5e2c</title><path fill="none" stroke="#000000" stroke-width="1.62" d="M144.78,-36.25C140.88,-46.17 135.38,-58.67 129,-69 126.91,-72.38 124.53,-75.78 122.04,-79.07"/><polygon fill="#000000" stroke="#000000" stroke-width="1.62" points="119.27,-76.92 115.76,-86.92 124.74,-81.29 119.27,-76.92"/><text text-anchor="middle" x="147.5" y="-57.8" font-family="Times New Roman,serif" font-size="14.00" fill="#000000">873</text></g><!-- 2d847f93&#45;e93b&#45;4897&#45;9eb4&#45;00ace731dc87&#45;&gt;2d847f93&#45;e93b&#45;4897&#45;9eb4&#45;00ace731dc87 --><g id="edge7" class="edge"><title>2d847f93&#45;e93b&#45;4897&#45;9eb4&#45;00ace731dc87&#45;&gt;2d847f93&#45;e93b&#45;4897&#45;9eb4&#45;00ace731dc87</title><path fill="none" stroke="#000000" stroke-width="1.67" d="M200.08,-25.62C210.49,-24.85 218,-22.31 218,-18 218,-15.31 215.06,-13.31 210.32,-12"/><polygon fill="#000000" stroke="#000000" stroke-width="1.67" points="210.5,-8.48 200.08,-10.38 209.41,-15.39 210.5,-8.48"/><text text-anchor="middle" x="232" y="-14.3" font-family="Times New Roman,serif" font-size="14.00" fill="#000000">1641</text></g><!-- f547e7b8&#45;183e&#45;4ac0&#45;b351&#45;7bd758d00518 --><g id="node6" class="node"><title>f547e7b8&#45;183e&#45;4ac0&#45;b351&#45;7bd758d00518</title><polygon fill="#3fbfbf" stroke="black" points="398,-384 288,-384 288,-348 398,-348 398,-384"/><text text-anchor="middle" x="343" y="-362.3" font-family="Times New Roman,serif" font-size="14.00" fill="#000000">Mandado (1143)</text></g><!-- f547e7b8&#45;183e&#45;4ac0&#45;b351&#45;7bd758d00518&#45;&gt;f547e7b8&#45;183e&#45;4ac0&#45;b351&#45;7bd758d00518 --><g id="edge10" class="edge"><title>f547e7b8&#45;183e&#45;4ac0&#45;b351&#45;7bd758d00518&#45;&gt;f547e7b8&#45;183e&#45;4ac0&#45;b351&#45;7bd758d00518</title><path fill="none" stroke="#000000" stroke-width="1.57" d="M398.07,-373.5C408.57,-372.6 416,-370.1 416,-366 416,-363.37 412.95,-361.4 408,-360.09"/><polygon fill="#000000" stroke="#000000" stroke-width="1.57" points="408.5,-356.63 398.07,-358.5 407.39,-363.54 408.5,-356.63"/><text text-anchor="middle" x="426.5" y="-362.3" font-family="Times New Roman,serif" font-size="14.00" fill="#000000">516</text></g><!-- start_0 --><g id="node7" class="node"><title>start_0</title><ellipse fill="#32cd32" stroke="#000000" cx="482" cy="-366" rx="27" ry="18"/><text text-anchor="middle" x="482" y="-364.1" font-family="Times New Roman,serif" font-size="8.00" fill="#32cd32">@@S</text></g><!-- end_0 --><g id="node8" class="node"><title>end_0</title><ellipse fill="#ffa500" stroke="#ffa500" cx="554" cy="-366" rx="27" ry="18"/><text text-anchor="middle" x="554" y="-364.1" font-family="Times New Roman,serif" font-size="8.00" fill="#ffa500">@@E</text></g></g></svg>