<?xml version="1.0" encoding="UTF-8" standalone="no"?><!DOCTYPE svg PUBLIC "-//W3C//DTD SVG 1.1//EN" "http://www.w3.org/Graphics/SVG/1.1/DTD/svg11.dtd"><!-- Generated by graphviz version 2.49.3 (20211023.0002) --><!-- Title: G Pages: 1 --><svg width="1160pt" height="914pt" viewBox="0.00 0.00 1160.47 914.00" xmlns="http://www.w3.org/2000/svg" xmlns:xlink="http://www.w3.org/1999/xlink"><g id="graph0" class="graph" transform="scale(1 1) rotate(0) translate(4 910)"><title>G</title><polygon fill="white" stroke="transparent" points="-4,4 -4,-910 1156.47,-910 1156.47,4 -4,4"/><!-- 82ae5d45&#45;a022&#45;42a0&#45;957e&#45;81146dbbd26f --><g id="node1" class="node"><title>82ae5d45&#45;a022&#45;42a0&#45;957e&#45;81146dbbd26f</title><polygon fill="#38c6c6" stroke="black" points="1097.97,-819 980.97,-819 980.97,-783 1097.97,-783 1097.97,-819"/><text text-anchor="middle" x="1039.47" y="-797.3" font-family="Times New Roman,serif" font-size="14.00" fill="#000000">Distribuição (538)</text></g><!-- 16db3029&#45;36ef&#45;4e16&#45;86a3&#45;e6c832093f35 --><g id="node2" class="node"><title>16db3029&#45;36ef&#45;4e16&#45;86a3&#45;e6c832093f35</title><polygon fill="#49b5b5" stroke="black" points="783.47,-732 667.47,-732 667.47,-696 783.47,-696 783.47,-732"/><text text-anchor="middle" x="725.47" y="-710.3" font-family="Times New Roman,serif" font-size="14.00" fill="#000000">Conclusão (3353)</text></g><!-- 82ae5d45&#45;a022&#45;42a0&#45;957e&#45;81146dbbd26f&#45;&gt;16db3029&#45;36ef&#45;4e16&#45;86a3&#45;e6c832093f35 --><g id="edge1" class="edge"><title>82ae5d45&#45;a022&#45;42a0&#45;957e&#45;81146dbbd26f&#45;&gt;16db3029&#45;36ef&#45;4e16&#45;86a3&#45;e6c832093f35</title><path fill="none" stroke="#000000" stroke-width="1.57" d="M980.78,-784.11C927.61,-769.72 849.28,-748.51 793.42,-733.39"/><polygon fill="#000000" stroke="#000000" stroke-width="1.57" points="794.18,-729.97 783.61,-730.74 792.35,-736.73 794.18,-729.97"/><text text-anchor="middle" x="910.97" y="-753.8" font-family="Times New Roman,serif" font-size="14.00" fill="#000000">537</text></g><!-- e2a4411e&#45;6308&#45;46f1&#45;82d8&#45;d59b95e0789d --><g id="node3" class="node"><title>e2a4411e&#45;6308&#45;46f1&#45;82d8&#45;d59b95e0789d</title><polygon fill="#44baba" stroke="black" points="781.97,-645 668.97,-645 668.97,-609 781.97,-609 781.97,-645"/><text text-anchor="middle" x="725.47" y="-623.3" font-family="Times New Roman,serif" font-size="14.00" fill="#000000">Despacho (2053)</text></g><!-- 16db3029&#45;36ef&#45;4e16&#45;86a3&#45;e6c832093f35&#45;&gt;e2a4411e&#45;6308&#45;46f1&#45;82d8&#45;d59b95e0789d --><g id="edge2" class="edge"><title>16db3029&#45;36ef&#45;4e16&#45;86a3&#45;e6c832093f35&#45;&gt;e2a4411e&#45;6308&#45;46f1&#45;82d8&#45;d59b95e0789d</title><path fill="none" stroke="#000000" stroke-width="1.68" d="M725.47,-695.8C725.47,-684.16 725.47,-668.55 725.47,-655.24"/><polygon fill="#000000" stroke="#000000" stroke-width="1.68" points="728.97,-655.18 725.47,-645.18 721.97,-655.18 728.97,-655.18"/><text text-anchor="middle" x="739.47" y="-666.8" font-family="Times New Roman,serif" font-size="14.00" fill="#000000">1776</text></g><!-- 0cb29341&#45;cc52&#45;4e23&#45;9567&#45;34e41f56d12e --><g id="node4" class="node"><title>0cb29341&#45;cc52&#45;4e23&#45;9567&#45;34e41f56d12e</title><polygon fill="#3ac4c4" stroke="black" points="189.47,-297 77.47,-297 77.47,-261 189.47,-261 189.47,-297"/><text text-anchor="middle" x="133.47" y="-275.3" font-family="Times New Roman,serif" font-size="14.00" fill="#000000">Julgamento (685)</text></g><!-- 16db3029&#45;36ef&#45;4e16&#45;86a3&#45;e6c832093f35&#45;&gt;0cb29341&#45;cc52&#45;4e23&#45;9567&#45;34e41f56d12e --><g id="edge3" class="edge"><title>16db3029&#45;36ef&#45;4e16&#45;86a3&#45;e6c832093f35&#45;&gt;0cb29341&#45;cc52&#45;4e23&#45;9567&#45;34e41f56d12e</title><path fill="none" stroke="#000000" stroke-width="1.58" d="M667.44,-711.31C510.17,-705.97 87.47,-686.21 87.47,-628 87.47,-628 87.47,-628 87.47,-365 87.47,-343.06 99.47,-321.35 111.22,-305.36"/><polygon fill="#000000" stroke="#000000" stroke-width="1.58" points="114.26,-307.15 117.64,-297.11 108.74,-302.85 114.26,-307.15"/><text text-anchor="middle" x="97.97" y="-492.8" font-family="Times New Roman,serif" font-size="14.00" fill="#000000">560</text></g><!-- 27610eba&#45;84d2&#45;4030&#45;9413&#45;0bfa91a71a9e --><g id="node9" class="node"><title>27610eba&#45;84d2&#45;4030&#45;9413&#45;0bfa91a71a9e</title><polygon fill="#3bc3c3" stroke="black" points="712.97,-210 597.97,-210 597.97,-174 712.97,-174 712.97,-210"/><text text-anchor="middle" x="655.47" y="-188.3" font-family="Times New Roman,serif" font-size="14.00" fill="#000000">Documento (749)</text></g><!-- 16db3029&#45;36ef&#45;4e16&#45;86a3&#45;e6c832093f35&#45;&gt;27610eba&#45;84d2&#45;4030&#45;9413&#45;0bfa91a71a9e --><g id="edge4" class="edge"><title>16db3029&#45;36ef&#45;4e16&#45;86a3&#45;e6c832093f35&#45;&gt;27610eba&#45;84d2&#45;4030&#45;9413&#45;0bfa91a71a9e</title><path fill="none" stroke="#000000" stroke-width="1.4" d="M783.53,-713.34C850.57,-712.36 954.92,-706.18 980.47,-678 1001.12,-655.23 995.29,-235.57 988.47,-228 971.08,-208.69 815.55,-199.28 723.31,-195.36"/><polygon fill="#000000" stroke="#000000" stroke-width="1.4" points="723.36,-191.86 713.22,-194.94 723.07,-198.85 723.36,-191.86"/><text text-anchor="middle" x="1001.47" y="-449.3" font-family="Times New Roman,serif" font-size="14.00" fill="#000000">81</text></g><!-- end_0 --><g id="node12" class="node"><title>end_0</title><ellipse fill="#ffa500" stroke="#ffa500" cx="434.47" cy="-18" rx="27" ry="18"/><text text-anchor="middle" x="434.47" y="-16.1" font-family="Times New Roman,serif" font-size="8.00" fill="#ffa500">@@E</text></g><!-- 16db3029&#45;36ef&#45;4e16&#45;86a3&#45;e6c832093f35&#45;&gt;end_0 --><g id="edge50" class="edge"><title>16db3029&#45;36ef&#45;4e16&#45;86a3&#45;e6c832093f35&#45;&gt;end_0</title><path fill="none" stroke="#000000" stroke-width="1.26" d="M783.62,-711.65C852.77,-709 963.02,-701.16 996.47,-678 1010.3,-668.42 1138.47,-427.33 1138.47,-410.5 1138.47,-410.5 1138.47,-410.5 1138.47,-104 1138.47,-36.22 617.42,-22.15 471.85,-19.54"/><polygon fill="#000000" stroke="#000000" stroke-width="1.26" points="471.69,-16.04 461.64,-19.37 471.57,-23.04 471.69,-16.04"/><text text-anchor="middle" x="1145.47" y="-362.3" font-family="Times New Roman,serif" font-size="14.00" fill="#000000">17</text></g><!-- 67760b55&#45;dc1b&#45;4021&#45;87f4&#45;db198119b746 --><g id="node5" class="node"><title>67760b55&#45;dc1b&#45;4021&#45;87f4&#45;db198119b746</title><polygon fill="#4fafaf" stroke="black" points="532.47,-558 332.47,-558 332.47,-522 532.47,-522 532.47,-558"/><text text-anchor="middle" x="432.47" y="-536.3" font-family="Times New Roman,serif" font-size="14.00" fill="#000000">Expedição de documento (6718)</text></g><!-- e2a4411e&#45;6308&#45;46f1&#45;82d8&#45;d59b95e0789d&#45;&gt;67760b55&#45;dc1b&#45;4021&#45;87f4&#45;db198119b746 --><g id="edge5" class="edge"><title>e2a4411e&#45;6308&#45;46f1&#45;82d8&#45;d59b95e0789d&#45;&gt;67760b55&#45;dc1b&#45;4021&#45;87f4&#45;db198119b746</title><path fill="none" stroke="#000000" stroke-width="1.67" d="M668.63,-609.51C620.63,-595.59 551.77,-575.61 500.78,-560.82"/><polygon fill="#000000" stroke="#000000" stroke-width="1.67" points="501.74,-557.45 491.16,-558.03 499.79,-564.17 501.74,-557.45"/><text text-anchor="middle" x="610.47" y="-579.8" font-family="Times New Roman,serif" font-size="14.00" fill="#000000">1552</text></g><!-- 4db68bbf&#45;a641&#45;448e&#45;b64a&#45;a5d1c5b1858d --><g id="node6" class="node"><title>4db68bbf&#45;a641&#45;448e&#45;b64a&#45;a5d1c5b1858d</title><polygon fill="#39c5c5" stroke="black" points="405.47,-471 301.47,-471 301.47,-435 405.47,-435 405.47,-471"/><text text-anchor="middle" x="353.47" y="-449.3" font-family="Times New Roman,serif" font-size="14.00" fill="#000000">Definitivo (564)</text></g><!-- e2a4411e&#45;6308&#45;46f1&#45;82d8&#45;d59b95e0789d&#45;&gt;4db68bbf&#45;a641&#45;448e&#45;b64a&#45;a5d1c5b1858d --><g id="edge7" class="edge"><title>e2a4411e&#45;6308&#45;46f1&#45;82d8&#45;d59b95e0789d&#45;&gt;4db68bbf&#45;a641&#45;448e&#45;b64a&#45;a5d1c5b1858d</title><path fill="none" stroke="#000000" stroke-width="1.29" d="M668.69,-618.68C557.55,-604.1 321.05,-571.63 309.47,-558 289.71,-534.75 310.24,-501.32 329.38,-478.69"/><polygon fill="#000000" stroke="#000000" stroke-width="1.29" points="332.02,-480.99 336.02,-471.17 326.78,-476.35 332.02,-480.99"/><text text-anchor="middle" x="316.47" y="-536.3" font-family="Times New Roman,serif" font-size="14.00" fill="#000000">24</text></g><!-- 283d916c&#45;1bde&#45;46c8&#45;858a&#45;326ff18d5252 --><g id="node7" class="node"><title>283d916c&#45;1bde&#45;46c8&#45;858a&#45;326ff18d5252</title><polygon fill="#4cb2b2" stroke="black" points="573.47,-384 475.47,-384 475.47,-348 573.47,-348 573.47,-384"/><text text-anchor="middle" x="524.47" y="-362.3" font-family="Times New Roman,serif" font-size="14.00" fill="#000000">Petição (5154)</text></g><!-- e2a4411e&#45;6308&#45;46f1&#45;82d8&#45;d59b95e0789d&#45;&gt;283d916c&#45;1bde&#45;46c8&#45;858a&#45;326ff18d5252 --><g id="edge8" class="edge"><title>e2a4411e&#45;6308&#45;46f1&#45;82d8&#45;d59b95e0789d&#45;&gt;283d916c&#45;1bde&#45;46c8&#45;858a&#45;326ff18d5252</title><path fill="none" stroke="#000000" stroke-width="1.49" d="M729.45,-608.99C738.04,-567.58 753.45,-460.59 699.47,-402 695.43,-397.62 633,-385.85 583.85,-377.17"/><polygon fill="#000000" stroke="#000000" stroke-width="1.49" points="584.36,-373.71 573.9,-375.42 583.15,-380.6 584.36,-373.71"/><text text-anchor="middle" x="746.97" y="-492.8" font-family="Times New Roman,serif" font-size="14.00" fill="#000000">212</text></g><!-- 41d3f090&#45;ebd6&#45;4b10&#45;96fd&#45;c4145258f55e --><g id="node8" class="node"><title>41d3f090&#45;ebd6&#45;4b10&#45;96fd&#45;c4145258f55e</title><polygon fill="#38c6c6" stroke="black" points="484.47,-123 384.47,-123 384.47,-87 484.47,-87 484.47,-123"/><text text-anchor="middle" x="434.47" y="-101.3" font-family="Times New Roman,serif" font-size="14.00" fill="#000000">Remessa (518)</text></g><!-- e2a4411e&#45;6308&#45;46f1&#45;82d8&#45;d59b95e0789d&#45;&gt;41d3f090&#45;ebd6&#45;4b10&#45;96fd&#45;c4145258f55e --><g id="edge6" class="edge"><title>e2a4411e&#45;6308&#45;46f1&#45;82d8&#45;d59b95e0789d&#45;&gt;41d3f090&#45;ebd6&#45;4b10&#45;96fd&#45;c4145258f55e</title><path fill="none" stroke="#000000" stroke-width="1.34" d="M782.17,-625.33C814.82,-622.25 854.92,-613.56 883.47,-591 941.1,-545.47 937.19,-325.17 901.47,-261 878.47,-219.67 790.53,-156.67 748.47,-141 652.39,-105.2 620.02,-137.2 518.47,-123 510.7,-121.91 502.57,-120.55 494.55,-119.08"/><polygon fill="#000000" stroke="#000000" stroke-width="1.34" points="494.97,-115.6 484.49,-117.16 493.66,-122.47 494.97,-115.6"/><text text-anchor="middle" x="933.47" y="-362.3" font-family="Times New Roman,serif" font-size="14.00" fill="#000000">41</text></g><!-- e2a4411e&#45;6308&#45;46f1&#45;82d8&#45;d59b95e0789d&#45;&gt;27610eba&#45;84d2&#45;4030&#45;9413&#45;0bfa91a71a9e --><g id="edge9" class="edge"><title>e2a4411e&#45;6308&#45;46f1&#45;82d8&#45;d59b95e0789d&#45;&gt;27610eba&#45;84d2&#45;4030&#45;9413&#45;0bfa91a71a9e</title><path fill="none" stroke="#000000" stroke-width="1.3" d="M782.11,-622.52C808.95,-618.31 839.97,-609.44 862.47,-591 881.53,-575.37 886.47,-565.65 886.47,-541 886.47,-541 886.47,-541 886.47,-408.5 886.47,-342.87 919.8,-312.78 879.47,-261 842.89,-214.03 774.83,-198.55 723.29,-193.9"/><polygon fill="#000000" stroke="#000000" stroke-width="1.3" points="723.46,-190.4 713.22,-193.11 722.91,-197.38 723.46,-190.4"/><text text-anchor="middle" x="893.47" y="-405.8" font-family="Times New Roman,serif" font-size="14.00" fill="#000000">26</text></g><!-- 0cb29341&#45;cc52&#45;4e23&#45;9567&#45;34e41f56d12e&#45;&gt;67760b55&#45;dc1b&#45;4021&#45;87f4&#45;db198119b746 --><g id="edge10" class="edge"><title>0cb29341&#45;cc52&#45;4e23&#45;9567&#45;34e41f56d12e&#45;&gt;67760b55&#45;dc1b&#45;4021&#45;87f4&#45;db198119b746</title><path fill="none" stroke="#000000" stroke-width="1.59" d="M133.95,-297.31C136.24,-341.39 149.16,-457.69 221.47,-504 222.07,-504.39 271.4,-512.58 322.2,-520.94"/><polygon fill="#000000" stroke="#000000" stroke-width="1.59" points="321.93,-524.44 332.37,-522.61 323.07,-517.53 321.93,-524.44"/><text text-anchor="middle" x="167.97" y="-405.8" font-family="Times New Roman,serif" font-size="14.00" fill="#000000">639</text></g><!-- 67760b55&#45;dc1b&#45;4021&#45;87f4&#45;db198119b746&#45;&gt;16db3029&#45;36ef&#45;4e16&#45;86a3&#45;e6c832093f35 --><g id="edge12" class="edge"><title>67760b55&#45;dc1b&#45;4021&#45;87f4&#45;db198119b746&#45;&gt;16db3029&#45;36ef&#45;4e16&#45;86a3&#45;e6c832093f35</title><path fill="none" stroke="#000000" stroke-width="1.6" d="M448.89,-558.43C477.15,-587.43 538,-645.59 600.47,-678 618.1,-687.15 638.41,-694.14 657.46,-699.39"/><polygon fill="#000000" stroke="#000000" stroke-width="1.6" points="656.72,-702.81 667.29,-701.97 658.51,-696.04 656.72,-702.81"/><text text-anchor="middle" x="556.97" y="-623.3" font-family="Times New Roman,serif" font-size="14.00" fill="#000000">740</text></g><!-- 67760b55&#45;dc1b&#45;4021&#45;87f4&#45;db198119b746&#45;&gt;67760b55&#45;dc1b&#45;4021&#45;87f4&#45;db198119b746 --><g id="edge11" class="edge"><title>67760b55&#45;dc1b&#45;4021&#45;87f4&#45;db198119b746&#45;&gt;67760b55&#45;dc1b&#45;4021&#45;87f4&#45;db198119b746</title><path fill="none" stroke="#000000" stroke-width="1.7" d="M532.76,-546.58C543.54,-545.31 550.47,-543.12 550.47,-540 550.47,-538 547.62,-536.39 542.74,-535.15"/><polygon fill="#000000" stroke="#000000" stroke-width="1.7" points="543.21,-531.68 532.76,-533.42 542.02,-538.57 543.21,-531.68"/><text text-anchor="middle" x="564.47" y="-536.3" font-family="Times New Roman,serif" font-size="14.00" fill="#000000">2225</text></g><!-- 67760b55&#45;dc1b&#45;4021&#45;87f4&#45;db198119b746&#45;&gt;4db68bbf&#45;a641&#45;448e&#45;b64a&#45;a5d1c5b1858d --><g id="edge13" class="edge"><title>67760b55&#45;dc1b&#45;4021&#45;87f4&#45;db198119b746&#45;&gt;4db68bbf&#45;a641&#45;448e&#45;b64a&#45;a5d1c5b1858d</title><path fill="none" stroke="#000000" stroke-width="1.56" d="M415.39,-521.68C409.94,-516.08 403.91,-509.82 398.47,-504 390.93,-495.94 382.83,-487.02 375.6,-478.97"/><polygon fill="#000000" stroke="#000000" stroke-width="1.56" points="378,-476.39 368.72,-471.27 372.78,-481.06 378,-476.39"/><text text-anchor="middle" x="408.97" y="-492.8" font-family="Times New Roman,serif" font-size="14.00" fill="#000000">449</text></g><!-- 67760b55&#45;dc1b&#45;4021&#45;87f4&#45;db198119b746&#45;&gt;283d916c&#45;1bde&#45;46c8&#45;858a&#45;326ff18d5252 --><g id="edge14" class="edge"><title>67760b55&#45;dc1b&#45;4021&#45;87f4&#45;db198119b746&#45;&gt;283d916c&#45;1bde&#45;46c8&#45;858a&#45;326ff18d5252</title><path fill="none" stroke="#000000" stroke-width="1.69" d="M441.63,-521.88C457.82,-491.61 491.57,-428.51 510.62,-392.9"/><polygon fill="#000000" stroke="#000000" stroke-width="1.69" points="513.72,-394.52 515.35,-384.05 507.55,-391.22 513.72,-394.52"/><text text-anchor="middle" x="502.47" y="-449.3" font-family="Times New Roman,serif" font-size="14.00" fill="#000000">1944</text></g><!-- 67760b55&#45;dc1b&#45;4021&#45;87f4&#45;db198119b746&#45;&gt;41d3f090&#45;ebd6&#45;4b10&#45;96fd&#45;c4145258f55e --><g id="edge16" class="edge"><title>67760b55&#45;dc1b&#45;4021&#45;87f4&#45;db198119b746&#45;&gt;41d3f090&#45;ebd6&#45;4b10&#45;96fd&#45;c4145258f55e</title><path fill="none" stroke="#000000" stroke-width="1.5" d="M361.72,-521.9C335.29,-511.7 307.95,-495.74 292.47,-471 283.98,-457.44 290.27,-450.85 292.47,-435 311.65,-296.97 324.64,-257.27 401.47,-141 403.8,-137.47 406.5,-133.97 409.33,-130.62"/><polygon fill="#000000" stroke="#000000" stroke-width="1.5" points="411.97,-132.93 416.06,-123.15 406.77,-128.24 411.97,-132.93"/><text text-anchor="middle" x="324.97" y="-318.8" font-family="Times New Roman,serif" font-size="14.00" fill="#000000">254</text></g><!-- 67760b55&#45;dc1b&#45;4021&#45;87f4&#45;db198119b746&#45;&gt;27610eba&#45;84d2&#45;4030&#45;9413&#45;0bfa91a71a9e --><g id="edge17" class="edge"><title>67760b55&#45;dc1b&#45;4021&#45;87f4&#45;db198119b746&#45;&gt;27610eba&#45;84d2&#45;4030&#45;9413&#45;0bfa91a71a9e</title><path fill="none" stroke="#000000" stroke-width="1.52" d="M429.68,-521.89C424.84,-487.19 417.86,-406.82 445.47,-348 478.33,-278 506.69,-270.24 571.47,-228 579.24,-222.93 587.87,-218.34 596.56,-214.29"/><polygon fill="#000000" stroke="#000000" stroke-width="1.52" points="598.25,-217.36 605.96,-210.09 595.4,-210.97 598.25,-217.36"/><text text-anchor="middle" x="455.97" y="-362.3" font-family="Times New Roman,serif" font-size="14.00" fill="#000000">298</text></g><!-- 94a43e77&#45;1a9d&#45;4375&#45;898e&#45;daaed5b77e60 --><g id="node10" class="node"><title>94a43e77&#45;1a9d&#45;4375&#45;898e&#45;daaed5b77e60</title><polygon fill="#3fbfbf" stroke="black" points="831.47,-297 721.47,-297 721.47,-261 831.47,-261 831.47,-297"/><text text-anchor="middle" x="776.47" y="-275.3" font-family="Times New Roman,serif" font-size="14.00" fill="#000000">Mandado (1143)</text></g><!-- 67760b55&#45;dc1b&#45;4021&#45;87f4&#45;db198119b746&#45;&gt;94a43e77&#45;1a9d&#45;4375&#45;898e&#45;daaed5b77e60 --><g id="edge15" class="edge"><title>67760b55&#45;dc1b&#45;4021&#45;87f4&#45;db198119b746&#45;&gt;94a43e77&#45;1a9d&#45;4375&#45;898e&#45;daaed5b77e60</title><path fill="none" stroke="#000000" stroke-width="1.56" d="M532.74,-528.22C552.54,-526.13 573.16,-523.98 592.47,-522 612.79,-519.92 761.15,-518.57 775.47,-504 802.05,-476.94 788.7,-361.07 780.84,-307.44"/><polygon fill="#000000" stroke="#000000" stroke-width="1.56" points="784.27,-306.65 779.31,-297.29 777.34,-307.7 784.27,-306.65"/><text text-anchor="middle" x="800.97" y="-405.8" font-family="Times New Roman,serif" font-size="14.00" fill="#000000">489</text></g><!-- 67760b55&#45;dc1b&#45;4021&#45;87f4&#45;db198119b746&#45;&gt;end_0 --><g id="edge44" class="edge"><title>67760b55&#45;dc1b&#45;4021&#45;87f4&#45;db198119b746&#45;&gt;end_0</title><path fill="none" stroke="#000000" stroke-width="1.37" d="M332.44,-522.76C330.77,-522.5 329.11,-522.25 327.47,-522 271.11,-513.44 254.87,-521.03 200.47,-504 118.34,-478.29 76.6,-487.66 27.47,-417 -18.61,-350.73 7.47,-317.21 7.47,-236.5 7.47,-236.5 7.47,-236.5 7.47,-104 7.47,-24.8 293.58,-18.31 397.4,-18.56"/><polygon fill="#000000" stroke="#000000" stroke-width="1.37" points="397.42,-22.06 407.43,-18.6 397.45,-15.06 397.42,-22.06"/><text text-anchor="middle" x="14.47" y="-275.3" font-family="Times New Roman,serif" font-size="14.00" fill="#000000">59</text></g><!-- 4db68bbf&#45;a641&#45;448e&#45;b64a&#45;a5d1c5b1858d&#45;&gt;283d916c&#45;1bde&#45;46c8&#45;858a&#45;326ff18d5252 --><g id="edge18" class="edge"><title>4db68bbf&#45;a641&#45;448e&#45;b64a&#45;a5d1c5b1858d&#45;&gt;283d916c&#45;1bde&#45;46c8&#45;858a&#45;326ff18d5252</title><path fill="none" stroke="#000000" stroke-width="1.44" d="M383.03,-434.88C400.66,-424.89 423.61,-412.27 444.47,-402 453.95,-397.33 464.2,-392.61 474.1,-388.21"/><polygon fill="#000000" stroke="#000000" stroke-width="1.44" points="475.7,-391.33 483.45,-384.1 472.88,-384.92 475.7,-391.33"/><text text-anchor="middle" x="454.97" y="-405.8" font-family="Times New Roman,serif" font-size="14.00" fill="#000000">131</text></g><!-- 4db68bbf&#45;a641&#45;448e&#45;b64a&#45;a5d1c5b1858d&#45;&gt;end_0 --><g id="edge45" class="edge"><title>4db68bbf&#45;a641&#45;448e&#45;b64a&#45;a5d1c5b1858d&#45;&gt;end_0</title><path fill="none" stroke="#000000" stroke-width="1.53" d="M315.64,-434.83C273.72,-412.9 212.82,-371 219.47,-315 235.56,-179.42 281.32,-146.79 381.47,-54 388.72,-47.29 397.38,-40.98 405.59,-35.63"/><polygon fill="#000000" stroke="#000000" stroke-width="1.53" points="407.61,-38.49 414.22,-30.21 403.89,-32.56 407.61,-38.49"/><text text-anchor="middle" x="248.97" y="-231.8" font-family="Times New Roman,serif" font-size="14.00" fill="#000000">342</text></g><!-- 283d916c&#45;1bde&#45;46c8&#45;858a&#45;326ff18d5252&#45;&gt;82ae5d45&#45;a022&#45;42a0&#45;957e&#45;81146dbbd26f --><g id="edge21" class="edge"><title>283d916c&#45;1bde&#45;46c8&#45;858a&#45;326ff18d5252&#45;&gt;82ae5d45&#45;a022&#45;42a0&#45;957e&#45;81146dbbd26f</title><path fill="none" stroke="#000000" stroke-width="1.36" d="M573.66,-376.41C589.8,-379.22 607.85,-382.06 624.47,-384 663.75,-388.59 971.77,-377.18 1038.47,-435 1076.14,-467.65 1080.47,-489.15 1080.47,-539 1080.47,-715 1080.47,-715 1080.47,-715 1080.47,-736.57 1069.63,-758.43 1059.1,-774.58"/><polygon fill="#000000" stroke="#000000" stroke-width="1.36" points="1056.14,-772.7 1053.35,-782.92 1061.9,-776.67 1056.14,-772.7"/><text text-anchor="middle" x="1087.47" y="-579.8" font-family="Times New Roman,serif" font-size="14.00" fill="#000000">52</text></g><!-- 283d916c&#45;1bde&#45;46c8&#45;858a&#45;326ff18d5252&#45;&gt;16db3029&#45;36ef&#45;4e16&#45;86a3&#45;e6c832093f35 --><g id="edge20" class="edge"><title>283d916c&#45;1bde&#45;46c8&#45;858a&#45;326ff18d5252&#45;&gt;16db3029&#45;36ef&#45;4e16&#45;86a3&#45;e6c832093f35</title><path fill="none" stroke="#000000" stroke-width="1.67" d="M534.69,-384.31C537.91,-389.9 541.42,-396.17 544.47,-402 599.97,-508.03 592.49,-546.51 660.47,-645 671.38,-660.81 685.98,-676.44 698.58,-688.72"/><polygon fill="#000000" stroke="#000000" stroke-width="1.67" points="696.46,-691.54 706.12,-695.91 701.3,-686.48 696.46,-691.54"/><text text-anchor="middle" x="624.47" y="-536.3" font-family="Times New Roman,serif" font-size="14.00" fill="#000000">1579</text></g><!-- 283d916c&#45;1bde&#45;46c8&#45;858a&#45;326ff18d5252&#45;&gt;e2a4411e&#45;6308&#45;46f1&#45;82d8&#45;d59b95e0789d --><g id="edge27" class="edge"><title>283d916c&#45;1bde&#45;46c8&#45;858a&#45;326ff18d5252&#45;&gt;e2a4411e&#45;6308&#45;46f1&#45;82d8&#45;d59b95e0789d</title><path fill="none" stroke="#000000" stroke-width="1.46" d="M573.71,-376.05C591.08,-381.25 609.69,-389.38 623.47,-402 682.81,-456.36 710.04,-551.97 720.29,-598.72"/><polygon fill="#000000" stroke="#000000" stroke-width="1.46" points="716.91,-599.64 722.39,-608.71 723.76,-598.2 716.91,-599.64"/><text text-anchor="middle" x="699.97" y="-492.8" font-family="Times New Roman,serif" font-size="14.00" fill="#000000">151</text></g><!-- 283d916c&#45;1bde&#45;46c8&#45;858a&#45;326ff18d5252&#45;&gt;0cb29341&#45;cc52&#45;4e23&#45;9567&#45;34e41f56d12e --><g id="edge22" class="edge"><title>283d916c&#45;1bde&#45;46c8&#45;858a&#45;326ff18d5252&#45;&gt;0cb29341&#45;cc52&#45;4e23&#45;9567&#45;34e41f56d12e</title><path fill="none" stroke="#000000" stroke-width="1.39" d="M475.36,-354.67C463.03,-352.28 449.79,-349.89 437.47,-348 365.86,-337.04 343.66,-354.45 275.47,-330 263.98,-325.88 263.55,-320.11 252.47,-315 235.72,-307.28 216.86,-300.81 199.18,-295.61"/><polygon fill="#000000" stroke="#000000" stroke-width="1.39" points="200.07,-292.23 189.49,-292.86 198.15,-298.96 200.07,-292.23"/><text text-anchor="middle" x="282.47" y="-318.8" font-family="Times New Roman,serif" font-size="14.00" fill="#000000">72</text></g><!-- 283d916c&#45;1bde&#45;46c8&#45;858a&#45;326ff18d5252&#45;&gt;67760b55&#45;dc1b&#45;4021&#45;87f4&#45;db198119b746 --><g id="edge23" class="edge"><title>283d916c&#45;1bde&#45;46c8&#45;858a&#45;326ff18d5252&#45;&gt;67760b55&#45;dc1b&#45;4021&#45;87f4&#45;db198119b746</title><path fill="none" stroke="#000000" stroke-width="1.62" d="M528.06,-384.32C531.61,-405.92 534.7,-443.37 520.47,-471 510.76,-489.86 493.18,-505.05 476.27,-516.25"/><polygon fill="#000000" stroke="#000000" stroke-width="1.62" points="474.13,-513.46 467.53,-521.75 477.86,-519.39 474.13,-513.46"/><text text-anchor="middle" x="539.97" y="-449.3" font-family="Times New Roman,serif" font-size="14.00" fill="#000000">873</text></g><!-- 283d916c&#45;1bde&#45;46c8&#45;858a&#45;326ff18d5252&#45;&gt;283d916c&#45;1bde&#45;46c8&#45;858a&#45;326ff18d5252 --><g id="edge19" class="edge"><title>283d916c&#45;1bde&#45;46c8&#45;858a&#45;326ff18d5252&#45;&gt;283d916c&#45;1bde&#45;46c8&#45;858a&#45;326ff18d5252</title><path fill="none" stroke="#000000" stroke-width="1.67" d="M573.55,-373.62C583.96,-372.85 591.47,-370.31 591.47,-366 591.47,-363.31 588.53,-361.31 583.79,-360"/><polygon fill="#000000" stroke="#000000" stroke-width="1.67" points="583.97,-356.48 573.55,-358.38 582.88,-363.39 583.97,-356.48"/><text text-anchor="middle" x="605.47" y="-362.3" font-family="Times New Roman,serif" font-size="14.00" fill="#000000">1641</text></g><!-- 283d916c&#45;1bde&#45;46c8&#45;858a&#45;326ff18d5252&#45;&gt;41d3f090&#45;ebd6&#45;4b10&#45;96fd&#45;c4145258f55e --><g id="edge25" class="edge"><title>283d916c&#45;1bde&#45;46c8&#45;858a&#45;326ff18d5252&#45;&gt;41d3f090&#45;ebd6&#45;4b10&#45;96fd&#45;c4145258f55e</title><path fill="none" stroke="#000000" stroke-width="1.47" d="M504.46,-347.69C499.12,-342.39 493.67,-336.29 489.47,-330 448.07,-268.01 437.8,-177.73 435.27,-133.08"/><polygon fill="#000000" stroke="#000000" stroke-width="1.47" points="438.76,-132.83 434.79,-123.01 431.77,-133.17 438.76,-132.83"/><text text-anchor="middle" x="462.97" y="-231.8" font-family="Times New Roman,serif" font-size="14.00" fill="#000000">173</text></g><!-- 283d916c&#45;1bde&#45;46c8&#45;858a&#45;326ff18d5252&#45;&gt;27610eba&#45;84d2&#45;4030&#45;9413&#45;0bfa91a71a9e --><g id="edge24" class="edge"><title>283d916c&#45;1bde&#45;46c8&#45;858a&#45;326ff18d5252&#45;&gt;27610eba&#45;84d2&#45;4030&#45;9413&#45;0bfa91a71a9e</title><path fill="none" stroke="#000000" stroke-width="1.46" d="M528.8,-347.95C534.68,-326.62 546.42,-289.45 563.47,-261 573.51,-244.25 577.27,-240.25 592.47,-228 598.16,-223.41 604.54,-219.09 610.99,-215.16"/><polygon fill="#000000" stroke="#000000" stroke-width="1.46" points="612.89,-218.11 619.78,-210.05 609.37,-212.05 612.89,-218.11"/><text text-anchor="middle" x="573.97" y="-275.3" font-family="Times New Roman,serif" font-size="14.00" fill="#000000">159</text></g><!-- 283d916c&#45;1bde&#45;46c8&#45;858a&#45;326ff18d5252&#45;&gt;94a43e77&#45;1a9d&#45;4375&#45;898e&#45;daaed5b77e60 --><g id="edge26" class="edge"><title>283d916c&#45;1bde&#45;46c8&#45;858a&#45;326ff18d5252&#45;&gt;94a43e77&#45;1a9d&#45;4375&#45;898e&#45;daaed5b77e60</title><path fill="none" stroke="#000000" stroke-width="1.42" d="M573.66,-348.41C614.4,-334.66 672.48,-315.07 716.06,-300.38"/><polygon fill="#000000" stroke="#000000" stroke-width="1.42" points="717.32,-303.64 725.68,-297.13 715.09,-297.01 717.32,-303.64"/><text text-anchor="middle" x="675.97" y="-318.8" font-family="Times New Roman,serif" font-size="14.00" fill="#000000">101</text></g><!-- 283d916c&#45;1bde&#45;46c8&#45;858a&#45;326ff18d5252&#45;&gt;end_0 --><g id="edge47" class="edge"><title>283d916c&#45;1bde&#45;46c8&#45;858a&#45;326ff18d5252&#45;&gt;end_0</title><path fill="none" stroke="#000000" stroke-width="1.36" d="M498.36,-347.87C491.2,-342.57 483.7,-336.43 477.47,-330 423.12,-273.92 380.95,-148.34 375.47,-123 372.09,-107.36 369.87,-101.99 375.47,-87 382.4,-68.45 396.92,-51.6 409.82,-39.32"/><polygon fill="#000000" stroke="#000000" stroke-width="1.36" points="412.52,-41.6 417.56,-32.29 407.81,-36.42 412.52,-41.6"/><text text-anchor="middle" x="413.47" y="-188.3" font-family="Times New Roman,serif" font-size="14.00" fill="#000000">54</text></g><!-- 41d3f090&#45;ebd6&#45;4b10&#45;96fd&#45;c4145258f55e&#45;&gt;16db3029&#45;36ef&#45;4e16&#45;86a3&#45;e6c832093f35 --><g id="edge29" class="edge"><title>41d3f090&#45;ebd6&#45;4b10&#45;96fd&#45;c4145258f55e&#45;&gt;16db3029&#45;36ef&#45;4e16&#45;86a3&#45;e6c832093f35</title><path fill="none" stroke="#000000" stroke-width="1.43" d="M384.23,-121.47C294.7,-149.94 112.77,-212.21 68.47,-261 49.52,-281.87 49.47,-293.32 49.47,-321.5 49.47,-628 49.47,-628 49.47,-628 49.47,-678.09 102.05,-665.16 150.47,-678 244.24,-702.87 526.09,-710.14 657.12,-712.21"/><polygon fill="#000000" stroke="#000000" stroke-width="1.43" points="657.37,-715.72 667.43,-712.37 657.48,-708.72 657.37,-715.72"/><text text-anchor="middle" x="59.97" y="-405.8" font-family="Times New Roman,serif" font-size="14.00" fill="#000000">115</text></g><!-- 41d3f090&#45;ebd6&#45;4b10&#45;96fd&#45;c4145258f55e&#45;&gt;67760b55&#45;dc1b&#45;4021&#45;87f4&#45;db198119b746 --><g id="edge30" class="edge"><title>41d3f090&#45;ebd6&#45;4b10&#45;96fd&#45;c4145258f55e&#45;&gt;67760b55&#45;dc1b&#45;4021&#45;87f4&#45;db198119b746</title><path fill="none" stroke="#000000" stroke-width="1.44" d="M406.12,-123.2C357.99,-154.33 262.15,-225.2 227.47,-315 194.85,-399.46 231.76,-448.73 303.47,-504 310.48,-509.4 318.27,-513.97 326.44,-517.84"/><polygon fill="#000000" stroke="#000000" stroke-width="1.44" points="325.25,-521.14 335.81,-521.91 328.04,-514.72 325.25,-521.14"/><text text-anchor="middle" x="237.97" y="-318.8" font-family="Times New Roman,serif" font-size="14.00" fill="#000000">128</text></g><!-- 41d3f090&#45;ebd6&#45;4b10&#45;96fd&#45;c4145258f55e&#45;&gt;4db68bbf&#45;a641&#45;448e&#45;b64a&#45;a5d1c5b1858d --><g id="edge28" class="edge"><title>41d3f090&#45;ebd6&#45;4b10&#45;96fd&#45;c4145258f55e&#45;&gt;4db68bbf&#45;a641&#45;448e&#45;b64a&#45;a5d1c5b1858d</title><path fill="none" stroke="#000000" stroke-width="1.27" d="M423.49,-123.27C406.53,-151.03 374.53,-207.85 361.47,-261 347.48,-317.91 348.98,-387.18 351.26,-424.68"/><polygon fill="#000000" stroke="#000000" stroke-width="1.27" points="347.78,-425.08 351.95,-434.82 354.77,-424.61 347.78,-425.08"/><text text-anchor="middle" x="368.47" y="-275.3" font-family="Times New Roman,serif" font-size="14.00" fill="#000000">19</text></g><!-- 41d3f090&#45;ebd6&#45;4b10&#45;96fd&#45;c4145258f55e&#45;&gt;283d916c&#45;1bde&#45;46c8&#45;858a&#45;326ff18d5252 --><g id="edge31" class="edge"><title>41d3f090&#45;ebd6&#45;4b10&#45;96fd&#45;c4145258f55e&#45;&gt;283d916c&#45;1bde&#45;46c8&#45;858a&#45;326ff18d5252</title><path fill="none" stroke="#000000" stroke-width="1.47" d="M442.83,-123.29C445.41,-128.88 448.18,-135.15 450.47,-141 477.91,-210.94 504.03,-295.67 516.62,-338.08"/><polygon fill="#000000" stroke="#000000" stroke-width="1.47" points="513.34,-339.31 519.53,-347.91 520.05,-337.33 513.34,-339.31"/><text text-anchor="middle" x="496.97" y="-231.8" font-family="Times New Roman,serif" font-size="14.00" fill="#000000">184</text></g><!-- 41d3f090&#45;ebd6&#45;4b10&#45;96fd&#45;c4145258f55e&#45;&gt;end_0 --><g id="edge46" class="edge"><title>41d3f090&#45;ebd6&#45;4b10&#45;96fd&#45;c4145258f55e&#45;&gt;end_0</title><path fill="none" stroke="#000000" stroke-width="1.35" d="M434.47,-86.8C434.47,-75.16 434.47,-59.55 434.47,-46.24"/><polygon fill="#000000" stroke="#000000" stroke-width="1.35" points="437.97,-46.18 434.47,-36.18 430.97,-46.18 437.97,-46.18"/><text text-anchor="middle" x="441.47" y="-57.8" font-family="Times New Roman,serif" font-size="14.00" fill="#000000">44</text></g><!-- 27610eba&#45;84d2&#45;4030&#45;9413&#45;0bfa91a71a9e&#45;&gt;16db3029&#45;36ef&#45;4e16&#45;86a3&#45;e6c832093f35 --><g id="edge36" class="edge"><title>27610eba&#45;84d2&#45;4030&#45;9413&#45;0bfa91a71a9e&#45;&gt;16db3029&#45;36ef&#45;4e16&#45;86a3&#45;e6c832093f35</title><path fill="none" stroke="#000000" stroke-width="1.38" d="M713.32,-193.57C757.37,-196.09 818.39,-204.17 866.47,-228 914.08,-251.6 928.35,-265.82 948.47,-315 971.71,-371.8 970.77,-538.82 938.47,-591 906.09,-643.31 842.48,-675.42 793.17,-693.48"/><polygon fill="#000000" stroke="#000000" stroke-width="1.38" points="791.77,-690.26 783.52,-696.91 794.11,-696.86 791.77,-690.26"/><text text-anchor="middle" x="971.47" y="-449.3" font-family="Times New Roman,serif" font-size="14.00" fill="#000000">65</text></g><!-- 27610eba&#45;84d2&#45;4030&#45;9413&#45;0bfa91a71a9e&#45;&gt;e2a4411e&#45;6308&#45;46f1&#45;82d8&#45;d59b95e0789d --><g id="edge37" class="edge"><title>27610eba&#45;84d2&#45;4030&#45;9413&#45;0bfa91a71a9e&#45;&gt;e2a4411e&#45;6308&#45;46f1&#45;82d8&#45;d59b95e0789d</title><path fill="none" stroke="#000000" stroke-width="1.35" d="M662.99,-210.01C665.44,-215.7 668.14,-222.1 670.47,-228 688.2,-272.85 677.7,-292.06 707.47,-330 743.08,-375.38 788.25,-351.14 815.47,-402 852.53,-471.25 787.09,-559.17 749.36,-601.3"/><polygon fill="#000000" stroke="#000000" stroke-width="1.35" points="746.62,-599.11 742.45,-608.86 751.78,-603.84 746.62,-599.11"/><text text-anchor="middle" x="827.47" y="-405.8" font-family="Times New Roman,serif" font-size="14.00" fill="#000000">45</text></g><!-- 27610eba&#45;84d2&#45;4030&#45;9413&#45;0bfa91a71a9e&#45;&gt;67760b55&#45;dc1b&#45;4021&#45;87f4&#45;db198119b746 --><g id="edge34" class="edge"><title>27610eba&#45;84d2&#45;4030&#45;9413&#45;0bfa91a71a9e&#45;&gt;67760b55&#45;dc1b&#45;4021&#45;87f4&#45;db198119b746</title><path fill="none" stroke="#000000" stroke-width="1.5" d="M656.63,-210.18C658.25,-245.03 658.15,-325.64 628.47,-384 595.26,-449.3 577.9,-465.67 515.47,-504 507.26,-509.04 498.2,-513.68 489.16,-517.82"/><polygon fill="#000000" stroke="#000000" stroke-width="1.5" points="487.53,-514.72 479.8,-521.96 490.36,-521.12 487.53,-514.72"/><text text-anchor="middle" x="652.97" y="-362.3" font-family="Times New Roman,serif" font-size="14.00" fill="#000000">247</text></g><!-- 27610eba&#45;84d2&#45;4030&#45;9413&#45;0bfa91a71a9e&#45;&gt;283d916c&#45;1bde&#45;46c8&#45;858a&#45;326ff18d5252 --><g id="edge35" class="edge"><title>27610eba&#45;84d2&#45;4030&#45;9413&#45;0bfa91a71a9e&#45;&gt;283d916c&#45;1bde&#45;46c8&#45;858a&#45;326ff18d5252</title><path fill="none" stroke="#000000" stroke-width="1.49" d="M644.78,-210.02C631.39,-231 607.42,-267.49 584.47,-297 572.86,-311.92 558.94,-327.81 547.44,-340.47"/><polygon fill="#000000" stroke="#000000" stroke-width="1.49" points="544.8,-338.16 540.62,-347.9 549.96,-342.89 544.8,-338.16"/><text text-anchor="middle" x="620.97" y="-275.3" font-family="Times New Roman,serif" font-size="14.00" fill="#000000">230</text></g><!-- 27610eba&#45;84d2&#45;4030&#45;9413&#45;0bfa91a71a9e&#45;&gt;41d3f090&#45;ebd6&#45;4b10&#45;96fd&#45;c4145258f55e --><g id="edge33" class="edge"><title>27610eba&#45;84d2&#45;4030&#45;9413&#45;0bfa91a71a9e&#45;&gt;41d3f090&#45;ebd6&#45;4b10&#45;96fd&#45;c4145258f55e</title><path fill="none" stroke="#000000" stroke-width="1.26" d="M611.01,-173.9C575.72,-160.33 526.24,-141.29 488.63,-126.83"/><polygon fill="#000000" stroke="#000000" stroke-width="1.26" points="489.45,-123.39 478.86,-123.07 486.93,-129.93 489.45,-123.39"/><text text-anchor="middle" x="564.47" y="-144.8" font-family="Times New Roman,serif" font-size="14.00" fill="#000000">17</text></g><!-- 27610eba&#45;84d2&#45;4030&#45;9413&#45;0bfa91a71a9e&#45;&gt;27610eba&#45;84d2&#45;4030&#45;9413&#45;0bfa91a71a9e --><g id="edge32" class="edge"><title>27610eba&#45;84d2&#45;4030&#45;9413&#45;0bfa91a71a9e&#45;&gt;27610eba&#45;84d2&#45;4030&#45;9413&#45;0bfa91a71a9e</title><path fill="none" stroke="#000000" stroke-width="1.41" d="M713.08,-199.44C723.59,-198.5 730.97,-196.02 730.97,-192 730.97,-189.42 727.94,-187.48 723,-186.17"/><polygon fill="#000000" stroke="#000000" stroke-width="1.41" points="723.51,-182.71 713.08,-184.56 722.39,-189.62 723.51,-182.71"/><text text-anchor="middle" x="737.97" y="-188.3" font-family="Times New Roman,serif" font-size="14.00" fill="#000000">90</text></g><!-- 27610eba&#45;84d2&#45;4030&#45;9413&#45;0bfa91a71a9e&#45;&gt;end_0 --><g id="edge49" class="edge"><title>27610eba&#45;84d2&#45;4030&#45;9413&#45;0bfa91a71a9e&#45;&gt;end_0</title><path fill="none" stroke="#000000" stroke-width="1.13" d="M633.47,-173.88C592.12,-141.7 503.05,-72.37 459.49,-38.47"/><polygon fill="#000000" stroke="#000000" stroke-width="1.13" points="461.45,-35.56 451.41,-32.18 457.15,-41.09 461.45,-35.56"/><text text-anchor="middle" x="569.97" y="-101.3" font-family="Times New Roman,serif" font-size="14.00" fill="#000000">3</text></g><!-- 94a43e77&#45;1a9d&#45;4375&#45;898e&#45;daaed5b77e60&#45;&gt;67760b55&#45;dc1b&#45;4021&#45;87f4&#45;db198119b746 --><g id="edge40" class="edge"><title>94a43e77&#45;1a9d&#45;4375&#45;898e&#45;daaed5b77e60&#45;&gt;67760b55&#45;dc1b&#45;4021&#45;87f4&#45;db198119b746</title><path fill="none" stroke="#000000" stroke-width="1.5" d="M774.82,-297.29C769.84,-348.58 754.87,-496.74 747.47,-504 746.53,-504.93 633.11,-517.36 542.66,-527.15"/><polygon fill="#000000" stroke="#000000" stroke-width="1.5" points="542.15,-523.68 532.59,-528.24 542.9,-530.64 542.15,-523.68"/><text text-anchor="middle" x="773.97" y="-405.8" font-family="Times New Roman,serif" font-size="14.00" fill="#000000">237</text></g><!-- 94a43e77&#45;1a9d&#45;4375&#45;898e&#45;daaed5b77e60&#45;&gt;283d916c&#45;1bde&#45;46c8&#45;858a&#45;326ff18d5252 --><g id="edge41" class="edge"><title>94a43e77&#45;1a9d&#45;4375&#45;898e&#45;daaed5b77e60&#45;&gt;283d916c&#45;1bde&#45;46c8&#45;858a&#45;326ff18d5252</title><path fill="none" stroke="#000000" stroke-width="1.51" d="M751.95,-297.1C735.29,-307.98 712.39,-321.57 690.47,-330 656.24,-343.17 616.03,-351.81 583.76,-357.21"/><polygon fill="#000000" stroke="#000000" stroke-width="1.51" points="582.9,-353.8 573.58,-358.85 584.01,-360.71 582.9,-353.8"/><text text-anchor="middle" x="729.97" y="-318.8" font-family="Times New Roman,serif" font-size="14.00" fill="#000000">273</text></g><!-- 94a43e77&#45;1a9d&#45;4375&#45;898e&#45;daaed5b77e60&#45;&gt;27610eba&#45;84d2&#45;4030&#45;9413&#45;0bfa91a71a9e --><g id="edge39" class="edge"><title>94a43e77&#45;1a9d&#45;4375&#45;898e&#45;daaed5b77e60&#45;&gt;27610eba&#45;84d2&#45;4030&#45;9413&#45;0bfa91a71a9e</title><path fill="none" stroke="#000000" stroke-width="1.26" d="M753.3,-260.9C739.97,-251.15 722.87,-238.76 707.47,-228 701.78,-224.02 695.69,-219.85 689.76,-215.83"/><polygon fill="#000000" stroke="#000000" stroke-width="1.26" points="691.49,-212.78 681.25,-210.09 687.58,-218.59 691.49,-212.78"/><text text-anchor="middle" x="735.47" y="-231.8" font-family="Times New Roman,serif" font-size="14.00" fill="#000000">16</text></g><!-- 94a43e77&#45;1a9d&#45;4375&#45;898e&#45;daaed5b77e60&#45;&gt;94a43e77&#45;1a9d&#45;4375&#45;898e&#45;daaed5b77e60 --><g id="edge38" class="edge"><title>94a43e77&#45;1a9d&#45;4375&#45;898e&#45;daaed5b77e60&#45;&gt;94a43e77&#45;1a9d&#45;4375&#45;898e&#45;daaed5b77e60</title><path fill="none" stroke="#000000" stroke-width="1.57" d="M831.54,-286.5C842.04,-285.6 849.47,-283.1 849.47,-279 849.47,-276.37 846.42,-274.4 841.47,-273.09"/><polygon fill="#000000" stroke="#000000" stroke-width="1.57" points="841.97,-269.63 831.54,-271.5 840.86,-276.54 841.97,-269.63"/><text text-anchor="middle" x="859.97" y="-275.3" font-family="Times New Roman,serif" font-size="14.00" fill="#000000">516</text></g><!-- 94a43e77&#45;1a9d&#45;4375&#45;898e&#45;daaed5b77e60&#45;&gt;end_0 --><g id="edge48" class="edge"><title>94a43e77&#45;1a9d&#45;4375&#45;898e&#45;daaed5b77e60&#45;&gt;end_0</title><path fill="none" stroke="#000000" stroke-width="1.21" d="M777.21,-260.63C777.27,-238.28 774.19,-199.34 754.47,-174 681.61,-80.35 537.75,-39.95 470.6,-25.63"/><polygon fill="#000000" stroke="#000000" stroke-width="1.21" points="471,-22.14 460.5,-23.55 469.59,-29 471,-22.14"/><text text-anchor="middle" x="740.97" y="-144.8" font-family="Times New Roman,serif" font-size="14.00" fill="#000000">9</text></g><!-- start_0 --><g id="node11" class="node"><title>start_0</title><ellipse fill="#32cd32" stroke="#000000" cx="1083.47" cy="-888" rx="27" ry="18"/><text text-anchor="middle" x="1083.47" y="-886.1" font-family="Times New Roman,serif" font-size="8.00" fill="#32cd32">@@S</text></g><!-- start_0&#45;&gt;82ae5d45&#45;a022&#45;42a0&#45;957e&#45;81146dbbd26f --><g id="edge42" class="edge"><title>start_0&#45;&gt;82ae5d45&#45;a022&#45;42a0&#45;957e&#45;81146dbbd26f</title><path fill="none" stroke="#000000" stroke-width="1.56" d="M1074.99,-870.61C1068.78,-858.62 1060.22,-842.09 1053.07,-828.27"/><polygon fill="#000000" stroke="#000000" stroke-width="1.56" points="1056.09,-826.49 1048.38,-819.21 1049.87,-829.7 1056.09,-826.49"/><text text-anchor="middle" x="1073.97" y="-840.8" font-family="Times New Roman,serif" font-size="14.00" fill="#000000">486</text></g><!-- start_0&#45;&gt;283d916c&#45;1bde&#45;46c8&#45;858a&#45;326ff18d5252 --><g id="edge43" class="edge"><title>start_0&#45;&gt;283d916c&#45;1bde&#45;46c8&#45;858a&#45;326ff18d5252</title><path fill="none" stroke="#000000" stroke-width="1.36" d="M1096.37,-872.17C1109.04,-856.05 1126.47,-828.96 1126.47,-802 1126.47,-802 1126.47,-802 1126.47,-669.5 1126.47,-562.03 1144.14,-510.31 1067.47,-435 1040.61,-408.62 1026.16,-410.39 989.47,-402 831.14,-365.8 785.93,-401.64 624.47,-384 611.22,-382.55 597.06,-380.47 583.69,-378.26"/><polygon fill="#000000" stroke="#000000" stroke-width="1.36" points="584.09,-374.78 573.64,-376.56 582.92,-381.68 584.09,-374.78"/><text text-anchor="middle" x="1134.47" y="-623.3" font-family="Times New Roman,serif" font-size="14.00" fill="#000000">52</text></g></g></svg>