<svg xmlns="http://www.w3.org/2000/svg" xmlns:xlink="http://www.w3.org/1999/xlink" width="589pt" height="392pt" viewBox="0 0 589 392"><g id="graph0" class="graph" transform="scale(1 1) rotate(0) translate(4 388)"><title>G</title><polygon fill="#fff" stroke="transparent" points="-4 4 -4 -388 585 -388 585 4 -4 4"/><g id="node1" class="node"><title>2310f2ed-5b65-429d-b26a-611c7b869860</title><polygon fill="#38c6c6" stroke="#000" points="269.5 -384 152.5 -384 152.5 -348 269.5 -348 269.5 -384"/><text x="211" y="-362.3" fill="#000" font-family="Times New Roman,serif" font-size="14" text-anchor="middle">Distribuição (538)</text></g><g id="node2" class="node"><title>3994980d-5894-443a-bd66-8c9621f83924</title><polygon fill="#49b5b5" stroke="#000" points="269 -297 153 -297 153 -261 269 -261 269 -297"/><text x="211" y="-275.3" fill="#000" font-family="Times New Roman,serif" font-size="14" text-anchor="middle">Conclusão (3353)</text></g><g id="edge1" class="edge"><title>2310f2ed-5b65-429d-b26a-611c7b869860-&gt;3994980d-5894-443a-bd66-8c9621f83924</title><path fill="none" stroke="#000" stroke-width="1.57" d="M211,-347.8C211,-336.16 211,-320.55 211,-307.24"/><polygon fill="#000" stroke="#000" stroke-width="1.57" points="214.5 -307.18 211 -297.18 207.5 -307.18 214.5 -307.18"/><text x="221.5" y="-318.8" fill="#000" font-family="Times New Roman,serif" font-size="14" text-anchor="middle">537</text></g><g id="node3" class="node"><title>326aacd5-1e96-47c2-a154-677ef7e2ef2e</title><polygon fill="#44baba" stroke="#000" points="174.5 -210 25.5 -210 25.5 -174 174.5 -174 174.5 -210"/><text x="100" y="-188.3" fill="#000" font-family="Times New Roman,serif" font-size="14" text-anchor="middle">Mero expediente (2048)</text></g><g id="edge2" class="edge"><title>3994980d-5894-443a-bd66-8c9621f83924-&gt;326aacd5-1e96-47c2-a154-677ef7e2ef2e</title><path fill="none" stroke="#000" stroke-width="1.68" d="M188.54,-260.8C171.84,-248.01 148.86,-230.42 130.5,-216.36"/><polygon fill="#000" stroke="#000" stroke-width="1.68" points="132.5 -213.48 122.43 -210.18 128.24 -219.03 132.5 -213.48"/><text x="177" y="-231.8" fill="#000" font-family="Times New Roman,serif" font-size="14" text-anchor="middle">1773</text></g><g id="node4" class="node"><title>dddab5f4-3f47-4499-b781-7f188bcd5e2c</title><polygon fill="#4fafaf" stroke="#000" points="200 -123 0 -123 0 -87 200 -87 200 -123"/><text x="100" y="-101.3" fill="#000" font-family="Times New Roman,serif" font-size="14" text-anchor="middle">Expedição de documento (6718)</text></g><g id="edge3" class="edge"><title>326aacd5-1e96-47c2-a154-677ef7e2ef2e-&gt;dddab5f4-3f47-4499-b781-7f188bcd5e2c</title><path fill="none" stroke="#000" stroke-width="1.67" d="M100,-173.8C100,-162.16 100,-146.55 100,-133.24"/><polygon fill="#000" stroke="#000" stroke-width="1.67" points="103.5 -133.18 100 -123.18 96.5 -133.18 103.5 -133.18"/><text x="114" y="-144.8" fill="#000" font-family="Times New Roman,serif" font-size="14" text-anchor="middle">1550</text></g><g id="edge5" class="edge"><title>dddab5f4-3f47-4499-b781-7f188bcd5e2c-&gt;3994980d-5894-443a-bd66-8c9621f83924</title><path fill="none" stroke="#000" stroke-width="1.6" d="M128.95,-123.06C147.02,-135.12 169.35,-152.88 183,-174 198.09,-197.35 205.09,-228.65 208.32,-250.8"/><polygon fill="#000" stroke="#000" stroke-width="1.6" points="204.87 -251.39 209.62 -260.86 211.81 -250.49 204.87 -251.39"/><text x="210.5" y="-188.3" fill="#000" font-family="Times New Roman,serif" font-size="14" text-anchor="middle">740</text></g><g id="edge4" class="edge"><title>dddab5f4-3f47-4499-b781-7f188bcd5e2c-&gt;dddab5f4-3f47-4499-b781-7f188bcd5e2c</title><path fill="none" stroke="#000" stroke-width="1.7" d="M200.29,-111.58C211.07,-110.31 218,-108.12 218,-105 218,-103 215.15,-101.39 210.28,-100.15"/><polygon fill="#000" stroke="#000" stroke-width="1.7" points="210.74 -96.68 200.29 -98.42 209.55 -103.57 210.74 -96.68"/><text x="232" y="-101.3" fill="#000" font-family="Times New Roman,serif" font-size="14" text-anchor="middle">2225</text></g><g id="node5" class="node"><title>2d847f93-e93b-4897-9eb4-00ace731dc87</title><polygon fill="#4cb2b2" stroke="#000" points="200 -36 102 -36 102 0 200 0 200 -36"/><text x="151" y="-14.3" fill="#000" font-family="Times New Roman,serif" font-size="14" text-anchor="middle">Petição (5154)</text></g><g id="edge6" class="edge"><title>dddab5f4-3f47-4499-b781-7f188bcd5e2c-&gt;2d847f93-e93b-4897-9eb4-00ace731dc87</title><path fill="none" stroke="#000" stroke-width="1.69" d="M96.63,-86.82C95.51,-76.7 95.69,-63.96 101,-54 103.19,-49.89 106.1,-46.16 109.42,-42.8"/><polygon fill="#000" stroke="#000" stroke-width="1.69" points="111.96 -45.24 117.23 -36.04 107.38 -39.95 111.96 -45.24"/><text x="115" y="-57.8" fill="#000" font-family="Times New Roman,serif" font-size="14" text-anchor="middle">1944</text></g><g id="edge8" class="edge"><title>2d847f93-e93b-4897-9eb4-00ace731dc87-&gt;3994980d-5894-443a-bd66-8c9621f83924</title><path fill="none" stroke="#000" stroke-width="1.67" d="M195.82,-36.09C217.87,-47.05 242.38,-63.66 255,-87 284.18,-140.94 250.47,-213.6 227.95,-251.88"/><polygon fill="#000" stroke="#000" stroke-width="1.67" points="224.71 -250.48 222.51 -260.84 230.69 -254.11 224.71 -250.48"/><text x="280" y="-144.8" fill="#000" font-family="Times New Roman,serif" font-size="14" text-anchor="middle">1579</text></g><g id="edge9" class="edge"><title>2d847f93-e93b-4897-9eb4-00ace731dc87-&gt;dddab5f4-3f47-4499-b781-7f188bcd5e2c</title><path fill="none" stroke="#000" stroke-width="1.62" d="M144.78,-36.25C140.88,-46.17 135.38,-58.67 129,-69 126.91,-72.38 124.53,-75.78 122.04,-79.07"/><polygon fill="#000" stroke="#000" stroke-width="1.62" points="119.27 -76.92 115.76 -86.92 124.74 -81.29 119.27 -76.92"/><text x="147.5" y="-57.8" fill="#000" font-family="Times New Roman,serif" font-size="14" text-anchor="middle">873</text></g><g id="edge7" class="edge"><title>2d847f93-e93b-4897-9eb4-00ace731dc87-&gt;2d847f93-e93b-4897-9eb4-00ace731dc87</title><path fill="none" stroke="#000" stroke-width="1.67" d="M200.08,-25.62C210.49,-24.85 218,-22.31 218,-18 218,-15.31 215.06,-13.31 210.32,-12"/><polygon fill="#000" stroke="#000" stroke-width="1.67" points="210.5 -8.48 200.08 -10.38 209.41 -15.39 210.5 -8.48"/><text x="232" y="-14.3" fill="#000" font-family="Times New Roman,serif" font-size="14" text-anchor="middle">1641</text></g><g id="node6" class="node"><title>f547e7b8-183e-4ac0-b351-7bd758d00518</title><polygon fill="#3fbfbf" stroke="#000" points="398 -384 288 -384 288 -348 398 -348 398 -384"/><text x="343" y="-362.3" fill="#000" font-family="Times New Roman,serif" font-size="14" text-anchor="middle">Mandado (1143)</text></g><g id="edge10" class="edge"><title>f547e7b8-183e-4ac0-b351-7bd758d00518-&gt;f547e7b8-183e-4ac0-b351-7bd758d00518</title><path fill="none" stroke="#000" stroke-width="1.57" d="M398.07,-373.5C408.57,-372.6 416,-370.1 416,-366 416,-363.37 412.95,-361.4 408,-360.09"/><polygon fill="#000" stroke="#000" stroke-width="1.57" points="408.5 -356.63 398.07 -358.5 407.39 -363.54 408.5 -356.63"/><text x="426.5" y="-362.3" fill="#000" font-family="Times New Roman,serif" font-size="14" text-anchor="middle">516</text></g><g id="node7" class="node"><title>start_0</title><ellipse cx="482" cy="-366" fill="#32cd32" stroke="#000" rx="27" ry="18"/><text x="482" y="-364.1" fill="#32cd32" font-family="Times New Roman,serif" font-size="8" text-anchor="middle">@@S</text></g><g id="node8" class="node"><title>end_0</title><ellipse cx="554" cy="-366" fill="orange" stroke="orange" rx="27" ry="18"/><text x="554" y="-364.1" fill="orange" font-family="Times New Roman,serif" font-size="8" text-anchor="middle">@@E</text></g></g></svg>