<?xml version="1.0" encoding="UTF-8" standalone="no"?><!DOCTYPE svg PUBLIC "-//W3C//DTD SVG 1.1//EN" "http://www.w3.org/Graphics/SVG/1.1/DTD/svg11.dtd"><!-- Generated by graphviz version 2.49.3 (20211023.0002) --><!-- Title: G Pages: 1 --><svg width="635pt" height="392pt" viewBox="0.00 0.00 634.50 392.00" xmlns="http://www.w3.org/2000/svg" xmlns:xlink="http://www.w3.org/1999/xlink"><g id="graph0" class="graph" transform="scale(1 1) rotate(0) translate(4 388)"><title>G</title><polygon fill="white" stroke="transparent" points="-4,4 -4,-388 630.5,-388 630.5,4 -4,4"/><!-- c6ad2602&#45;6782&#45;4c56&#45;8eb2&#45;084659e81af1 --><g id="node1" class="node"><title>c6ad2602&#45;6782&#45;4c56&#45;8eb2&#45;084659e81af1</title><polygon fill="#38c6c6" stroke="black" points="315,-384 198,-384 198,-348 315,-348 315,-384"/><text text-anchor="middle" x="256.5" y="-362.3" font-family="Times New Roman,serif" font-size="14.00" fill="#000000">Distribuição (538)</text></g><!-- d2ba6bbf&#45;617a&#45;4577&#45;959c&#45;46d9f6f465b8 --><g id="node2" class="node"><title>d2ba6bbf&#45;617a&#45;4577&#45;959c&#45;46d9f6f465b8</title><polygon fill="#49b5b5" stroke="black" points="314.5,-297 198.5,-297 198.5,-261 314.5,-261 314.5,-297"/><text text-anchor="middle" x="256.5" y="-275.3" font-family="Times New Roman,serif" font-size="14.00" fill="#000000">Conclusão (3353)</text></g><!-- c6ad2602&#45;6782&#45;4c56&#45;8eb2&#45;084659e81af1&#45;&gt;d2ba6bbf&#45;617a&#45;4577&#45;959c&#45;46d9f6f465b8 --><g id="edge1" class="edge"><title>c6ad2602&#45;6782&#45;4c56&#45;8eb2&#45;084659e81af1&#45;&gt;d2ba6bbf&#45;617a&#45;4577&#45;959c&#45;46d9f6f465b8</title><path fill="none" stroke="#000000" stroke-width="1.57" d="M256.5,-347.8C256.5,-336.16 256.5,-320.55 256.5,-307.24"/><polygon fill="#000000" stroke="#000000" stroke-width="1.57" points="260,-307.18 256.5,-297.18 253,-307.18 260,-307.18"/><text text-anchor="middle" x="267" y="-318.8" font-family="Times New Roman,serif" font-size="14.00" fill="#000000">537</text></g><!-- 0644cdfd&#45;0cb4&#45;43a8&#45;8935&#45;85d393d18c06 --><g id="node3" class="node"><title>0644cdfd&#45;0cb4&#45;43a8&#45;8935&#45;85d393d18c06</title><polygon fill="#44baba" stroke="black" points="113,-210 0,-210 0,-174 113,-174 113,-210"/><text text-anchor="middle" x="56.5" y="-188.3" font-family="Times New Roman,serif" font-size="14.00" fill="#000000">Despacho (2053)</text></g><!-- d2ba6bbf&#45;617a&#45;4577&#45;959c&#45;46d9f6f465b8&#45;&gt;0644cdfd&#45;0cb4&#45;43a8&#45;8935&#45;85d393d18c06 --><g id="edge2" class="edge"><title>d2ba6bbf&#45;617a&#45;4577&#45;959c&#45;46d9f6f465b8&#45;&gt;0644cdfd&#45;0cb4&#45;43a8&#45;8935&#45;85d393d18c06</title><path fill="none" stroke="#000000" stroke-width="1.68" d="M216.03,-260.8C184.21,-247.27 139.74,-228.38 105.83,-213.97"/><polygon fill="#000000" stroke="#000000" stroke-width="1.68" points="107.14,-210.72 96.57,-210.03 104.41,-217.16 107.14,-210.72"/><text text-anchor="middle" x="182.5" y="-231.8" font-family="Times New Roman,serif" font-size="14.00" fill="#000000">1776</text></g><!-- 438ab97b&#45;7107&#45;4037&#45;b185&#45;0ec2ee4a7639 --><g id="node4" class="node"><title>438ab97b&#45;7107&#45;4037&#45;b185&#45;0ec2ee4a7639</title><polygon fill="#3ac4c4" stroke="black" points="243.5,-210 131.5,-210 131.5,-174 243.5,-174 243.5,-210"/><text text-anchor="middle" x="187.5" y="-188.3" font-family="Times New Roman,serif" font-size="14.00" fill="#000000">Julgamento (685)</text></g><!-- d2ba6bbf&#45;617a&#45;4577&#45;959c&#45;46d9f6f465b8&#45;&gt;438ab97b&#45;7107&#45;4037&#45;b185&#45;0ec2ee4a7639 --><g id="edge3" class="edge"><title>d2ba6bbf&#45;617a&#45;4577&#45;959c&#45;46d9f6f465b8&#45;&gt;438ab97b&#45;7107&#45;4037&#45;b185&#45;0ec2ee4a7639</title><path fill="none" stroke="#000000" stroke-width="1.58" d="M242.54,-260.8C232.62,-248.59 219.15,-231.99 208.02,-218.28"/><polygon fill="#000000" stroke="#000000" stroke-width="1.58" points="210.46,-215.73 201.44,-210.18 205.03,-220.15 210.46,-215.73"/><text text-anchor="middle" x="237" y="-231.8" font-family="Times New Roman,serif" font-size="14.00" fill="#000000">560</text></g><!-- 534fab13&#45;e671&#45;43c0&#45;90e7&#45;2ce86efecd7a --><g id="node5" class="node"><title>534fab13&#45;e671&#45;43c0&#45;90e7&#45;2ce86efecd7a</title><polygon fill="#4fafaf" stroke="black" points="262.5,-123 62.5,-123 62.5,-87 262.5,-87 262.5,-123"/><text text-anchor="middle" x="162.5" y="-101.3" font-family="Times New Roman,serif" font-size="14.00" fill="#000000">Expedição de documento (6718)</text></g><!-- 0644cdfd&#45;0cb4&#45;43a8&#45;8935&#45;85d393d18c06&#45;&gt;534fab13&#45;e671&#45;43c0&#45;90e7&#45;2ce86efecd7a --><g id="edge4" class="edge"><title>0644cdfd&#45;0cb4&#45;43a8&#45;8935&#45;85d393d18c06&#45;&gt;534fab13&#45;e671&#45;43c0&#45;90e7&#45;2ce86efecd7a</title><path fill="none" stroke="#000000" stroke-width="1.67" d="M77.95,-173.8C93.76,-161.13 115.44,-143.73 132.9,-129.74"/><polygon fill="#000000" stroke="#000000" stroke-width="1.67" points="135.47,-132.16 141.08,-123.18 131.09,-126.7 135.47,-132.16"/><text text-anchor="middle" x="130.5" y="-144.8" font-family="Times New Roman,serif" font-size="14.00" fill="#000000">1552</text></g><!-- 438ab97b&#45;7107&#45;4037&#45;b185&#45;0ec2ee4a7639&#45;&gt;534fab13&#45;e671&#45;43c0&#45;90e7&#45;2ce86efecd7a --><g id="edge5" class="edge"><title>438ab97b&#45;7107&#45;4037&#45;b185&#45;0ec2ee4a7639&#45;&gt;534fab13&#45;e671&#45;43c0&#45;90e7&#45;2ce86efecd7a</title><path fill="none" stroke="#000000" stroke-width="1.59" d="M182.44,-173.8C178.98,-162.05 174.33,-146.24 170.39,-132.84"/><polygon fill="#000000" stroke="#000000" stroke-width="1.59" points="173.73,-131.78 167.55,-123.18 167.02,-133.76 173.73,-131.78"/><text text-anchor="middle" x="187" y="-144.8" font-family="Times New Roman,serif" font-size="14.00" fill="#000000">639</text></g><!-- 534fab13&#45;e671&#45;43c0&#45;90e7&#45;2ce86efecd7a&#45;&gt;d2ba6bbf&#45;617a&#45;4577&#45;959c&#45;46d9f6f465b8 --><g id="edge7" class="edge"><title>534fab13&#45;e671&#45;43c0&#45;90e7&#45;2ce86efecd7a&#45;&gt;d2ba6bbf&#45;617a&#45;4577&#45;959c&#45;46d9f6f465b8</title><path fill="none" stroke="#000000" stroke-width="1.6" d="M198.34,-123.07C218.05,-134.51 240.81,-151.6 252.5,-174 264.86,-197.68 264.28,-228.68 261.58,-250.66"/><polygon fill="#000000" stroke="#000000" stroke-width="1.6" points="258.1,-250.26 260.14,-260.66 265.03,-251.26 258.1,-250.26"/><text text-anchor="middle" x="273" y="-188.3" font-family="Times New Roman,serif" font-size="14.00" fill="#000000">740</text></g><!-- 534fab13&#45;e671&#45;43c0&#45;90e7&#45;2ce86efecd7a&#45;&gt;534fab13&#45;e671&#45;43c0&#45;90e7&#45;2ce86efecd7a --><g id="edge6" class="edge"><title>534fab13&#45;e671&#45;43c0&#45;90e7&#45;2ce86efecd7a&#45;&gt;534fab13&#45;e671&#45;43c0&#45;90e7&#45;2ce86efecd7a</title><path fill="none" stroke="#000000" stroke-width="1.7" d="M262.79,-111.58C273.57,-110.31 280.5,-108.12 280.5,-105 280.5,-103 277.65,-101.39 272.78,-100.15"/><polygon fill="#000000" stroke="#000000" stroke-width="1.7" points="273.24,-96.68 262.79,-98.42 272.05,-103.57 273.24,-96.68"/><text text-anchor="middle" x="294.5" y="-101.3" font-family="Times New Roman,serif" font-size="14.00" fill="#000000">2225</text></g><!-- 43433e05&#45;a435&#45;4091&#45;954a&#45;85f841acd1a7 --><g id="node6" class="node"><title>43433e05&#45;a435&#45;4091&#45;954a&#45;85f841acd1a7</title><polygon fill="#4cb2b2" stroke="black" points="262.5,-36 164.5,-36 164.5,0 262.5,0 262.5,-36"/><text text-anchor="middle" x="213.5" y="-14.3" font-family="Times New Roman,serif" font-size="14.00" fill="#000000">Petição (5154)</text></g><!-- 534fab13&#45;e671&#45;43c0&#45;90e7&#45;2ce86efecd7a&#45;&gt;43433e05&#45;a435&#45;4091&#45;954a&#45;85f841acd1a7 --><g id="edge8" class="edge"><title>534fab13&#45;e671&#45;43c0&#45;90e7&#45;2ce86efecd7a&#45;&gt;43433e05&#45;a435&#45;4091&#45;954a&#45;85f841acd1a7</title><path fill="none" stroke="#000000" stroke-width="1.69" d="M159.13,-86.82C158.01,-76.7 158.19,-63.96 163.5,-54 165.69,-49.89 168.6,-46.16 171.92,-42.8"/><polygon fill="#000000" stroke="#000000" stroke-width="1.69" points="174.46,-45.24 179.73,-36.04 169.88,-39.95 174.46,-45.24"/><text text-anchor="middle" x="177.5" y="-57.8" font-family="Times New Roman,serif" font-size="14.00" fill="#000000">1944</text></g><!-- 43433e05&#45;a435&#45;4091&#45;954a&#45;85f841acd1a7&#45;&gt;d2ba6bbf&#45;617a&#45;4577&#45;959c&#45;46d9f6f465b8 --><g id="edge10" class="edge"><title>43433e05&#45;a435&#45;4091&#45;954a&#45;85f841acd1a7&#45;&gt;d2ba6bbf&#45;617a&#45;4577&#45;959c&#45;46d9f6f465b8</title><path fill="none" stroke="#000000" stroke-width="1.67" d="M258.32,-36.09C280.37,-47.05 304.88,-63.66 317.5,-87 347.4,-142.27 304.8,-214.57 277.08,-252.4"/><polygon fill="#000000" stroke="#000000" stroke-width="1.67" points="273.96,-250.71 270.74,-260.8 279.55,-254.92 273.96,-250.71"/><text text-anchor="middle" x="340.5" y="-144.8" font-family="Times New Roman,serif" font-size="14.00" fill="#000000">1579</text></g><!-- 43433e05&#45;a435&#45;4091&#45;954a&#45;85f841acd1a7&#45;&gt;534fab13&#45;e671&#45;43c0&#45;90e7&#45;2ce86efecd7a --><g id="edge11" class="edge"><title>43433e05&#45;a435&#45;4091&#45;954a&#45;85f841acd1a7&#45;&gt;534fab13&#45;e671&#45;43c0&#45;90e7&#45;2ce86efecd7a</title><path fill="none" stroke="#000000" stroke-width="1.62" d="M207.28,-36.25C203.38,-46.17 197.88,-58.67 191.5,-69 189.41,-72.38 187.03,-75.78 184.54,-79.07"/><polygon fill="#000000" stroke="#000000" stroke-width="1.62" points="181.77,-76.92 178.26,-86.92 187.24,-81.29 181.77,-76.92"/><text text-anchor="middle" x="210" y="-57.8" font-family="Times New Roman,serif" font-size="14.00" fill="#000000">873</text></g><!-- 43433e05&#45;a435&#45;4091&#45;954a&#45;85f841acd1a7&#45;&gt;43433e05&#45;a435&#45;4091&#45;954a&#45;85f841acd1a7 --><g id="edge9" class="edge"><title>43433e05&#45;a435&#45;4091&#45;954a&#45;85f841acd1a7&#45;&gt;43433e05&#45;a435&#45;4091&#45;954a&#45;85f841acd1a7</title><path fill="none" stroke="#000000" stroke-width="1.67" d="M262.58,-25.62C272.99,-24.85 280.5,-22.31 280.5,-18 280.5,-15.31 277.56,-13.31 272.82,-12"/><polygon fill="#000000" stroke="#000000" stroke-width="1.67" points="273,-8.48 262.58,-10.38 271.91,-15.39 273,-8.48"/><text text-anchor="middle" x="294.5" y="-14.3" font-family="Times New Roman,serif" font-size="14.00" fill="#000000">1641</text></g><!-- b48b91ec&#45;e892&#45;4197&#45;b5f3&#45;42ef20e1ac15 --><g id="node7" class="node"><title>b48b91ec&#45;e892&#45;4197&#45;b5f3&#45;42ef20e1ac15</title><polygon fill="#3fbfbf" stroke="black" points="443.5,-384 333.5,-384 333.5,-348 443.5,-348 443.5,-384"/><text text-anchor="middle" x="388.5" y="-362.3" font-family="Times New Roman,serif" font-size="14.00" fill="#000000">Mandado (1143)</text></g><!-- b48b91ec&#45;e892&#45;4197&#45;b5f3&#45;42ef20e1ac15&#45;&gt;b48b91ec&#45;e892&#45;4197&#45;b5f3&#45;42ef20e1ac15 --><g id="edge12" class="edge"><title>b48b91ec&#45;e892&#45;4197&#45;b5f3&#45;42ef20e1ac15&#45;&gt;b48b91ec&#45;e892&#45;4197&#45;b5f3&#45;42ef20e1ac15</title><path fill="none" stroke="#000000" stroke-width="1.57" d="M443.57,-373.5C454.07,-372.6 461.5,-370.1 461.5,-366 461.5,-363.37 458.45,-361.4 453.5,-360.09"/><polygon fill="#000000" stroke="#000000" stroke-width="1.57" points="454,-356.63 443.57,-358.5 452.89,-363.54 454,-356.63"/><text text-anchor="middle" x="472" y="-362.3" font-family="Times New Roman,serif" font-size="14.00" fill="#000000">516</text></g><!-- start_0 --><g id="node8" class="node"><title>start_0</title><ellipse fill="#32cd32" stroke="#000000" cx="527.5" cy="-366" rx="27" ry="18"/><text text-anchor="middle" x="527.5" y="-364.1" font-family="Times New Roman,serif" font-size="8.00" fill="#32cd32">@@S</text></g><!-- end_0 --><g id="node9" class="node"><title>end_0</title><ellipse fill="#ffa500" stroke="#ffa500" cx="599.5" cy="-366" rx="27" ry="18"/><text text-anchor="middle" x="599.5" y="-364.1" font-family="Times New Roman,serif" font-size="8.00" fill="#ffa500">@@E</text></g></g></svg>