<?xml version="1.0" encoding="UTF-8" standalone="no"?><!DOCTYPE svg PUBLIC "-//W3C//DTD SVG 1.1//EN" "http://www.w3.org/Graphics/SVG/1.1/DTD/svg11.dtd"><!-- Generated by graphviz version 2.49.3 (20211023.0002) --><!-- Title: G Pages: 1 --><svg width="1073pt" height="914pt" viewBox="0.00 0.00 1073.00 914.00" xmlns="http://www.w3.org/2000/svg" xmlns:xlink="http://www.w3.org/1999/xlink"><g id="graph0" class="graph" transform="scale(1 1) rotate(0) translate(4 910)"><title>G</title><polygon fill="white" stroke="transparent" points="-4,4 -4,-910 1069,-910 1069,4 -4,4"/><!-- 68741cd3&#45;4603&#45;421d&#45;9cce&#45;73415e508c40 --><g id="node1" class="node"><title>68741cd3&#45;4603&#45;421d&#45;9cce&#45;73415e508c40</title><polygon fill="#38c6c6" stroke="black" points="1018.5,-819 901.5,-819 901.5,-783 1018.5,-783 1018.5,-819"/><text text-anchor="middle" x="960" y="-797.3" font-family="Times New Roman,serif" font-size="14.00" fill="#000000">Distribuição (538)</text></g><!-- acbae693&#45;9859&#45;4362&#45;84a3&#45;d5f262b787e5 --><g id="node2" class="node"><title>acbae693&#45;9859&#45;4362&#45;84a3&#45;d5f262b787e5</title><polygon fill="#49b5b5" stroke="black" points="869,-732 753,-732 753,-696 869,-696 869,-732"/><text text-anchor="middle" x="811" y="-710.3" font-family="Times New Roman,serif" font-size="14.00" fill="#000000">Conclusão (3353)</text></g><!-- 68741cd3&#45;4603&#45;421d&#45;9cce&#45;73415e508c40&#45;&gt;acbae693&#45;9859&#45;4362&#45;84a3&#45;d5f262b787e5 --><g id="edge1" class="edge"><title>68741cd3&#45;4603&#45;421d&#45;9cce&#45;73415e508c40&#45;&gt;acbae693&#45;9859&#45;4362&#45;84a3&#45;d5f262b787e5</title><path fill="none" stroke="#000000" stroke-width="1.57" d="M929.85,-782.8C906.75,-769.62 874.71,-751.34 849.71,-737.08"/><polygon fill="#000000" stroke="#000000" stroke-width="1.57" points="851.27,-733.95 840.85,-732.03 847.8,-740.03 851.27,-733.95"/><text text-anchor="middle" x="904.5" y="-753.8" font-family="Times New Roman,serif" font-size="14.00" fill="#000000">537</text></g><!-- 4ba0d90a&#45;42ba&#45;423e&#45;8a0d&#45;b6c359013bcc --><g id="node3" class="node"><title>4ba0d90a&#45;42ba&#45;423e&#45;8a0d&#45;b6c359013bcc</title><polygon fill="#44baba" stroke="black" points="754.5,-645 605.5,-645 605.5,-609 754.5,-609 754.5,-645"/><text text-anchor="middle" x="680" y="-623.3" font-family="Times New Roman,serif" font-size="14.00" fill="#000000">Mero expediente (2048)</text></g><!-- acbae693&#45;9859&#45;4362&#45;84a3&#45;d5f262b787e5&#45;&gt;4ba0d90a&#45;42ba&#45;423e&#45;8a0d&#45;b6c359013bcc --><g id="edge2" class="edge"><title>acbae693&#45;9859&#45;4362&#45;84a3&#45;d5f262b787e5&#45;&gt;4ba0d90a&#45;42ba&#45;423e&#45;8a0d&#45;b6c359013bcc</title><path fill="none" stroke="#000000" stroke-width="1.68" d="M784.49,-695.8C764.51,-682.84 736.93,-664.94 715.12,-650.79"/><polygon fill="#000000" stroke="#000000" stroke-width="1.68" points="716.76,-647.68 706.47,-645.18 712.95,-653.55 716.76,-647.68"/><text text-anchor="middle" x="767" y="-666.8" font-family="Times New Roman,serif" font-size="14.00" fill="#000000">1773</text></g><!-- 4d247d8e&#45;8838&#45;42f1&#45;8e1d&#45;05a470adcaab --><g id="node8" class="node"><title>4d247d8e&#45;8838&#45;42f1&#45;8e1d&#45;05a470adcaab</title><polygon fill="#3bc3c3" stroke="black" points="265.5,-210 150.5,-210 150.5,-174 265.5,-174 265.5,-210"/><text text-anchor="middle" x="208" y="-188.3" font-family="Times New Roman,serif" font-size="14.00" fill="#000000">Documento (749)</text></g><!-- acbae693&#45;9859&#45;4362&#45;84a3&#45;d5f262b787e5&#45;&gt;4d247d8e&#45;8838&#45;42f1&#45;8e1d&#45;05a470adcaab --><g id="edge3" class="edge"><title>acbae693&#45;9859&#45;4362&#45;84a3&#45;d5f262b787e5&#45;&gt;4d247d8e&#45;8838&#45;42f1&#45;8e1d&#45;05a470adcaab</title><path fill="none" stroke="#000000" stroke-width="1.4" d="M752.86,-712.59C574.97,-710.58 50,-698.67 50,-628 50,-628 50,-628 50,-321.5 50,-269.02 103.12,-234.19 147.76,-214.2"/><polygon fill="#000000" stroke="#000000" stroke-width="1.4" points="149.34,-217.33 157.14,-210.15 146.57,-210.9 149.34,-217.33"/><text text-anchor="middle" x="57" y="-449.3" font-family="Times New Roman,serif" font-size="14.00" fill="#000000">81</text></g><!-- end_0 --><g id="node11" class="node"><title>end_0</title><ellipse fill="#ffa500" stroke="#ffa500" cx="593" cy="-18" rx="27" ry="18"/><text text-anchor="middle" x="593" y="-16.1" font-family="Times New Roman,serif" font-size="8.00" fill="#ffa500">@@E</text></g><!-- acbae693&#45;9859&#45;4362&#45;84a3&#45;d5f262b787e5&#45;&gt;end_0 --><g id="edge47" class="edge"><title>acbae693&#45;9859&#45;4362&#45;84a3&#45;d5f262b787e5&#45;&gt;end_0</title><path fill="none" stroke="#000000" stroke-width="1.26" d="M869.33,-704.27C912.2,-694.17 963,-672.75 963,-628 963,-628 963,-628 963,-495.5 963,-426.28 1051,-436.22 1051,-367 1051,-367 1051,-367 1051,-104 1051,-61.25 738.51,-31.13 629.77,-21.94"/><polygon fill="#000000" stroke="#000000" stroke-width="1.26" points="629.86,-18.44 619.6,-21.09 629.28,-25.41 629.86,-18.44"/><text text-anchor="middle" x="1058" y="-362.3" font-family="Times New Roman,serif" font-size="14.00" fill="#000000">17</text></g><!-- a3b1dacf&#45;d238&#45;46bd&#45;be48&#45;76de17c3e5fb --><g id="node4" class="node"><title>a3b1dacf&#45;d238&#45;46bd&#45;be48&#45;76de17c3e5fb</title><polygon fill="#4fafaf" stroke="black" points="533,-558 333,-558 333,-522 533,-522 533,-558"/><text text-anchor="middle" x="433" y="-536.3" font-family="Times New Roman,serif" font-size="14.00" fill="#000000">Expedição de documento (6718)</text></g><!-- 4ba0d90a&#45;42ba&#45;423e&#45;8a0d&#45;b6c359013bcc&#45;&gt;a3b1dacf&#45;d238&#45;46bd&#45;be48&#45;76de17c3e5fb --><g id="edge4" class="edge"><title>4ba0d90a&#45;42ba&#45;423e&#45;8a0d&#45;b6c359013bcc&#45;&gt;a3b1dacf&#45;d238&#45;46bd&#45;be48&#45;76de17c3e5fb</title><path fill="none" stroke="#000000" stroke-width="1.67" d="M626.84,-608.92C609.63,-603.31 590.48,-596.98 573,-591 545.39,-581.56 514.86,-570.7 489.38,-561.53"/><polygon fill="#000000" stroke="#000000" stroke-width="1.67" points="490.47,-558.2 479.88,-558.1 488.09,-564.78 490.47,-558.2"/><text text-anchor="middle" x="587" y="-579.8" font-family="Times New Roman,serif" font-size="14.00" fill="#000000">1550</text></g><!-- 4fcadc6c&#45;a47d&#45;441a&#45;a6c2&#45;3ff8f28c618a --><g id="node5" class="node"><title>4fcadc6c&#45;a47d&#45;441a&#45;a6c2&#45;3ff8f28c618a</title><polygon fill="#39c5c5" stroke="black" points="526,-471 422,-471 422,-435 526,-435 526,-471"/><text text-anchor="middle" x="474" y="-449.3" font-family="Times New Roman,serif" font-size="14.00" fill="#000000">Definitivo (564)</text></g><!-- 4ba0d90a&#45;42ba&#45;423e&#45;8a0d&#45;b6c359013bcc&#45;&gt;4fcadc6c&#45;a47d&#45;441a&#45;a6c2&#45;3ff8f28c618a --><g id="edge6" class="edge"><title>4ba0d90a&#45;42ba&#45;423e&#45;8a0d&#45;b6c359013bcc&#45;&gt;4fcadc6c&#45;a47d&#45;441a&#45;a6c2&#45;3ff8f28c618a</title><path fill="none" stroke="#000000" stroke-width="1.29" d="M667.38,-608.69C650.83,-586.75 620.11,-548.62 588,-522 566.48,-504.16 539.76,-487.96 517.6,-475.85"/><polygon fill="#000000" stroke="#000000" stroke-width="1.29" points="519.19,-472.73 508.73,-471.09 515.88,-478.9 519.19,-472.73"/><text text-anchor="middle" x="631" y="-536.3" font-family="Times New Roman,serif" font-size="14.00" fill="#000000">24</text></g><!-- e1046b91&#45;fbe3&#45;4065&#45;9f74&#45;7690f89a6690 --><g id="node6" class="node"><title>e1046b91&#45;fbe3&#45;4065&#45;9f74&#45;7690f89a6690</title><polygon fill="#4cb2b2" stroke="black" points="800,-384 702,-384 702,-348 800,-348 800,-384"/><text text-anchor="middle" x="751" y="-362.3" font-family="Times New Roman,serif" font-size="14.00" fill="#000000">Petição (5154)</text></g><!-- 4ba0d90a&#45;42ba&#45;423e&#45;8a0d&#45;b6c359013bcc&#45;&gt;e1046b91&#45;fbe3&#45;4065&#45;9f74&#45;7690f89a6690 --><g id="edge7" class="edge"><title>4ba0d90a&#45;42ba&#45;423e&#45;8a0d&#45;b6c359013bcc&#45;&gt;e1046b91&#45;fbe3&#45;4065&#45;9f74&#45;7690f89a6690</title><path fill="none" stroke="#000000" stroke-width="1.49" d="M687.77,-608.73C700.15,-580.5 724.23,-522.48 737,-471 743.35,-445.4 746.99,-415.5 748.96,-394.34"/><polygon fill="#000000" stroke="#000000" stroke-width="1.49" points="752.47,-394.41 749.85,-384.15 745.5,-393.81 752.47,-394.41"/><text text-anchor="middle" x="742.5" y="-492.8" font-family="Times New Roman,serif" font-size="14.00" fill="#000000">212</text></g><!-- b14698d1&#45;a3b3&#45;4c23&#45;86a3&#45;42cbab2ab9ee --><g id="node7" class="node"><title>b14698d1&#45;a3b3&#45;4c23&#45;86a3&#45;42cbab2ab9ee</title><polygon fill="#38c6c6" stroke="black" points="643,-123 543,-123 543,-87 643,-87 643,-123"/><text text-anchor="middle" x="593" y="-101.3" font-family="Times New Roman,serif" font-size="14.00" fill="#000000">Remessa (518)</text></g><!-- 4ba0d90a&#45;42ba&#45;423e&#45;8a0d&#45;b6c359013bcc&#45;&gt;b14698d1&#45;a3b3&#45;4c23&#45;86a3&#45;42cbab2ab9ee --><g id="edge5" class="edge"><title>4ba0d90a&#45;42ba&#45;423e&#45;8a0d&#45;b6c359013bcc&#45;&gt;b14698d1&#45;a3b3&#45;4c23&#45;86a3&#45;42cbab2ab9ee</title><path fill="none" stroke="#000000" stroke-width="1.34" d="M708.15,-608.91C715.92,-603.61 724.1,-597.46 731,-591 789.39,-536.33 846.5,-416.42 855,-384 869.94,-327.02 898.3,-258.07 843,-174 822.16,-142.32 720.34,-122.88 653.24,-113.29"/><polygon fill="#000000" stroke="#000000" stroke-width="1.34" points="653.59,-109.8 643.2,-111.89 652.62,-116.74 653.59,-109.8"/><text text-anchor="middle" x="871" y="-362.3" font-family="Times New Roman,serif" font-size="14.00" fill="#000000">41</text></g><!-- 4ba0d90a&#45;42ba&#45;423e&#45;8a0d&#45;b6c359013bcc&#45;&gt;4d247d8e&#45;8838&#45;42f1&#45;8e1d&#45;05a470adcaab --><g id="edge8" class="edge"><title>4ba0d90a&#45;42ba&#45;423e&#45;8a0d&#45;b6c359013bcc&#45;&gt;4d247d8e&#45;8838&#45;42f1&#45;8e1d&#45;05a470adcaab</title><path fill="none" stroke="#000000" stroke-width="1.3" d="M605.21,-609.58C603.79,-609.37 602.39,-609.18 601,-609 514.96,-597.84 293.6,-617.55 211,-591 172.15,-578.51 134,-581.8 134,-541 134,-541 134,-541 134,-408.5 134,-336.72 171.18,-258.43 192.83,-218.92"/><polygon fill="#000000" stroke="#000000" stroke-width="1.3" points="195.89,-220.62 197.71,-210.19 189.78,-217.21 195.89,-220.62"/><text text-anchor="middle" x="141" y="-405.8" font-family="Times New Roman,serif" font-size="14.00" fill="#000000">25</text></g><!-- a3b1dacf&#45;d238&#45;46bd&#45;be48&#45;76de17c3e5fb&#45;&gt;acbae693&#45;9859&#45;4362&#45;84a3&#45;d5f262b787e5 --><g id="edge10" class="edge"><title>a3b1dacf&#45;d238&#45;46bd&#45;be48&#45;76de17c3e5fb&#45;&gt;acbae693&#45;9859&#45;4362&#45;84a3&#45;d5f262b787e5</title><path fill="none" stroke="#000000" stroke-width="1.6" d="M451.95,-558.16C478.08,-581 527.47,-621.25 576,-645 629.42,-671.15 694.72,-689.04 742.91,-699.88"/><polygon fill="#000000" stroke="#000000" stroke-width="1.6" points="742.41,-703.35 752.93,-702.09 743.91,-696.52 742.41,-703.35"/><text text-anchor="middle" x="586.5" y="-623.3" font-family="Times New Roman,serif" font-size="14.00" fill="#000000">740</text></g><!-- a3b1dacf&#45;d238&#45;46bd&#45;be48&#45;76de17c3e5fb&#45;&gt;a3b1dacf&#45;d238&#45;46bd&#45;be48&#45;76de17c3e5fb --><g id="edge9" class="edge"><title>a3b1dacf&#45;d238&#45;46bd&#45;be48&#45;76de17c3e5fb&#45;&gt;a3b1dacf&#45;d238&#45;46bd&#45;be48&#45;76de17c3e5fb</title><path fill="none" stroke="#000000" stroke-width="1.7" d="M533.29,-546.58C544.07,-545.31 551,-543.12 551,-540 551,-538 548.15,-536.39 543.28,-535.15"/><polygon fill="#000000" stroke="#000000" stroke-width="1.7" points="543.74,-531.68 533.29,-533.42 542.55,-538.57 543.74,-531.68"/><text text-anchor="middle" x="565" y="-536.3" font-family="Times New Roman,serif" font-size="14.00" fill="#000000">2225</text></g><!-- a3b1dacf&#45;d238&#45;46bd&#45;be48&#45;76de17c3e5fb&#45;&gt;4fcadc6c&#45;a47d&#45;441a&#45;a6c2&#45;3ff8f28c618a --><g id="edge11" class="edge"><title>a3b1dacf&#45;d238&#45;46bd&#45;be48&#45;76de17c3e5fb&#45;&gt;4fcadc6c&#45;a47d&#45;441a&#45;a6c2&#45;3ff8f28c618a</title><path fill="none" stroke="#000000" stroke-width="1.56" d="M441.3,-521.8C447.02,-509.93 454.74,-493.93 461.24,-480.45"/><polygon fill="#000000" stroke="#000000" stroke-width="1.56" points="464.52,-481.7 465.72,-471.18 458.22,-478.66 464.52,-481.7"/><text text-anchor="middle" x="466.5" y="-492.8" font-family="Times New Roman,serif" font-size="14.00" fill="#000000">449</text></g><!-- a3b1dacf&#45;d238&#45;46bd&#45;be48&#45;76de17c3e5fb&#45;&gt;e1046b91&#45;fbe3&#45;4065&#45;9f74&#45;7690f89a6690 --><g id="edge12" class="edge"><title>a3b1dacf&#45;d238&#45;46bd&#45;be48&#45;76de17c3e5fb&#45;&gt;e1046b91&#45;fbe3&#45;4065&#45;9f74&#45;7690f89a6690</title><path fill="none" stroke="#000000" stroke-width="1.69" d="M533.12,-526.75C586.45,-519.58 643.28,-510.66 654,-504 665.32,-496.97 709.95,-430.1 734.53,-392.45"/><polygon fill="#000000" stroke="#000000" stroke-width="1.69" points="737.51,-394.29 740.03,-384 731.64,-390.47 737.51,-394.29"/><text text-anchor="middle" x="719" y="-449.3" font-family="Times New Roman,serif" font-size="14.00" fill="#000000">1944</text></g><!-- a3b1dacf&#45;d238&#45;46bd&#45;be48&#45;76de17c3e5fb&#45;&gt;b14698d1&#45;a3b3&#45;4c23&#45;86a3&#45;42cbab2ab9ee --><g id="edge14" class="edge"><title>a3b1dacf&#45;d238&#45;46bd&#45;be48&#45;76de17c3e5fb&#45;&gt;b14698d1&#45;a3b3&#45;4c23&#45;86a3&#45;42cbab2ab9ee</title><path fill="none" stroke="#000000" stroke-width="1.5" d="M426.08,-521.85C407.4,-472.63 360.8,-328.06 414,-228 439.85,-179.38 494.69,-146.46 536.9,-127.2"/><polygon fill="#000000" stroke="#000000" stroke-width="1.5" points="538.52,-130.31 546.24,-123.06 535.68,-123.91 538.52,-130.31"/><text text-anchor="middle" x="401.5" y="-318.8" font-family="Times New Roman,serif" font-size="14.00" fill="#000000">254</text></g><!-- a3b1dacf&#45;d238&#45;46bd&#45;be48&#45;76de17c3e5fb&#45;&gt;4d247d8e&#45;8838&#45;42f1&#45;8e1d&#45;05a470adcaab --><g id="edge15" class="edge"><title>a3b1dacf&#45;d238&#45;46bd&#45;be48&#45;76de17c3e5fb&#45;&gt;4d247d8e&#45;8838&#45;42f1&#45;8e1d&#45;05a470adcaab</title><path fill="none" stroke="#000000" stroke-width="1.52" d="M368.99,-521.86C359.15,-517.21 349.72,-511.35 342,-504 247.63,-414.12 309.56,-340.04 243,-228 240.83,-224.34 238.19,-220.79 235.34,-217.44"/><polygon fill="#000000" stroke="#000000" stroke-width="1.52" points="237.82,-214.97 228.45,-210.04 232.7,-219.74 237.82,-214.97"/><text text-anchor="middle" x="294.5" y="-362.3" font-family="Times New Roman,serif" font-size="14.00" fill="#000000">298</text></g><!-- b3432ee6&#45;ab9a&#45;4ae9&#45;837d&#45;f402e3ec3e79 --><g id="node9" class="node"><title>b3432ee6&#45;ab9a&#45;4ae9&#45;837d&#45;f402e3ec3e79</title><polygon fill="#3fbfbf" stroke="black" points="645,-297 535,-297 535,-261 645,-261 645,-297"/><text text-anchor="middle" x="590" y="-275.3" font-family="Times New Roman,serif" font-size="14.00" fill="#000000">Mandado (1143)</text></g><!-- a3b1dacf&#45;d238&#45;46bd&#45;be48&#45;76de17c3e5fb&#45;&gt;b3432ee6&#45;ab9a&#45;4ae9&#45;837d&#45;f402e3ec3e79 --><g id="edge13" class="edge"><title>a3b1dacf&#45;d238&#45;46bd&#45;be48&#45;76de17c3e5fb&#45;&gt;b3432ee6&#45;ab9a&#45;4ae9&#45;837d&#45;f402e3ec3e79</title><path fill="none" stroke="#000000" stroke-width="1.56" d="M476.46,-521.97C498.23,-510.95 522.55,-494.27 535,-471 542.55,-456.89 542.29,-449.24 535,-435 528.76,-422.81 516.24,-429.19 510,-417 506.96,-411.07 508.09,-408.39 510,-402 521.15,-364.66 547.8,-328.13 567.28,-304.93"/><polygon fill="#000000" stroke="#000000" stroke-width="1.56" points="569.98,-307.17 573.84,-297.3 564.67,-302.61 569.98,-307.17"/><text text-anchor="middle" x="520.5" y="-405.8" font-family="Times New Roman,serif" font-size="14.00" fill="#000000">489</text></g><!-- a3b1dacf&#45;d238&#45;46bd&#45;be48&#45;76de17c3e5fb&#45;&gt;end_0 --><g id="edge41" class="edge"><title>a3b1dacf&#45;d238&#45;46bd&#45;be48&#45;76de17c3e5fb&#45;&gt;end_0</title><path fill="none" stroke="#000000" stroke-width="1.37" d="M332.8,-533.05C233.46,-524.32 96,-503.33 96,-454 96,-454 96,-454 96,-321.5 96,-177.7 144.6,-107.69 278,-54 327.63,-34.03 483.58,-24.2 555.72,-20.63"/><polygon fill="#000000" stroke="#000000" stroke-width="1.37" points="555.91,-24.13 565.73,-20.15 555.58,-17.14 555.91,-24.13"/><text text-anchor="middle" x="107" y="-275.3" font-family="Times New Roman,serif" font-size="14.00" fill="#000000">59</text></g><!-- 4fcadc6c&#45;a47d&#45;441a&#45;a6c2&#45;3ff8f28c618a&#45;&gt;e1046b91&#45;fbe3&#45;4065&#45;9f74&#45;7690f89a6690 --><g id="edge16" class="edge"><title>4fcadc6c&#45;a47d&#45;441a&#45;a6c2&#45;3ff8f28c618a&#45;&gt;e1046b91&#45;fbe3&#45;4065&#45;9f74&#45;7690f89a6690</title><path fill="none" stroke="#000000" stroke-width="1.44" d="M504.61,-434.89C514.39,-429.3 525.21,-422.99 535,-417 545.41,-410.63 546.66,-406.51 558,-402 600.99,-384.9 652.71,-376.09 691.78,-371.59"/><polygon fill="#000000" stroke="#000000" stroke-width="1.44" points="692.37,-375.05 701.94,-370.48 691.62,-368.09 692.37,-375.05"/><text text-anchor="middle" x="568.5" y="-405.8" font-family="Times New Roman,serif" font-size="14.00" fill="#000000">131</text></g><!-- 4fcadc6c&#45;a47d&#45;441a&#45;a6c2&#45;3ff8f28c618a&#45;&gt;end_0 --><g id="edge42" class="edge"><title>4fcadc6c&#45;a47d&#45;441a&#45;a6c2&#45;3ff8f28c618a&#45;&gt;end_0</title><path fill="none" stroke="#000000" stroke-width="1.53" d="M445.55,-434.87C414.04,-414.24 364.48,-376.49 340,-330 320.4,-292.77 306.13,-176.31 329,-141 380.14,-62.04 496.67,-33.39 556.33,-23.65"/><polygon fill="#000000" stroke="#000000" stroke-width="1.53" points="557.08,-27.07 566.43,-22.09 556.02,-20.15 557.08,-27.07"/><text text-anchor="middle" x="330.5" y="-231.8" font-family="Times New Roman,serif" font-size="14.00" fill="#000000">342</text></g><!-- e1046b91&#45;fbe3&#45;4065&#45;9f74&#45;7690f89a6690&#45;&gt;68741cd3&#45;4603&#45;421d&#45;9cce&#45;73415e508c40 --><g id="edge19" class="edge"><title>e1046b91&#45;fbe3&#45;4065&#45;9f74&#45;7690f89a6690&#45;&gt;68741cd3&#45;4603&#45;421d&#45;9cce&#45;73415e508c40</title><path fill="none" stroke="#000000" stroke-width="1.36" d="M800.04,-374.88C856.78,-384.11 943.33,-398.57 950,-402 978.23,-416.51 1001,-420.26 1001,-452 1001,-715 1001,-715 1001,-715 1001,-736.57 990.16,-758.43 979.63,-774.58"/><polygon fill="#000000" stroke="#000000" stroke-width="1.36" points="976.67,-772.7 973.88,-782.92 982.44,-776.67 976.67,-772.7"/><text text-anchor="middle" x="1008" y="-579.8" font-family="Times New Roman,serif" font-size="14.00" fill="#000000">52</text></g><!-- e1046b91&#45;fbe3&#45;4065&#45;9f74&#45;7690f89a6690&#45;&gt;acbae693&#45;9859&#45;4362&#45;84a3&#45;d5f262b787e5 --><g id="edge18" class="edge"><title>e1046b91&#45;fbe3&#45;4065&#45;9f74&#45;7690f89a6690&#45;&gt;acbae693&#45;9859&#45;4362&#45;84a3&#45;d5f262b787e5</title><path fill="none" stroke="#000000" stroke-width="1.67" d="M800.02,-381.09C832.44,-393.76 869,-416.02 869,-452 869,-628 869,-628 869,-628 869,-651.34 853.9,-672.99 839.11,-688.6"/><polygon fill="#000000" stroke="#000000" stroke-width="1.67" points="836.54,-686.22 831.94,-695.76 841.49,-691.17 836.54,-686.22"/><text text-anchor="middle" x="883" y="-536.3" font-family="Times New Roman,serif" font-size="14.00" fill="#000000">1579</text></g><!-- e1046b91&#45;fbe3&#45;4065&#45;9f74&#45;7690f89a6690&#45;&gt;4ba0d90a&#45;42ba&#45;423e&#45;8a0d&#45;b6c359013bcc --><g id="edge24" class="edge"><title>e1046b91&#45;fbe3&#45;4065&#45;9f74&#45;7690f89a6690&#45;&gt;4ba0d90a&#45;42ba&#45;423e&#45;8a0d&#45;b6c359013bcc</title><path fill="none" stroke="#000000" stroke-width="1.46" d="M756.96,-384.24C758.61,-389.84 760.18,-396.12 761,-402 767.29,-446.93 768.74,-460.18 757,-504 745.74,-546.05 736.9,-555.29 712,-591 709.56,-594.49 706.8,-598.01 703.95,-601.39"/><polygon fill="#000000" stroke="#000000" stroke-width="1.46" points="701.25,-599.16 697.24,-608.96 706.49,-603.8 701.25,-599.16"/><text text-anchor="middle" x="770.5" y="-492.8" font-family="Times New Roman,serif" font-size="14.00" fill="#000000">150</text></g><!-- e1046b91&#45;fbe3&#45;4065&#45;9f74&#45;7690f89a6690&#45;&gt;a3b1dacf&#45;d238&#45;46bd&#45;be48&#45;76de17c3e5fb --><g id="edge20" class="edge"><title>e1046b91&#45;fbe3&#45;4065&#45;9f74&#45;7690f89a6690&#45;&gt;a3b1dacf&#45;d238&#45;46bd&#45;be48&#45;76de17c3e5fb</title><path fill="none" stroke="#000000" stroke-width="1.62" d="M722.68,-384.02C702.83,-396.69 676.32,-415.17 656,-435 628.52,-461.82 636.46,-483.49 604,-504 585.67,-515.58 564.23,-523.42 542.85,-528.71"/><polygon fill="#000000" stroke="#000000" stroke-width="1.62" points="542.01,-525.31 533.04,-530.96 543.57,-532.13 542.01,-525.31"/><text text-anchor="middle" x="666.5" y="-449.3" font-family="Times New Roman,serif" font-size="14.00" fill="#000000">873</text></g><!-- e1046b91&#45;fbe3&#45;4065&#45;9f74&#45;7690f89a6690&#45;&gt;e1046b91&#45;fbe3&#45;4065&#45;9f74&#45;7690f89a6690 --><g id="edge17" class="edge"><title>e1046b91&#45;fbe3&#45;4065&#45;9f74&#45;7690f89a6690&#45;&gt;e1046b91&#45;fbe3&#45;4065&#45;9f74&#45;7690f89a6690</title><path fill="none" stroke="#000000" stroke-width="1.67" d="M800.08,-373.62C810.49,-372.85 818,-370.31 818,-366 818,-363.31 815.06,-361.31 810.32,-360"/><polygon fill="#000000" stroke="#000000" stroke-width="1.67" points="810.5,-356.48 800.08,-358.38 809.41,-363.39 810.5,-356.48"/><text text-anchor="middle" x="832" y="-362.3" font-family="Times New Roman,serif" font-size="14.00" fill="#000000">1641</text></g><!-- e1046b91&#45;fbe3&#45;4065&#45;9f74&#45;7690f89a6690&#45;&gt;b14698d1&#45;a3b3&#45;4c23&#45;86a3&#45;42cbab2ab9ee --><g id="edge22" class="edge"><title>e1046b91&#45;fbe3&#45;4065&#45;9f74&#45;7690f89a6690&#45;&gt;b14698d1&#45;a3b3&#45;4c23&#45;86a3&#45;42cbab2ab9ee</title><path fill="none" stroke="#000000" stroke-width="1.47" d="M771.2,-347.93C775.99,-342.72 780.44,-336.6 783,-330 813.65,-251.07 818.56,-201.18 759,-141 744.21,-126.06 694.31,-116.9 653.05,-111.72"/><polygon fill="#000000" stroke="#000000" stroke-width="1.47" points="653.39,-108.23 643.05,-110.52 652.56,-115.18 653.39,-108.23"/><text text-anchor="middle" x="815.5" y="-231.8" font-family="Times New Roman,serif" font-size="14.00" fill="#000000">173</text></g><!-- e1046b91&#45;fbe3&#45;4065&#45;9f74&#45;7690f89a6690&#45;&gt;4d247d8e&#45;8838&#45;42f1&#45;8e1d&#45;05a470adcaab --><g id="edge21" class="edge"><title>e1046b91&#45;fbe3&#45;4065&#45;9f74&#45;7690f89a6690&#45;&gt;4d247d8e&#45;8838&#45;42f1&#45;8e1d&#45;05a470adcaab</title><path fill="none" stroke="#000000" stroke-width="1.46" d="M746.58,-347.71C739.54,-323.95 723.36,-281.8 693,-261 626.62,-215.52 393.24,-200.12 276.12,-195.18"/><polygon fill="#000000" stroke="#000000" stroke-width="1.46" points="275.97,-191.67 265.84,-194.76 275.69,-198.67 275.97,-191.67"/><text text-anchor="middle" x="734.5" y="-275.3" font-family="Times New Roman,serif" font-size="14.00" fill="#000000">159</text></g><!-- e1046b91&#45;fbe3&#45;4065&#45;9f74&#45;7690f89a6690&#45;&gt;b3432ee6&#45;ab9a&#45;4ae9&#45;837d&#45;f402e3ec3e79 --><g id="edge23" class="edge"><title>e1046b91&#45;fbe3&#45;4065&#45;9f74&#45;7690f89a6690&#45;&gt;b3432ee6&#45;ab9a&#45;4ae9&#45;837d&#45;f402e3ec3e79</title><path fill="none" stroke="#000000" stroke-width="1.42" d="M717.51,-347.83C707.02,-342.29 695.45,-336.03 685,-330 674.1,-323.72 671.99,-321.12 661,-315 652.89,-310.48 644.11,-305.91 635.59,-301.63"/><polygon fill="#000000" stroke="#000000" stroke-width="1.42" points="637,-298.42 626.48,-297.11 633.89,-304.69 637,-298.42"/><text text-anchor="middle" x="695.5" y="-318.8" font-family="Times New Roman,serif" font-size="14.00" fill="#000000">101</text></g><!-- e1046b91&#45;fbe3&#45;4065&#45;9f74&#45;7690f89a6690&#45;&gt;end_0 --><g id="edge44" class="edge"><title>e1046b91&#45;fbe3&#45;4065&#45;9f74&#45;7690f89a6690&#45;&gt;end_0</title><path fill="none" stroke="#000000" stroke-width="1.36" d="M779.84,-347.84C786.76,-342.74 793.68,-336.7 799,-330 842.18,-275.61 844.53,-233.06 808,-174 765.25,-104.88 741.13,-93.32 670,-54 655.59,-46.03 639.03,-38.33 624.97,-32.19"/><polygon fill="#000000" stroke="#000000" stroke-width="1.36" points="626.26,-28.94 615.69,-28.2 623.5,-35.37 626.26,-28.94"/><text text-anchor="middle" x="832" y="-188.3" font-family="Times New Roman,serif" font-size="14.00" fill="#000000">54</text></g><!-- b14698d1&#45;a3b3&#45;4c23&#45;86a3&#45;42cbab2ab9ee&#45;&gt;acbae693&#45;9859&#45;4362&#45;84a3&#45;d5f262b787e5 --><g id="edge26" class="edge"><title>b14698d1&#45;a3b3&#45;4c23&#45;86a3&#45;42cbab2ab9ee&#45;&gt;acbae693&#45;9859&#45;4362&#45;84a3&#45;d5f262b787e5</title><path fill="none" stroke="#000000" stroke-width="1.43" d="M643.29,-107.8C689.56,-110.86 759.36,-119.06 816,-141 875.52,-164.05 925,-170.67 925,-234.5 925,-628 925,-628 925,-628 925,-657.61 899.98,-678.13 873.38,-691.58"/><polygon fill="#000000" stroke="#000000" stroke-width="1.43" points="871.86,-688.43 864.33,-695.88 874.86,-694.75 871.86,-688.43"/><text text-anchor="middle" x="935.5" y="-405.8" font-family="Times New Roman,serif" font-size="14.00" fill="#000000">115</text></g><!-- b14698d1&#45;a3b3&#45;4c23&#45;86a3&#45;42cbab2ab9ee&#45;&gt;a3b1dacf&#45;d238&#45;46bd&#45;be48&#45;76de17c3e5fb --><g id="edge27" class="edge"><title>b14698d1&#45;a3b3&#45;4c23&#45;86a3&#45;42cbab2ab9ee&#45;&gt;a3b1dacf&#45;d238&#45;46bd&#45;be48&#45;76de17c3e5fb</title><path fill="none" stroke="#000000" stroke-width="1.44" d="M542.96,-113.47C504.58,-121.79 453.08,-139 422,-174 377.12,-224.55 377.9,-248.65 365,-315 351.49,-384.48 375.26,-403.64 397,-471 401.89,-486.16 403.63,-489.88 411,-504 412.56,-506.99 414.29,-510.06 416.07,-513.09"/><polygon fill="#000000" stroke="#000000" stroke-width="1.44" points="413.26,-515.19 421.47,-521.88 419.22,-511.52 413.26,-515.19"/><text text-anchor="middle" x="375.5" y="-318.8" font-family="Times New Roman,serif" font-size="14.00" fill="#000000">128</text></g><!-- b14698d1&#45;a3b3&#45;4c23&#45;86a3&#45;42cbab2ab9ee&#45;&gt;4fcadc6c&#45;a47d&#45;441a&#45;a6c2&#45;3ff8f28c618a --><g id="edge25" class="edge"><title>b14698d1&#45;a3b3&#45;4c23&#45;86a3&#45;42cbab2ab9ee&#45;&gt;4fcadc6c&#45;a47d&#45;441a&#45;a6c2&#45;3ff8f28c618a</title><path fill="none" stroke="#000000" stroke-width="1.27" d="M581.79,-123.38C564.29,-151.29 530.58,-208.31 512,-261 492.1,-317.45 481.55,-387.16 476.94,-424.8"/><polygon fill="#000000" stroke="#000000" stroke-width="1.27" points="473.43,-424.62 475.74,-434.96 480.38,-425.44 473.43,-424.62"/><text text-anchor="middle" x="519" y="-275.3" font-family="Times New Roman,serif" font-size="14.00" fill="#000000">19</text></g><!-- b14698d1&#45;a3b3&#45;4c23&#45;86a3&#45;42cbab2ab9ee&#45;&gt;e1046b91&#45;fbe3&#45;4065&#45;9f74&#45;7690f89a6690 --><g id="edge28" class="edge"><title>b14698d1&#45;a3b3&#45;4c23&#45;86a3&#45;42cbab2ab9ee&#45;&gt;e1046b91&#45;fbe3&#45;4065&#45;9f74&#45;7690f89a6690</title><path fill="none" stroke="#000000" stroke-width="1.47" d="M620.03,-123.06C656.97,-148.13 721.74,-198.75 749,-261 759.66,-285.34 758.73,-316.06 756.01,-337.78"/><polygon fill="#000000" stroke="#000000" stroke-width="1.47" points="752.5,-337.55 754.52,-347.95 759.43,-338.56 752.5,-337.55"/><text text-anchor="middle" x="749.5" y="-231.8" font-family="Times New Roman,serif" font-size="14.00" fill="#000000">184</text></g><!-- b14698d1&#45;a3b3&#45;4c23&#45;86a3&#45;42cbab2ab9ee&#45;&gt;end_0 --><g id="edge43" class="edge"><title>b14698d1&#45;a3b3&#45;4c23&#45;86a3&#45;42cbab2ab9ee&#45;&gt;end_0</title><path fill="none" stroke="#000000" stroke-width="1.35" d="M593,-86.8C593,-75.16 593,-59.55 593,-46.24"/><polygon fill="#000000" stroke="#000000" stroke-width="1.35" points="596.5,-46.18 593,-36.18 589.5,-46.18 596.5,-46.18"/><text text-anchor="middle" x="600" y="-57.8" font-family="Times New Roman,serif" font-size="14.00" fill="#000000">44</text></g><!-- 4d247d8e&#45;8838&#45;42f1&#45;8e1d&#45;05a470adcaab&#45;&gt;acbae693&#45;9859&#45;4362&#45;84a3&#45;d5f262b787e5 --><g id="edge33" class="edge"><title>4d247d8e&#45;8838&#45;42f1&#45;8e1d&#45;05a470adcaab&#45;&gt;acbae693&#45;9859&#45;4362&#45;84a3&#45;d5f262b787e5</title><path fill="none" stroke="#000000" stroke-width="1.38" d="M150.34,-193.04C88.78,-196.48 0,-212.76 0,-278 0,-628 0,-628 0,-628 0,-682.51 58.98,-665.31 112,-678 230.33,-706.33 591.32,-711.75 742.87,-712.77"/><polygon fill="#000000" stroke="#000000" stroke-width="1.38" points="742.96,-716.27 752.98,-712.84 743.01,-709.27 742.96,-716.27"/><text text-anchor="middle" x="7" y="-449.3" font-family="Times New Roman,serif" font-size="14.00" fill="#000000">65</text></g><!-- 4d247d8e&#45;8838&#45;42f1&#45;8e1d&#45;05a470adcaab&#45;&gt;4ba0d90a&#45;42ba&#45;423e&#45;8a0d&#45;b6c359013bcc --><g id="edge34" class="edge"><title>4d247d8e&#45;8838&#45;42f1&#45;8e1d&#45;05a470adcaab&#45;&gt;4ba0d90a&#45;42ba&#45;423e&#45;8a0d&#45;b6c359013bcc</title><path fill="none" stroke="#000000" stroke-width="1.35" d="M210.97,-210.31C222.68,-276.41 267.74,-511.52 324,-558 417.96,-635.63 475.17,-587.21 595.27,-607.99"/><polygon fill="#000000" stroke="#000000" stroke-width="1.35" points="594.69,-611.45 605.16,-609.84 595.97,-604.56 594.69,-611.45"/><text text-anchor="middle" x="265" y="-405.8" font-family="Times New Roman,serif" font-size="14.00" fill="#000000">45</text></g><!-- 4d247d8e&#45;8838&#45;42f1&#45;8e1d&#45;05a470adcaab&#45;&gt;a3b1dacf&#45;d238&#45;46bd&#45;be48&#45;76de17c3e5fb --><g id="edge31" class="edge"><title>4d247d8e&#45;8838&#45;42f1&#45;8e1d&#45;05a470adcaab&#45;&gt;a3b1dacf&#45;d238&#45;46bd&#45;be48&#45;76de17c3e5fb</title><path fill="none" stroke="#000000" stroke-width="1.5" d="M201.58,-210.01C187.48,-250.52 158.71,-354.03 206,-417 245.34,-469.39 266.66,-474.19 325,-504 335.7,-509.46 347.42,-514.31 359.07,-518.52"/><polygon fill="#000000" stroke="#000000" stroke-width="1.5" points="358.23,-521.94 368.83,-521.91 360.53,-515.32 358.23,-521.94"/><text text-anchor="middle" x="199.5" y="-362.3" font-family="Times New Roman,serif" font-size="14.00" fill="#000000">247</text></g><!-- 4d247d8e&#45;8838&#45;42f1&#45;8e1d&#45;05a470adcaab&#45;&gt;e1046b91&#45;fbe3&#45;4065&#45;9f74&#45;7690f89a6690 --><g id="edge32" class="edge"><title>4d247d8e&#45;8838&#45;42f1&#45;8e1d&#45;05a470adcaab&#45;&gt;e1046b91&#45;fbe3&#45;4065&#45;9f74&#45;7690f89a6690</title><path fill="none" stroke="#000000" stroke-width="1.49" d="M243.15,-210.03C254.62,-215.67 267.39,-222.03 279,-228 291.56,-234.46 294.08,-237.3 307,-243 438.73,-301.13 604.89,-337.85 691.82,-354.52"/><polygon fill="#000000" stroke="#000000" stroke-width="1.49" points="691.29,-357.98 701.76,-356.4 692.59,-351.1 691.29,-357.98"/><text text-anchor="middle" x="463.5" y="-275.3" font-family="Times New Roman,serif" font-size="14.00" fill="#000000">230</text></g><!-- 4d247d8e&#45;8838&#45;42f1&#45;8e1d&#45;05a470adcaab&#45;&gt;b14698d1&#45;a3b3&#45;4c23&#45;86a3&#45;42cbab2ab9ee --><g id="edge30" class="edge"><title>4d247d8e&#45;8838&#45;42f1&#45;8e1d&#45;05a470adcaab&#45;&gt;b14698d1&#45;a3b3&#45;4c23&#45;86a3&#45;42cbab2ab9ee</title><path fill="none" stroke="#000000" stroke-width="1.26" d="M249.29,-173.91C277.05,-163.04 314.7,-149.45 349,-141 410.81,-125.77 483.17,-116.42 532.95,-111.26"/><polygon fill="#000000" stroke="#000000" stroke-width="1.26" points="533.31,-114.74 542.91,-110.25 532.61,-107.78 533.31,-114.74"/><text text-anchor="middle" x="356" y="-144.8" font-family="Times New Roman,serif" font-size="14.00" fill="#000000">17</text></g><!-- 4d247d8e&#45;8838&#45;42f1&#45;8e1d&#45;05a470adcaab&#45;&gt;4d247d8e&#45;8838&#45;42f1&#45;8e1d&#45;05a470adcaab --><g id="edge29" class="edge"><title>4d247d8e&#45;8838&#45;42f1&#45;8e1d&#45;05a470adcaab&#45;&gt;4d247d8e&#45;8838&#45;42f1&#45;8e1d&#45;05a470adcaab</title><path fill="none" stroke="#000000" stroke-width="1.41" d="M265.61,-199.44C276.12,-198.5 283.5,-196.02 283.5,-192 283.5,-189.42 280.47,-187.48 275.53,-186.17"/><polygon fill="#000000" stroke="#000000" stroke-width="1.41" points="276.04,-182.71 265.61,-184.56 274.92,-189.62 276.04,-182.71"/><text text-anchor="middle" x="290.5" y="-188.3" font-family="Times New Roman,serif" font-size="14.00" fill="#000000">90</text></g><!-- 4d247d8e&#45;8838&#45;42f1&#45;8e1d&#45;05a470adcaab&#45;&gt;end_0 --><g id="edge46" class="edge"><title>4d247d8e&#45;8838&#45;42f1&#45;8e1d&#45;05a470adcaab&#45;&gt;end_0</title><path fill="none" stroke="#000000" stroke-width="1.13" d="M214.24,-173.57C226.02,-143.46 254.59,-82.25 301,-54 342.91,-28.48 486.51,-21.55 555.46,-19.68"/><polygon fill="#000000" stroke="#000000" stroke-width="1.13" points="555.95,-23.17 565.86,-19.42 555.77,-16.17 555.95,-23.17"/><text text-anchor="middle" x="266.5" y="-101.3" font-family="Times New Roman,serif" font-size="14.00" fill="#000000">3</text></g><!-- b3432ee6&#45;ab9a&#45;4ae9&#45;837d&#45;f402e3ec3e79&#45;&gt;a3b1dacf&#45;d238&#45;46bd&#45;be48&#45;76de17c3e5fb --><g id="edge37" class="edge"><title>b3432ee6&#45;ab9a&#45;4ae9&#45;837d&#45;f402e3ec3e79&#45;&gt;a3b1dacf&#45;d238&#45;46bd&#45;be48&#45;76de17c3e5fb</title><path fill="none" stroke="#000000" stroke-width="1.5" d="M590.77,-297.26C591.48,-323.62 590.97,-375.25 579,-417 571.55,-442.99 564.98,-447.86 551,-471 541.75,-486.3 542.15,-493.07 528,-504 521.13,-509.31 513.37,-513.87 505.32,-517.78"/><polygon fill="#000000" stroke="#000000" stroke-width="1.5" points="503.82,-514.61 496.15,-521.92 506.7,-520.99 503.82,-514.61"/><text text-anchor="middle" x="592.5" y="-405.8" font-family="Times New Roman,serif" font-size="14.00" fill="#000000">237</text></g><!-- b3432ee6&#45;ab9a&#45;4ae9&#45;837d&#45;f402e3ec3e79&#45;&gt;e1046b91&#45;fbe3&#45;4065&#45;9f74&#45;7690f89a6690 --><g id="edge38" class="edge"><title>b3432ee6&#45;ab9a&#45;4ae9&#45;837d&#45;f402e3ec3e79&#45;&gt;e1046b91&#45;fbe3&#45;4065&#45;9f74&#45;7690f89a6690</title><path fill="none" stroke="#000000" stroke-width="1.51" d="M601.89,-297.03C610.29,-307.88 622.42,-321.46 636,-330 652.93,-340.64 673.29,-348.22 692.15,-353.54"/><polygon fill="#000000" stroke="#000000" stroke-width="1.51" points="691.28,-356.93 701.84,-356.12 693.08,-350.16 691.28,-356.93"/><text text-anchor="middle" x="646.5" y="-318.8" font-family="Times New Roman,serif" font-size="14.00" fill="#000000">273</text></g><!-- b3432ee6&#45;ab9a&#45;4ae9&#45;837d&#45;f402e3ec3e79&#45;&gt;4d247d8e&#45;8838&#45;42f1&#45;8e1d&#45;05a470adcaab --><g id="edge36" class="edge"><title>b3432ee6&#45;ab9a&#45;4ae9&#45;837d&#45;f402e3ec3e79&#45;&gt;4d247d8e&#45;8838&#45;42f1&#45;8e1d&#45;05a470adcaab</title><path fill="none" stroke="#000000" stroke-width="1.26" d="M534.67,-264.23C530.05,-263.12 525.45,-262.03 521,-261 436.54,-241.43 338.86,-220.47 275.39,-207.08"/><polygon fill="#000000" stroke="#000000" stroke-width="1.26" points="276.01,-203.63 265.51,-205 274.57,-210.48 276.01,-203.63"/><text text-anchor="middle" x="443" y="-231.8" font-family="Times New Roman,serif" font-size="14.00" fill="#000000">16</text></g><!-- b3432ee6&#45;ab9a&#45;4ae9&#45;837d&#45;f402e3ec3e79&#45;&gt;b3432ee6&#45;ab9a&#45;4ae9&#45;837d&#45;f402e3ec3e79 --><g id="edge35" class="edge"><title>b3432ee6&#45;ab9a&#45;4ae9&#45;837d&#45;f402e3ec3e79&#45;&gt;b3432ee6&#45;ab9a&#45;4ae9&#45;837d&#45;f402e3ec3e79</title><path fill="none" stroke="#000000" stroke-width="1.57" d="M645.07,-286.5C655.57,-285.6 663,-283.1 663,-279 663,-276.37 659.95,-274.4 655,-273.09"/><polygon fill="#000000" stroke="#000000" stroke-width="1.57" points="655.5,-269.63 645.07,-271.5 654.39,-276.54 655.5,-269.63"/><text text-anchor="middle" x="673.5" y="-275.3" font-family="Times New Roman,serif" font-size="14.00" fill="#000000">516</text></g><!-- b3432ee6&#45;ab9a&#45;4ae9&#45;837d&#45;f402e3ec3e79&#45;&gt;end_0 --><g id="edge45" class="edge"><title>b3432ee6&#45;ab9a&#45;4ae9&#45;837d&#45;f402e3ec3e79&#45;&gt;end_0</title><path fill="none" stroke="#000000" stroke-width="1.21" d="M645.09,-269.17C687.67,-261.78 740.45,-251.17 747,-243 805.82,-169.62 679.76,-74.76 621,-36.31"/><polygon fill="#000000" stroke="#000000" stroke-width="1.21" points="622.82,-33.32 612.52,-30.85 619.03,-39.21 622.82,-33.32"/><text text-anchor="middle" x="751.5" y="-144.8" font-family="Times New Roman,serif" font-size="14.00" fill="#000000">9</text></g><!-- start_0 --><g id="node10" class="node"><title>start_0</title><ellipse fill="#32cd32" stroke="#000000" cx="1004" cy="-888" rx="27" ry="18"/><text text-anchor="middle" x="1004" y="-886.1" font-family="Times New Roman,serif" font-size="8.00" fill="#32cd32">@@S</text></g><!-- start_0&#45;&gt;68741cd3&#45;4603&#45;421d&#45;9cce&#45;73415e508c40 --><g id="edge39" class="edge"><title>start_0&#45;&gt;68741cd3&#45;4603&#45;421d&#45;9cce&#45;73415e508c40</title><path fill="none" stroke="#000000" stroke-width="1.56" d="M995.52,-870.61C989.31,-858.62 980.75,-842.09 973.6,-828.27"/><polygon fill="#000000" stroke="#000000" stroke-width="1.56" points="976.62,-826.49 968.91,-819.21 970.4,-829.7 976.62,-826.49"/><text text-anchor="middle" x="994.5" y="-840.8" font-family="Times New Roman,serif" font-size="14.00" fill="#000000">486</text></g><!-- start_0&#45;&gt;e1046b91&#45;fbe3&#45;4065&#45;9f74&#45;7690f89a6690 --><g id="edge40" class="edge"><title>start_0&#45;&gt;e1046b91&#45;fbe3&#45;4065&#45;9f74&#45;7690f89a6690</title><path fill="none" stroke="#000000" stroke-width="1.36" d="M1016.9,-872.17C1029.57,-856.05 1047,-828.96 1047,-802 1047,-802 1047,-802 1047,-669.5 1047,-546.83 1089.94,-454.34 979,-402 927.04,-377.49 907.77,-392.81 851,-384 837.76,-381.94 823.55,-379.61 810.12,-377.34"/><polygon fill="#000000" stroke="#000000" stroke-width="1.36" points="810.48,-373.85 800.04,-375.62 809.31,-380.75 810.48,-373.85"/><text text-anchor="middle" x="1056" y="-623.3" font-family="Times New Roman,serif" font-size="14.00" fill="#000000">52</text></g></g></svg>